%TF.GenerationSoftware,KiCad,Pcbnew,8.0.1*%
%TF.CreationDate,2024-04-14T22:55:27+02:00*%
%TF.ProjectId,printhead-pcb,7072696e-7468-4656-9164-2d7063622e6b,rev?*%
%TF.SameCoordinates,Original*%
%TF.FileFunction,Paste,Top*%
%TF.FilePolarity,Positive*%
%FSLAX46Y46*%
G04 Gerber Fmt 4.6, Leading zero omitted, Abs format (unit mm)*
G04 Created by KiCad (PCBNEW 8.0.1) date 2024-04-14 22:55:27*
%MOMM*%
%LPD*%
G01*
G04 APERTURE LIST*
G04 Aperture macros list*
%AMRoundRect*
0 Rectangle with rounded corners*
0 $1 Rounding radius*
0 $2 $3 $4 $5 $6 $7 $8 $9 X,Y pos of 4 corners*
0 Add a 4 corners polygon primitive as box body*
4,1,4,$2,$3,$4,$5,$6,$7,$8,$9,$2,$3,0*
0 Add four circle primitives for the rounded corners*
1,1,$1+$1,$2,$3*
1,1,$1+$1,$4,$5*
1,1,$1+$1,$6,$7*
1,1,$1+$1,$8,$9*
0 Add four rect primitives between the rounded corners*
20,1,$1+$1,$2,$3,$4,$5,0*
20,1,$1+$1,$4,$5,$6,$7,0*
20,1,$1+$1,$6,$7,$8,$9,0*
20,1,$1+$1,$8,$9,$2,$3,0*%
G04 Aperture macros list end*
%ADD10RoundRect,0.243750X-0.243750X-0.456250X0.243750X-0.456250X0.243750X0.456250X-0.243750X0.456250X0*%
%ADD11RoundRect,0.135000X-0.135000X-0.185000X0.135000X-0.185000X0.135000X0.185000X-0.135000X0.185000X0*%
%ADD12RoundRect,0.243750X0.243750X0.456250X-0.243750X0.456250X-0.243750X-0.456250X0.243750X-0.456250X0*%
%ADD13RoundRect,0.250000X-1.250000X-0.550000X1.250000X-0.550000X1.250000X0.550000X-1.250000X0.550000X0*%
%ADD14RoundRect,0.135000X0.135000X0.185000X-0.135000X0.185000X-0.135000X-0.185000X0.135000X-0.185000X0*%
%ADD15RoundRect,0.135000X0.185000X-0.135000X0.185000X0.135000X-0.185000X0.135000X-0.185000X-0.135000X0*%
%ADD16RoundRect,0.218750X-0.218750X-0.256250X0.218750X-0.256250X0.218750X0.256250X-0.218750X0.256250X0*%
%ADD17RoundRect,0.140000X0.140000X0.170000X-0.140000X0.170000X-0.140000X-0.170000X0.140000X-0.170000X0*%
%ADD18RoundRect,0.150000X-0.825000X-0.150000X0.825000X-0.150000X0.825000X0.150000X-0.825000X0.150000X0*%
%ADD19RoundRect,0.140000X-0.140000X-0.170000X0.140000X-0.170000X0.140000X0.170000X-0.140000X0.170000X0*%
G04 APERTURE END LIST*
D10*
%TO.C,D1*%
X131062500Y-67500000D03*
X132937500Y-67500000D03*
%TD*%
D11*
%TO.C,R14*%
X133490000Y-81500000D03*
X134510000Y-81500000D03*
%TD*%
D12*
%TO.C,D2*%
X134937500Y-78000000D03*
X133062500Y-78000000D03*
%TD*%
D11*
%TO.C,R18*%
X128480000Y-80500000D03*
X129500000Y-80500000D03*
%TD*%
D13*
%TO.C,C2*%
X127300000Y-60000000D03*
X131700000Y-60000000D03*
%TD*%
D14*
%TO.C,R16*%
X127010000Y-76000000D03*
X125990000Y-76000000D03*
%TD*%
D15*
%TO.C,R1*%
X132000000Y-64500000D03*
X132000000Y-63480000D03*
%TD*%
D16*
%TO.C,L1*%
X112212500Y-62500000D03*
X113787500Y-62500000D03*
%TD*%
D15*
%TO.C,R19*%
X133500000Y-64510000D03*
X133500000Y-63490000D03*
%TD*%
D17*
%TO.C,C10*%
X126980000Y-71000000D03*
X126020000Y-71000000D03*
%TD*%
D14*
%TO.C,R20*%
X134510000Y-80000000D03*
X133490000Y-80000000D03*
%TD*%
D11*
%TO.C,R17*%
X138490000Y-73500000D03*
X139510000Y-73500000D03*
%TD*%
D16*
%TO.C,L4*%
X121712500Y-76000000D03*
X123287500Y-76000000D03*
%TD*%
D11*
%TO.C,R3*%
X137490000Y-63500000D03*
X138510000Y-63500000D03*
%TD*%
D14*
%TO.C,R15*%
X127010000Y-74000000D03*
X125990000Y-74000000D03*
%TD*%
D12*
%TO.C,D4*%
X134937500Y-75500000D03*
X133062500Y-75500000D03*
%TD*%
%TO.C,D3*%
X136937500Y-67500000D03*
X135062500Y-67500000D03*
%TD*%
D16*
%TO.C,L3*%
X121712500Y-74000000D03*
X123287500Y-74000000D03*
%TD*%
D18*
%TO.C,U4*%
X131525000Y-69595000D03*
X131525000Y-70865000D03*
X131525000Y-72135000D03*
X131525000Y-73405000D03*
X136475000Y-73405000D03*
X136475000Y-72135000D03*
X136475000Y-70865000D03*
X136475000Y-69595000D03*
%TD*%
D17*
%TO.C,C11*%
X126980000Y-80500000D03*
X126020000Y-80500000D03*
%TD*%
D19*
%TO.C,C6*%
X125520000Y-65000000D03*
X126480000Y-65000000D03*
%TD*%
%TO.C,C8*%
X125520000Y-63500000D03*
X126480000Y-63500000D03*
%TD*%
D11*
%TO.C,R2*%
X137490000Y-65000000D03*
X138510000Y-65000000D03*
%TD*%
M02*
