%TF.GenerationSoftware,KiCad,Pcbnew,8.0.1*%
%TF.CreationDate,2024-04-14T22:55:27+02:00*%
%TF.ProjectId,printhead-pcb,7072696e-7468-4656-9164-2d7063622e6b,rev?*%
%TF.SameCoordinates,Original*%
%TF.FileFunction,Copper,L2,Bot*%
%TF.FilePolarity,Positive*%
%FSLAX46Y46*%
G04 Gerber Fmt 4.6, Leading zero omitted, Abs format (unit mm)*
G04 Created by KiCad (PCBNEW 8.0.1) date 2024-04-14 22:55:27*
%MOMM*%
%LPD*%
G01*
G04 APERTURE LIST*
G04 Aperture macros list*
%AMRoundRect*
0 Rectangle with rounded corners*
0 $1 Rounding radius*
0 $2 $3 $4 $5 $6 $7 $8 $9 X,Y pos of 4 corners*
0 Add a 4 corners polygon primitive as box body*
4,1,4,$2,$3,$4,$5,$6,$7,$8,$9,$2,$3,0*
0 Add four circle primitives for the rounded corners*
1,1,$1+$1,$2,$3*
1,1,$1+$1,$4,$5*
1,1,$1+$1,$6,$7*
1,1,$1+$1,$8,$9*
0 Add four rect primitives between the rounded corners*
20,1,$1+$1,$2,$3,$4,$5,0*
20,1,$1+$1,$4,$5,$6,$7,0*
20,1,$1+$1,$6,$7,$8,$9,0*
20,1,$1+$1,$8,$9,$2,$3,0*%
G04 Aperture macros list end*
%TA.AperFunction,ComponentPad*%
%ADD10RoundRect,0.250000X0.750000X-0.600000X0.750000X0.600000X-0.750000X0.600000X-0.750000X-0.600000X0*%
%TD*%
%TA.AperFunction,ComponentPad*%
%ADD11O,2.000000X1.700000*%
%TD*%
%TA.AperFunction,ComponentPad*%
%ADD12C,2.600000*%
%TD*%
%TA.AperFunction,ConnectorPad*%
%ADD13C,4.400000*%
%TD*%
%TA.AperFunction,ComponentPad*%
%ADD14RoundRect,0.250000X0.600000X0.750000X-0.600000X0.750000X-0.600000X-0.750000X0.600000X-0.750000X0*%
%TD*%
%TA.AperFunction,ComponentPad*%
%ADD15O,1.700000X2.000000*%
%TD*%
%TA.AperFunction,ComponentPad*%
%ADD16RoundRect,0.250000X-0.600000X-0.750000X0.600000X-0.750000X0.600000X0.750000X-0.600000X0.750000X0*%
%TD*%
%TA.AperFunction,ComponentPad*%
%ADD17RoundRect,0.250000X-0.600000X-0.725000X0.600000X-0.725000X0.600000X0.725000X-0.600000X0.725000X0*%
%TD*%
%TA.AperFunction,ComponentPad*%
%ADD18O,1.700000X1.950000*%
%TD*%
%TA.AperFunction,SMDPad,CuDef*%
%ADD19RoundRect,0.135000X-0.135000X-0.185000X0.135000X-0.185000X0.135000X0.185000X-0.135000X0.185000X0*%
%TD*%
%TA.AperFunction,SMDPad,CuDef*%
%ADD20RoundRect,0.140000X0.140000X0.170000X-0.140000X0.170000X-0.140000X-0.170000X0.140000X-0.170000X0*%
%TD*%
%TA.AperFunction,SMDPad,CuDef*%
%ADD21R,0.400000X0.450000*%
%TD*%
%TA.AperFunction,SMDPad,CuDef*%
%ADD22R,0.500000X0.450000*%
%TD*%
%TA.AperFunction,SMDPad,CuDef*%
%ADD23RoundRect,0.140000X-0.140000X-0.170000X0.140000X-0.170000X0.140000X0.170000X-0.140000X0.170000X0*%
%TD*%
%TA.AperFunction,SMDPad,CuDef*%
%ADD24RoundRect,0.135000X0.135000X0.185000X-0.135000X0.185000X-0.135000X-0.185000X0.135000X-0.185000X0*%
%TD*%
%TA.AperFunction,SMDPad,CuDef*%
%ADD25RoundRect,0.218750X-0.218750X-0.256250X0.218750X-0.256250X0.218750X0.256250X-0.218750X0.256250X0*%
%TD*%
%TA.AperFunction,SMDPad,CuDef*%
%ADD26R,1.100000X0.250000*%
%TD*%
%TA.AperFunction,SMDPad,CuDef*%
%ADD27RoundRect,0.250000X1.250000X0.550000X-1.250000X0.550000X-1.250000X-0.550000X1.250000X-0.550000X0*%
%TD*%
%TA.AperFunction,SMDPad,CuDef*%
%ADD28R,1.524000X0.330200*%
%TD*%
%TA.AperFunction,ViaPad*%
%ADD29C,0.800000*%
%TD*%
%TA.AperFunction,Conductor*%
%ADD30C,0.250000*%
%TD*%
%TA.AperFunction,Conductor*%
%ADD31C,1.000000*%
%TD*%
G04 APERTURE END LIST*
D10*
%TO.P,J6,1,Pin_1*%
%TO.N,GND*%
X108500000Y-62000000D03*
D11*
%TO.P,J6,2,Pin_2*%
%TO.N,TC0*%
X108500000Y-59500000D03*
%TD*%
D12*
%TO.P,H4,1,1*%
%TO.N,GND*%
X138000000Y-80000000D03*
D13*
X138000000Y-80000000D03*
%TD*%
D14*
%TO.P,J5,1,Pin_1*%
%TO.N,Net-(J5-Pin_1)*%
X116500000Y-66300000D03*
D15*
%TO.P,J5,2,Pin_2*%
%TO.N,+12V*%
X114000000Y-66300000D03*
%TD*%
D16*
%TO.P,J4,1,Pin_1*%
%TO.N,Net-(J4-Pin_1)*%
X118750000Y-54032500D03*
D15*
%TO.P,J4,2,Pin_2*%
%TO.N,+12V*%
X121250000Y-54032500D03*
%TD*%
D12*
%TO.P,H2,1,1*%
%TO.N,GND*%
X113500000Y-80000000D03*
D13*
X113500000Y-80000000D03*
%TD*%
D17*
%TO.P,J1,1,Pin_1*%
%TO.N,+3V3*%
X128000000Y-54000000D03*
D18*
%TO.P,J1,2,Pin_2*%
%TO.N,GND*%
X130500000Y-54000000D03*
%TO.P,J1,3,Pin_3*%
%TO.N,+12V*%
X133000000Y-54000000D03*
%TO.P,J1,4,Pin_4*%
%TO.N,SDA*%
X135500000Y-54000000D03*
%TO.P,J1,5,Pin_5*%
%TO.N,SCL*%
X138000000Y-54000000D03*
%TD*%
D12*
%TO.P,H3,1,1*%
%TO.N,GND*%
X113500000Y-59000000D03*
D13*
X113500000Y-59000000D03*
%TD*%
D14*
%TO.P,J8,1,Pin_1*%
%TO.N,GND*%
X116500000Y-72800000D03*
D15*
%TO.P,J8,2,Pin_2*%
%TO.N,TC2*%
X114000000Y-72800000D03*
%TD*%
D16*
%TO.P,J2,1,Pin_1*%
%TO.N,Net-(J2-Pin_1)*%
X109750000Y-54032500D03*
D15*
%TO.P,J2,2,Pin_2*%
%TO.N,+12V*%
X112250000Y-54032500D03*
%TD*%
D10*
%TO.P,J10,1,Pin_1*%
%TO.N,IO2*%
X108500000Y-80000000D03*
D11*
%TO.P,J10,2,Pin_2*%
%TO.N,+3V3*%
X108500000Y-77500000D03*
%TD*%
D12*
%TO.P,H1,1,1*%
%TO.N,GND*%
X138000000Y-59000000D03*
D13*
X138000000Y-59000000D03*
%TD*%
D10*
%TO.P,J7,1,Pin_1*%
%TO.N,GND*%
X108532500Y-71000000D03*
D11*
%TO.P,J7,2,Pin_2*%
%TO.N,TC1*%
X108532500Y-68500000D03*
%TD*%
D14*
%TO.P,J9,1,Pin_1*%
%TO.N,GND*%
X121750000Y-80000000D03*
D15*
%TO.P,J9,2,Pin_2*%
%TO.N,TC3*%
X119250000Y-80000000D03*
%TD*%
D14*
%TO.P,J3,1,Pin_1*%
%TO.N,Net-(J3-Pin_1)*%
X122000000Y-59500000D03*
D15*
%TO.P,J3,2,Pin_2*%
%TO.N,+12V*%
X119500000Y-59500000D03*
%TD*%
D19*
%TO.P,R11,1*%
%TO.N,Net-(U2-CLK)*%
X126990000Y-76000000D03*
%TO.P,R11,2*%
%TO.N,GND*%
X128010000Y-76000000D03*
%TD*%
D20*
%TO.P,C5,1*%
%TO.N,+12V*%
X129980000Y-64500000D03*
%TO.P,C5,2*%
%TO.N,GND*%
X129020000Y-64500000D03*
%TD*%
D19*
%TO.P,R5,1*%
%TO.N,Net-(U2-TACH1)*%
X126990000Y-74000000D03*
%TO.P,R5,2*%
%TO.N,GND*%
X128010000Y-74000000D03*
%TD*%
D21*
%TO.P,Q3,1,B*%
%TO.N,FAN_1_PWM*%
X123900000Y-64075000D03*
%TO.P,Q3,2,E*%
%TO.N,GND*%
X123100000Y-64075000D03*
D22*
%TO.P,Q3,3,C*%
%TO.N,Net-(J4-Pin_1)*%
X123500000Y-62925000D03*
%TD*%
D19*
%TO.P,R7,1*%
%TO.N,Net-(U2-\u002AALERT)*%
X126990000Y-77000000D03*
%TO.P,R7,2*%
%TO.N,GND*%
X128010000Y-77000000D03*
%TD*%
%TO.P,R9,1*%
%TO.N,Net-(U2-TACH2)*%
X126990000Y-75000000D03*
%TO.P,R9,2*%
%TO.N,GND*%
X128010000Y-75000000D03*
%TD*%
D23*
%TO.P,C7,1*%
%TO.N,ADC0*%
X138520000Y-70500000D03*
%TO.P,C7,2*%
%TO.N,GND*%
X139480000Y-70500000D03*
%TD*%
D19*
%TO.P,R4,1*%
%TO.N,Net-(U1-TACH1)*%
X126990000Y-66000000D03*
%TO.P,R4,2*%
%TO.N,GND*%
X128010000Y-66000000D03*
%TD*%
D24*
%TO.P,R12,1*%
%TO.N,AREF*%
X139510000Y-72000000D03*
%TO.P,R12,2*%
%TO.N,ADC0*%
X138490000Y-72000000D03*
%TD*%
D25*
%TO.P,L2,1,1*%
%TO.N,TC1*%
X114212500Y-76000000D03*
%TO.P,L2,2,2*%
%TO.N,ADC1*%
X115787500Y-76000000D03*
%TD*%
D23*
%TO.P,C4,1*%
%TO.N,+3V3*%
X136520000Y-64000000D03*
%TO.P,C4,2*%
%TO.N,GND*%
X137480000Y-64000000D03*
%TD*%
D19*
%TO.P,R8,1*%
%TO.N,Net-(U1-TACH2)*%
X126990000Y-67000000D03*
%TO.P,R8,2*%
%TO.N,GND*%
X128010000Y-67000000D03*
%TD*%
D21*
%TO.P,Q4,1,B*%
%TO.N,FAN_3_PWM*%
X123900000Y-72075000D03*
%TO.P,Q4,2,E*%
%TO.N,GND*%
X123100000Y-72075000D03*
D22*
%TO.P,Q4,3,C*%
%TO.N,Net-(J5-Pin_1)*%
X123500000Y-70925000D03*
%TD*%
D23*
%TO.P,C9,1*%
%TO.N,ADC1*%
X138520000Y-75000000D03*
%TO.P,C9,2*%
%TO.N,GND*%
X139480000Y-75000000D03*
%TD*%
D26*
%TO.P,U3,1,ADDR*%
%TO.N,GND*%
X136500000Y-70500000D03*
%TO.P,U3,2,ALERT/RDY*%
%TO.N,Net-(D2-A)*%
X136500000Y-71000000D03*
%TO.P,U3,3,GND*%
%TO.N,GND*%
X136500000Y-71500000D03*
%TO.P,U3,4,AIN0*%
%TO.N,ADC0*%
X136500000Y-72000000D03*
%TO.P,U3,5,AIN1*%
%TO.N,ADC1*%
X136500000Y-72500000D03*
%TO.P,U3,6,AIN2*%
%TO.N,ADC2*%
X132200000Y-72500000D03*
%TO.P,U3,7,AIN3*%
%TO.N,ADC3*%
X132200000Y-72000000D03*
%TO.P,U3,8,VDD*%
%TO.N,+3V3*%
X132200000Y-71500000D03*
%TO.P,U3,9,SDA*%
%TO.N,SDA*%
X132200000Y-71000000D03*
%TO.P,U3,10,SCL*%
%TO.N,SCL*%
X132200000Y-70500000D03*
%TD*%
D19*
%TO.P,R6,1*%
%TO.N,Net-(U1-\u002AALERT)*%
X126990000Y-69000000D03*
%TO.P,R6,2*%
%TO.N,GND*%
X128010000Y-69000000D03*
%TD*%
D27*
%TO.P,C1,1*%
%TO.N,+12V*%
X131700000Y-60000000D03*
%TO.P,C1,2*%
%TO.N,GND*%
X127300000Y-60000000D03*
%TD*%
D21*
%TO.P,Q2,1,B*%
%TO.N,FAN_2_PWM*%
X120400000Y-72075000D03*
%TO.P,Q2,2,E*%
%TO.N,GND*%
X119600000Y-72075000D03*
D22*
%TO.P,Q2,3,C*%
%TO.N,Net-(J3-Pin_1)*%
X120000000Y-70925000D03*
%TD*%
D28*
%TO.P,U1,1,SMDATA*%
%TO.N,SDA*%
X119955300Y-68000001D03*
%TO.P,U1,2,SMCLK*%
%TO.N,SCL*%
X119955300Y-67499999D03*
%TO.P,U1,3,VDD*%
%TO.N,+3V3*%
X119955300Y-67000000D03*
%TO.P,U1,4,GND*%
%TO.N,GND*%
X119955300Y-66500001D03*
%TO.P,U1,5,PWM1*%
%TO.N,FAN_0_PWM*%
X119955300Y-65999999D03*
%TO.P,U1,6,TACH1*%
%TO.N,Net-(U1-TACH1)*%
X124044700Y-65999999D03*
%TO.P,U1,7,PWM2*%
%TO.N,FAN_1_PWM*%
X124044700Y-66500001D03*
%TO.P,U1,8,TACH2*%
%TO.N,Net-(U1-TACH2)*%
X124044700Y-67000000D03*
%TO.P,U1,9,CLK*%
%TO.N,Net-(U1-CLK)*%
X124044700Y-67499999D03*
%TO.P,U1,10,\u002AALERT*%
%TO.N,Net-(U1-\u002AALERT)*%
X124044700Y-68000001D03*
%TD*%
D20*
%TO.P,C3,1*%
%TO.N,+12V*%
X129980000Y-63500000D03*
%TO.P,C3,2*%
%TO.N,GND*%
X129020000Y-63500000D03*
%TD*%
D24*
%TO.P,R13,1*%
%TO.N,AREF*%
X139510000Y-73500000D03*
%TO.P,R13,2*%
%TO.N,ADC1*%
X138490000Y-73500000D03*
%TD*%
D21*
%TO.P,Q1,1,B*%
%TO.N,FAN_0_PWM*%
X120400000Y-64075000D03*
%TO.P,Q1,2,E*%
%TO.N,GND*%
X119600000Y-64075000D03*
D22*
%TO.P,Q1,3,C*%
%TO.N,Net-(J2-Pin_1)*%
X120000000Y-62925000D03*
%TD*%
D28*
%TO.P,U2,1,SMDATA*%
%TO.N,SDA*%
X119955300Y-76000001D03*
%TO.P,U2,2,SMCLK*%
%TO.N,SCL*%
X119955300Y-75499999D03*
%TO.P,U2,3,VDD*%
%TO.N,+3V3*%
X119955300Y-75000000D03*
%TO.P,U2,4,GND*%
%TO.N,GND*%
X119955300Y-74500001D03*
%TO.P,U2,5,PWM1*%
%TO.N,FAN_2_PWM*%
X119955300Y-73999999D03*
%TO.P,U2,6,TACH1*%
%TO.N,Net-(U2-TACH1)*%
X124044700Y-73999999D03*
%TO.P,U2,7,PWM2*%
%TO.N,FAN_3_PWM*%
X124044700Y-74500001D03*
%TO.P,U2,8,TACH2*%
%TO.N,Net-(U2-TACH2)*%
X124044700Y-75000000D03*
%TO.P,U2,9,CLK*%
%TO.N,Net-(U2-CLK)*%
X124044700Y-75499999D03*
%TO.P,U2,10,\u002AALERT*%
%TO.N,Net-(U2-\u002AALERT)*%
X124044700Y-76000001D03*
%TD*%
D19*
%TO.P,R10,1*%
%TO.N,Net-(U1-CLK)*%
X126990000Y-68000000D03*
%TO.P,R10,2*%
%TO.N,GND*%
X128010000Y-68000000D03*
%TD*%
D29*
%TO.N,GND*%
X129500000Y-66000000D03*
X136500000Y-74500000D03*
X111500000Y-69000000D03*
X125000000Y-69000000D03*
X109000000Y-73500000D03*
X129020000Y-61720000D03*
X118500000Y-77000000D03*
X124000000Y-81500000D03*
X117000000Y-80000000D03*
X124500000Y-56000000D03*
X109000000Y-57000000D03*
%TO.N,AREF*%
X127500000Y-79175000D03*
%TO.N,ADC0*%
X134422105Y-72077896D03*
%TO.N,ADC2*%
X127500000Y-72500000D03*
%TO.N,ADC3*%
X125000000Y-73000000D03*
%TO.N,SDA*%
X134000000Y-70000000D03*
%TO.N,SCL*%
X134000000Y-61000000D03*
%TO.N,+3V3*%
X135500000Y-69595000D03*
X117500000Y-75175000D03*
X122500000Y-67000000D03*
X134000000Y-66000000D03*
X115750000Y-70250000D03*
X118000000Y-69500000D03*
%TO.N,Net-(D2-A)*%
X131500000Y-75000000D03*
%TO.N,Net-(J3-Pin_1)*%
X116500000Y-63500000D03*
%TO.N,+12V*%
X115500000Y-62500000D03*
%TO.N,Net-(J5-Pin_1)*%
X122000000Y-69500000D03*
%TD*%
D30*
%TO.N,GND*%
X128010000Y-67000000D02*
X128010000Y-68000000D01*
X108500000Y-62000000D02*
X107000000Y-63500000D01*
D31*
X107500000Y-55500000D02*
X109000000Y-57000000D01*
D30*
X109000000Y-73500000D02*
X108532500Y-73032500D01*
X128500000Y-60000000D02*
X127300000Y-60000000D01*
X118575000Y-64075000D02*
X118575000Y-66131701D01*
X128010000Y-74000000D02*
X128000000Y-73990000D01*
D31*
X127300000Y-60000000D02*
X130500000Y-56800000D01*
X133000000Y-51500000D02*
X139500000Y-51500000D01*
D30*
X128010000Y-67000000D02*
X128010000Y-66000000D01*
X137300000Y-70500000D02*
X136500000Y-70500000D01*
X110500000Y-62000000D02*
X113500000Y-59000000D01*
X129020000Y-64500000D02*
X129020000Y-63500000D01*
D31*
X140000000Y-52000000D02*
X140000000Y-57000000D01*
X108500000Y-51500000D02*
X107500000Y-52500000D01*
D30*
X118575000Y-66131701D02*
X118943300Y-66500001D01*
X129020000Y-61720000D02*
X129020000Y-63500000D01*
X137500000Y-70700000D02*
X137300000Y-70500000D01*
X138500000Y-69500000D02*
X137500000Y-69500000D01*
X128010000Y-74000000D02*
X128010000Y-76883568D01*
D31*
X133000000Y-51500000D02*
X130500000Y-54000000D01*
X130500000Y-56800000D02*
X130500000Y-54000000D01*
D30*
X128010000Y-75000000D02*
X128010000Y-74000000D01*
X117243299Y-72800000D02*
X116500000Y-72800000D01*
X113500000Y-78000000D02*
X109000000Y-73500000D01*
X137480000Y-68480000D02*
X137480000Y-64000000D01*
X124062299Y-77595000D02*
X123467299Y-77000000D01*
X122500000Y-77000000D02*
X118500000Y-77000000D01*
X137480000Y-59520000D02*
X138000000Y-59000000D01*
D31*
X111000000Y-59000000D02*
X113500000Y-59000000D01*
X133000000Y-51500000D02*
X108500000Y-51500000D01*
D30*
X128010000Y-77000000D02*
X128010000Y-76000000D01*
X122425000Y-72750000D02*
X122425000Y-76925000D01*
X119955300Y-66500001D02*
X120967300Y-66500001D01*
X120967300Y-66500001D02*
X123100000Y-64367301D01*
X118943300Y-74500001D02*
X117243299Y-72800000D01*
X136500000Y-71500000D02*
X137225000Y-71500000D01*
X137500000Y-69500000D02*
X136500000Y-70500000D01*
X128010000Y-76883568D02*
X127298568Y-77595000D01*
X125000000Y-69000000D02*
X125595000Y-69595000D01*
X113500000Y-80000000D02*
X113500000Y-78000000D01*
X138980000Y-69500000D02*
X139480000Y-70000000D01*
X123100000Y-72075000D02*
X122425000Y-72750000D01*
X128010000Y-69000000D02*
X128010000Y-68000000D01*
X107000000Y-63500000D02*
X107000000Y-69467500D01*
X137500000Y-76000000D02*
X139000000Y-76000000D01*
X137500000Y-71225000D02*
X137500000Y-70700000D01*
X137480000Y-64000000D02*
X137480000Y-59520000D01*
X128010000Y-66000000D02*
X128010000Y-65510000D01*
X108532500Y-73032500D02*
X108532500Y-71000000D01*
X108500000Y-62000000D02*
X110500000Y-62000000D01*
X136500000Y-74500000D02*
X136500000Y-75000000D01*
X128010000Y-65510000D02*
X129020000Y-64500000D01*
D31*
X107500000Y-52500000D02*
X107500000Y-55500000D01*
D30*
X139480000Y-70000000D02*
X139480000Y-70500000D01*
X127415000Y-69595000D02*
X128010000Y-69000000D01*
X119600000Y-64075000D02*
X118575000Y-64075000D01*
X119600000Y-72075000D02*
X117225000Y-72075000D01*
X138500000Y-69500000D02*
X137480000Y-68480000D01*
X119955300Y-74500001D02*
X118943300Y-74500001D01*
X127298568Y-77595000D02*
X124062299Y-77595000D01*
X137225000Y-71500000D02*
X137500000Y-71225000D01*
X107000000Y-69467500D02*
X108532500Y-71000000D01*
X139480000Y-75520000D02*
X139480000Y-75000000D01*
X139000000Y-76000000D02*
X139480000Y-75520000D01*
D31*
X140000000Y-57000000D02*
X138000000Y-59000000D01*
D30*
X122425000Y-76925000D02*
X122500000Y-77000000D01*
X138980000Y-69500000D02*
X138500000Y-69500000D01*
X136500000Y-75000000D02*
X137500000Y-76000000D01*
D31*
X109000000Y-57000000D02*
X111000000Y-59000000D01*
D30*
X128010000Y-76000000D02*
X128010000Y-75000000D01*
X125595000Y-69595000D02*
X127415000Y-69595000D01*
X118943300Y-66500001D02*
X119955300Y-66500001D01*
D31*
X139500000Y-51500000D02*
X140000000Y-52000000D01*
D30*
X117225000Y-72075000D02*
X116500000Y-72800000D01*
X118575000Y-64075000D02*
X113500000Y-59000000D01*
X123100000Y-64367301D02*
X123100000Y-64075000D01*
X123467299Y-77000000D02*
X122500000Y-77000000D01*
X127300000Y-60000000D02*
X129020000Y-61720000D01*
%TO.N,AREF*%
X140535000Y-74025000D02*
X140010000Y-73500000D01*
X139510000Y-72000000D02*
X139510000Y-73500000D01*
X139250000Y-77000000D02*
X140535000Y-75715000D01*
X140010000Y-73500000D02*
X139510000Y-73500000D01*
X127500000Y-79175000D02*
X127575000Y-79250000D01*
X133500000Y-77000000D02*
X139250000Y-77000000D01*
X127575000Y-79250000D02*
X131250000Y-79250000D01*
X131250000Y-79250000D02*
X133500000Y-77000000D01*
X140535000Y-75715000D02*
X140535000Y-74025000D01*
%TO.N,ADC0*%
X134422105Y-72077896D02*
X134500001Y-72000000D01*
X138490000Y-70530000D02*
X138520000Y-70500000D01*
X138490000Y-72000000D02*
X138490000Y-70530000D01*
X134500001Y-72000000D02*
X136500000Y-72000000D01*
X138490000Y-72000000D02*
X136500000Y-72000000D01*
%TO.N,ADC1*%
X131000000Y-78500000D02*
X136500000Y-73000000D01*
X137500000Y-73500000D02*
X136500000Y-72500000D01*
X137500000Y-73500000D02*
X138490000Y-73500000D01*
X115787500Y-76000000D02*
X118287500Y-78500000D01*
X138490000Y-73500000D02*
X138490000Y-74970000D01*
X136500000Y-73000000D02*
X136500000Y-72500000D01*
X118287500Y-78500000D02*
X131000000Y-78500000D01*
X138490000Y-74970000D02*
X138520000Y-75000000D01*
%TO.N,ADC2*%
X127500000Y-72500000D02*
X132200000Y-72500000D01*
%TO.N,ADC3*%
X125000000Y-73000000D02*
X126500000Y-71500000D01*
X126500000Y-71500000D02*
X130000000Y-71500000D01*
X130500000Y-72000000D02*
X132200000Y-72000000D01*
X130000000Y-71500000D02*
X130500000Y-72000000D01*
%TO.N,SDA*%
X135500000Y-54000000D02*
X135000000Y-54500000D01*
X122000000Y-71022351D02*
X119955300Y-68977651D01*
X133000000Y-67000000D02*
X133500000Y-67500000D01*
X121032983Y-76000001D02*
X122000000Y-75032984D01*
X132200000Y-71000000D02*
X124600000Y-71000000D01*
X119955300Y-76000001D02*
X121032983Y-76000001D01*
X122000000Y-75032984D02*
X122000000Y-71022351D01*
X133500000Y-67500000D02*
X133500000Y-69500000D01*
X134000000Y-70000000D02*
X133000000Y-71000000D01*
X121600001Y-68000001D02*
X119955300Y-68000001D01*
X135000000Y-63500000D02*
X133000000Y-65500000D01*
X133500000Y-69500000D02*
X134000000Y-70000000D01*
X135000000Y-54500000D02*
X135000000Y-63500000D01*
X133000000Y-65500000D02*
X133000000Y-67000000D01*
X124600000Y-71000000D02*
X121600001Y-68000001D01*
X133000000Y-71000000D02*
X132200000Y-71000000D01*
X119955300Y-68977651D02*
X119955300Y-68000001D01*
%TO.N,SCL*%
X118500000Y-68500000D02*
X118500000Y-67978201D01*
X132200000Y-62800000D02*
X132200000Y-70500000D01*
X118978202Y-67499999D02*
X119955300Y-67499999D01*
X122045404Y-67499999D02*
X125045405Y-70500000D01*
X119955300Y-75499999D02*
X120967300Y-75499999D01*
X134000000Y-61000000D02*
X132200000Y-62800000D01*
X125045405Y-70500000D02*
X132200000Y-70500000D01*
X121500000Y-71500000D02*
X118500000Y-68500000D01*
X119955300Y-67499999D02*
X122045404Y-67499999D01*
X120967300Y-75499999D02*
X121500000Y-74967299D01*
X121500000Y-74967299D02*
X121500000Y-71500000D01*
X118500000Y-67978201D02*
X118978202Y-67499999D01*
%TO.N,FAN_1_PWM*%
X122533801Y-66000000D02*
X123900000Y-64633801D01*
X124044700Y-66500001D02*
X123033802Y-66500001D01*
X123033802Y-66500001D02*
X122533801Y-66000000D01*
X123900000Y-64633801D02*
X123900000Y-64075000D01*
%TO.N,FAN_0_PWM*%
X120400000Y-65555299D02*
X120400000Y-64075000D01*
X119955300Y-65999999D02*
X120400000Y-65555299D01*
%TO.N,+3V3*%
X115750000Y-70250000D02*
X115375000Y-70625000D01*
X134000000Y-66000000D02*
X136000000Y-64000000D01*
X135500000Y-69595000D02*
X135384719Y-69595000D01*
X117675000Y-75000000D02*
X119955300Y-75000000D01*
X134500000Y-68595000D02*
X135500000Y-69595000D01*
X118000000Y-69500000D02*
X118000000Y-67912516D01*
X118912516Y-67000000D02*
X119955300Y-67000000D01*
X136000000Y-64000000D02*
X136520000Y-64000000D01*
X122500000Y-67000000D02*
X119955300Y-67000000D01*
X133479719Y-71500000D02*
X132200000Y-71500000D01*
X116675000Y-75175000D02*
X117500000Y-75175000D01*
X118000000Y-67912516D02*
X118912516Y-67000000D01*
X135384719Y-69595000D02*
X133479719Y-71500000D01*
X117500000Y-75175000D02*
X117675000Y-75000000D01*
X134500000Y-66500000D02*
X134500000Y-68595000D01*
X134000000Y-66000000D02*
X134500000Y-66500000D01*
X115375000Y-70625000D02*
X115375000Y-73875000D01*
X115375000Y-73875000D02*
X116675000Y-75175000D01*
%TO.N,FAN_2_PWM*%
X119955300Y-73999999D02*
X120400000Y-73555299D01*
X120400000Y-73555299D02*
X120400000Y-72075000D01*
%TO.N,FAN_3_PWM*%
X123000000Y-74432399D02*
X123000000Y-73567599D01*
X123067602Y-74500001D02*
X123000000Y-74432399D01*
X123900000Y-72667599D02*
X123900000Y-72075000D01*
X123000000Y-73567599D02*
X123900000Y-72667599D01*
X124044700Y-74500001D02*
X123067602Y-74500001D01*
%TO.N,Net-(D2-A)*%
X133500000Y-72000000D02*
X133545405Y-72000000D01*
X131500000Y-75000000D02*
X133500000Y-73000000D01*
X133500000Y-73000000D02*
X133500000Y-72000000D01*
X133545405Y-72000000D02*
X134545405Y-71000000D01*
X134545405Y-71000000D02*
X136500000Y-71000000D01*
%TO.N,Net-(J2-Pin_1)*%
X120000000Y-62925000D02*
X117000000Y-59925000D01*
X116000000Y-56000000D02*
X111717500Y-56000000D01*
X117000000Y-57000000D02*
X116000000Y-56000000D01*
X111717500Y-56000000D02*
X109750000Y-54032500D01*
X117000000Y-59925000D02*
X117000000Y-57000000D01*
%TO.N,Net-(J3-Pin_1)*%
X115375000Y-64625000D02*
X115375000Y-68375000D01*
X116500000Y-63500000D02*
X115375000Y-64625000D01*
X117925000Y-70925000D02*
X120000000Y-70925000D01*
X115375000Y-68375000D02*
X117925000Y-70925000D01*
%TO.N,Net-(J4-Pin_1)*%
X118000000Y-54782500D02*
X118750000Y-54032500D01*
X123500000Y-62925000D02*
X120925000Y-62925000D01*
X120925000Y-62925000D02*
X118000000Y-60000000D01*
X118000000Y-60000000D02*
X118000000Y-54782500D01*
%TO.N,Net-(U1-TACH1)*%
X124044700Y-65999999D02*
X126990000Y-66000000D01*
%TO.N,Net-(U2-TACH1)*%
X124044700Y-73999999D02*
X126990000Y-74000000D01*
%TO.N,Net-(U1-\u002AALERT)*%
X125000001Y-68000001D02*
X126000000Y-69000000D01*
X124044700Y-68000001D02*
X125000001Y-68000001D01*
X126000000Y-69000000D02*
X126990000Y-69000000D01*
%TO.N,Net-(U2-\u002AALERT)*%
X124044700Y-76000001D02*
X125000001Y-76000001D01*
X126000000Y-77000000D02*
X126990000Y-77000000D01*
X125000001Y-76000001D02*
X126000000Y-77000000D01*
%TO.N,Net-(U1-TACH2)*%
X124044700Y-67000000D02*
X126990000Y-67000000D01*
%TO.N,Net-(U2-TACH2)*%
X124044700Y-75000000D02*
X126990000Y-75000000D01*
%TO.N,Net-(U1-CLK)*%
X125499999Y-67499999D02*
X126000000Y-68000000D01*
X126000000Y-68000000D02*
X126990000Y-68000000D01*
X124044700Y-67499999D02*
X125499999Y-67499999D01*
%TO.N,Net-(U2-CLK)*%
X125499999Y-75499999D02*
X126000000Y-76000000D01*
X124044700Y-75499999D02*
X125499999Y-75499999D01*
X126000000Y-76000000D02*
X126990000Y-76000000D01*
D31*
%TO.N,+12V*%
X115500000Y-63000000D02*
X115500000Y-62500000D01*
X114000000Y-64500000D02*
X115500000Y-63000000D01*
X131700000Y-60000000D02*
X133000000Y-58700000D01*
D30*
X129980000Y-63500000D02*
X129980000Y-61720000D01*
X129980000Y-64500000D02*
X129980000Y-63500000D01*
D31*
X114000000Y-66300000D02*
X114000000Y-64500000D01*
X133000000Y-58700000D02*
X133000000Y-54000000D01*
D30*
X129980000Y-61720000D02*
X131700000Y-60000000D01*
%TO.N,TC1*%
X114212500Y-76000000D02*
X110500000Y-72287500D01*
X110500000Y-70467500D02*
X108532500Y-68500000D01*
X110500000Y-72287500D02*
X110500000Y-70467500D01*
%TO.N,Net-(J5-Pin_1)*%
X123425000Y-70925000D02*
X122000000Y-69500000D01*
X123500000Y-70925000D02*
X123425000Y-70925000D01*
%TD*%
%TA.AperFunction,Conductor*%
%TO.N,GND*%
G36*
X108782500Y-72349999D02*
G01*
X109332472Y-72349999D01*
X109332486Y-72349998D01*
X109435197Y-72339505D01*
X109601619Y-72284358D01*
X109601626Y-72284355D01*
X109685402Y-72232681D01*
X109752795Y-72214240D01*
X109819458Y-72235162D01*
X109864228Y-72288804D01*
X109874500Y-72338219D01*
X109874500Y-72349110D01*
X109896197Y-72458188D01*
X109898537Y-72469952D01*
X109905125Y-72485857D01*
X109945688Y-72583786D01*
X109963277Y-72610109D01*
X109963278Y-72610112D01*
X109963279Y-72610112D01*
X110014141Y-72686232D01*
X110014144Y-72686236D01*
X110105586Y-72777678D01*
X110105608Y-72777698D01*
X113238181Y-75910271D01*
X113271666Y-75971594D01*
X113274500Y-75997952D01*
X113274500Y-76304181D01*
X113284563Y-76402683D01*
X113337450Y-76562284D01*
X113337455Y-76562295D01*
X113425716Y-76705387D01*
X113425719Y-76705391D01*
X113544608Y-76824280D01*
X113544612Y-76824283D01*
X113687704Y-76912544D01*
X113687707Y-76912545D01*
X113687713Y-76912549D01*
X113847315Y-76965436D01*
X113945826Y-76975500D01*
X113945831Y-76975500D01*
X114479169Y-76975500D01*
X114479174Y-76975500D01*
X114577685Y-76965436D01*
X114737287Y-76912549D01*
X114880391Y-76824281D01*
X114912319Y-76792353D01*
X114973642Y-76758868D01*
X115043334Y-76763852D01*
X115087681Y-76792353D01*
X115119608Y-76824280D01*
X115119612Y-76824283D01*
X115262704Y-76912544D01*
X115262707Y-76912545D01*
X115262713Y-76912549D01*
X115422315Y-76965436D01*
X115520826Y-76975500D01*
X115827048Y-76975500D01*
X115894087Y-76995185D01*
X115914729Y-77011819D01*
X117798516Y-78895606D01*
X117798545Y-78895637D01*
X117888764Y-78985856D01*
X117888767Y-78985858D01*
X117965690Y-79037256D01*
X117991210Y-79054309D01*
X117991212Y-79054310D01*
X117991215Y-79054312D01*
X117991217Y-79054313D01*
X117996588Y-79057184D01*
X117995850Y-79058563D01*
X118044304Y-79097599D01*
X118066377Y-79163890D01*
X118052942Y-79224627D01*
X117998444Y-79331585D01*
X117932753Y-79533760D01*
X117914544Y-79648730D01*
X117899500Y-79743713D01*
X117899500Y-80256287D01*
X117907533Y-80307007D01*
X117932703Y-80465925D01*
X117932754Y-80466243D01*
X117992463Y-80650009D01*
X117998444Y-80668414D01*
X118094951Y-80857820D01*
X118219890Y-81029786D01*
X118370213Y-81180109D01*
X118542179Y-81305048D01*
X118542181Y-81305049D01*
X118542184Y-81305051D01*
X118731588Y-81401557D01*
X118933757Y-81467246D01*
X119143713Y-81500500D01*
X119143714Y-81500500D01*
X119356286Y-81500500D01*
X119356287Y-81500500D01*
X119566243Y-81467246D01*
X119768412Y-81401557D01*
X119957816Y-81305051D01*
X120023897Y-81257041D01*
X120129784Y-81180110D01*
X120129784Y-81180109D01*
X120129792Y-81180104D01*
X120268967Y-81040928D01*
X120330286Y-81007446D01*
X120399978Y-81012430D01*
X120455912Y-81054301D01*
X120462184Y-81063515D01*
X120557684Y-81218345D01*
X120681654Y-81342315D01*
X120830875Y-81434356D01*
X120830880Y-81434358D01*
X120997302Y-81489505D01*
X120997309Y-81489506D01*
X121100019Y-81499999D01*
X121499999Y-81499999D01*
X121500000Y-81499998D01*
X121500000Y-80433012D01*
X121557007Y-80465925D01*
X121684174Y-80500000D01*
X121815826Y-80500000D01*
X121942993Y-80465925D01*
X122000000Y-80433012D01*
X122000000Y-81499999D01*
X122399972Y-81499999D01*
X122399986Y-81499998D01*
X122502697Y-81489505D01*
X122669119Y-81434358D01*
X122669124Y-81434356D01*
X122818345Y-81342315D01*
X122942315Y-81218345D01*
X123034356Y-81069124D01*
X123034358Y-81069119D01*
X123089505Y-80902697D01*
X123089506Y-80902690D01*
X123099999Y-80799986D01*
X123100000Y-80799973D01*
X123100000Y-80250000D01*
X122183012Y-80250000D01*
X122215925Y-80192993D01*
X122250000Y-80065826D01*
X122250000Y-79934174D01*
X122215925Y-79807007D01*
X122183012Y-79750000D01*
X123099999Y-79750000D01*
X123099999Y-79249500D01*
X123119684Y-79182461D01*
X123172488Y-79136706D01*
X123223999Y-79125500D01*
X126477687Y-79125500D01*
X126544726Y-79145185D01*
X126590481Y-79197989D01*
X126601007Y-79236536D01*
X126614326Y-79363256D01*
X126614327Y-79363259D01*
X126672818Y-79543277D01*
X126672821Y-79543284D01*
X126767467Y-79707216D01*
X126894129Y-79847888D01*
X127047265Y-79959148D01*
X127047270Y-79959151D01*
X127220192Y-80036142D01*
X127220197Y-80036144D01*
X127405354Y-80075500D01*
X127405355Y-80075500D01*
X127594644Y-80075500D01*
X127594646Y-80075500D01*
X127779803Y-80036144D01*
X127952730Y-79959151D01*
X127987108Y-79934174D01*
X128035271Y-79899182D01*
X128101077Y-79875702D01*
X128108156Y-79875500D01*
X131311607Y-79875500D01*
X131372029Y-79863481D01*
X131432452Y-79851463D01*
X131472704Y-79834790D01*
X131546286Y-79804312D01*
X131597509Y-79770084D01*
X131648733Y-79735858D01*
X131735858Y-79648733D01*
X131735858Y-79648731D01*
X131746066Y-79638524D01*
X131746067Y-79638521D01*
X133722772Y-77661819D01*
X133784095Y-77628334D01*
X133810453Y-77625500D01*
X136293478Y-77625500D01*
X136360517Y-77645185D01*
X136406272Y-77697989D01*
X136416216Y-77767147D01*
X136387191Y-77830703D01*
X136369950Y-77847111D01*
X136275030Y-77921474D01*
X136275029Y-77921476D01*
X137417262Y-79063709D01*
X137283398Y-79160967D01*
X137160967Y-79283398D01*
X137063709Y-79417262D01*
X135921476Y-78275029D01*
X135921474Y-78275030D01*
X135773886Y-78463416D01*
X135773881Y-78463422D01*
X135604898Y-78742956D01*
X135604897Y-78742958D01*
X135470839Y-79040824D01*
X135470835Y-79040835D01*
X135373667Y-79352658D01*
X135314786Y-79673961D01*
X135295065Y-80000000D01*
X135314786Y-80326038D01*
X135373667Y-80647341D01*
X135470835Y-80959164D01*
X135470839Y-80959175D01*
X135604897Y-81257041D01*
X135604898Y-81257043D01*
X135773881Y-81536576D01*
X135921476Y-81724968D01*
X137063708Y-80582736D01*
X137160967Y-80716602D01*
X137283398Y-80839033D01*
X137417262Y-80936290D01*
X136275030Y-82078522D01*
X136275030Y-82078523D01*
X136463423Y-82226118D01*
X136742956Y-82395101D01*
X136742958Y-82395102D01*
X137040824Y-82529160D01*
X137040835Y-82529164D01*
X137352658Y-82626332D01*
X137673961Y-82685213D01*
X138000000Y-82704934D01*
X138326038Y-82685213D01*
X138647341Y-82626332D01*
X138959164Y-82529164D01*
X138959175Y-82529160D01*
X139257041Y-82395102D01*
X139257043Y-82395101D01*
X139536586Y-82226112D01*
X139724968Y-82078523D01*
X139724968Y-82078522D01*
X138582737Y-80936290D01*
X138716602Y-80839033D01*
X138839033Y-80716602D01*
X138936290Y-80582737D01*
X140078522Y-81724968D01*
X140078523Y-81724968D01*
X140226112Y-81536586D01*
X140395101Y-81257043D01*
X140395102Y-81257041D01*
X140529160Y-80959175D01*
X140529164Y-80959164D01*
X140626332Y-80647341D01*
X140685213Y-80326038D01*
X140704934Y-80000000D01*
X140685213Y-79673961D01*
X140626332Y-79352658D01*
X140529164Y-79040835D01*
X140529160Y-79040824D01*
X140395102Y-78742958D01*
X140395101Y-78742956D01*
X140226118Y-78463423D01*
X140078522Y-78275030D01*
X138936290Y-79417262D01*
X138839033Y-79283398D01*
X138716602Y-79160967D01*
X138582736Y-79063709D01*
X139724968Y-77921476D01*
X139536575Y-77773880D01*
X139536567Y-77773874D01*
X139534815Y-77772815D01*
X139534441Y-77772407D01*
X139533491Y-77771751D01*
X139533641Y-77771533D01*
X139487632Y-77721284D01*
X139475799Y-77652423D01*
X139503073Y-77588097D01*
X139542016Y-77559248D01*
X139540913Y-77557184D01*
X139546278Y-77554315D01*
X139546286Y-77554312D01*
X139597509Y-77520084D01*
X139597511Y-77520083D01*
X139610271Y-77511556D01*
X139648733Y-77485858D01*
X139735858Y-77398733D01*
X139735858Y-77398731D01*
X139746066Y-77388524D01*
X139746067Y-77388521D01*
X140788322Y-76346268D01*
X140849642Y-76312785D01*
X140919334Y-76317769D01*
X140975267Y-76359641D01*
X140999684Y-76425105D01*
X141000000Y-76433951D01*
X141000000Y-82876000D01*
X140980315Y-82943039D01*
X140927511Y-82988794D01*
X140876000Y-83000000D01*
X107124000Y-83000000D01*
X107056961Y-82980315D01*
X107011206Y-82927511D01*
X107000000Y-82876000D01*
X107000000Y-81210730D01*
X107019685Y-81143691D01*
X107072489Y-81097936D01*
X107141647Y-81087992D01*
X107205203Y-81117017D01*
X107211681Y-81123049D01*
X107281344Y-81192712D01*
X107430666Y-81284814D01*
X107597203Y-81339999D01*
X107699991Y-81350500D01*
X109300008Y-81350499D01*
X109402797Y-81339999D01*
X109569334Y-81284814D01*
X109718656Y-81192712D01*
X109842712Y-81068656D01*
X109934814Y-80919334D01*
X109989999Y-80752797D01*
X110000500Y-80650009D01*
X110000499Y-80000000D01*
X110795065Y-80000000D01*
X110814786Y-80326038D01*
X110873667Y-80647341D01*
X110970835Y-80959164D01*
X110970839Y-80959175D01*
X111104897Y-81257041D01*
X111104898Y-81257043D01*
X111273881Y-81536576D01*
X111421476Y-81724968D01*
X112563708Y-80582736D01*
X112660967Y-80716602D01*
X112783398Y-80839033D01*
X112917262Y-80936290D01*
X111775030Y-82078522D01*
X111775030Y-82078523D01*
X111963423Y-82226118D01*
X112242956Y-82395101D01*
X112242958Y-82395102D01*
X112540824Y-82529160D01*
X112540835Y-82529164D01*
X112852658Y-82626332D01*
X113173961Y-82685213D01*
X113500000Y-82704934D01*
X113826038Y-82685213D01*
X114147341Y-82626332D01*
X114459164Y-82529164D01*
X114459175Y-82529160D01*
X114757041Y-82395102D01*
X114757043Y-82395101D01*
X115036586Y-82226112D01*
X115224968Y-82078523D01*
X115224968Y-82078522D01*
X114082737Y-80936290D01*
X114216602Y-80839033D01*
X114339033Y-80716602D01*
X114436290Y-80582737D01*
X115578522Y-81724968D01*
X115578523Y-81724968D01*
X115726112Y-81536586D01*
X115895101Y-81257043D01*
X115895102Y-81257041D01*
X116029160Y-80959175D01*
X116029164Y-80959164D01*
X116126332Y-80647341D01*
X116185213Y-80326038D01*
X116204934Y-80000000D01*
X116185213Y-79673961D01*
X116126332Y-79352658D01*
X116029164Y-79040835D01*
X116029160Y-79040824D01*
X115895102Y-78742958D01*
X115895101Y-78742956D01*
X115726118Y-78463423D01*
X115578522Y-78275030D01*
X114436290Y-79417262D01*
X114339033Y-79283398D01*
X114216602Y-79160967D01*
X114082736Y-79063709D01*
X115224968Y-77921476D01*
X115036576Y-77773881D01*
X114757043Y-77604898D01*
X114757041Y-77604897D01*
X114459175Y-77470839D01*
X114459164Y-77470835D01*
X114147341Y-77373667D01*
X113826038Y-77314786D01*
X113500000Y-77295065D01*
X113173961Y-77314786D01*
X112852658Y-77373667D01*
X112540835Y-77470835D01*
X112540824Y-77470839D01*
X112242958Y-77604897D01*
X112242956Y-77604898D01*
X111963422Y-77773881D01*
X111963416Y-77773886D01*
X111775030Y-77921474D01*
X111775029Y-77921476D01*
X112917262Y-79063709D01*
X112783398Y-79160967D01*
X112660967Y-79283398D01*
X112563709Y-79417262D01*
X111421476Y-78275029D01*
X111421474Y-78275030D01*
X111273886Y-78463416D01*
X111273881Y-78463422D01*
X111104898Y-78742956D01*
X111104897Y-78742958D01*
X110970839Y-79040824D01*
X110970835Y-79040835D01*
X110873667Y-79352658D01*
X110814786Y-79673961D01*
X110795065Y-80000000D01*
X110000499Y-80000000D01*
X110000499Y-79349992D01*
X109989999Y-79247203D01*
X109934814Y-79080666D01*
X109842712Y-78931344D01*
X109718656Y-78807288D01*
X109569334Y-78715186D01*
X109569333Y-78715185D01*
X109563878Y-78711821D01*
X109517154Y-78659873D01*
X109505931Y-78590910D01*
X109533775Y-78526828D01*
X109541272Y-78518623D01*
X109680104Y-78379792D01*
X109805051Y-78207816D01*
X109901557Y-78018412D01*
X109967246Y-77816243D01*
X110000500Y-77606287D01*
X110000500Y-77393713D01*
X109967246Y-77183757D01*
X109901557Y-76981588D01*
X109805051Y-76792184D01*
X109805049Y-76792181D01*
X109805048Y-76792179D01*
X109680109Y-76620213D01*
X109529786Y-76469890D01*
X109357820Y-76344951D01*
X109168414Y-76248444D01*
X109168413Y-76248443D01*
X109168412Y-76248443D01*
X108966243Y-76182754D01*
X108966241Y-76182753D01*
X108966240Y-76182753D01*
X108804957Y-76157208D01*
X108756287Y-76149500D01*
X108243713Y-76149500D01*
X108195042Y-76157208D01*
X108033760Y-76182753D01*
X107831585Y-76248444D01*
X107642179Y-76344951D01*
X107470213Y-76469890D01*
X107319894Y-76620209D01*
X107319890Y-76620214D01*
X107224318Y-76751759D01*
X107168988Y-76794425D01*
X107099375Y-76800404D01*
X107037580Y-76767799D01*
X107003223Y-76706960D01*
X107000000Y-76678874D01*
X107000000Y-72177523D01*
X107019685Y-72110484D01*
X107072489Y-72064729D01*
X107141647Y-72054785D01*
X107205203Y-72083810D01*
X107211681Y-72089842D01*
X107314154Y-72192315D01*
X107463375Y-72284356D01*
X107463380Y-72284358D01*
X107629802Y-72339505D01*
X107629809Y-72339506D01*
X107732519Y-72349999D01*
X108282499Y-72349999D01*
X108282500Y-72349998D01*
X108282500Y-71433012D01*
X108339507Y-71465925D01*
X108466674Y-71500000D01*
X108598326Y-71500000D01*
X108725493Y-71465925D01*
X108782500Y-71433012D01*
X108782500Y-72349999D01*
G37*
%TD.AperFunction*%
%TA.AperFunction,Conductor*%
G36*
X122741062Y-75304733D02*
G01*
X122777782Y-75364176D01*
X122782200Y-75396982D01*
X122782200Y-75712967D01*
X122782201Y-75712977D01*
X122784756Y-75736743D01*
X122784756Y-75763248D01*
X122782200Y-75787022D01*
X122782200Y-76212971D01*
X122782201Y-76212977D01*
X122788608Y-76272584D01*
X122838902Y-76407429D01*
X122838906Y-76407436D01*
X122925152Y-76522645D01*
X122925155Y-76522648D01*
X123040364Y-76608894D01*
X123040371Y-76608898D01*
X123175217Y-76659192D01*
X123175216Y-76659192D01*
X123182144Y-76659936D01*
X123234827Y-76665601D01*
X124729648Y-76665600D01*
X124796687Y-76685285D01*
X124817329Y-76701919D01*
X125511016Y-77395606D01*
X125511045Y-77395637D01*
X125601264Y-77485856D01*
X125601267Y-77485858D01*
X125652490Y-77520084D01*
X125703714Y-77554312D01*
X125725884Y-77563495D01*
X125759926Y-77577596D01*
X125759931Y-77577597D01*
X125759933Y-77577598D01*
X125817548Y-77601463D01*
X125841801Y-77606287D01*
X125938391Y-77625499D01*
X125938392Y-77625500D01*
X125938393Y-77625500D01*
X125938394Y-77625500D01*
X126345404Y-77625500D01*
X126412443Y-77645185D01*
X126433085Y-77661819D01*
X126434085Y-77662819D01*
X126467570Y-77724142D01*
X126462586Y-77793834D01*
X126420714Y-77849767D01*
X126355250Y-77874184D01*
X126346404Y-77874500D01*
X118597952Y-77874500D01*
X118530913Y-77854815D01*
X118510271Y-77838181D01*
X116761819Y-76089729D01*
X116728334Y-76028406D01*
X116725500Y-76002048D01*
X116725500Y-75968735D01*
X116745185Y-75901696D01*
X116797989Y-75855941D01*
X116867147Y-75845997D01*
X116922383Y-75868415D01*
X117029981Y-75946590D01*
X117047270Y-75959151D01*
X117220192Y-76036142D01*
X117220197Y-76036144D01*
X117405354Y-76075500D01*
X117405355Y-76075500D01*
X117594644Y-76075500D01*
X117594646Y-76075500D01*
X117779803Y-76036144D01*
X117952730Y-75959151D01*
X118105871Y-75847888D01*
X118232533Y-75707216D01*
X118243916Y-75687499D01*
X118294482Y-75639285D01*
X118351303Y-75625500D01*
X118572013Y-75625500D01*
X118639052Y-75645185D01*
X118684807Y-75697989D01*
X118695308Y-75736299D01*
X118695361Y-75736794D01*
X118695356Y-75763248D01*
X118692800Y-75787022D01*
X118692800Y-76212971D01*
X118692801Y-76212977D01*
X118699208Y-76272584D01*
X118749502Y-76407429D01*
X118749506Y-76407436D01*
X118835752Y-76522645D01*
X118835755Y-76522648D01*
X118950964Y-76608894D01*
X118950971Y-76608898D01*
X119085817Y-76659192D01*
X119085816Y-76659192D01*
X119092744Y-76659936D01*
X119145427Y-76665601D01*
X120765172Y-76665600D01*
X120824783Y-76659192D01*
X120894152Y-76633319D01*
X120937485Y-76625501D01*
X121094591Y-76625501D01*
X121094591Y-76625500D01*
X121155588Y-76613368D01*
X121215435Y-76601464D01*
X121248775Y-76587653D01*
X121329269Y-76554313D01*
X121380492Y-76520085D01*
X121431716Y-76485859D01*
X121518841Y-76398734D01*
X121518841Y-76398732D01*
X121529049Y-76388525D01*
X121529050Y-76388522D01*
X122485858Y-75431717D01*
X122554312Y-75329269D01*
X122554314Y-75329263D01*
X122555097Y-75328092D01*
X122608709Y-75283286D01*
X122678034Y-75274579D01*
X122741062Y-75304733D01*
G37*
%TD.AperFunction*%
%TA.AperFunction,Conductor*%
G36*
X135400062Y-72645185D02*
G01*
X135445817Y-72697989D01*
X135453266Y-72725134D01*
X135454124Y-72724932D01*
X135455907Y-72732479D01*
X135506202Y-72867328D01*
X135506203Y-72867330D01*
X135545362Y-72919639D01*
X135569779Y-72985103D01*
X135554928Y-73053376D01*
X135533776Y-73081631D01*
X130777229Y-77838181D01*
X130715906Y-77871666D01*
X130689548Y-77874500D01*
X128652888Y-77874500D01*
X128585849Y-77854815D01*
X128540094Y-77802011D01*
X128530150Y-77732853D01*
X128559175Y-77669297D01*
X128565207Y-77662819D01*
X128650731Y-77577294D01*
X128650738Y-77577285D01*
X128732406Y-77439191D01*
X128732407Y-77439188D01*
X128777166Y-77285128D01*
X128777167Y-77285122D01*
X128779931Y-77250000D01*
X127884500Y-77250000D01*
X127817461Y-77230315D01*
X127771706Y-77177511D01*
X127760500Y-77126000D01*
X127760499Y-76750831D01*
X127760498Y-76750806D01*
X127760382Y-76749332D01*
X127760000Y-76739607D01*
X127760000Y-76260408D01*
X127760382Y-76250679D01*
X127760435Y-76250000D01*
X128260000Y-76250000D01*
X128260000Y-76750000D01*
X128779931Y-76750000D01*
X128777167Y-76714877D01*
X128777166Y-76714871D01*
X128732407Y-76560810D01*
X128729308Y-76553648D01*
X128731169Y-76552842D01*
X128716591Y-76495415D01*
X128730806Y-76447000D01*
X128729308Y-76446352D01*
X128732407Y-76439189D01*
X128777166Y-76285128D01*
X128777167Y-76285122D01*
X128779931Y-76250000D01*
X128260000Y-76250000D01*
X127760435Y-76250000D01*
X127760500Y-76249181D01*
X127760499Y-75750820D01*
X127760434Y-75750000D01*
X127760382Y-75749332D01*
X127760000Y-75739607D01*
X127760000Y-75260408D01*
X127760382Y-75250679D01*
X127760435Y-75250000D01*
X128260000Y-75250000D01*
X128260000Y-75750000D01*
X128779931Y-75750000D01*
X128777167Y-75714877D01*
X128777166Y-75714871D01*
X128732407Y-75560810D01*
X128729308Y-75553648D01*
X128731169Y-75552842D01*
X128716591Y-75495415D01*
X128730806Y-75447000D01*
X128729308Y-75446352D01*
X128732407Y-75439189D01*
X128777166Y-75285128D01*
X128777167Y-75285122D01*
X128779931Y-75250000D01*
X128260000Y-75250000D01*
X127760435Y-75250000D01*
X127760500Y-75249181D01*
X127760499Y-74750820D01*
X127760434Y-74750000D01*
X127760382Y-74749332D01*
X127760000Y-74739607D01*
X127760000Y-74260408D01*
X127760382Y-74250679D01*
X127760435Y-74250000D01*
X128260000Y-74250000D01*
X128260000Y-74750000D01*
X128779931Y-74750000D01*
X128777167Y-74714877D01*
X128777166Y-74714871D01*
X128732407Y-74560810D01*
X128729308Y-74553648D01*
X128731169Y-74552842D01*
X128716591Y-74495415D01*
X128730806Y-74447000D01*
X128729308Y-74446352D01*
X128732407Y-74439189D01*
X128777166Y-74285128D01*
X128777167Y-74285122D01*
X128779931Y-74250000D01*
X128260000Y-74250000D01*
X127760435Y-74250000D01*
X127760500Y-74249181D01*
X127760499Y-73873999D01*
X127780183Y-73806961D01*
X127832987Y-73761206D01*
X127884499Y-73750000D01*
X128779931Y-73750000D01*
X128777167Y-73714877D01*
X128777166Y-73714871D01*
X128732407Y-73560811D01*
X128732406Y-73560808D01*
X128650738Y-73422714D01*
X128650731Y-73422705D01*
X128565207Y-73337181D01*
X128531722Y-73275858D01*
X128536706Y-73206166D01*
X128578578Y-73150233D01*
X128644042Y-73125816D01*
X128652888Y-73125500D01*
X132190547Y-73125500D01*
X132257586Y-73145185D01*
X132303341Y-73197989D01*
X132313285Y-73267147D01*
X132284260Y-73330703D01*
X132278228Y-73337181D01*
X131552229Y-74063181D01*
X131490906Y-74096666D01*
X131464548Y-74099500D01*
X131405354Y-74099500D01*
X131372897Y-74106398D01*
X131220197Y-74138855D01*
X131220192Y-74138857D01*
X131047270Y-74215848D01*
X131047265Y-74215851D01*
X130894129Y-74327111D01*
X130767466Y-74467785D01*
X130672821Y-74631715D01*
X130672818Y-74631722D01*
X130629416Y-74765302D01*
X130614326Y-74811744D01*
X130594540Y-75000000D01*
X130614326Y-75188256D01*
X130614327Y-75188259D01*
X130672818Y-75368277D01*
X130672821Y-75368284D01*
X130767467Y-75532216D01*
X130894129Y-75672888D01*
X131047265Y-75784148D01*
X131047270Y-75784151D01*
X131220192Y-75861142D01*
X131220197Y-75861144D01*
X131405354Y-75900500D01*
X131405355Y-75900500D01*
X131594644Y-75900500D01*
X131594646Y-75900500D01*
X131779803Y-75861144D01*
X131952730Y-75784151D01*
X132105871Y-75672888D01*
X132232533Y-75532216D01*
X132327179Y-75368284D01*
X132385674Y-75188256D01*
X132403321Y-75020345D01*
X132429905Y-74955732D01*
X132438952Y-74945636D01*
X133898729Y-73485860D01*
X133898733Y-73485858D01*
X133985858Y-73398733D01*
X134028845Y-73334399D01*
X134054312Y-73296286D01*
X134101463Y-73182451D01*
X134105971Y-73159790D01*
X134121695Y-73080734D01*
X134121695Y-73080733D01*
X134121696Y-73080733D01*
X134121696Y-73080728D01*
X134125064Y-73063795D01*
X134157453Y-73001888D01*
X134218170Y-72967317D01*
X134272456Y-72966705D01*
X134327459Y-72978396D01*
X134327461Y-72978396D01*
X134516749Y-72978396D01*
X134516751Y-72978396D01*
X134701908Y-72939040D01*
X134874835Y-72862047D01*
X135027976Y-72750784D01*
X135061586Y-72713456D01*
X135103843Y-72666527D01*
X135163330Y-72629879D01*
X135195992Y-72625500D01*
X135333023Y-72625500D01*
X135400062Y-72645185D01*
G37*
%TD.AperFunction*%
%TA.AperFunction,Conductor*%
G36*
X136793333Y-73693770D02*
G01*
X136837680Y-73722271D01*
X137101263Y-73985855D01*
X137101267Y-73985858D01*
X137203708Y-74054308D01*
X137203712Y-74054310D01*
X137203715Y-74054312D01*
X137259931Y-74077597D01*
X137259932Y-74077598D01*
X137259933Y-74077598D01*
X137317548Y-74101463D01*
X137335587Y-74105051D01*
X137412692Y-74120388D01*
X137438393Y-74125501D01*
X137438394Y-74125501D01*
X137567721Y-74125501D01*
X137567741Y-74125500D01*
X137740500Y-74125500D01*
X137807539Y-74145185D01*
X137853294Y-74197989D01*
X137864500Y-74249500D01*
X137864500Y-74409492D01*
X137847232Y-74472613D01*
X137787505Y-74573606D01*
X137787504Y-74573609D01*
X137742357Y-74729002D01*
X137742356Y-74729008D01*
X137739500Y-74765302D01*
X137739500Y-75234697D01*
X137742356Y-75270991D01*
X137742357Y-75270997D01*
X137787504Y-75426390D01*
X137787505Y-75426393D01*
X137787506Y-75426395D01*
X137790655Y-75431719D01*
X137869881Y-75565684D01*
X137869887Y-75565692D01*
X137984307Y-75680112D01*
X137984311Y-75680115D01*
X137984313Y-75680117D01*
X138123605Y-75762494D01*
X138164587Y-75774400D01*
X138279002Y-75807642D01*
X138279005Y-75807642D01*
X138279007Y-75807643D01*
X138315310Y-75810500D01*
X138315318Y-75810500D01*
X138724682Y-75810500D01*
X138724690Y-75810500D01*
X138760993Y-75807643D01*
X138760995Y-75807642D01*
X138760997Y-75807642D01*
X138831970Y-75787022D01*
X138916395Y-75762494D01*
X138937369Y-75750089D01*
X139005088Y-75732906D01*
X139063613Y-75750090D01*
X139083804Y-75762031D01*
X139239086Y-75807144D01*
X139239092Y-75807145D01*
X139266827Y-75809328D01*
X139332116Y-75834211D01*
X139373588Y-75890441D01*
X139378075Y-75960167D01*
X139344782Y-76020627D01*
X139256515Y-76108895D01*
X139027227Y-76338182D01*
X138965906Y-76371666D01*
X138939548Y-76374500D01*
X134309452Y-76374500D01*
X134242413Y-76354815D01*
X134196658Y-76302011D01*
X134186714Y-76232853D01*
X134215739Y-76169297D01*
X134221771Y-76162819D01*
X135438963Y-74945627D01*
X136662320Y-73722269D01*
X136723641Y-73688786D01*
X136793333Y-73693770D01*
G37*
%TD.AperFunction*%
%TA.AperFunction,Conductor*%
G36*
X118866505Y-71570185D02*
G01*
X118912260Y-71622989D01*
X118922204Y-71692147D01*
X118915648Y-71717832D01*
X118906403Y-71742617D01*
X118906401Y-71742627D01*
X118900000Y-71802155D01*
X118900000Y-71875000D01*
X119575500Y-71875000D01*
X119642539Y-71894685D01*
X119688294Y-71947489D01*
X119699500Y-71999000D01*
X119699500Y-72347869D01*
X119699501Y-72347876D01*
X119705908Y-72407483D01*
X119756203Y-72542330D01*
X119759329Y-72548054D01*
X119774500Y-72607486D01*
X119774500Y-73210399D01*
X119754815Y-73277438D01*
X119702011Y-73323193D01*
X119650500Y-73334399D01*
X119145429Y-73334399D01*
X119145423Y-73334400D01*
X119085816Y-73340807D01*
X118950971Y-73391101D01*
X118950964Y-73391105D01*
X118835755Y-73477351D01*
X118835752Y-73477354D01*
X118749506Y-73592563D01*
X118749502Y-73592570D01*
X118699210Y-73727412D01*
X118699209Y-73727416D01*
X118692800Y-73787026D01*
X118692800Y-73787033D01*
X118692800Y-73787034D01*
X118692800Y-73787035D01*
X118692801Y-74212967D01*
X118692801Y-74212972D01*
X118695410Y-74237249D01*
X118683002Y-74306008D01*
X118635390Y-74357144D01*
X118572120Y-74374500D01*
X117942367Y-74374500D01*
X117891931Y-74363779D01*
X117779807Y-74313857D01*
X117779802Y-74313855D01*
X117687331Y-74294200D01*
X117625849Y-74261007D01*
X117592073Y-74199844D01*
X117596725Y-74130130D01*
X117625431Y-74085228D01*
X117692317Y-74018342D01*
X117784356Y-73869124D01*
X117784358Y-73869119D01*
X117839505Y-73702697D01*
X117839506Y-73702690D01*
X117849999Y-73599986D01*
X117850000Y-73599973D01*
X117850000Y-73050000D01*
X116933012Y-73050000D01*
X116965925Y-72992993D01*
X117000000Y-72865826D01*
X117000000Y-72734174D01*
X116965925Y-72607007D01*
X116933012Y-72550000D01*
X117849999Y-72550000D01*
X117849999Y-72275000D01*
X118900000Y-72275000D01*
X118900000Y-72347844D01*
X118906401Y-72407372D01*
X118906403Y-72407379D01*
X118956645Y-72542086D01*
X118956649Y-72542093D01*
X119042809Y-72657187D01*
X119042812Y-72657190D01*
X119157906Y-72743350D01*
X119157913Y-72743354D01*
X119292620Y-72793596D01*
X119292627Y-72793598D01*
X119352155Y-72799999D01*
X119352172Y-72800000D01*
X119400000Y-72800000D01*
X119400000Y-72275000D01*
X118900000Y-72275000D01*
X117849999Y-72275000D01*
X117849999Y-72000028D01*
X117849998Y-72000013D01*
X117839505Y-71897302D01*
X117784357Y-71730876D01*
X117782503Y-71726900D01*
X117772015Y-71657822D01*
X117800538Y-71594040D01*
X117859016Y-71555803D01*
X117894888Y-71550501D01*
X117992721Y-71550501D01*
X117992741Y-71550500D01*
X118799466Y-71550500D01*
X118866505Y-71570185D01*
G37*
%TD.AperFunction*%
%TA.AperFunction,Conductor*%
G36*
X140943039Y-49019685D02*
G01*
X140988794Y-49072489D01*
X141000000Y-49124000D01*
X141000000Y-73306048D01*
X140980315Y-73373087D01*
X140927511Y-73418842D01*
X140858353Y-73428786D01*
X140794797Y-73399761D01*
X140788319Y-73393729D01*
X140500198Y-73105608D01*
X140500178Y-73105586D01*
X140408735Y-73014143D01*
X140377081Y-72992993D01*
X140355235Y-72978396D01*
X140355236Y-72978396D01*
X140355234Y-72978394D01*
X140306290Y-72945690D01*
X140306286Y-72945688D01*
X140288674Y-72938393D01*
X140225792Y-72912347D01*
X140225791Y-72912346D01*
X140225788Y-72912344D01*
X140225788Y-72912345D01*
X140212043Y-72906651D01*
X140157641Y-72862808D01*
X140135579Y-72796513D01*
X140135500Y-72792092D01*
X140135500Y-72637958D01*
X140152768Y-72574837D01*
X140171992Y-72542330D01*
X140232869Y-72439393D01*
X140277665Y-72285204D01*
X140280500Y-72249181D01*
X140280499Y-71750820D01*
X140277665Y-71714796D01*
X140232869Y-71560607D01*
X140151135Y-71422402D01*
X140151133Y-71422400D01*
X140151130Y-71422396D01*
X140049597Y-71320863D01*
X140016112Y-71259540D01*
X140021096Y-71189848D01*
X140049597Y-71145501D01*
X140129714Y-71065383D01*
X140129721Y-71065374D01*
X140212031Y-70926195D01*
X140212033Y-70926190D01*
X140257144Y-70770918D01*
X140257145Y-70770912D01*
X140258790Y-70750000D01*
X139424500Y-70750000D01*
X139357461Y-70730315D01*
X139311706Y-70677511D01*
X139300500Y-70626000D01*
X139300500Y-70265317D01*
X139300499Y-70265302D01*
X139299295Y-70250000D01*
X139730000Y-70250000D01*
X140258790Y-70250000D01*
X140257145Y-70229089D01*
X140212031Y-70073804D01*
X140129721Y-69934625D01*
X140129714Y-69934616D01*
X140015383Y-69820285D01*
X140015374Y-69820278D01*
X139876193Y-69737967D01*
X139876190Y-69737965D01*
X139730001Y-69695493D01*
X139730000Y-69695494D01*
X139730000Y-70250000D01*
X139299295Y-70250000D01*
X139297643Y-70229008D01*
X139297642Y-70229002D01*
X139252495Y-70073608D01*
X139252492Y-70073600D01*
X139247266Y-70064763D01*
X139230000Y-70001645D01*
X139230000Y-69695494D01*
X139229998Y-69695493D01*
X139083809Y-69737965D01*
X139083806Y-69737967D01*
X139063608Y-69749912D01*
X138995884Y-69767092D01*
X138937370Y-69749910D01*
X138916397Y-69737507D01*
X138916390Y-69737504D01*
X138760997Y-69692357D01*
X138760991Y-69692356D01*
X138724697Y-69689500D01*
X138724690Y-69689500D01*
X138315310Y-69689500D01*
X138315302Y-69689500D01*
X138279008Y-69692356D01*
X138279002Y-69692357D01*
X138123609Y-69737504D01*
X138123606Y-69737505D01*
X137984315Y-69819881D01*
X137984307Y-69819887D01*
X137869887Y-69934307D01*
X137869881Y-69934315D01*
X137787505Y-70073606D01*
X137787504Y-70073608D01*
X137753458Y-70190793D01*
X137715851Y-70249678D01*
X137652378Y-70278884D01*
X137583192Y-70269137D01*
X137530258Y-70223533D01*
X137518200Y-70199529D01*
X137493355Y-70132915D01*
X137493350Y-70132906D01*
X137407190Y-70017812D01*
X137407187Y-70017809D01*
X137292093Y-69931649D01*
X137292086Y-69931645D01*
X137157379Y-69881403D01*
X137157372Y-69881401D01*
X137097844Y-69875000D01*
X136625000Y-69875000D01*
X136625000Y-70250500D01*
X136605315Y-70317539D01*
X136552511Y-70363294D01*
X136501000Y-70374500D01*
X136499000Y-70374500D01*
X136431961Y-70354815D01*
X136386206Y-70302011D01*
X136375000Y-70250500D01*
X136375000Y-69835746D01*
X136381070Y-69797426D01*
X136383070Y-69791271D01*
X136384376Y-69789360D01*
X136385672Y-69783261D01*
X136385674Y-69783256D01*
X136405460Y-69595000D01*
X136385674Y-69406744D01*
X136327179Y-69226716D01*
X136232533Y-69062784D01*
X136105871Y-68922112D01*
X136105870Y-68922111D01*
X135952734Y-68810851D01*
X135952729Y-68810848D01*
X135779807Y-68733857D01*
X135779802Y-68733855D01*
X135629550Y-68701919D01*
X135594646Y-68694500D01*
X135594645Y-68694500D01*
X135535453Y-68694500D01*
X135468414Y-68674815D01*
X135447772Y-68658181D01*
X135161819Y-68372228D01*
X135128334Y-68310905D01*
X135125500Y-68284547D01*
X135125500Y-66438393D01*
X135125499Y-66438389D01*
X135111920Y-66370121D01*
X135101463Y-66317548D01*
X135058146Y-66212972D01*
X135054312Y-66203715D01*
X135054311Y-66203713D01*
X135054310Y-66203711D01*
X135031031Y-66168874D01*
X135031030Y-66168872D01*
X134985858Y-66101267D01*
X134985856Y-66101264D01*
X134972271Y-66087679D01*
X134938786Y-66026356D01*
X134943770Y-65956664D01*
X134972269Y-65912319D01*
X136070582Y-64814006D01*
X136131903Y-64780523D01*
X136192853Y-64782612D01*
X136279007Y-64807643D01*
X136315310Y-64810500D01*
X136315318Y-64810500D01*
X136724682Y-64810500D01*
X136724690Y-64810500D01*
X136760993Y-64807643D01*
X136760995Y-64807642D01*
X136760997Y-64807642D01*
X136809336Y-64793598D01*
X136916395Y-64762494D01*
X136937369Y-64750089D01*
X137005088Y-64732906D01*
X137063613Y-64750090D01*
X137083803Y-64762031D01*
X137230000Y-64804504D01*
X137230000Y-64498352D01*
X137247267Y-64435233D01*
X137252494Y-64426395D01*
X137260018Y-64400500D01*
X137297642Y-64270997D01*
X137297643Y-64270991D01*
X137297649Y-64270912D01*
X137299295Y-64250000D01*
X137730000Y-64250000D01*
X137730000Y-64804503D01*
X137876195Y-64762031D01*
X138015374Y-64679721D01*
X138015383Y-64679714D01*
X138129714Y-64565383D01*
X138129721Y-64565374D01*
X138212031Y-64426195D01*
X138212033Y-64426190D01*
X138257144Y-64270918D01*
X138257145Y-64270912D01*
X138258790Y-64250000D01*
X137730000Y-64250000D01*
X137299295Y-64250000D01*
X137300500Y-64234690D01*
X137300500Y-63765310D01*
X137299295Y-63750000D01*
X137730000Y-63750000D01*
X138258790Y-63750000D01*
X138257145Y-63729089D01*
X138212031Y-63573804D01*
X138129721Y-63434625D01*
X138129714Y-63434616D01*
X138015383Y-63320285D01*
X138015374Y-63320278D01*
X137876193Y-63237967D01*
X137876190Y-63237965D01*
X137730001Y-63195493D01*
X137730000Y-63195494D01*
X137730000Y-63750000D01*
X137299295Y-63750000D01*
X137297643Y-63729007D01*
X137295857Y-63722861D01*
X137252495Y-63573608D01*
X137252492Y-63573600D01*
X137247266Y-63564763D01*
X137230000Y-63501645D01*
X137230000Y-63195494D01*
X137229998Y-63195493D01*
X137083809Y-63237965D01*
X137083806Y-63237967D01*
X137063608Y-63249912D01*
X136995884Y-63267092D01*
X136937370Y-63249910D01*
X136916397Y-63237507D01*
X136916390Y-63237504D01*
X136760997Y-63192357D01*
X136760991Y-63192356D01*
X136724697Y-63189500D01*
X136724690Y-63189500D01*
X136315310Y-63189500D01*
X136315302Y-63189500D01*
X136279008Y-63192356D01*
X136279002Y-63192357D01*
X136123609Y-63237504D01*
X136123606Y-63237505D01*
X135984318Y-63319879D01*
X135984308Y-63319887D01*
X135954133Y-63350062D01*
X135892809Y-63383547D01*
X135890666Y-63383992D01*
X135877971Y-63386518D01*
X135817548Y-63398537D01*
X135817546Y-63398537D01*
X135817545Y-63398538D01*
X135817539Y-63398539D01*
X135796949Y-63407068D01*
X135727480Y-63414535D01*
X135665001Y-63383258D01*
X135629351Y-63323168D01*
X135625500Y-63292506D01*
X135625500Y-60706521D01*
X135645185Y-60639482D01*
X135697989Y-60593727D01*
X135767147Y-60583783D01*
X135830703Y-60612808D01*
X135847111Y-60630048D01*
X135921476Y-60724968D01*
X137063708Y-59582736D01*
X137160967Y-59716602D01*
X137283398Y-59839033D01*
X137417262Y-59936290D01*
X136275030Y-61078522D01*
X136275030Y-61078523D01*
X136463423Y-61226118D01*
X136742956Y-61395101D01*
X136742958Y-61395102D01*
X137040824Y-61529160D01*
X137040835Y-61529164D01*
X137352658Y-61626332D01*
X137673961Y-61685213D01*
X138000000Y-61704934D01*
X138326038Y-61685213D01*
X138647341Y-61626332D01*
X138959164Y-61529164D01*
X138959175Y-61529160D01*
X139257041Y-61395102D01*
X139257043Y-61395101D01*
X139536586Y-61226112D01*
X139724968Y-61078523D01*
X139724968Y-61078522D01*
X138582737Y-59936290D01*
X138716602Y-59839033D01*
X138839033Y-59716602D01*
X138936290Y-59582737D01*
X140078522Y-60724968D01*
X140078523Y-60724968D01*
X140226112Y-60536586D01*
X140395101Y-60257043D01*
X140395102Y-60257041D01*
X140529160Y-59959175D01*
X140529164Y-59959164D01*
X140626332Y-59647341D01*
X140685213Y-59326038D01*
X140704934Y-59000000D01*
X140685213Y-58673961D01*
X140626332Y-58352658D01*
X140529164Y-58040835D01*
X140529160Y-58040824D01*
X140395102Y-57742958D01*
X140395101Y-57742956D01*
X140226118Y-57463423D01*
X140078522Y-57275030D01*
X138936290Y-58417262D01*
X138839033Y-58283398D01*
X138716602Y-58160967D01*
X138582736Y-58063709D01*
X139724968Y-56921476D01*
X139536576Y-56773881D01*
X139257043Y-56604898D01*
X139257041Y-56604897D01*
X138959175Y-56470839D01*
X138959164Y-56470835D01*
X138647341Y-56373667D01*
X138326038Y-56314786D01*
X138000000Y-56295065D01*
X137673961Y-56314786D01*
X137352658Y-56373667D01*
X137040835Y-56470835D01*
X137040824Y-56470839D01*
X136742958Y-56604897D01*
X136742956Y-56604898D01*
X136463422Y-56773881D01*
X136463416Y-56773886D01*
X136275030Y-56921474D01*
X136275029Y-56921476D01*
X137417262Y-58063709D01*
X137283398Y-58160967D01*
X137160967Y-58283398D01*
X137063709Y-58417262D01*
X135921476Y-57275029D01*
X135921475Y-57275030D01*
X135847111Y-57369950D01*
X135790271Y-57410583D01*
X135720487Y-57414035D01*
X135659914Y-57379211D01*
X135627784Y-57317167D01*
X135625500Y-57293477D01*
X135625500Y-55578362D01*
X135645185Y-55511323D01*
X135697989Y-55465568D01*
X135730103Y-55455889D01*
X135816243Y-55442246D01*
X135841452Y-55434055D01*
X136018412Y-55376557D01*
X136207816Y-55280051D01*
X136229789Y-55264086D01*
X136379786Y-55155109D01*
X136379788Y-55155106D01*
X136379792Y-55155104D01*
X136530104Y-55004792D01*
X136649683Y-54840204D01*
X136705011Y-54797540D01*
X136774624Y-54791561D01*
X136836420Y-54824166D01*
X136850313Y-54840199D01*
X136919407Y-54935299D01*
X136969896Y-55004792D01*
X137120213Y-55155109D01*
X137292179Y-55280048D01*
X137292181Y-55280049D01*
X137292184Y-55280051D01*
X137481588Y-55376557D01*
X137683757Y-55442246D01*
X137893713Y-55475500D01*
X137893714Y-55475500D01*
X138106286Y-55475500D01*
X138106287Y-55475500D01*
X138316243Y-55442246D01*
X138518412Y-55376557D01*
X138707816Y-55280051D01*
X138729789Y-55264086D01*
X138879786Y-55155109D01*
X138879788Y-55155106D01*
X138879792Y-55155104D01*
X139030104Y-55004792D01*
X139030106Y-55004788D01*
X139030109Y-55004786D01*
X139155048Y-54832820D01*
X139155047Y-54832820D01*
X139155051Y-54832816D01*
X139251557Y-54643412D01*
X139317246Y-54441243D01*
X139350500Y-54231287D01*
X139350500Y-53768713D01*
X139317246Y-53558757D01*
X139251557Y-53356588D01*
X139155051Y-53167184D01*
X139155049Y-53167181D01*
X139155048Y-53167179D01*
X139030109Y-52995213D01*
X138879786Y-52844890D01*
X138707820Y-52719951D01*
X138518414Y-52623444D01*
X138518413Y-52623443D01*
X138518412Y-52623443D01*
X138316243Y-52557754D01*
X138316241Y-52557753D01*
X138316240Y-52557753D01*
X138153640Y-52532000D01*
X138106287Y-52524500D01*
X137893713Y-52524500D01*
X137846360Y-52532000D01*
X137683760Y-52557753D01*
X137481585Y-52623444D01*
X137292179Y-52719951D01*
X137120213Y-52844890D01*
X136969894Y-52995209D01*
X136969890Y-52995214D01*
X136850318Y-53159793D01*
X136794989Y-53202459D01*
X136725375Y-53208438D01*
X136663580Y-53175833D01*
X136649682Y-53159793D01*
X136530109Y-52995214D01*
X136530105Y-52995209D01*
X136379786Y-52844890D01*
X136207820Y-52719951D01*
X136018414Y-52623444D01*
X136018413Y-52623443D01*
X136018412Y-52623443D01*
X135816243Y-52557754D01*
X135816241Y-52557753D01*
X135816240Y-52557753D01*
X135653640Y-52532000D01*
X135606287Y-52524500D01*
X135393713Y-52524500D01*
X135346360Y-52532000D01*
X135183760Y-52557753D01*
X134981585Y-52623444D01*
X134792179Y-52719951D01*
X134620213Y-52844890D01*
X134469894Y-52995209D01*
X134469890Y-52995214D01*
X134350318Y-53159793D01*
X134294989Y-53202459D01*
X134225375Y-53208438D01*
X134163580Y-53175833D01*
X134149682Y-53159793D01*
X134030109Y-52995214D01*
X134030105Y-52995209D01*
X133879786Y-52844890D01*
X133707820Y-52719951D01*
X133518414Y-52623444D01*
X133518413Y-52623443D01*
X133518412Y-52623443D01*
X133316243Y-52557754D01*
X133316241Y-52557753D01*
X133316240Y-52557753D01*
X133153640Y-52532000D01*
X133106287Y-52524500D01*
X132893713Y-52524500D01*
X132846360Y-52532000D01*
X132683760Y-52557753D01*
X132481585Y-52623444D01*
X132292179Y-52719951D01*
X132120213Y-52844890D01*
X131969894Y-52995209D01*
X131969890Y-52995214D01*
X131850008Y-53160218D01*
X131794678Y-53202884D01*
X131725065Y-53208863D01*
X131663270Y-53176257D01*
X131649372Y-53160218D01*
X131529727Y-52995540D01*
X131529723Y-52995535D01*
X131379464Y-52845276D01*
X131379459Y-52845272D01*
X131207557Y-52720379D01*
X131018215Y-52623903D01*
X130816124Y-52558241D01*
X130750000Y-52547768D01*
X130750000Y-53595854D01*
X130683343Y-53557370D01*
X130562535Y-53525000D01*
X130437465Y-53525000D01*
X130316657Y-53557370D01*
X130250000Y-53595854D01*
X130250000Y-52547768D01*
X130249999Y-52547768D01*
X130183875Y-52558241D01*
X129981784Y-52623903D01*
X129792442Y-52720379D01*
X129620541Y-52845271D01*
X129481668Y-52984144D01*
X129420345Y-53017628D01*
X129350653Y-53012644D01*
X129294720Y-52970772D01*
X129288448Y-52961558D01*
X129192712Y-52806344D01*
X129068657Y-52682289D01*
X129068656Y-52682288D01*
X128919334Y-52590186D01*
X128752797Y-52535001D01*
X128752795Y-52535000D01*
X128650010Y-52524500D01*
X127349998Y-52524500D01*
X127349981Y-52524501D01*
X127247203Y-52535000D01*
X127247200Y-52535001D01*
X127080668Y-52590185D01*
X127080663Y-52590187D01*
X126931342Y-52682289D01*
X126807289Y-52806342D01*
X126715187Y-52955663D01*
X126715185Y-52955668D01*
X126712700Y-52963168D01*
X126660001Y-53122203D01*
X126660001Y-53122204D01*
X126660000Y-53122204D01*
X126649500Y-53224983D01*
X126649500Y-54775001D01*
X126649501Y-54775018D01*
X126660000Y-54877796D01*
X126660001Y-54877799D01*
X126715185Y-55044331D01*
X126715187Y-55044336D01*
X126733357Y-55073794D01*
X126807288Y-55193656D01*
X126931344Y-55317712D01*
X127080666Y-55409814D01*
X127247203Y-55464999D01*
X127349991Y-55475500D01*
X128650008Y-55475499D01*
X128752797Y-55464999D01*
X128919334Y-55409814D01*
X129068656Y-55317712D01*
X129192712Y-55193656D01*
X129284814Y-55044334D01*
X129284814Y-55044331D01*
X129288448Y-55038441D01*
X129340395Y-54991716D01*
X129409358Y-54980493D01*
X129473440Y-55008336D01*
X129481668Y-55015856D01*
X129620535Y-55154723D01*
X129620540Y-55154727D01*
X129792442Y-55279620D01*
X129981782Y-55376095D01*
X130183871Y-55441757D01*
X130250000Y-55452231D01*
X130250000Y-54404145D01*
X130316657Y-54442630D01*
X130437465Y-54475000D01*
X130562535Y-54475000D01*
X130683343Y-54442630D01*
X130750000Y-54404145D01*
X130750000Y-55452230D01*
X130816126Y-55441757D01*
X130816129Y-55441757D01*
X131018217Y-55376095D01*
X131207557Y-55279620D01*
X131379459Y-55154727D01*
X131379464Y-55154723D01*
X131529721Y-55004466D01*
X131649371Y-54839781D01*
X131704701Y-54797115D01*
X131774314Y-54791136D01*
X131836110Y-54823741D01*
X131850008Y-54839781D01*
X131972759Y-55008734D01*
X131971888Y-55009366D01*
X131998357Y-55068401D01*
X131999500Y-55085199D01*
X131999500Y-58234216D01*
X131979815Y-58301255D01*
X131963181Y-58321897D01*
X131621897Y-58663181D01*
X131560574Y-58696666D01*
X131534216Y-58699500D01*
X130399998Y-58699500D01*
X130399981Y-58699501D01*
X130297203Y-58710000D01*
X130297200Y-58710001D01*
X130130668Y-58765185D01*
X130130663Y-58765187D01*
X129981342Y-58857289D01*
X129857289Y-58981342D01*
X129765187Y-59130663D01*
X129765185Y-59130668D01*
X129765115Y-59130880D01*
X129710001Y-59297203D01*
X129710001Y-59297204D01*
X129710000Y-59297204D01*
X129699500Y-59399983D01*
X129699500Y-60600001D01*
X129699501Y-60600018D01*
X129710000Y-60702796D01*
X129710001Y-60702799D01*
X129744756Y-60807680D01*
X129765186Y-60869334D01*
X129782723Y-60897767D01*
X129801163Y-60965157D01*
X129780241Y-61031821D01*
X129764865Y-61050543D01*
X129589297Y-61226112D01*
X129581269Y-61234140D01*
X129581267Y-61234142D01*
X129494142Y-61321267D01*
X129462726Y-61368284D01*
X129425688Y-61423714D01*
X129425686Y-61423717D01*
X129425685Y-61423719D01*
X129407374Y-61467928D01*
X129378538Y-61537544D01*
X129378535Y-61537556D01*
X129354500Y-61658389D01*
X129354500Y-62570090D01*
X129334815Y-62637129D01*
X129304953Y-62669251D01*
X129270000Y-62695494D01*
X129270000Y-63001645D01*
X129252734Y-63064763D01*
X129247507Y-63073600D01*
X129247504Y-63073608D01*
X129202357Y-63229002D01*
X129202356Y-63229008D01*
X129199500Y-63265302D01*
X129199500Y-63734697D01*
X129202356Y-63770991D01*
X129202357Y-63770997D01*
X129247504Y-63926391D01*
X129247507Y-63926399D01*
X129252732Y-63935233D01*
X129270000Y-63998354D01*
X129270000Y-64001646D01*
X129252734Y-64064764D01*
X129247507Y-64073601D01*
X129247504Y-64073610D01*
X129202357Y-64229002D01*
X129202356Y-64229008D01*
X129199500Y-64265302D01*
X129199500Y-64734697D01*
X129202356Y-64770991D01*
X129202357Y-64770997D01*
X129247503Y-64926389D01*
X129247505Y-64926393D01*
X129247506Y-64926395D01*
X129252732Y-64935233D01*
X129270000Y-64998352D01*
X129270000Y-65304503D01*
X129416194Y-65262032D01*
X129436384Y-65250091D01*
X129504108Y-65232906D01*
X129562629Y-65250089D01*
X129583605Y-65262494D01*
X129624587Y-65274400D01*
X129739002Y-65307642D01*
X129739005Y-65307642D01*
X129739007Y-65307643D01*
X129775310Y-65310500D01*
X129775318Y-65310500D01*
X130184682Y-65310500D01*
X130184690Y-65310500D01*
X130220993Y-65307643D01*
X130220995Y-65307642D01*
X130220997Y-65307642D01*
X130320958Y-65278600D01*
X130376395Y-65262494D01*
X130515687Y-65180117D01*
X130630117Y-65065687D01*
X130712494Y-64926395D01*
X130757643Y-64770993D01*
X130760500Y-64734690D01*
X130760500Y-64265310D01*
X130757643Y-64229007D01*
X130754456Y-64218039D01*
X130712496Y-64073611D01*
X130712495Y-64073610D01*
X130712494Y-64073605D01*
X130706292Y-64063118D01*
X130689110Y-63995400D01*
X130706292Y-63936881D01*
X130712494Y-63926395D01*
X130731139Y-63862218D01*
X130757642Y-63770997D01*
X130757643Y-63770991D01*
X130760500Y-63734690D01*
X130760500Y-63265310D01*
X130757643Y-63229007D01*
X130748598Y-63197876D01*
X130712495Y-63073609D01*
X130712494Y-63073606D01*
X130712494Y-63073605D01*
X130630117Y-62934313D01*
X130626146Y-62927598D01*
X130627789Y-62926626D01*
X130605984Y-62871070D01*
X130605500Y-62860121D01*
X130605500Y-62030451D01*
X130625185Y-61963412D01*
X130641815Y-61942774D01*
X131247771Y-61336817D01*
X131309094Y-61303333D01*
X131335452Y-61300499D01*
X132515548Y-61300499D01*
X132582587Y-61320184D01*
X132628342Y-61372988D01*
X132638286Y-61442146D01*
X132609261Y-61505702D01*
X132603229Y-61512180D01*
X131801269Y-62314140D01*
X131801267Y-62314142D01*
X131772957Y-62342452D01*
X131714142Y-62401266D01*
X131688834Y-62439143D01*
X131688833Y-62439144D01*
X131645690Y-62503709D01*
X131645685Y-62503718D01*
X131598540Y-62617538D01*
X131598538Y-62617545D01*
X131598537Y-62617548D01*
X131598537Y-62617549D01*
X131578985Y-62715851D01*
X131574687Y-62737458D01*
X131574677Y-62737504D01*
X131574500Y-62738392D01*
X131574500Y-69750500D01*
X131554815Y-69817539D01*
X131502011Y-69863294D01*
X131450500Y-69874500D01*
X128652888Y-69874500D01*
X128585849Y-69854815D01*
X128540094Y-69802011D01*
X128530150Y-69732853D01*
X128559175Y-69669297D01*
X128565207Y-69662819D01*
X128650731Y-69577294D01*
X128650738Y-69577285D01*
X128732406Y-69439191D01*
X128732407Y-69439188D01*
X128777166Y-69285128D01*
X128777167Y-69285122D01*
X128779931Y-69250000D01*
X127884500Y-69250000D01*
X127817461Y-69230315D01*
X127771706Y-69177511D01*
X127760500Y-69126000D01*
X127760499Y-68750831D01*
X127760498Y-68750806D01*
X127760382Y-68749332D01*
X127760000Y-68739607D01*
X127760000Y-68260408D01*
X127760382Y-68250679D01*
X127760435Y-68250000D01*
X128260000Y-68250000D01*
X128260000Y-68750000D01*
X128779931Y-68750000D01*
X128777167Y-68714877D01*
X128777166Y-68714871D01*
X128732407Y-68560810D01*
X128729308Y-68553648D01*
X128731169Y-68552842D01*
X128716591Y-68495415D01*
X128730806Y-68447000D01*
X128729308Y-68446352D01*
X128732407Y-68439189D01*
X128777166Y-68285128D01*
X128777167Y-68285122D01*
X128779931Y-68250000D01*
X128260000Y-68250000D01*
X127760435Y-68250000D01*
X127760500Y-68249181D01*
X127760499Y-67750820D01*
X127760434Y-67750000D01*
X127760382Y-67749332D01*
X127760000Y-67739607D01*
X127760000Y-67260408D01*
X127760382Y-67250679D01*
X127760435Y-67250000D01*
X128260000Y-67250000D01*
X128260000Y-67750000D01*
X128779931Y-67750000D01*
X128777167Y-67714877D01*
X128777166Y-67714871D01*
X128732407Y-67560810D01*
X128729308Y-67553648D01*
X128731169Y-67552842D01*
X128716591Y-67495415D01*
X128730806Y-67447000D01*
X128729308Y-67446352D01*
X128732407Y-67439189D01*
X128777166Y-67285128D01*
X128777167Y-67285122D01*
X128779931Y-67250000D01*
X128260000Y-67250000D01*
X127760435Y-67250000D01*
X127760500Y-67249181D01*
X127760499Y-66750820D01*
X127760434Y-66750000D01*
X127760382Y-66749332D01*
X127760000Y-66739607D01*
X127760000Y-66260408D01*
X127760382Y-66250679D01*
X127760435Y-66250000D01*
X128260000Y-66250000D01*
X128260000Y-66750000D01*
X128779931Y-66750000D01*
X128777167Y-66714877D01*
X128777166Y-66714871D01*
X128732407Y-66560810D01*
X128729308Y-66553648D01*
X128731169Y-66552842D01*
X128716591Y-66495415D01*
X128730806Y-66447000D01*
X128729308Y-66446352D01*
X128732407Y-66439189D01*
X128777166Y-66285128D01*
X128777167Y-66285122D01*
X128779931Y-66250000D01*
X128260000Y-66250000D01*
X127760435Y-66250000D01*
X127760500Y-66249181D01*
X127760499Y-65750820D01*
X127760434Y-65750000D01*
X127760382Y-65749332D01*
X127760000Y-65739607D01*
X127760000Y-65187154D01*
X127759998Y-65187153D01*
X127620811Y-65227591D01*
X127620810Y-65227592D01*
X127563611Y-65261419D01*
X127495886Y-65278600D01*
X127437371Y-65261419D01*
X127418215Y-65250090D01*
X127379393Y-65227131D01*
X127379392Y-65227130D01*
X127379391Y-65227130D01*
X127379388Y-65227129D01*
X127225208Y-65182335D01*
X127225202Y-65182334D01*
X127189181Y-65179500D01*
X126790830Y-65179500D01*
X126790808Y-65179501D01*
X126754794Y-65182335D01*
X126600611Y-65227129D01*
X126600606Y-65227131D01*
X126462407Y-65308861D01*
X126462397Y-65308869D01*
X126433085Y-65338181D01*
X126371761Y-65371666D01*
X126345405Y-65374499D01*
X125026886Y-65374499D01*
X124983553Y-65366681D01*
X124914182Y-65340807D01*
X124914183Y-65340807D01*
X124854583Y-65334400D01*
X124854581Y-65334399D01*
X124854573Y-65334399D01*
X124854565Y-65334399D01*
X124383355Y-65334399D01*
X124316316Y-65314714D01*
X124270561Y-65261910D01*
X124260617Y-65192752D01*
X124289642Y-65129196D01*
X124295674Y-65122717D01*
X124298731Y-65119660D01*
X124298733Y-65119659D01*
X124385858Y-65032534D01*
X124436136Y-64957288D01*
X124454312Y-64930087D01*
X124501463Y-64816252D01*
X124502707Y-64810001D01*
X124514641Y-64750000D01*
X128241210Y-64750000D01*
X128242854Y-64770910D01*
X128287968Y-64926195D01*
X128329706Y-64996770D01*
X128346889Y-65064494D01*
X128324729Y-65130757D01*
X128297428Y-65159051D01*
X128260000Y-65187153D01*
X128260000Y-65750000D01*
X128779931Y-65750000D01*
X128777167Y-65714877D01*
X128777166Y-65714871D01*
X128732407Y-65560811D01*
X128732406Y-65560808D01*
X128695534Y-65498460D01*
X128678351Y-65430736D01*
X128700511Y-65364473D01*
X128727814Y-65336178D01*
X128770000Y-65304504D01*
X128770000Y-64750000D01*
X128241210Y-64750000D01*
X124514641Y-64750000D01*
X124525500Y-64695407D01*
X124525500Y-64607486D01*
X124540671Y-64548054D01*
X124543793Y-64542333D01*
X124543796Y-64542331D01*
X124594091Y-64407483D01*
X124600500Y-64347873D01*
X124600500Y-64249999D01*
X128241209Y-64249999D01*
X128241210Y-64250000D01*
X128770000Y-64250000D01*
X128770000Y-63750000D01*
X128241210Y-63750000D01*
X128242854Y-63770910D01*
X128287968Y-63926195D01*
X128287968Y-63926196D01*
X128294288Y-63936882D01*
X128311468Y-64004607D01*
X128294288Y-64063118D01*
X128287968Y-64073803D01*
X128287966Y-64073809D01*
X128242855Y-64229081D01*
X128242854Y-64229087D01*
X128241209Y-64249999D01*
X124600500Y-64249999D01*
X124600499Y-63802128D01*
X124594091Y-63742517D01*
X124591174Y-63734697D01*
X124543797Y-63607671D01*
X124543793Y-63607664D01*
X124457547Y-63492455D01*
X124457544Y-63492452D01*
X124342335Y-63406206D01*
X124342328Y-63406202D01*
X124322253Y-63398715D01*
X124266319Y-63356844D01*
X124241902Y-63291380D01*
X124244004Y-63265275D01*
X124243261Y-63265196D01*
X124244089Y-63257486D01*
X124244091Y-63257483D01*
X124244896Y-63249999D01*
X128241209Y-63249999D01*
X128241210Y-63250000D01*
X128770000Y-63250000D01*
X128770000Y-62695494D01*
X128769998Y-62695493D01*
X128623809Y-62737965D01*
X128623806Y-62737967D01*
X128484625Y-62820278D01*
X128484616Y-62820285D01*
X128370285Y-62934616D01*
X128370278Y-62934625D01*
X128287968Y-63073804D01*
X128287966Y-63073809D01*
X128242855Y-63229081D01*
X128242854Y-63229087D01*
X128241209Y-63249999D01*
X124244896Y-63249999D01*
X124250500Y-63197873D01*
X124250499Y-62652128D01*
X124244091Y-62592517D01*
X124241503Y-62585579D01*
X124193797Y-62457671D01*
X124193793Y-62457664D01*
X124107547Y-62342455D01*
X124107544Y-62342452D01*
X123992335Y-62256206D01*
X123992328Y-62256202D01*
X123857486Y-62205910D01*
X123857485Y-62205909D01*
X123857483Y-62205909D01*
X123797873Y-62199500D01*
X123797863Y-62199500D01*
X123202129Y-62199500D01*
X123202123Y-62199501D01*
X123142516Y-62205908D01*
X123007671Y-62256202D01*
X123007668Y-62256204D01*
X122982872Y-62274767D01*
X122917408Y-62299184D01*
X122908561Y-62299500D01*
X121235453Y-62299500D01*
X121168414Y-62279815D01*
X121147772Y-62263181D01*
X120569804Y-61685213D01*
X119985227Y-61100637D01*
X119951743Y-61039315D01*
X119956727Y-60969623D01*
X119998599Y-60913690D01*
X120016615Y-60902472D01*
X120018408Y-60901558D01*
X120018412Y-60901557D01*
X120207816Y-60805051D01*
X120379792Y-60680104D01*
X120518604Y-60541291D01*
X120579923Y-60507809D01*
X120649615Y-60512793D01*
X120705549Y-60554664D01*
X120711821Y-60563878D01*
X120715185Y-60569333D01*
X120715186Y-60569334D01*
X120807288Y-60718656D01*
X120931344Y-60842712D01*
X121080666Y-60934814D01*
X121247203Y-60989999D01*
X121349991Y-61000500D01*
X122650008Y-61000499D01*
X122752797Y-60989999D01*
X122919334Y-60934814D01*
X123068656Y-60842712D01*
X123192712Y-60718656D01*
X123284814Y-60569334D01*
X123339999Y-60402797D01*
X123350500Y-60300009D01*
X123350500Y-60250000D01*
X125300001Y-60250000D01*
X125300001Y-60599986D01*
X125310494Y-60702697D01*
X125365641Y-60869119D01*
X125365643Y-60869124D01*
X125457684Y-61018345D01*
X125581654Y-61142315D01*
X125730875Y-61234356D01*
X125730880Y-61234358D01*
X125897302Y-61289505D01*
X125897309Y-61289506D01*
X126000019Y-61299999D01*
X127049999Y-61299999D01*
X127050000Y-61299998D01*
X127050000Y-60250000D01*
X127550000Y-60250000D01*
X127550000Y-61299999D01*
X128599972Y-61299999D01*
X128599986Y-61299998D01*
X128702697Y-61289505D01*
X128869119Y-61234358D01*
X128869124Y-61234356D01*
X129018345Y-61142315D01*
X129142315Y-61018345D01*
X129234356Y-60869124D01*
X129234358Y-60869119D01*
X129289505Y-60702697D01*
X129289506Y-60702690D01*
X129299999Y-60599986D01*
X129300000Y-60599973D01*
X129300000Y-60250000D01*
X127550000Y-60250000D01*
X127050000Y-60250000D01*
X125300001Y-60250000D01*
X123350500Y-60250000D01*
X123350500Y-59750000D01*
X125300000Y-59750000D01*
X127050000Y-59750000D01*
X127050000Y-58700000D01*
X127550000Y-58700000D01*
X127550000Y-59750000D01*
X129299999Y-59750000D01*
X129299999Y-59400028D01*
X129299998Y-59400013D01*
X129289505Y-59297302D01*
X129234358Y-59130880D01*
X129234356Y-59130875D01*
X129142315Y-58981654D01*
X129018345Y-58857684D01*
X128869124Y-58765643D01*
X128869119Y-58765641D01*
X128702697Y-58710494D01*
X128702690Y-58710493D01*
X128599986Y-58700000D01*
X127550000Y-58700000D01*
X127050000Y-58700000D01*
X126000028Y-58700000D01*
X126000012Y-58700001D01*
X125897302Y-58710494D01*
X125730880Y-58765641D01*
X125730875Y-58765643D01*
X125581654Y-58857684D01*
X125457684Y-58981654D01*
X125365643Y-59130875D01*
X125365641Y-59130880D01*
X125310494Y-59297302D01*
X125310493Y-59297309D01*
X125300000Y-59400013D01*
X125300000Y-59750000D01*
X123350500Y-59750000D01*
X123350499Y-58699992D01*
X123342349Y-58620213D01*
X123339999Y-58597203D01*
X123339998Y-58597200D01*
X123302104Y-58482845D01*
X123284814Y-58430666D01*
X123192712Y-58281344D01*
X123068656Y-58157288D01*
X122919334Y-58065186D01*
X122752797Y-58010001D01*
X122752795Y-58010000D01*
X122650010Y-57999500D01*
X121349998Y-57999500D01*
X121349981Y-57999501D01*
X121247203Y-58010000D01*
X121247200Y-58010001D01*
X121080668Y-58065185D01*
X121080663Y-58065187D01*
X120931342Y-58157289D01*
X120807289Y-58281342D01*
X120711821Y-58436121D01*
X120659873Y-58482845D01*
X120590910Y-58494068D01*
X120526828Y-58466224D01*
X120518601Y-58458705D01*
X120379786Y-58319890D01*
X120207820Y-58194951D01*
X120018414Y-58098444D01*
X120018413Y-58098443D01*
X120018412Y-58098443D01*
X119816243Y-58032754D01*
X119816241Y-58032753D01*
X119816240Y-58032753D01*
X119654957Y-58007208D01*
X119606287Y-57999500D01*
X119393713Y-57999500D01*
X119345042Y-58007208D01*
X119183760Y-58032753D01*
X119183757Y-58032754D01*
X119045958Y-58077528D01*
X118981582Y-58098445D01*
X118805794Y-58188013D01*
X118737125Y-58200909D01*
X118672385Y-58174632D01*
X118632128Y-58117526D01*
X118625500Y-58077528D01*
X118625500Y-55656999D01*
X118645185Y-55589960D01*
X118697989Y-55544205D01*
X118749500Y-55532999D01*
X119400002Y-55532999D01*
X119400008Y-55532999D01*
X119502797Y-55522499D01*
X119669334Y-55467314D01*
X119818656Y-55375212D01*
X119942712Y-55251156D01*
X120034814Y-55101834D01*
X120034814Y-55101831D01*
X120038178Y-55096379D01*
X120090126Y-55049654D01*
X120159088Y-55038431D01*
X120223170Y-55066274D01*
X120231398Y-55073794D01*
X120370213Y-55212609D01*
X120542179Y-55337548D01*
X120542181Y-55337549D01*
X120542184Y-55337551D01*
X120731588Y-55434057D01*
X120933757Y-55499746D01*
X121143713Y-55533000D01*
X121143714Y-55533000D01*
X121356286Y-55533000D01*
X121356287Y-55533000D01*
X121566243Y-55499746D01*
X121768412Y-55434057D01*
X121957816Y-55337551D01*
X122037552Y-55279620D01*
X122129786Y-55212609D01*
X122129788Y-55212606D01*
X122129792Y-55212604D01*
X122280104Y-55062292D01*
X122280106Y-55062288D01*
X122280109Y-55062286D01*
X122405048Y-54890320D01*
X122405047Y-54890320D01*
X122405051Y-54890316D01*
X122501557Y-54700912D01*
X122567246Y-54498743D01*
X122600500Y-54288787D01*
X122600500Y-53776213D01*
X122567246Y-53566257D01*
X122501557Y-53364088D01*
X122405051Y-53174684D01*
X122405049Y-53174681D01*
X122405048Y-53174679D01*
X122280109Y-53002713D01*
X122129786Y-52852390D01*
X121957820Y-52727451D01*
X121768414Y-52630944D01*
X121768413Y-52630943D01*
X121768412Y-52630943D01*
X121566243Y-52565254D01*
X121566241Y-52565253D01*
X121566240Y-52565253D01*
X121375228Y-52535000D01*
X121356287Y-52532000D01*
X121143713Y-52532000D01*
X121124772Y-52535000D01*
X120933760Y-52565253D01*
X120731585Y-52630944D01*
X120542179Y-52727451D01*
X120370215Y-52852389D01*
X120231398Y-52991206D01*
X120170075Y-53024690D01*
X120100383Y-53019706D01*
X120044450Y-52977834D01*
X120038178Y-52968620D01*
X119942712Y-52813844D01*
X119818657Y-52689789D01*
X119818656Y-52689788D01*
X119669334Y-52597686D01*
X119502797Y-52542501D01*
X119502795Y-52542500D01*
X119400010Y-52532000D01*
X118099998Y-52532000D01*
X118099981Y-52532001D01*
X117997203Y-52542500D01*
X117997200Y-52542501D01*
X117830668Y-52597685D01*
X117830663Y-52597687D01*
X117681342Y-52689789D01*
X117557289Y-52813842D01*
X117465187Y-52963163D01*
X117465185Y-52963168D01*
X117447139Y-53017628D01*
X117410001Y-53129703D01*
X117410001Y-53129704D01*
X117410000Y-53129704D01*
X117399500Y-53232483D01*
X117399500Y-54582994D01*
X117397118Y-54607179D01*
X117389912Y-54643412D01*
X117389305Y-54646467D01*
X117378476Y-54700908D01*
X117378475Y-54700914D01*
X117374500Y-54720894D01*
X117374500Y-56190547D01*
X117354815Y-56257586D01*
X117302011Y-56303341D01*
X117232853Y-56313285D01*
X117169297Y-56284260D01*
X117162819Y-56278228D01*
X116492928Y-55608338D01*
X116492925Y-55608334D01*
X116492925Y-55608335D01*
X116485858Y-55601268D01*
X116485858Y-55601267D01*
X116398733Y-55514142D01*
X116398732Y-55514141D01*
X116398731Y-55514140D01*
X116340900Y-55475499D01*
X116340899Y-55475498D01*
X116296290Y-55445690D01*
X116296286Y-55445688D01*
X116287976Y-55442246D01*
X116209677Y-55409814D01*
X116209675Y-55409812D01*
X116182458Y-55398539D01*
X116182454Y-55398537D01*
X116182452Y-55398537D01*
X116182448Y-55398536D01*
X116182444Y-55398535D01*
X116071948Y-55376556D01*
X116071947Y-55376556D01*
X116061611Y-55374500D01*
X116061607Y-55374500D01*
X116061606Y-55374500D01*
X113267258Y-55374500D01*
X113200219Y-55354815D01*
X113154464Y-55302011D01*
X113144520Y-55232853D01*
X113173545Y-55169297D01*
X113179577Y-55162819D01*
X113187673Y-55154723D01*
X113280104Y-55062292D01*
X113280106Y-55062288D01*
X113280109Y-55062286D01*
X113405048Y-54890320D01*
X113405047Y-54890320D01*
X113405051Y-54890316D01*
X113501557Y-54700912D01*
X113567246Y-54498743D01*
X113600500Y-54288787D01*
X113600500Y-53776213D01*
X113567246Y-53566257D01*
X113501557Y-53364088D01*
X113405051Y-53174684D01*
X113405049Y-53174681D01*
X113405048Y-53174679D01*
X113280109Y-53002713D01*
X113129786Y-52852390D01*
X112957820Y-52727451D01*
X112768414Y-52630944D01*
X112768413Y-52630943D01*
X112768412Y-52630943D01*
X112566243Y-52565254D01*
X112566241Y-52565253D01*
X112566240Y-52565253D01*
X112375228Y-52535000D01*
X112356287Y-52532000D01*
X112143713Y-52532000D01*
X112124772Y-52535000D01*
X111933760Y-52565253D01*
X111731585Y-52630944D01*
X111542179Y-52727451D01*
X111370215Y-52852389D01*
X111231398Y-52991206D01*
X111170075Y-53024690D01*
X111100383Y-53019706D01*
X111044450Y-52977834D01*
X111038178Y-52968620D01*
X110942712Y-52813844D01*
X110818657Y-52689789D01*
X110818656Y-52689788D01*
X110669334Y-52597686D01*
X110502797Y-52542501D01*
X110502795Y-52542500D01*
X110400010Y-52532000D01*
X109099998Y-52532000D01*
X109099981Y-52532001D01*
X108997203Y-52542500D01*
X108997200Y-52542501D01*
X108830668Y-52597685D01*
X108830663Y-52597687D01*
X108681342Y-52689789D01*
X108557289Y-52813842D01*
X108465187Y-52963163D01*
X108465185Y-52963168D01*
X108447139Y-53017628D01*
X108410001Y-53129703D01*
X108410001Y-53129704D01*
X108410000Y-53129704D01*
X108399500Y-53232483D01*
X108399500Y-54832501D01*
X108399501Y-54832518D01*
X108410000Y-54935296D01*
X108410001Y-54935299D01*
X108454107Y-55068401D01*
X108465186Y-55101834D01*
X108557288Y-55251156D01*
X108681344Y-55375212D01*
X108830666Y-55467314D01*
X108997203Y-55522499D01*
X109099991Y-55533000D01*
X110314547Y-55532999D01*
X110381586Y-55552684D01*
X110402228Y-55569318D01*
X111228516Y-56395606D01*
X111228545Y-56395637D01*
X111318763Y-56485855D01*
X111318767Y-56485858D01*
X111421207Y-56554307D01*
X111421213Y-56554310D01*
X111421214Y-56554311D01*
X111535048Y-56601463D01*
X111595471Y-56613481D01*
X111655893Y-56625500D01*
X111655894Y-56625500D01*
X111793478Y-56625500D01*
X111860517Y-56645185D01*
X111906272Y-56697989D01*
X111916216Y-56767147D01*
X111887191Y-56830703D01*
X111869950Y-56847111D01*
X111775030Y-56921474D01*
X111775029Y-56921476D01*
X112917262Y-58063709D01*
X112783398Y-58160967D01*
X112660967Y-58283398D01*
X112563709Y-58417262D01*
X111421476Y-57275029D01*
X111421474Y-57275030D01*
X111273886Y-57463416D01*
X111273881Y-57463422D01*
X111104898Y-57742956D01*
X111104897Y-57742958D01*
X110970839Y-58040824D01*
X110970835Y-58040835D01*
X110873667Y-58352658D01*
X110814786Y-58673961D01*
X110795065Y-59000000D01*
X110814786Y-59326038D01*
X110873667Y-59647341D01*
X110970835Y-59959164D01*
X110970839Y-59959175D01*
X111104897Y-60257041D01*
X111104898Y-60257043D01*
X111273881Y-60536576D01*
X111421476Y-60724968D01*
X112563708Y-59582736D01*
X112660967Y-59716602D01*
X112783398Y-59839033D01*
X112917262Y-59936290D01*
X111775030Y-61078522D01*
X111775030Y-61078523D01*
X111963423Y-61226118D01*
X112242956Y-61395101D01*
X112242958Y-61395102D01*
X112540824Y-61529160D01*
X112540835Y-61529164D01*
X112852658Y-61626332D01*
X113173961Y-61685213D01*
X113500000Y-61704934D01*
X113826038Y-61685213D01*
X114147341Y-61626332D01*
X114459164Y-61529164D01*
X114459175Y-61529160D01*
X114757041Y-61395102D01*
X114757043Y-61395101D01*
X115036586Y-61226112D01*
X115224968Y-61078523D01*
X115224968Y-61078522D01*
X114082737Y-59936290D01*
X114216602Y-59839033D01*
X114339033Y-59716602D01*
X114436290Y-59582737D01*
X115578522Y-60724968D01*
X115578523Y-60724968D01*
X115726112Y-60536586D01*
X115895101Y-60257043D01*
X115895102Y-60257041D01*
X116029160Y-59959175D01*
X116029164Y-59959164D01*
X116126333Y-59647338D01*
X116128531Y-59635347D01*
X116159976Y-59572953D01*
X116220163Y-59537465D01*
X116289981Y-59540150D01*
X116347264Y-59580155D01*
X116373825Y-59644779D01*
X116374500Y-59657697D01*
X116374500Y-59986606D01*
X116396764Y-60098540D01*
X116396765Y-60098544D01*
X116396764Y-60098544D01*
X116398536Y-60107449D01*
X116398537Y-60107454D01*
X116445685Y-60221280D01*
X116445687Y-60221283D01*
X116445688Y-60221286D01*
X116469579Y-60257041D01*
X116479914Y-60272507D01*
X116479915Y-60272509D01*
X116514140Y-60323731D01*
X116514141Y-60323732D01*
X116514142Y-60323733D01*
X116601267Y-60410858D01*
X116601268Y-60410858D01*
X116608335Y-60417925D01*
X116608334Y-60417925D01*
X116608338Y-60417928D01*
X119213181Y-63022772D01*
X119246666Y-63084095D01*
X119249500Y-63110452D01*
X119249500Y-63197869D01*
X119249501Y-63197876D01*
X119256738Y-63265196D01*
X119254623Y-63265423D01*
X119251457Y-63324297D01*
X119210581Y-63380962D01*
X119177864Y-63399204D01*
X119157914Y-63406645D01*
X119157906Y-63406649D01*
X119042812Y-63492809D01*
X119042809Y-63492812D01*
X118956649Y-63607906D01*
X118956645Y-63607913D01*
X118906403Y-63742620D01*
X118906401Y-63742627D01*
X118900000Y-63802155D01*
X118900000Y-63875000D01*
X119575500Y-63875000D01*
X119642539Y-63894685D01*
X119688294Y-63947489D01*
X119699500Y-63999000D01*
X119699500Y-64347869D01*
X119699501Y-64347876D01*
X119705908Y-64407483D01*
X119756203Y-64542330D01*
X119759329Y-64548054D01*
X119774500Y-64607486D01*
X119774500Y-65210399D01*
X119754815Y-65277438D01*
X119702011Y-65323193D01*
X119650500Y-65334399D01*
X119145429Y-65334399D01*
X119145423Y-65334400D01*
X119085816Y-65340807D01*
X118950971Y-65391101D01*
X118950964Y-65391105D01*
X118835755Y-65477351D01*
X118835752Y-65477354D01*
X118749506Y-65592563D01*
X118749502Y-65592570D01*
X118699210Y-65727412D01*
X118699209Y-65727416D01*
X118692800Y-65787026D01*
X118692800Y-65787033D01*
X118692800Y-65787034D01*
X118692800Y-66212968D01*
X118692801Y-66212970D01*
X118695608Y-66239092D01*
X118695608Y-66265593D01*
X118693300Y-66287061D01*
X118693300Y-66330910D01*
X118673615Y-66397949D01*
X118620811Y-66443704D01*
X118616762Y-66445467D01*
X118616238Y-66445683D01*
X118616233Y-66445686D01*
X118513782Y-66514141D01*
X118062180Y-66965743D01*
X118000857Y-66999228D01*
X117931165Y-66994244D01*
X117875232Y-66952372D01*
X117850815Y-66886908D01*
X117850499Y-66878086D01*
X117850499Y-65499992D01*
X117839999Y-65397203D01*
X117784814Y-65230666D01*
X117692712Y-65081344D01*
X117568656Y-64957288D01*
X117419334Y-64865186D01*
X117252797Y-64810001D01*
X117252795Y-64810000D01*
X117150016Y-64799500D01*
X117150009Y-64799500D01*
X116384452Y-64799500D01*
X116317413Y-64779815D01*
X116271658Y-64727011D01*
X116261714Y-64657853D01*
X116290739Y-64594297D01*
X116296771Y-64587819D01*
X116447771Y-64436819D01*
X116509094Y-64403334D01*
X116535452Y-64400500D01*
X116594644Y-64400500D01*
X116594646Y-64400500D01*
X116779803Y-64361144D01*
X116952730Y-64284151D01*
X116965325Y-64275000D01*
X118900000Y-64275000D01*
X118900000Y-64347844D01*
X118906401Y-64407372D01*
X118906403Y-64407379D01*
X118956645Y-64542086D01*
X118956649Y-64542093D01*
X119042809Y-64657187D01*
X119042812Y-64657190D01*
X119157906Y-64743350D01*
X119157913Y-64743354D01*
X119292620Y-64793596D01*
X119292627Y-64793598D01*
X119352155Y-64799999D01*
X119352172Y-64800000D01*
X119400000Y-64800000D01*
X119400000Y-64275000D01*
X118900000Y-64275000D01*
X116965325Y-64275000D01*
X117105871Y-64172888D01*
X117232533Y-64032216D01*
X117327179Y-63868284D01*
X117385674Y-63688256D01*
X117405460Y-63500000D01*
X117385674Y-63311744D01*
X117327179Y-63131716D01*
X117232533Y-62967784D01*
X117105871Y-62827112D01*
X117105870Y-62827111D01*
X116952734Y-62715851D01*
X116952729Y-62715848D01*
X116779807Y-62638857D01*
X116779802Y-62638855D01*
X116598719Y-62600365D01*
X116537237Y-62567173D01*
X116503461Y-62506009D01*
X116500500Y-62479075D01*
X116500500Y-62401456D01*
X116462052Y-62208170D01*
X116462051Y-62208169D01*
X116462051Y-62208165D01*
X116403093Y-62065826D01*
X116386635Y-62026092D01*
X116386628Y-62026079D01*
X116277139Y-61862218D01*
X116277136Y-61862214D01*
X116137785Y-61722863D01*
X116137781Y-61722860D01*
X115973920Y-61613371D01*
X115973907Y-61613364D01*
X115791839Y-61537950D01*
X115791829Y-61537947D01*
X115598543Y-61499500D01*
X115598541Y-61499500D01*
X115401459Y-61499500D01*
X115401457Y-61499500D01*
X115208170Y-61537947D01*
X115208160Y-61537950D01*
X115026092Y-61613364D01*
X115026079Y-61613371D01*
X114862218Y-61722860D01*
X114862214Y-61722863D01*
X114722863Y-61862214D01*
X114722860Y-61862218D01*
X114613371Y-62026079D01*
X114613364Y-62026092D01*
X114537950Y-62208160D01*
X114537947Y-62208170D01*
X114499500Y-62401456D01*
X114499500Y-62534217D01*
X114479815Y-62601256D01*
X114463181Y-62621898D01*
X113362220Y-63722859D01*
X113362218Y-63722861D01*
X113319777Y-63765302D01*
X113222859Y-63862219D01*
X113113371Y-64026079D01*
X113113364Y-64026092D01*
X113082146Y-64101462D01*
X113082146Y-64101463D01*
X113061628Y-64150999D01*
X113037949Y-64208164D01*
X113027142Y-64262494D01*
X113022835Y-64284148D01*
X112999500Y-64401456D01*
X112999500Y-65189800D01*
X112979815Y-65256839D01*
X112970506Y-65269365D01*
X112844951Y-65442179D01*
X112748444Y-65631585D01*
X112682753Y-65833760D01*
X112652249Y-66026356D01*
X112649500Y-66043713D01*
X112649500Y-66556287D01*
X112659534Y-66619644D01*
X112680075Y-66749332D01*
X112682754Y-66766243D01*
X112743231Y-66952372D01*
X112748444Y-66968414D01*
X112844951Y-67157820D01*
X112969890Y-67329786D01*
X113120213Y-67480109D01*
X113292179Y-67605048D01*
X113292181Y-67605049D01*
X113292184Y-67605051D01*
X113481588Y-67701557D01*
X113683757Y-67767246D01*
X113893713Y-67800500D01*
X113893714Y-67800500D01*
X114106286Y-67800500D01*
X114106287Y-67800500D01*
X114316243Y-67767246D01*
X114518412Y-67701557D01*
X114569204Y-67675676D01*
X114637873Y-67662780D01*
X114702614Y-67689055D01*
X114742871Y-67746161D01*
X114749500Y-67786161D01*
X114749500Y-68313393D01*
X114749500Y-68436607D01*
X114749500Y-68436609D01*
X114749499Y-68436609D01*
X114759296Y-68485855D01*
X114759296Y-68485858D01*
X114759297Y-68485858D01*
X114759297Y-68485859D01*
X114772912Y-68554312D01*
X114772914Y-68554324D01*
X114773535Y-68557446D01*
X114773537Y-68557453D01*
X114820685Y-68671280D01*
X114820686Y-68671282D01*
X114820688Y-68671286D01*
X114829823Y-68684957D01*
X114849759Y-68714794D01*
X114849760Y-68714795D01*
X114849761Y-68714796D01*
X114889142Y-68773733D01*
X114976267Y-68860858D01*
X114976268Y-68860858D01*
X114983335Y-68867925D01*
X114983334Y-68867925D01*
X114983338Y-68867928D01*
X115366194Y-69250784D01*
X115399679Y-69312107D01*
X115394695Y-69381799D01*
X115352823Y-69437732D01*
X115328950Y-69451744D01*
X115297267Y-69465850D01*
X115297265Y-69465851D01*
X115144129Y-69577111D01*
X115017466Y-69717785D01*
X114922821Y-69881715D01*
X114922818Y-69881722D01*
X114883853Y-70001645D01*
X114864326Y-70061744D01*
X114852645Y-70172888D01*
X114844540Y-70250000D01*
X114844540Y-70255402D01*
X114824855Y-70322441D01*
X114823642Y-70324293D01*
X114820691Y-70328708D01*
X114820684Y-70328721D01*
X114801723Y-70374500D01*
X114801723Y-70374501D01*
X114778236Y-70431204D01*
X114773537Y-70442548D01*
X114768396Y-70468393D01*
X114758638Y-70517454D01*
X114749861Y-70561582D01*
X114749855Y-70561611D01*
X114749500Y-70563393D01*
X114749500Y-71313838D01*
X114729815Y-71380877D01*
X114677011Y-71426632D01*
X114607853Y-71436576D01*
X114569205Y-71424323D01*
X114518414Y-71398444D01*
X114518413Y-71398443D01*
X114518412Y-71398443D01*
X114316243Y-71332754D01*
X114316241Y-71332753D01*
X114316240Y-71332753D01*
X114153684Y-71307007D01*
X114106287Y-71299500D01*
X113893713Y-71299500D01*
X113846316Y-71307007D01*
X113683760Y-71332753D01*
X113481585Y-71398444D01*
X113292179Y-71494951D01*
X113120213Y-71619890D01*
X112969890Y-71770213D01*
X112844951Y-71942179D01*
X112748444Y-72131585D01*
X112682753Y-72333760D01*
X112655281Y-72507216D01*
X112649500Y-72543713D01*
X112649500Y-73056287D01*
X112653372Y-73080733D01*
X112683165Y-73268842D01*
X112674210Y-73338136D01*
X112629214Y-73391588D01*
X112562462Y-73412227D01*
X112495149Y-73393502D01*
X112473011Y-73375921D01*
X111161819Y-72064729D01*
X111128334Y-72003406D01*
X111125500Y-71977048D01*
X111125500Y-70405893D01*
X111125499Y-70405889D01*
X111119256Y-70374501D01*
X111101463Y-70285048D01*
X111062421Y-70190793D01*
X111054312Y-70171216D01*
X111054307Y-70171207D01*
X110985858Y-70068767D01*
X110985855Y-70068763D01*
X110895637Y-69978545D01*
X110895606Y-69978516D01*
X109988142Y-69071052D01*
X109954657Y-69009729D01*
X109957891Y-68945055D01*
X109999746Y-68816243D01*
X110033000Y-68606287D01*
X110033000Y-68393713D01*
X109999746Y-68183757D01*
X109934057Y-67981588D01*
X109837551Y-67792184D01*
X109837549Y-67792181D01*
X109837548Y-67792179D01*
X109712609Y-67620213D01*
X109562286Y-67469890D01*
X109390320Y-67344951D01*
X109200914Y-67248444D01*
X109200913Y-67248443D01*
X109200912Y-67248443D01*
X108998743Y-67182754D01*
X108998741Y-67182753D01*
X108998740Y-67182753D01*
X108837457Y-67157208D01*
X108788787Y-67149500D01*
X108276213Y-67149500D01*
X108227542Y-67157208D01*
X108066260Y-67182753D01*
X107864085Y-67248444D01*
X107674679Y-67344951D01*
X107502713Y-67469890D01*
X107352390Y-67620213D01*
X107224585Y-67796125D01*
X107222756Y-67794796D01*
X107177835Y-67835379D01*
X107108897Y-67846752D01*
X107044754Y-67819049D01*
X107005771Y-67761065D01*
X107000000Y-67723675D01*
X107000000Y-63210023D01*
X107019685Y-63142984D01*
X107072489Y-63097229D01*
X107141647Y-63087285D01*
X107205203Y-63116310D01*
X107211681Y-63122342D01*
X107281654Y-63192315D01*
X107430875Y-63284356D01*
X107430880Y-63284358D01*
X107597302Y-63339505D01*
X107597309Y-63339506D01*
X107700019Y-63349999D01*
X108249999Y-63349999D01*
X108250000Y-63349998D01*
X108250000Y-62433012D01*
X108307007Y-62465925D01*
X108434174Y-62500000D01*
X108565826Y-62500000D01*
X108692993Y-62465925D01*
X108750000Y-62433012D01*
X108750000Y-63349999D01*
X109299972Y-63349999D01*
X109299986Y-63349998D01*
X109402697Y-63339505D01*
X109569119Y-63284358D01*
X109569124Y-63284356D01*
X109718345Y-63192315D01*
X109842315Y-63068345D01*
X109934356Y-62919124D01*
X109934358Y-62919119D01*
X109989505Y-62752697D01*
X109989506Y-62752690D01*
X109999999Y-62649986D01*
X110000000Y-62649973D01*
X110000000Y-62250000D01*
X108933012Y-62250000D01*
X108965925Y-62192993D01*
X109000000Y-62065826D01*
X109000000Y-61934174D01*
X108965925Y-61807007D01*
X108933012Y-61750000D01*
X109999999Y-61750000D01*
X109999999Y-61350028D01*
X109999998Y-61350013D01*
X109989505Y-61247302D01*
X109934358Y-61080880D01*
X109934356Y-61080875D01*
X109842315Y-60931654D01*
X109718345Y-60807684D01*
X109563515Y-60712184D01*
X109516791Y-60660236D01*
X109505568Y-60591273D01*
X109533412Y-60527191D01*
X109540909Y-60518986D01*
X109680104Y-60379792D01*
X109696071Y-60357816D01*
X109795262Y-60221289D01*
X109805051Y-60207816D01*
X109901557Y-60018412D01*
X109967246Y-59816243D01*
X110000500Y-59606287D01*
X110000500Y-59393713D01*
X109967246Y-59183757D01*
X109901557Y-58981588D01*
X109805051Y-58792184D01*
X109805049Y-58792181D01*
X109805048Y-58792179D01*
X109680109Y-58620213D01*
X109529786Y-58469890D01*
X109357820Y-58344951D01*
X109168414Y-58248444D01*
X109168413Y-58248443D01*
X109168412Y-58248443D01*
X108966243Y-58182754D01*
X108966241Y-58182753D01*
X108966240Y-58182753D01*
X108804957Y-58157208D01*
X108756287Y-58149500D01*
X108243713Y-58149500D01*
X108195042Y-58157208D01*
X108033760Y-58182753D01*
X107831585Y-58248444D01*
X107642179Y-58344951D01*
X107470213Y-58469890D01*
X107319894Y-58620209D01*
X107319890Y-58620214D01*
X107224318Y-58751759D01*
X107168988Y-58794425D01*
X107099375Y-58800404D01*
X107037580Y-58767799D01*
X107003223Y-58706960D01*
X107000000Y-58678874D01*
X107000000Y-49124000D01*
X107019685Y-49056961D01*
X107072489Y-49011206D01*
X107124000Y-49000000D01*
X140876000Y-49000000D01*
X140943039Y-49019685D01*
G37*
%TD.AperFunction*%
%TA.AperFunction,Conductor*%
G36*
X116737707Y-70623536D02*
G01*
X116748736Y-70633326D01*
X117203728Y-71088319D01*
X117237213Y-71149642D01*
X117232229Y-71219334D01*
X117190357Y-71275267D01*
X117124893Y-71299684D01*
X117116047Y-71300000D01*
X116750000Y-71300000D01*
X116750000Y-72366988D01*
X116692993Y-72334075D01*
X116565826Y-72300000D01*
X116434174Y-72300000D01*
X116307007Y-72334075D01*
X116250000Y-72366988D01*
X116250000Y-71300000D01*
X116188998Y-71300000D01*
X116121959Y-71280315D01*
X116076204Y-71227511D01*
X116066260Y-71158353D01*
X116095285Y-71094797D01*
X116138562Y-71062721D01*
X116159603Y-71053352D01*
X116202730Y-71034151D01*
X116355871Y-70922888D01*
X116482533Y-70782216D01*
X116534046Y-70692993D01*
X116553668Y-70659007D01*
X116604235Y-70610791D01*
X116672842Y-70597568D01*
X116737707Y-70623536D01*
G37*
%TD.AperFunction*%
%TA.AperFunction,Conductor*%
G36*
X137755701Y-70883765D02*
G01*
X137782487Y-70920299D01*
X137783535Y-70919680D01*
X137787505Y-70926394D01*
X137787506Y-70926395D01*
X137837003Y-71010090D01*
X137847232Y-71027385D01*
X137864500Y-71090506D01*
X137864500Y-71250500D01*
X137844815Y-71317539D01*
X137792011Y-71363294D01*
X137740500Y-71374500D01*
X137666868Y-71374500D01*
X137599829Y-71354815D01*
X137554074Y-71302011D01*
X137543579Y-71237244D01*
X137544342Y-71230151D01*
X137550500Y-71172873D01*
X137550499Y-70977477D01*
X137570183Y-70910439D01*
X137622987Y-70864684D01*
X137692145Y-70854740D01*
X137755701Y-70883765D01*
G37*
%TD.AperFunction*%
%TA.AperFunction,Conductor*%
G36*
X107205203Y-69182611D02*
G01*
X107223744Y-69204485D01*
X107224585Y-69203875D01*
X107352390Y-69379786D01*
X107491568Y-69518964D01*
X107525053Y-69580287D01*
X107520069Y-69649979D01*
X107478197Y-69705912D01*
X107468984Y-69712183D01*
X107314159Y-69807680D01*
X107314155Y-69807683D01*
X107211681Y-69910158D01*
X107150358Y-69943643D01*
X107080666Y-69938659D01*
X107024733Y-69896787D01*
X107000316Y-69831323D01*
X107000000Y-69822477D01*
X107000000Y-69276324D01*
X107019685Y-69209285D01*
X107072489Y-69163530D01*
X107141647Y-69153586D01*
X107205203Y-69182611D01*
G37*
%TD.AperFunction*%
%TA.AperFunction,Conductor*%
G36*
X124796687Y-68685285D02*
G01*
X124817329Y-68701919D01*
X125511016Y-69395606D01*
X125511045Y-69395637D01*
X125601264Y-69485856D01*
X125601267Y-69485858D01*
X125643597Y-69514142D01*
X125703714Y-69554312D01*
X125715657Y-69559259D01*
X125759926Y-69577596D01*
X125759931Y-69577597D01*
X125759933Y-69577598D01*
X125817548Y-69601463D01*
X125877971Y-69613481D01*
X125938393Y-69625500D01*
X125938394Y-69625500D01*
X126345404Y-69625500D01*
X126412443Y-69645185D01*
X126433085Y-69661819D01*
X126434085Y-69662819D01*
X126467570Y-69724142D01*
X126462586Y-69793834D01*
X126420714Y-69849767D01*
X126355250Y-69874184D01*
X126346404Y-69874500D01*
X125355857Y-69874500D01*
X125288818Y-69854815D01*
X125268176Y-69838181D01*
X124307276Y-68877281D01*
X124273791Y-68815958D01*
X124278775Y-68746266D01*
X124320647Y-68690333D01*
X124386111Y-68665916D01*
X124394957Y-68665600D01*
X124729648Y-68665600D01*
X124796687Y-68685285D01*
G37*
%TD.AperFunction*%
%TA.AperFunction,Conductor*%
G36*
X122366505Y-63570185D02*
G01*
X122412260Y-63622989D01*
X122422204Y-63692147D01*
X122415648Y-63717832D01*
X122406403Y-63742617D01*
X122406401Y-63742627D01*
X122400000Y-63802155D01*
X122400000Y-63875000D01*
X123075500Y-63875000D01*
X123142539Y-63894685D01*
X123188294Y-63947489D01*
X123199500Y-63998999D01*
X123199501Y-64150999D01*
X123179817Y-64218039D01*
X123127013Y-64263794D01*
X123075501Y-64275000D01*
X122400000Y-64275000D01*
X122400000Y-64347844D01*
X122406401Y-64407372D01*
X122406403Y-64407379D01*
X122456645Y-64542086D01*
X122456649Y-64542093D01*
X122542809Y-64657187D01*
X122542812Y-64657190D01*
X122657906Y-64743350D01*
X122665696Y-64747604D01*
X122665056Y-64748775D01*
X122713650Y-64785151D01*
X122738068Y-64850615D01*
X122723217Y-64918889D01*
X122702065Y-64947144D01*
X122135069Y-65514142D01*
X122047946Y-65601264D01*
X122047940Y-65601272D01*
X121979491Y-65703709D01*
X121979486Y-65703718D01*
X121932341Y-65817538D01*
X121932336Y-65817555D01*
X121908301Y-65938388D01*
X121908301Y-66061611D01*
X121932336Y-66182447D01*
X121934107Y-66188283D01*
X121932866Y-66188659D01*
X121939617Y-66251467D01*
X121908341Y-66313946D01*
X121898709Y-66322479D01*
X121898962Y-66322760D01*
X121894126Y-66327114D01*
X121888400Y-66333474D01*
X121828913Y-66370121D01*
X121796252Y-66374500D01*
X121338479Y-66374500D01*
X121271440Y-66354815D01*
X121225685Y-66302011D01*
X121215190Y-66237244D01*
X121217800Y-66212972D01*
X121217799Y-65787027D01*
X121211391Y-65727416D01*
X121206714Y-65714877D01*
X121161097Y-65592570D01*
X121161093Y-65592563D01*
X121074848Y-65477356D01*
X121074846Y-65477353D01*
X121074842Y-65477350D01*
X121068572Y-65471079D01*
X121069559Y-65470091D01*
X121033315Y-65421667D01*
X121025500Y-65378342D01*
X121025500Y-64607486D01*
X121040671Y-64548054D01*
X121043793Y-64542333D01*
X121043796Y-64542331D01*
X121094091Y-64407483D01*
X121100500Y-64347873D01*
X121100499Y-63802128D01*
X121094091Y-63742517D01*
X121094090Y-63742514D01*
X121084885Y-63717832D01*
X121079901Y-63648140D01*
X121113387Y-63586818D01*
X121174711Y-63553333D01*
X121201067Y-63550500D01*
X122299466Y-63550500D01*
X122366505Y-63570185D01*
G37*
%TD.AperFunction*%
%TA.AperFunction,Conductor*%
G36*
X115756587Y-56645185D02*
G01*
X115777229Y-56661819D01*
X116338181Y-57222771D01*
X116371666Y-57284094D01*
X116374500Y-57310452D01*
X116374500Y-58342302D01*
X116354815Y-58409341D01*
X116302011Y-58455096D01*
X116232853Y-58465040D01*
X116169297Y-58436015D01*
X116131523Y-58377237D01*
X116128531Y-58364654D01*
X116126332Y-58352658D01*
X116029164Y-58040835D01*
X116029160Y-58040824D01*
X115895102Y-57742958D01*
X115895101Y-57742956D01*
X115726118Y-57463423D01*
X115578522Y-57275030D01*
X114436290Y-58417262D01*
X114339033Y-58283398D01*
X114216602Y-58160967D01*
X114082736Y-58063709D01*
X115224968Y-56921476D01*
X115130048Y-56847111D01*
X115089415Y-56790271D01*
X115085963Y-56720487D01*
X115120787Y-56659914D01*
X115182831Y-56627784D01*
X115206521Y-56625500D01*
X115689548Y-56625500D01*
X115756587Y-56645185D01*
G37*
%TD.AperFunction*%
%TD*%
M02*
