%TF.GenerationSoftware,KiCad,Pcbnew,8.0.1*%
%TF.CreationDate,2024-04-14T22:55:27+02:00*%
%TF.ProjectId,printhead-pcb,7072696e-7468-4656-9164-2d7063622e6b,rev?*%
%TF.SameCoordinates,Original*%
%TF.FileFunction,Copper,L1,Top*%
%TF.FilePolarity,Positive*%
%FSLAX46Y46*%
G04 Gerber Fmt 4.6, Leading zero omitted, Abs format (unit mm)*
G04 Created by KiCad (PCBNEW 8.0.1) date 2024-04-14 22:55:27*
%MOMM*%
%LPD*%
G01*
G04 APERTURE LIST*
G04 Aperture macros list*
%AMRoundRect*
0 Rectangle with rounded corners*
0 $1 Rounding radius*
0 $2 $3 $4 $5 $6 $7 $8 $9 X,Y pos of 4 corners*
0 Add a 4 corners polygon primitive as box body*
4,1,4,$2,$3,$4,$5,$6,$7,$8,$9,$2,$3,0*
0 Add four circle primitives for the rounded corners*
1,1,$1+$1,$2,$3*
1,1,$1+$1,$4,$5*
1,1,$1+$1,$6,$7*
1,1,$1+$1,$8,$9*
0 Add four rect primitives between the rounded corners*
20,1,$1+$1,$2,$3,$4,$5,0*
20,1,$1+$1,$4,$5,$6,$7,0*
20,1,$1+$1,$6,$7,$8,$9,0*
20,1,$1+$1,$8,$9,$2,$3,0*%
G04 Aperture macros list end*
%TA.AperFunction,SMDPad,CuDef*%
%ADD10RoundRect,0.243750X-0.243750X-0.456250X0.243750X-0.456250X0.243750X0.456250X-0.243750X0.456250X0*%
%TD*%
%TA.AperFunction,ComponentPad*%
%ADD11RoundRect,0.250000X0.750000X-0.600000X0.750000X0.600000X-0.750000X0.600000X-0.750000X-0.600000X0*%
%TD*%
%TA.AperFunction,ComponentPad*%
%ADD12O,2.000000X1.700000*%
%TD*%
%TA.AperFunction,SMDPad,CuDef*%
%ADD13RoundRect,0.135000X-0.135000X-0.185000X0.135000X-0.185000X0.135000X0.185000X-0.135000X0.185000X0*%
%TD*%
%TA.AperFunction,ComponentPad*%
%ADD14C,2.600000*%
%TD*%
%TA.AperFunction,ConnectorPad*%
%ADD15C,4.400000*%
%TD*%
%TA.AperFunction,SMDPad,CuDef*%
%ADD16RoundRect,0.243750X0.243750X0.456250X-0.243750X0.456250X-0.243750X-0.456250X0.243750X-0.456250X0*%
%TD*%
%TA.AperFunction,SMDPad,CuDef*%
%ADD17RoundRect,0.250000X-1.250000X-0.550000X1.250000X-0.550000X1.250000X0.550000X-1.250000X0.550000X0*%
%TD*%
%TA.AperFunction,SMDPad,CuDef*%
%ADD18RoundRect,0.135000X0.135000X0.185000X-0.135000X0.185000X-0.135000X-0.185000X0.135000X-0.185000X0*%
%TD*%
%TA.AperFunction,ComponentPad*%
%ADD19RoundRect,0.250000X0.600000X0.750000X-0.600000X0.750000X-0.600000X-0.750000X0.600000X-0.750000X0*%
%TD*%
%TA.AperFunction,ComponentPad*%
%ADD20O,1.700000X2.000000*%
%TD*%
%TA.AperFunction,SMDPad,CuDef*%
%ADD21RoundRect,0.135000X0.185000X-0.135000X0.185000X0.135000X-0.185000X0.135000X-0.185000X-0.135000X0*%
%TD*%
%TA.AperFunction,SMDPad,CuDef*%
%ADD22RoundRect,0.218750X-0.218750X-0.256250X0.218750X-0.256250X0.218750X0.256250X-0.218750X0.256250X0*%
%TD*%
%TA.AperFunction,SMDPad,CuDef*%
%ADD23RoundRect,0.140000X0.140000X0.170000X-0.140000X0.170000X-0.140000X-0.170000X0.140000X-0.170000X0*%
%TD*%
%TA.AperFunction,ComponentPad*%
%ADD24RoundRect,0.250000X-0.600000X-0.750000X0.600000X-0.750000X0.600000X0.750000X-0.600000X0.750000X0*%
%TD*%
%TA.AperFunction,SMDPad,CuDef*%
%ADD25RoundRect,0.150000X-0.825000X-0.150000X0.825000X-0.150000X0.825000X0.150000X-0.825000X0.150000X0*%
%TD*%
%TA.AperFunction,ComponentPad*%
%ADD26RoundRect,0.250000X-0.600000X-0.725000X0.600000X-0.725000X0.600000X0.725000X-0.600000X0.725000X0*%
%TD*%
%TA.AperFunction,ComponentPad*%
%ADD27O,1.700000X1.950000*%
%TD*%
%TA.AperFunction,SMDPad,CuDef*%
%ADD28RoundRect,0.140000X-0.140000X-0.170000X0.140000X-0.170000X0.140000X0.170000X-0.140000X0.170000X0*%
%TD*%
%TA.AperFunction,ViaPad*%
%ADD29C,0.800000*%
%TD*%
%TA.AperFunction,Conductor*%
%ADD30C,0.250000*%
%TD*%
%TA.AperFunction,Conductor*%
%ADD31C,0.500000*%
%TD*%
%TA.AperFunction,Conductor*%
%ADD32C,1.000000*%
%TD*%
G04 APERTURE END LIST*
D10*
%TO.P,D1,1,K*%
%TO.N,Net-(D1-K)*%
X131062500Y-67500000D03*
%TO.P,D1,2,A*%
%TO.N,+3V3*%
X132937500Y-67500000D03*
%TD*%
D11*
%TO.P,J6,1,Pin_1*%
%TO.N,GND*%
X108500000Y-62000000D03*
D12*
%TO.P,J6,2,Pin_2*%
%TO.N,TC0*%
X108500000Y-59500000D03*
%TD*%
D13*
%TO.P,R14,1*%
%TO.N,GND*%
X133490000Y-81500000D03*
%TO.P,R14,2*%
%TO.N,Net-(D2-K)*%
X134510000Y-81500000D03*
%TD*%
D14*
%TO.P,H4,1,1*%
%TO.N,GND*%
X138000000Y-80000000D03*
D15*
X138000000Y-80000000D03*
%TD*%
D16*
%TO.P,D2,1,K*%
%TO.N,Net-(D2-K)*%
X134937500Y-78000000D03*
%TO.P,D2,2,A*%
%TO.N,Net-(D2-A)*%
X133062500Y-78000000D03*
%TD*%
D13*
%TO.P,R18,1*%
%TO.N,IO2*%
X128480000Y-80500000D03*
%TO.P,R18,2*%
%TO.N,GND*%
X129500000Y-80500000D03*
%TD*%
D17*
%TO.P,C2,1*%
%TO.N,+3V3*%
X127300000Y-60000000D03*
%TO.P,C2,2*%
%TO.N,GND*%
X131700000Y-60000000D03*
%TD*%
D18*
%TO.P,R16,1*%
%TO.N,AREF*%
X127010000Y-76000000D03*
%TO.P,R16,2*%
%TO.N,ADC3*%
X125990000Y-76000000D03*
%TD*%
D19*
%TO.P,J5,1,Pin_1*%
%TO.N,Net-(J5-Pin_1)*%
X116500000Y-66300000D03*
D20*
%TO.P,J5,2,Pin_2*%
%TO.N,+12V*%
X114000000Y-66300000D03*
%TD*%
D21*
%TO.P,R1,1*%
%TO.N,Net-(D1-K)*%
X132000000Y-64500000D03*
%TO.P,R1,2*%
%TO.N,GND*%
X132000000Y-63480000D03*
%TD*%
D22*
%TO.P,L1,1,1*%
%TO.N,TC0*%
X112212500Y-62500000D03*
%TO.P,L1,2,2*%
%TO.N,ADC0*%
X113787500Y-62500000D03*
%TD*%
D21*
%TO.P,R19,1*%
%TO.N,Net-(D3-K)*%
X133500000Y-64510000D03*
%TO.P,R19,2*%
%TO.N,GND*%
X133500000Y-63490000D03*
%TD*%
D23*
%TO.P,C10,1*%
%TO.N,ADC2*%
X126980000Y-71000000D03*
%TO.P,C10,2*%
%TO.N,GND*%
X126020000Y-71000000D03*
%TD*%
D18*
%TO.P,R20,1*%
%TO.N,Net-(D4-K)*%
X134510000Y-80000000D03*
%TO.P,R20,2*%
%TO.N,GND*%
X133490000Y-80000000D03*
%TD*%
D13*
%TO.P,R17,1*%
%TO.N,IO3*%
X138490000Y-73500000D03*
%TO.P,R17,2*%
%TO.N,GND*%
X139510000Y-73500000D03*
%TD*%
D22*
%TO.P,L4,1,1*%
%TO.N,TC3*%
X121712500Y-76000000D03*
%TO.P,L4,2,2*%
%TO.N,ADC3*%
X123287500Y-76000000D03*
%TD*%
D24*
%TO.P,J4,1,Pin_1*%
%TO.N,Net-(J4-Pin_1)*%
X118750000Y-54032500D03*
D20*
%TO.P,J4,2,Pin_2*%
%TO.N,+12V*%
X121250000Y-54032500D03*
%TD*%
D13*
%TO.P,R3,1*%
%TO.N,+3V3*%
X137490000Y-63500000D03*
%TO.P,R3,2*%
%TO.N,SCL*%
X138510000Y-63500000D03*
%TD*%
D18*
%TO.P,R15,1*%
%TO.N,AREF*%
X127010000Y-74000000D03*
%TO.P,R15,2*%
%TO.N,ADC2*%
X125990000Y-74000000D03*
%TD*%
D16*
%TO.P,D4,1,K*%
%TO.N,Net-(D4-K)*%
X134937500Y-75500000D03*
%TO.P,D4,2,A*%
%TO.N,IO1*%
X133062500Y-75500000D03*
%TD*%
%TO.P,D3,1,K*%
%TO.N,Net-(D3-K)*%
X136937500Y-67500000D03*
%TO.P,D3,2,A*%
%TO.N,IO0*%
X135062500Y-67500000D03*
%TD*%
D22*
%TO.P,L3,1,1*%
%TO.N,TC2*%
X121712500Y-74000000D03*
%TO.P,L3,2,2*%
%TO.N,ADC2*%
X123287500Y-74000000D03*
%TD*%
D14*
%TO.P,H2,1,1*%
%TO.N,GND*%
X113500000Y-80000000D03*
D15*
X113500000Y-80000000D03*
%TD*%
D25*
%TO.P,U4,1,IO0*%
%TO.N,IO0*%
X131525000Y-69595000D03*
%TO.P,U4,2,IO1*%
%TO.N,IO1*%
X131525000Y-70865000D03*
%TO.P,U4,3,IO2*%
%TO.N,IO2*%
X131525000Y-72135000D03*
%TO.P,U4,4,VSS*%
%TO.N,GND*%
X131525000Y-73405000D03*
%TO.P,U4,5,IO3*%
%TO.N,IO3*%
X136475000Y-73405000D03*
%TO.P,U4,6,SCL*%
%TO.N,SCL*%
X136475000Y-72135000D03*
%TO.P,U4,7,SDA*%
%TO.N,SDA*%
X136475000Y-70865000D03*
%TO.P,U4,8,VDD*%
%TO.N,+3V3*%
X136475000Y-69595000D03*
%TD*%
D26*
%TO.P,J1,1,Pin_1*%
%TO.N,+3V3*%
X128000000Y-54000000D03*
D27*
%TO.P,J1,2,Pin_2*%
%TO.N,GND*%
X130500000Y-54000000D03*
%TO.P,J1,3,Pin_3*%
%TO.N,+12V*%
X133000000Y-54000000D03*
%TO.P,J1,4,Pin_4*%
%TO.N,SDA*%
X135500000Y-54000000D03*
%TO.P,J1,5,Pin_5*%
%TO.N,SCL*%
X138000000Y-54000000D03*
%TD*%
D14*
%TO.P,H3,1,1*%
%TO.N,GND*%
X113500000Y-59000000D03*
D15*
X113500000Y-59000000D03*
%TD*%
D23*
%TO.P,C11,1*%
%TO.N,ADC3*%
X126980000Y-80500000D03*
%TO.P,C11,2*%
%TO.N,GND*%
X126020000Y-80500000D03*
%TD*%
D19*
%TO.P,J8,1,Pin_1*%
%TO.N,GND*%
X116500000Y-72800000D03*
D20*
%TO.P,J8,2,Pin_2*%
%TO.N,TC2*%
X114000000Y-72800000D03*
%TD*%
D28*
%TO.P,C6,1*%
%TO.N,+3V3*%
X125520000Y-65000000D03*
%TO.P,C6,2*%
%TO.N,GND*%
X126480000Y-65000000D03*
%TD*%
D24*
%TO.P,J2,1,Pin_1*%
%TO.N,Net-(J2-Pin_1)*%
X109750000Y-54032500D03*
D20*
%TO.P,J2,2,Pin_2*%
%TO.N,+12V*%
X112250000Y-54032500D03*
%TD*%
D11*
%TO.P,J10,1,Pin_1*%
%TO.N,IO2*%
X108500000Y-80000000D03*
D12*
%TO.P,J10,2,Pin_2*%
%TO.N,+3V3*%
X108500000Y-77500000D03*
%TD*%
D14*
%TO.P,H1,1,1*%
%TO.N,GND*%
X138000000Y-59000000D03*
D15*
X138000000Y-59000000D03*
%TD*%
D11*
%TO.P,J7,1,Pin_1*%
%TO.N,GND*%
X108532500Y-71000000D03*
D12*
%TO.P,J7,2,Pin_2*%
%TO.N,TC1*%
X108532500Y-68500000D03*
%TD*%
D19*
%TO.P,J9,1,Pin_1*%
%TO.N,GND*%
X121750000Y-80000000D03*
D20*
%TO.P,J9,2,Pin_2*%
%TO.N,TC3*%
X119250000Y-80000000D03*
%TD*%
D19*
%TO.P,J3,1,Pin_1*%
%TO.N,Net-(J3-Pin_1)*%
X122000000Y-59500000D03*
D20*
%TO.P,J3,2,Pin_2*%
%TO.N,+12V*%
X119500000Y-59500000D03*
%TD*%
D28*
%TO.P,C8,1*%
%TO.N,+3V3*%
X125520000Y-63500000D03*
%TO.P,C8,2*%
%TO.N,GND*%
X126480000Y-63500000D03*
%TD*%
D13*
%TO.P,R2,1*%
%TO.N,+3V3*%
X137490000Y-65000000D03*
%TO.P,R2,2*%
%TO.N,SDA*%
X138510000Y-65000000D03*
%TD*%
D29*
%TO.N,GND*%
X129500000Y-66000000D03*
X136500000Y-74500000D03*
X111500000Y-69000000D03*
X125000000Y-69000000D03*
X109000000Y-73500000D03*
X129020000Y-61720000D03*
X118500000Y-77000000D03*
X124000000Y-81500000D03*
X117000000Y-80000000D03*
X124500000Y-56000000D03*
X109000000Y-57000000D03*
%TO.N,AREF*%
X127500000Y-79175000D03*
%TO.N,ADC0*%
X134422105Y-72077896D03*
%TO.N,ADC2*%
X127500000Y-72500000D03*
%TO.N,ADC3*%
X125000000Y-73000000D03*
%TO.N,SDA*%
X134000000Y-70000000D03*
%TO.N,SCL*%
X134000000Y-61000000D03*
%TO.N,+3V3*%
X135500000Y-69595000D03*
X117500000Y-75175000D03*
X122500000Y-67000000D03*
X134000000Y-66000000D03*
X115750000Y-70250000D03*
X118000000Y-69500000D03*
%TO.N,Net-(D2-A)*%
X131500000Y-75000000D03*
%TO.N,Net-(J3-Pin_1)*%
X116500000Y-63500000D03*
%TO.N,+12V*%
X115500000Y-62500000D03*
%TO.N,Net-(J5-Pin_1)*%
X122000000Y-69500000D03*
%TD*%
D30*
%TO.N,GND*%
X115500000Y-71000000D02*
X108532500Y-71000000D01*
X136500000Y-74500000D02*
X139010000Y-74500000D01*
X122250000Y-80500000D02*
X121750000Y-80000000D01*
X132000000Y-60300000D02*
X131700000Y-60000000D01*
X119750000Y-82000000D02*
X121750000Y-80000000D01*
D31*
X130500000Y-58800000D02*
X130500000Y-54000000D01*
X131700000Y-60000000D02*
X130500000Y-58800000D01*
D30*
X131490000Y-79500000D02*
X130500000Y-78510000D01*
X132490000Y-81500000D02*
X133490000Y-81500000D01*
X130500000Y-78510000D02*
X130500000Y-74430000D01*
X126480000Y-64260000D02*
X129020000Y-61720000D01*
X139510000Y-74000000D02*
X139510000Y-73500000D01*
X122230000Y-80480000D02*
X121750000Y-80000000D01*
X131490000Y-80500000D02*
X132490000Y-81500000D01*
X126480000Y-65000000D02*
X126480000Y-64260000D01*
X118300000Y-71000000D02*
X116500000Y-72800000D01*
X129500000Y-80500000D02*
X131490000Y-80500000D01*
X133490000Y-81500000D02*
X133490000Y-80000000D01*
X118500000Y-77000000D02*
X116500000Y-77000000D01*
X116500000Y-82000000D02*
X119750000Y-82000000D01*
X116500000Y-77000000D02*
X113500000Y-80000000D01*
X130500000Y-74430000D02*
X131525000Y-73405000D01*
X114500000Y-80000000D02*
X116500000Y-82000000D01*
X133500000Y-61800000D02*
X131700000Y-60000000D01*
X126480000Y-65000000D02*
X126480000Y-63500000D01*
X126000000Y-80480000D02*
X122230000Y-80480000D01*
X118300000Y-71000000D02*
X126020000Y-71000000D01*
X116500000Y-72000000D02*
X115500000Y-71000000D01*
X131490000Y-80500000D02*
X131490000Y-79500000D01*
X132000000Y-63480000D02*
X132000000Y-60300000D01*
X133500000Y-63490000D02*
X133500000Y-61800000D01*
X113500000Y-80000000D02*
X114500000Y-80000000D01*
X116500000Y-72800000D02*
X116500000Y-72000000D01*
X139010000Y-74500000D02*
X139510000Y-74000000D01*
%TO.N,AREF*%
X127500000Y-79175000D02*
X127500000Y-76490000D01*
X127010000Y-76000000D02*
X127010000Y-74000000D01*
X127500000Y-76490000D02*
X127010000Y-76000000D01*
%TO.N,ADC0*%
X124540000Y-70290000D02*
X118750000Y-64500000D01*
X113787500Y-63143750D02*
X113787500Y-62500000D01*
X115143750Y-64500000D02*
X113787500Y-63143750D01*
X134422105Y-72077896D02*
X134318092Y-72077896D01*
X134318092Y-72077896D02*
X132530196Y-70290000D01*
X132530196Y-70290000D02*
X124540000Y-70290000D01*
X118750000Y-64500000D02*
X115143750Y-64500000D01*
%TO.N,ADC2*%
X127500000Y-72500000D02*
X127490000Y-72500000D01*
X125000000Y-72000000D02*
X123287500Y-73712500D01*
X126245000Y-73745000D02*
X126245000Y-72245000D01*
X127490000Y-72500000D02*
X125990000Y-74000000D01*
X126245000Y-72245000D02*
X126000000Y-72000000D01*
X126980000Y-71000000D02*
X126980000Y-71990000D01*
X126980000Y-71990000D02*
X127490000Y-72500000D01*
X126000000Y-72000000D02*
X125000000Y-72000000D01*
X125990000Y-74000000D02*
X126245000Y-73745000D01*
X123287500Y-73712500D02*
X123287500Y-74000000D01*
%TO.N,ADC3*%
X125500000Y-76000000D02*
X125990000Y-76000000D01*
X125000000Y-73000000D02*
X125000000Y-75500000D01*
X126500000Y-76510000D02*
X125990000Y-76000000D01*
X126980000Y-80500000D02*
X126500000Y-80020000D01*
X126500000Y-80020000D02*
X126500000Y-76510000D01*
X125000000Y-75500000D02*
X125500000Y-76000000D01*
X123287500Y-76000000D02*
X125500000Y-76000000D01*
%TO.N,SDA*%
X134865000Y-70865000D02*
X136475000Y-70865000D01*
X134000000Y-70000000D02*
X134865000Y-70865000D01*
X136475000Y-70865000D02*
X138145000Y-70865000D01*
X139000000Y-70010000D02*
X139000000Y-65490000D01*
X138145000Y-70865000D02*
X139000000Y-70010000D01*
X139000000Y-65490000D02*
X138510000Y-65000000D01*
%TO.N,SCL*%
X138510000Y-63007500D02*
X137502500Y-62000000D01*
X135500000Y-62000000D02*
X134500000Y-61000000D01*
X138510000Y-63500000D02*
X139000000Y-63500000D01*
X140000000Y-64500000D02*
X140000000Y-71000000D01*
X134000000Y-58000000D02*
X138000000Y-54000000D01*
X138865000Y-72135000D02*
X136475000Y-72135000D01*
X140000000Y-71000000D02*
X138865000Y-72135000D01*
X134000000Y-61000000D02*
X134000000Y-58000000D01*
X137502500Y-62000000D02*
X135500000Y-62000000D01*
X138510000Y-63500000D02*
X138510000Y-63007500D01*
X134500000Y-61000000D02*
X134000000Y-61000000D01*
X139000000Y-63500000D02*
X140000000Y-64500000D01*
%TO.N,+3V3*%
X134000000Y-66437500D02*
X132937500Y-67500000D01*
X131437500Y-69000000D02*
X129520000Y-69000000D01*
X137405000Y-69595000D02*
X138000000Y-69000000D01*
X137490000Y-65000000D02*
X137490000Y-63500000D01*
X122500000Y-67000000D02*
X124500000Y-65000000D01*
X117250000Y-70250000D02*
X118000000Y-69500000D01*
X109000000Y-77000000D02*
X108500000Y-77500000D01*
X124500000Y-65000000D02*
X125520000Y-65000000D01*
D31*
X128000000Y-54000000D02*
X128000000Y-59300000D01*
D30*
X125520000Y-65000000D02*
X125520000Y-63500000D01*
X135500000Y-69595000D02*
X136475000Y-69595000D01*
X125520000Y-61780000D02*
X127300000Y-60000000D01*
X125520000Y-63500000D02*
X125520000Y-61780000D01*
X129520000Y-69000000D02*
X125520000Y-65000000D01*
X132937500Y-67500000D02*
X131437500Y-69000000D01*
X138000000Y-69000000D02*
X138000000Y-65510000D01*
X117500000Y-75175000D02*
X115675000Y-77000000D01*
X115750000Y-70250000D02*
X117250000Y-70250000D01*
X136475000Y-69595000D02*
X137405000Y-69595000D01*
D31*
X128000000Y-59300000D02*
X127300000Y-60000000D01*
D30*
X115675000Y-77000000D02*
X109000000Y-77000000D01*
X134000000Y-66000000D02*
X134000000Y-66437500D01*
X138000000Y-65510000D02*
X137490000Y-65000000D01*
%TO.N,Net-(D2-A)*%
X133062500Y-78000000D02*
X131500000Y-76437500D01*
X131500000Y-76437500D02*
X131500000Y-75000000D01*
%TO.N,Net-(J3-Pin_1)*%
X116500000Y-63500000D02*
X117500000Y-62500000D01*
X119000000Y-62500000D02*
X122000000Y-59500000D01*
X117500000Y-62500000D02*
X119000000Y-62500000D01*
%TO.N,Net-(D2-K)*%
X135423798Y-78486298D02*
X134937500Y-78000000D01*
X134510000Y-81500000D02*
X135423798Y-80586202D01*
X135423798Y-80586202D02*
X135423798Y-78486298D01*
D32*
%TO.N,+12V*%
X124500000Y-54000000D02*
X121282500Y-54000000D01*
X118500000Y-59500000D02*
X119500000Y-59500000D01*
X121250000Y-54032500D02*
X121250000Y-53132500D01*
X121282500Y-54000000D02*
X121250000Y-54032500D01*
X114782500Y-51500000D02*
X112250000Y-54032500D01*
X133000000Y-54000000D02*
X130500000Y-51500000D01*
X127000000Y-51500000D02*
X125362780Y-53137220D01*
X119500000Y-57782500D02*
X119500000Y-59500000D01*
X125362780Y-53137220D02*
X124500000Y-54000000D01*
X115500000Y-62500000D02*
X118500000Y-59500000D01*
X121250000Y-54032500D02*
X121250000Y-56032500D01*
X121250000Y-53132500D02*
X119617500Y-51500000D01*
X119617500Y-51500000D02*
X114782500Y-51500000D01*
X130500000Y-51500000D02*
X127000000Y-51500000D01*
X121250000Y-56032500D02*
X119500000Y-57782500D01*
D30*
%TO.N,TC0*%
X111500000Y-62500000D02*
X112212500Y-62500000D01*
X108500000Y-59500000D02*
X111500000Y-62500000D01*
%TO.N,TC2*%
X115700000Y-74500000D02*
X121212500Y-74500000D01*
X114000000Y-72800000D02*
X115700000Y-74500000D01*
X121212500Y-74500000D02*
X121712500Y-74000000D01*
%TO.N,TC3*%
X121712500Y-76662500D02*
X119250000Y-79125000D01*
X119250000Y-79125000D02*
X119250000Y-80000000D01*
X121712500Y-76000000D02*
X121712500Y-76662500D01*
%TO.N,IO0*%
X132967500Y-69595000D02*
X131525000Y-69595000D01*
X135062500Y-67500000D02*
X132967500Y-69595000D01*
%TO.N,Net-(J5-Pin_1)*%
X118800000Y-66300000D02*
X116500000Y-66300000D01*
X122000000Y-69500000D02*
X118800000Y-66300000D01*
%TO.N,Net-(D3-K)*%
X136937500Y-67500000D02*
X133947500Y-64510000D01*
X133947500Y-64510000D02*
X133500000Y-64510000D01*
%TO.N,Net-(D4-K)*%
X134000000Y-76437500D02*
X134937500Y-75500000D01*
X134510000Y-80000000D02*
X134000000Y-79490000D01*
X134000000Y-79490000D02*
X134000000Y-76437500D01*
%TO.N,IO1*%
X133062500Y-71427501D02*
X132499999Y-70865000D01*
X133062500Y-75500000D02*
X133062500Y-71427501D01*
X132499999Y-70865000D02*
X131525000Y-70865000D01*
%TO.N,IO2*%
X130365000Y-72135000D02*
X131525000Y-72135000D01*
X111500000Y-83000000D02*
X125980000Y-83000000D01*
X128480000Y-74020000D02*
X130365000Y-72135000D01*
X108500000Y-80000000D02*
X111500000Y-83000000D01*
X128480000Y-80500000D02*
X128480000Y-74020000D01*
X125980000Y-83000000D02*
X128480000Y-80500000D01*
%TO.N,IO3*%
X136570000Y-73500000D02*
X136475000Y-73405000D01*
X138490000Y-73500000D02*
X136570000Y-73500000D01*
%TO.N,Net-(D1-K)*%
X131062500Y-65437500D02*
X132000000Y-64500000D01*
X131062500Y-67500000D02*
X131062500Y-65437500D01*
%TD*%
%TA.AperFunction,Conductor*%
%TO.N,GND*%
G36*
X140943039Y-49019685D02*
G01*
X140988794Y-49072489D01*
X141000000Y-49124000D01*
X141000000Y-82876000D01*
X140980315Y-82943039D01*
X140927511Y-82988794D01*
X140876000Y-83000000D01*
X127163951Y-83000000D01*
X127096912Y-82980315D01*
X127051157Y-82927511D01*
X127041213Y-82858353D01*
X127070238Y-82794797D01*
X127076270Y-82788319D01*
X128114589Y-81750000D01*
X132720069Y-81750000D01*
X132722832Y-81785122D01*
X132722833Y-81785128D01*
X132767592Y-81939188D01*
X132767593Y-81939191D01*
X132849261Y-82077285D01*
X132849268Y-82077294D01*
X132962705Y-82190731D01*
X132962714Y-82190738D01*
X133100805Y-82272404D01*
X133240000Y-82312844D01*
X133240000Y-81750000D01*
X132720069Y-81750000D01*
X128114589Y-81750000D01*
X128507771Y-81356818D01*
X128569094Y-81323333D01*
X128595452Y-81320499D01*
X128679168Y-81320499D01*
X128679180Y-81320499D01*
X128715204Y-81317665D01*
X128869393Y-81272869D01*
X128927369Y-81238581D01*
X128995093Y-81221398D01*
X129053612Y-81238581D01*
X129110805Y-81272404D01*
X129250000Y-81312844D01*
X129250000Y-80760408D01*
X129250382Y-80750679D01*
X129250435Y-80750000D01*
X129750000Y-80750000D01*
X129750000Y-81312843D01*
X129889194Y-81272404D01*
X130027285Y-81190738D01*
X130027294Y-81190731D01*
X130140731Y-81077294D01*
X130140738Y-81077285D01*
X130222406Y-80939191D01*
X130222407Y-80939188D01*
X130267166Y-80785128D01*
X130267167Y-80785122D01*
X130269931Y-80750000D01*
X129750000Y-80750000D01*
X129250435Y-80750000D01*
X129250500Y-80749181D01*
X129250499Y-80250820D01*
X129250434Y-80250000D01*
X129750000Y-80250000D01*
X130269931Y-80250000D01*
X132720069Y-80250000D01*
X132722832Y-80285122D01*
X132722833Y-80285128D01*
X132767592Y-80439188D01*
X132767593Y-80439191D01*
X132849261Y-80577285D01*
X132849268Y-80577294D01*
X132934293Y-80662319D01*
X132967778Y-80723642D01*
X132962794Y-80793334D01*
X132934293Y-80837681D01*
X132849268Y-80922705D01*
X132849261Y-80922714D01*
X132767593Y-81060808D01*
X132767592Y-81060811D01*
X132722833Y-81214871D01*
X132722832Y-81214877D01*
X132720069Y-81250000D01*
X133240000Y-81250000D01*
X133240000Y-80250000D01*
X132720069Y-80250000D01*
X130269931Y-80250000D01*
X130267167Y-80214877D01*
X130267166Y-80214871D01*
X130222407Y-80060811D01*
X130222406Y-80060808D01*
X130140738Y-79922714D01*
X130140731Y-79922705D01*
X130027294Y-79809268D01*
X130027285Y-79809261D01*
X129889191Y-79727593D01*
X129889188Y-79727591D01*
X129750001Y-79687153D01*
X129750000Y-79687154D01*
X129750000Y-80250000D01*
X129250434Y-80250000D01*
X129250382Y-80249332D01*
X129250000Y-80239607D01*
X129250000Y-79687154D01*
X129244469Y-79683002D01*
X129194225Y-79682859D01*
X129135555Y-79644917D01*
X129106712Y-79581278D01*
X129105500Y-79563982D01*
X129105500Y-74330452D01*
X129125185Y-74263413D01*
X129141819Y-74242771D01*
X129457138Y-73927452D01*
X129838936Y-73545653D01*
X129900257Y-73512170D01*
X129969948Y-73517154D01*
X130025882Y-73559025D01*
X130050233Y-73623606D01*
X130052899Y-73657490D01*
X130052900Y-73657495D01*
X130098716Y-73815193D01*
X130098717Y-73815196D01*
X130182314Y-73956552D01*
X130182321Y-73956561D01*
X130298438Y-74072678D01*
X130298447Y-74072685D01*
X130439803Y-74156282D01*
X130439806Y-74156283D01*
X130597504Y-74202099D01*
X130597510Y-74202100D01*
X130634350Y-74204999D01*
X130634366Y-74205000D01*
X130725571Y-74205000D01*
X130792610Y-74224685D01*
X130838365Y-74277489D01*
X130848309Y-74346647D01*
X130819284Y-74410203D01*
X130817792Y-74411891D01*
X130767467Y-74467784D01*
X130767465Y-74467785D01*
X130767464Y-74467788D01*
X130672821Y-74631715D01*
X130672818Y-74631722D01*
X130614327Y-74811740D01*
X130614326Y-74811744D01*
X130594540Y-75000000D01*
X130614326Y-75188256D01*
X130614327Y-75188259D01*
X130672818Y-75368277D01*
X130672821Y-75368284D01*
X130767467Y-75532216D01*
X130777433Y-75543284D01*
X130842650Y-75615715D01*
X130872880Y-75678706D01*
X130874500Y-75698687D01*
X130874500Y-76499109D01*
X130897227Y-76613367D01*
X130898537Y-76619953D01*
X130945685Y-76733780D01*
X130945686Y-76733782D01*
X130945688Y-76733786D01*
X130955867Y-76749020D01*
X130971801Y-76772867D01*
X130971803Y-76772869D01*
X131014140Y-76836231D01*
X131014141Y-76836232D01*
X131014142Y-76836233D01*
X131101267Y-76923358D01*
X131101268Y-76923358D01*
X131108335Y-76930425D01*
X131108334Y-76930425D01*
X131108338Y-76930428D01*
X132038181Y-77860271D01*
X132071666Y-77921594D01*
X132074500Y-77947952D01*
X132074500Y-78505855D01*
X132084913Y-78607776D01*
X132139637Y-78772922D01*
X132139642Y-78772933D01*
X132230971Y-78920999D01*
X132230974Y-78921003D01*
X132353996Y-79044025D01*
X132354000Y-79044028D01*
X132502066Y-79135357D01*
X132502069Y-79135358D01*
X132502075Y-79135362D01*
X132667225Y-79190087D01*
X132769152Y-79200500D01*
X132769157Y-79200500D01*
X132772112Y-79200500D01*
X132839151Y-79220185D01*
X132884906Y-79272989D01*
X132894850Y-79342147D01*
X132865825Y-79405703D01*
X132859793Y-79412181D01*
X132849268Y-79422705D01*
X132849261Y-79422714D01*
X132767593Y-79560808D01*
X132767592Y-79560811D01*
X132722833Y-79714871D01*
X132722832Y-79714877D01*
X132720069Y-79750000D01*
X133355163Y-79750000D01*
X133422202Y-79769685D01*
X133458265Y-79805109D01*
X133478095Y-79834786D01*
X133478098Y-79834790D01*
X133514141Y-79888732D01*
X133514144Y-79888736D01*
X133605586Y-79980178D01*
X133605608Y-79980198D01*
X133703181Y-80077771D01*
X133736666Y-80139094D01*
X133739500Y-80165451D01*
X133739500Y-80249170D01*
X133739501Y-80249180D01*
X133739565Y-80249999D01*
X133739618Y-80250663D01*
X133740000Y-80260393D01*
X133740000Y-81239591D01*
X133739618Y-81249316D01*
X133739500Y-81250803D01*
X133739500Y-81749170D01*
X133739501Y-81749182D01*
X133739618Y-81750663D01*
X133740000Y-81760393D01*
X133740000Y-82312844D01*
X133879194Y-82272405D01*
X133879196Y-82272404D01*
X133936386Y-82238582D01*
X134004109Y-82221398D01*
X134062629Y-82238581D01*
X134120607Y-82272869D01*
X134161268Y-82284682D01*
X134274791Y-82317664D01*
X134274794Y-82317664D01*
X134274796Y-82317665D01*
X134310819Y-82320500D01*
X134709180Y-82320499D01*
X134745204Y-82317665D01*
X134899393Y-82272869D01*
X135037598Y-82191135D01*
X135151135Y-82077598D01*
X135232869Y-81939393D01*
X135277665Y-81785204D01*
X135280500Y-81749181D01*
X135280499Y-81665450D01*
X135300183Y-81598413D01*
X135316813Y-81577775D01*
X135505284Y-81389304D01*
X135566604Y-81355822D01*
X135636296Y-81360806D01*
X135692229Y-81402678D01*
X135699079Y-81412838D01*
X135773881Y-81536576D01*
X135921476Y-81724968D01*
X137063708Y-80582735D01*
X137160967Y-80716602D01*
X137283398Y-80839033D01*
X137417262Y-80936290D01*
X136275030Y-82078522D01*
X136275030Y-82078523D01*
X136463423Y-82226118D01*
X136742956Y-82395101D01*
X136742958Y-82395102D01*
X137040824Y-82529160D01*
X137040835Y-82529164D01*
X137352658Y-82626332D01*
X137673961Y-82685213D01*
X138000000Y-82704934D01*
X138326038Y-82685213D01*
X138647341Y-82626332D01*
X138959164Y-82529164D01*
X138959175Y-82529160D01*
X139257041Y-82395102D01*
X139257043Y-82395101D01*
X139536586Y-82226112D01*
X139724968Y-82078523D01*
X139724968Y-82078522D01*
X138582737Y-80936290D01*
X138716602Y-80839033D01*
X138839033Y-80716602D01*
X138936290Y-80582737D01*
X140078522Y-81724968D01*
X140078523Y-81724968D01*
X140226112Y-81536586D01*
X140395101Y-81257043D01*
X140395102Y-81257041D01*
X140529160Y-80959175D01*
X140529164Y-80959164D01*
X140626332Y-80647341D01*
X140685213Y-80326038D01*
X140704934Y-80000000D01*
X140685213Y-79673961D01*
X140626332Y-79352658D01*
X140529164Y-79040835D01*
X140529160Y-79040824D01*
X140395102Y-78742958D01*
X140395101Y-78742956D01*
X140226118Y-78463423D01*
X140078522Y-78275030D01*
X138936290Y-79417262D01*
X138839033Y-79283398D01*
X138716602Y-79160967D01*
X138582736Y-79063709D01*
X139724968Y-77921476D01*
X139536576Y-77773881D01*
X139257043Y-77604898D01*
X139257041Y-77604897D01*
X138959175Y-77470839D01*
X138959164Y-77470835D01*
X138647341Y-77373667D01*
X138326038Y-77314786D01*
X138000000Y-77295065D01*
X137673961Y-77314786D01*
X137352658Y-77373667D01*
X137040835Y-77470835D01*
X137040824Y-77470839D01*
X136742958Y-77604897D01*
X136742956Y-77604898D01*
X136463422Y-77773881D01*
X136463416Y-77773886D01*
X136275030Y-77921474D01*
X136275029Y-77921476D01*
X137417262Y-79063709D01*
X137283398Y-79160967D01*
X137160967Y-79283398D01*
X137063709Y-79417263D01*
X136070473Y-78424027D01*
X136036988Y-78362704D01*
X136036549Y-78360602D01*
X136025261Y-78303847D01*
X136022131Y-78296291D01*
X136022130Y-78296284D01*
X136022129Y-78296285D01*
X135978112Y-78190018D01*
X135978105Y-78190005D01*
X135946398Y-78142552D01*
X135925520Y-78075874D01*
X135925500Y-78073661D01*
X135925500Y-77494157D01*
X135925499Y-77494144D01*
X135915087Y-77392225D01*
X135860362Y-77227075D01*
X135860358Y-77227069D01*
X135860357Y-77227066D01*
X135769028Y-77079000D01*
X135769025Y-77078996D01*
X135646003Y-76955974D01*
X135645999Y-76955971D01*
X135497930Y-76864641D01*
X135497929Y-76864640D01*
X135497925Y-76864638D01*
X135497920Y-76864636D01*
X135493090Y-76862384D01*
X135440649Y-76816213D01*
X135421495Y-76749020D01*
X135441708Y-76682138D01*
X135493090Y-76637616D01*
X135497912Y-76635366D01*
X135497925Y-76635362D01*
X135646003Y-76544026D01*
X135769026Y-76421003D01*
X135860362Y-76272925D01*
X135915087Y-76107775D01*
X135925500Y-76005848D01*
X135925500Y-74994152D01*
X135915087Y-74892225D01*
X135860362Y-74727075D01*
X135860358Y-74727069D01*
X135860357Y-74727066D01*
X135769028Y-74579000D01*
X135769025Y-74578996D01*
X135646004Y-74455975D01*
X135646003Y-74455974D01*
X135612059Y-74435037D01*
X135565337Y-74383091D01*
X135554114Y-74314128D01*
X135581958Y-74250046D01*
X135640026Y-74211190D01*
X135677158Y-74205500D01*
X137365686Y-74205500D01*
X137365694Y-74205500D01*
X137402569Y-74202598D01*
X137402571Y-74202597D01*
X137402573Y-74202597D01*
X137444191Y-74190505D01*
X137560398Y-74156744D01*
X137584030Y-74142767D01*
X137647151Y-74125500D01*
X137845404Y-74125500D01*
X137912443Y-74145185D01*
X137933085Y-74161819D01*
X137962396Y-74191130D01*
X137962400Y-74191133D01*
X137962402Y-74191135D01*
X138100607Y-74272869D01*
X138122020Y-74279090D01*
X138254791Y-74317664D01*
X138254794Y-74317664D01*
X138254796Y-74317665D01*
X138290819Y-74320500D01*
X138689180Y-74320499D01*
X138725204Y-74317665D01*
X138879393Y-74272869D01*
X138937369Y-74238581D01*
X139005093Y-74221398D01*
X139063612Y-74238581D01*
X139120805Y-74272404D01*
X139260000Y-74312844D01*
X139260000Y-73760408D01*
X139260382Y-73750679D01*
X139260396Y-73750500D01*
X139260435Y-73750000D01*
X139760000Y-73750000D01*
X139760000Y-74312843D01*
X139899194Y-74272404D01*
X140037285Y-74190738D01*
X140037294Y-74190731D01*
X140150731Y-74077294D01*
X140150738Y-74077285D01*
X140232406Y-73939191D01*
X140232407Y-73939188D01*
X140277166Y-73785128D01*
X140277167Y-73785122D01*
X140279931Y-73750000D01*
X139760000Y-73750000D01*
X139260435Y-73750000D01*
X139260500Y-73749181D01*
X139260499Y-73250820D01*
X139260434Y-73250000D01*
X139760000Y-73250000D01*
X140279931Y-73250000D01*
X140277167Y-73214877D01*
X140277166Y-73214871D01*
X140232407Y-73060811D01*
X140232406Y-73060808D01*
X140150738Y-72922714D01*
X140150731Y-72922705D01*
X140037294Y-72809268D01*
X140037285Y-72809261D01*
X139899191Y-72727593D01*
X139899188Y-72727591D01*
X139760001Y-72687153D01*
X139760000Y-72687154D01*
X139760000Y-73250000D01*
X139260434Y-73250000D01*
X139260382Y-73249332D01*
X139260000Y-73239607D01*
X139260000Y-72675953D01*
X139279685Y-72608914D01*
X139296319Y-72588272D01*
X139350858Y-72533733D01*
X139350858Y-72533731D01*
X139361062Y-72523528D01*
X139361065Y-72523523D01*
X140485857Y-71398734D01*
X140486052Y-71398443D01*
X140554311Y-71296286D01*
X140601463Y-71182452D01*
X140625500Y-71061606D01*
X140625500Y-64567741D01*
X140625501Y-64567720D01*
X140625501Y-64438391D01*
X140625500Y-64438389D01*
X140601465Y-64317558D01*
X140601463Y-64317551D01*
X140601463Y-64317549D01*
X140598675Y-64310819D01*
X140584401Y-64276358D01*
X140578659Y-64262494D01*
X140554314Y-64203719D01*
X140554313Y-64203717D01*
X140485858Y-64101266D01*
X140485855Y-64101263D01*
X139492928Y-63108338D01*
X139492925Y-63108334D01*
X139492925Y-63108335D01*
X139485858Y-63101268D01*
X139485858Y-63101267D01*
X139398733Y-63014142D01*
X139398732Y-63014141D01*
X139398731Y-63014140D01*
X139338528Y-62973914D01*
X139314403Y-62957794D01*
X139296286Y-62945688D01*
X139215792Y-62912347D01*
X139215790Y-62912345D01*
X139180941Y-62897911D01*
X139126537Y-62854070D01*
X139115035Y-62830165D01*
X139113795Y-62830679D01*
X139104759Y-62808865D01*
X139069124Y-62722834D01*
X139064312Y-62711216D01*
X139064307Y-62711207D01*
X138995858Y-62608767D01*
X138995855Y-62608763D01*
X138905637Y-62518545D01*
X138905606Y-62518516D01*
X138278663Y-61891573D01*
X138245178Y-61830250D01*
X138250162Y-61760558D01*
X138292034Y-61704625D01*
X138343993Y-61681923D01*
X138647339Y-61626333D01*
X138959164Y-61529164D01*
X138959175Y-61529160D01*
X139257041Y-61395102D01*
X139257043Y-61395101D01*
X139536586Y-61226112D01*
X139724968Y-61078523D01*
X139724968Y-61078522D01*
X138582737Y-59936290D01*
X138716602Y-59839033D01*
X138839033Y-59716602D01*
X138936290Y-59582737D01*
X140078522Y-60724968D01*
X140078523Y-60724968D01*
X140226112Y-60536586D01*
X140395101Y-60257043D01*
X140395102Y-60257041D01*
X140529160Y-59959175D01*
X140529164Y-59959164D01*
X140626332Y-59647341D01*
X140685213Y-59326038D01*
X140704934Y-59000000D01*
X140685213Y-58673961D01*
X140626332Y-58352658D01*
X140529164Y-58040835D01*
X140529160Y-58040824D01*
X140395102Y-57742958D01*
X140395101Y-57742956D01*
X140226118Y-57463423D01*
X140078522Y-57275030D01*
X138936290Y-58417262D01*
X138839033Y-58283398D01*
X138716602Y-58160967D01*
X138582736Y-58063709D01*
X139724968Y-56921476D01*
X139536576Y-56773881D01*
X139257043Y-56604898D01*
X139257041Y-56604897D01*
X138959175Y-56470839D01*
X138959164Y-56470835D01*
X138647341Y-56373667D01*
X138326038Y-56314786D01*
X138000000Y-56295065D01*
X137673961Y-56314786D01*
X137352658Y-56373667D01*
X137040835Y-56470835D01*
X137040824Y-56470839D01*
X136742958Y-56604897D01*
X136742956Y-56604898D01*
X136463411Y-56773889D01*
X136448326Y-56785707D01*
X136383413Y-56811553D01*
X136314831Y-56798202D01*
X136264354Y-56749892D01*
X136248009Y-56681961D01*
X136270984Y-56615977D01*
X136284168Y-56600421D01*
X137447817Y-55436771D01*
X137509138Y-55403288D01*
X137573813Y-55406522D01*
X137683757Y-55442246D01*
X137893713Y-55475500D01*
X137893714Y-55475500D01*
X138106286Y-55475500D01*
X138106287Y-55475500D01*
X138316243Y-55442246D01*
X138518412Y-55376557D01*
X138707816Y-55280051D01*
X138729789Y-55264086D01*
X138879786Y-55155109D01*
X138879788Y-55155106D01*
X138879792Y-55155104D01*
X139030104Y-55004792D01*
X139030106Y-55004788D01*
X139030109Y-55004786D01*
X139155048Y-54832820D01*
X139155047Y-54832820D01*
X139155051Y-54832816D01*
X139251557Y-54643412D01*
X139317246Y-54441243D01*
X139350500Y-54231287D01*
X139350500Y-53768713D01*
X139317246Y-53558757D01*
X139251557Y-53356588D01*
X139155051Y-53167184D01*
X139155049Y-53167181D01*
X139155048Y-53167179D01*
X139030109Y-52995213D01*
X138879786Y-52844890D01*
X138707820Y-52719951D01*
X138518414Y-52623444D01*
X138518413Y-52623443D01*
X138518412Y-52623443D01*
X138316243Y-52557754D01*
X138316241Y-52557753D01*
X138316240Y-52557753D01*
X138153640Y-52532000D01*
X138106287Y-52524500D01*
X137893713Y-52524500D01*
X137846360Y-52532000D01*
X137683760Y-52557753D01*
X137481585Y-52623444D01*
X137292179Y-52719951D01*
X137120213Y-52844890D01*
X136969894Y-52995209D01*
X136969890Y-52995214D01*
X136850318Y-53159793D01*
X136794989Y-53202459D01*
X136725375Y-53208438D01*
X136663580Y-53175833D01*
X136649682Y-53159793D01*
X136530109Y-52995214D01*
X136530105Y-52995209D01*
X136379786Y-52844890D01*
X136207820Y-52719951D01*
X136018414Y-52623444D01*
X136018413Y-52623443D01*
X136018412Y-52623443D01*
X135816243Y-52557754D01*
X135816241Y-52557753D01*
X135816240Y-52557753D01*
X135653640Y-52532000D01*
X135606287Y-52524500D01*
X135393713Y-52524500D01*
X135346360Y-52532000D01*
X135183760Y-52557753D01*
X134981585Y-52623444D01*
X134792179Y-52719951D01*
X134620213Y-52844890D01*
X134469894Y-52995209D01*
X134469890Y-52995214D01*
X134350318Y-53159793D01*
X134294989Y-53202459D01*
X134225375Y-53208438D01*
X134163580Y-53175833D01*
X134149682Y-53159793D01*
X134030109Y-52995214D01*
X134030105Y-52995209D01*
X133879786Y-52844890D01*
X133707820Y-52719951D01*
X133518414Y-52623444D01*
X133518413Y-52623443D01*
X133518412Y-52623443D01*
X133316243Y-52557754D01*
X133316241Y-52557753D01*
X133316240Y-52557753D01*
X133153640Y-52532000D01*
X133106287Y-52524500D01*
X133106286Y-52524500D01*
X132990782Y-52524500D01*
X132923743Y-52504815D01*
X132903101Y-52488181D01*
X131281479Y-50866559D01*
X131281459Y-50866537D01*
X131137785Y-50722863D01*
X131137781Y-50722860D01*
X130973920Y-50613371D01*
X130973911Y-50613366D01*
X130901315Y-50583296D01*
X130845165Y-50560038D01*
X130791836Y-50537949D01*
X130791832Y-50537948D01*
X130791828Y-50537946D01*
X130695188Y-50518724D01*
X130598544Y-50499500D01*
X130598541Y-50499500D01*
X126901459Y-50499500D01*
X126901455Y-50499500D01*
X126804812Y-50518724D01*
X126708167Y-50537947D01*
X126708161Y-50537949D01*
X126654834Y-50560037D01*
X126654834Y-50560038D01*
X126611918Y-50577814D01*
X126526084Y-50613368D01*
X126526083Y-50613368D01*
X126403045Y-50695579D01*
X126403046Y-50695580D01*
X126362218Y-50722859D01*
X126362215Y-50722862D01*
X124724999Y-52360081D01*
X124121899Y-52963181D01*
X124060576Y-52996666D01*
X124034218Y-52999500D01*
X122345410Y-52999500D01*
X122278371Y-52979815D01*
X122232616Y-52927011D01*
X122223793Y-52899691D01*
X122212968Y-52845271D01*
X122212052Y-52840665D01*
X122136632Y-52658586D01*
X122136631Y-52658585D01*
X122136628Y-52658579D01*
X122027140Y-52494719D01*
X122027137Y-52494715D01*
X120401709Y-50869289D01*
X120401706Y-50869285D01*
X120401706Y-50869286D01*
X120394639Y-50862219D01*
X120394639Y-50862218D01*
X120255282Y-50722861D01*
X120255281Y-50722860D01*
X120255280Y-50722859D01*
X120091420Y-50613371D01*
X120091411Y-50613366D01*
X120018815Y-50583296D01*
X119962665Y-50560038D01*
X119909336Y-50537949D01*
X119909332Y-50537948D01*
X119909328Y-50537946D01*
X119812688Y-50518724D01*
X119716044Y-50499500D01*
X119716041Y-50499500D01*
X114683959Y-50499500D01*
X114683955Y-50499500D01*
X114587312Y-50518724D01*
X114490667Y-50537947D01*
X114490661Y-50537949D01*
X114437334Y-50560037D01*
X114437334Y-50560038D01*
X114391815Y-50578892D01*
X114308589Y-50613366D01*
X114308579Y-50613371D01*
X114144719Y-50722859D01*
X114075040Y-50792538D01*
X114005361Y-50862218D01*
X114005358Y-50862221D01*
X112371899Y-52495681D01*
X112310576Y-52529166D01*
X112284218Y-52532000D01*
X112143713Y-52532000D01*
X112095042Y-52539708D01*
X111933760Y-52565253D01*
X111731585Y-52630944D01*
X111542179Y-52727451D01*
X111370215Y-52852389D01*
X111231398Y-52991206D01*
X111170075Y-53024690D01*
X111100383Y-53019706D01*
X111044450Y-52977834D01*
X111038178Y-52968620D01*
X110942712Y-52813844D01*
X110818657Y-52689789D01*
X110818656Y-52689788D01*
X110669334Y-52597686D01*
X110502797Y-52542501D01*
X110502795Y-52542500D01*
X110400010Y-52532000D01*
X109099998Y-52532000D01*
X109099981Y-52532001D01*
X108997203Y-52542500D01*
X108997200Y-52542501D01*
X108830668Y-52597685D01*
X108830663Y-52597687D01*
X108681342Y-52689789D01*
X108557289Y-52813842D01*
X108465187Y-52963163D01*
X108465185Y-52963168D01*
X108447139Y-53017628D01*
X108410001Y-53129703D01*
X108410001Y-53129704D01*
X108410000Y-53129704D01*
X108399500Y-53232483D01*
X108399500Y-54832501D01*
X108399501Y-54832518D01*
X108410000Y-54935296D01*
X108410001Y-54935299D01*
X108465185Y-55101831D01*
X108465187Y-55101836D01*
X108490392Y-55142699D01*
X108557288Y-55251156D01*
X108681344Y-55375212D01*
X108830666Y-55467314D01*
X108997203Y-55522499D01*
X109099991Y-55533000D01*
X110400008Y-55532999D01*
X110502797Y-55522499D01*
X110669334Y-55467314D01*
X110818656Y-55375212D01*
X110942712Y-55251156D01*
X111034814Y-55101834D01*
X111034814Y-55101831D01*
X111038178Y-55096379D01*
X111090126Y-55049654D01*
X111159088Y-55038431D01*
X111223170Y-55066274D01*
X111231398Y-55073794D01*
X111370213Y-55212609D01*
X111542179Y-55337548D01*
X111542181Y-55337549D01*
X111542184Y-55337551D01*
X111731588Y-55434057D01*
X111933757Y-55499746D01*
X112143713Y-55533000D01*
X112143714Y-55533000D01*
X112356286Y-55533000D01*
X112356287Y-55533000D01*
X112566243Y-55499746D01*
X112768412Y-55434057D01*
X112957816Y-55337551D01*
X113037552Y-55279620D01*
X113129786Y-55212609D01*
X113129788Y-55212606D01*
X113129792Y-55212604D01*
X113280104Y-55062292D01*
X113280106Y-55062288D01*
X113280109Y-55062286D01*
X113405048Y-54890320D01*
X113405047Y-54890320D01*
X113405051Y-54890316D01*
X113501557Y-54700912D01*
X113567246Y-54498743D01*
X113600500Y-54288787D01*
X113600500Y-54148282D01*
X113620185Y-54081243D01*
X113636819Y-54060601D01*
X115160601Y-52536819D01*
X115221924Y-52503334D01*
X115248282Y-52500500D01*
X117571270Y-52500500D01*
X117638309Y-52520185D01*
X117684064Y-52572989D01*
X117694008Y-52642147D01*
X117664983Y-52705703D01*
X117658951Y-52712181D01*
X117557289Y-52813842D01*
X117465187Y-52963163D01*
X117465185Y-52963168D01*
X117447139Y-53017628D01*
X117410001Y-53129703D01*
X117410001Y-53129704D01*
X117410000Y-53129704D01*
X117399500Y-53232483D01*
X117399500Y-54832501D01*
X117399501Y-54832518D01*
X117410000Y-54935296D01*
X117410001Y-54935299D01*
X117465185Y-55101831D01*
X117465187Y-55101836D01*
X117490392Y-55142699D01*
X117557288Y-55251156D01*
X117681344Y-55375212D01*
X117830666Y-55467314D01*
X117997203Y-55522499D01*
X118099991Y-55533000D01*
X119400008Y-55532999D01*
X119502797Y-55522499D01*
X119669334Y-55467314D01*
X119818656Y-55375212D01*
X119942712Y-55251156D01*
X120019961Y-55125913D01*
X120071909Y-55079189D01*
X120140871Y-55067966D01*
X120204953Y-55095809D01*
X120243810Y-55153878D01*
X120249500Y-55191010D01*
X120249500Y-55566717D01*
X120229815Y-55633756D01*
X120213181Y-55654398D01*
X118862220Y-57005359D01*
X118862218Y-57005361D01*
X118792538Y-57075040D01*
X118722859Y-57144719D01*
X118613371Y-57308579D01*
X118613366Y-57308589D01*
X118560041Y-57437324D01*
X118560042Y-57437325D01*
X118556587Y-57445670D01*
X118556579Y-57445689D01*
X118537949Y-57490664D01*
X118537947Y-57490670D01*
X118499500Y-57683956D01*
X118499500Y-58378234D01*
X118479815Y-58445273D01*
X118427011Y-58491028D01*
X118399687Y-58499852D01*
X118369387Y-58505878D01*
X118208170Y-58537946D01*
X118208164Y-58537948D01*
X118026088Y-58613366D01*
X118026079Y-58613371D01*
X117862219Y-58722859D01*
X117862215Y-58722862D01*
X115955447Y-60629630D01*
X115894124Y-60663115D01*
X115824432Y-60658131D01*
X115768499Y-60616259D01*
X115744082Y-60550795D01*
X115758934Y-60482522D01*
X115761649Y-60477799D01*
X115895102Y-60257043D01*
X115895102Y-60257041D01*
X116029160Y-59959175D01*
X116029164Y-59959164D01*
X116126332Y-59647341D01*
X116185213Y-59326038D01*
X116204934Y-59000000D01*
X116185213Y-58673961D01*
X116126332Y-58352658D01*
X116029164Y-58040835D01*
X116029160Y-58040824D01*
X115895102Y-57742958D01*
X115895101Y-57742956D01*
X115726118Y-57463423D01*
X115578522Y-57275030D01*
X114436290Y-58417261D01*
X114339033Y-58283398D01*
X114216602Y-58160967D01*
X114082736Y-58063709D01*
X115224968Y-56921476D01*
X115036576Y-56773881D01*
X114757043Y-56604898D01*
X114757041Y-56604897D01*
X114459175Y-56470839D01*
X114459164Y-56470835D01*
X114147341Y-56373667D01*
X113826038Y-56314786D01*
X113500000Y-56295065D01*
X113173961Y-56314786D01*
X112852658Y-56373667D01*
X112540835Y-56470835D01*
X112540824Y-56470839D01*
X112242958Y-56604897D01*
X112242956Y-56604898D01*
X111963422Y-56773881D01*
X111963416Y-56773886D01*
X111775030Y-56921474D01*
X111775029Y-56921476D01*
X112917262Y-58063709D01*
X112783398Y-58160967D01*
X112660967Y-58283398D01*
X112563709Y-58417262D01*
X111421476Y-57275029D01*
X111421474Y-57275030D01*
X111273886Y-57463416D01*
X111273881Y-57463422D01*
X111104898Y-57742956D01*
X111104897Y-57742958D01*
X110970839Y-58040824D01*
X110970835Y-58040835D01*
X110873667Y-58352658D01*
X110814786Y-58673961D01*
X110795065Y-59000000D01*
X110814786Y-59326038D01*
X110873667Y-59647341D01*
X110970835Y-59959164D01*
X110970839Y-59959175D01*
X111104897Y-60257041D01*
X111104898Y-60257043D01*
X111273881Y-60536576D01*
X111421476Y-60724968D01*
X112563708Y-59582736D01*
X112660967Y-59716602D01*
X112783398Y-59839033D01*
X112917261Y-59936290D01*
X111775030Y-61078522D01*
X111775030Y-61078523D01*
X111963423Y-61226118D01*
X112076346Y-61294383D01*
X112123533Y-61345911D01*
X112135372Y-61414770D01*
X112108103Y-61479099D01*
X112050385Y-61518473D01*
X112012196Y-61524500D01*
X111945818Y-61524500D01*
X111847316Y-61534563D01*
X111847315Y-61534564D01*
X111768219Y-61560773D01*
X111687715Y-61587450D01*
X111687706Y-61587455D01*
X111637767Y-61618257D01*
X111570374Y-61636697D01*
X111503711Y-61615774D01*
X111484990Y-61600399D01*
X109955642Y-60071052D01*
X109922157Y-60009729D01*
X109925391Y-59945055D01*
X109967246Y-59816243D01*
X110000500Y-59606287D01*
X110000500Y-59393713D01*
X109967246Y-59183757D01*
X109901557Y-58981588D01*
X109805051Y-58792184D01*
X109805049Y-58792181D01*
X109805048Y-58792179D01*
X109680109Y-58620213D01*
X109529786Y-58469890D01*
X109357820Y-58344951D01*
X109168414Y-58248444D01*
X109168413Y-58248443D01*
X109168412Y-58248443D01*
X108966243Y-58182754D01*
X108966241Y-58182753D01*
X108966240Y-58182753D01*
X108804957Y-58157208D01*
X108756287Y-58149500D01*
X108243713Y-58149500D01*
X108195042Y-58157208D01*
X108033760Y-58182753D01*
X107831585Y-58248444D01*
X107642179Y-58344951D01*
X107470213Y-58469890D01*
X107319894Y-58620209D01*
X107319890Y-58620214D01*
X107224318Y-58751759D01*
X107168988Y-58794425D01*
X107099375Y-58800404D01*
X107037580Y-58767799D01*
X107003223Y-58706960D01*
X107000000Y-58678874D01*
X107000000Y-49124000D01*
X107019685Y-49056961D01*
X107072489Y-49011206D01*
X107124000Y-49000000D01*
X140876000Y-49000000D01*
X140943039Y-49019685D01*
G37*
%TD.AperFunction*%
%TA.AperFunction,Conductor*%
G36*
X120874891Y-75145185D02*
G01*
X120920646Y-75197989D01*
X120930590Y-75267147D01*
X120913390Y-75314597D01*
X120837455Y-75437704D01*
X120837451Y-75437713D01*
X120784564Y-75597315D01*
X120784564Y-75597316D01*
X120784563Y-75597316D01*
X120774500Y-75695818D01*
X120774500Y-76304181D01*
X120784563Y-76402683D01*
X120784564Y-76402684D01*
X120835960Y-76557788D01*
X120838362Y-76627617D01*
X120805935Y-76684473D01*
X118989933Y-78500475D01*
X118937867Y-78529642D01*
X118938390Y-78531249D01*
X118933759Y-78532753D01*
X118933757Y-78532754D01*
X118754772Y-78590910D01*
X118731585Y-78598444D01*
X118542179Y-78694951D01*
X118370213Y-78819890D01*
X118219890Y-78970213D01*
X118094951Y-79142179D01*
X117998444Y-79331585D01*
X117932753Y-79533760D01*
X117910787Y-79672452D01*
X117899500Y-79743713D01*
X117899500Y-80256287D01*
X117900150Y-80260393D01*
X117932703Y-80465925D01*
X117932754Y-80466243D01*
X117996463Y-80662319D01*
X117998444Y-80668414D01*
X118094951Y-80857820D01*
X118219890Y-81029786D01*
X118370213Y-81180109D01*
X118542179Y-81305048D01*
X118542181Y-81305049D01*
X118542184Y-81305051D01*
X118731588Y-81401557D01*
X118933757Y-81467246D01*
X119143713Y-81500500D01*
X119143714Y-81500500D01*
X119356286Y-81500500D01*
X119356287Y-81500500D01*
X119566243Y-81467246D01*
X119768412Y-81401557D01*
X119957816Y-81305051D01*
X120023897Y-81257041D01*
X120129784Y-81180110D01*
X120129784Y-81180109D01*
X120129792Y-81180104D01*
X120268967Y-81040928D01*
X120330286Y-81007446D01*
X120399978Y-81012430D01*
X120455912Y-81054301D01*
X120462184Y-81063515D01*
X120557684Y-81218345D01*
X120681654Y-81342315D01*
X120830875Y-81434356D01*
X120830880Y-81434358D01*
X120997302Y-81489505D01*
X120997309Y-81489506D01*
X121100019Y-81499999D01*
X121499999Y-81499999D01*
X121500000Y-81499998D01*
X121500000Y-80433012D01*
X121557007Y-80465925D01*
X121684174Y-80500000D01*
X121815826Y-80500000D01*
X121942993Y-80465925D01*
X122000000Y-80433012D01*
X122000000Y-81499999D01*
X122399972Y-81499999D01*
X122399986Y-81499998D01*
X122502697Y-81489505D01*
X122669119Y-81434358D01*
X122669124Y-81434356D01*
X122818345Y-81342315D01*
X122942315Y-81218345D01*
X123034356Y-81069124D01*
X123034358Y-81069119D01*
X123089505Y-80902697D01*
X123089506Y-80902690D01*
X123099999Y-80799986D01*
X123100000Y-80799973D01*
X123100000Y-80750000D01*
X125241210Y-80750000D01*
X125242854Y-80770910D01*
X125287968Y-80926195D01*
X125370278Y-81065374D01*
X125370285Y-81065383D01*
X125484616Y-81179714D01*
X125484625Y-81179721D01*
X125623804Y-81262031D01*
X125770000Y-81304504D01*
X125770000Y-80750000D01*
X125241210Y-80750000D01*
X123100000Y-80750000D01*
X123100000Y-80250000D01*
X122183012Y-80250000D01*
X122215925Y-80192993D01*
X122250000Y-80065826D01*
X122250000Y-79934174D01*
X122215925Y-79807007D01*
X122183012Y-79750000D01*
X123099999Y-79750000D01*
X123099999Y-79200028D01*
X123099998Y-79200013D01*
X123089505Y-79097302D01*
X123034358Y-78930880D01*
X123034356Y-78930875D01*
X122942315Y-78781654D01*
X122818345Y-78657684D01*
X122669124Y-78565643D01*
X122669119Y-78565641D01*
X122502697Y-78510494D01*
X122502690Y-78510493D01*
X122399986Y-78500000D01*
X122000000Y-78500000D01*
X122000000Y-79566988D01*
X121942993Y-79534075D01*
X121815826Y-79500000D01*
X121684174Y-79500000D01*
X121557007Y-79534075D01*
X121500000Y-79566988D01*
X121500000Y-78500000D01*
X121100028Y-78500000D01*
X121100010Y-78500001D01*
X121067596Y-78503313D01*
X120998903Y-78490543D01*
X120948019Y-78442662D01*
X120931099Y-78374872D01*
X120953515Y-78308696D01*
X120967308Y-78292280D01*
X122111229Y-77148360D01*
X122111233Y-77148358D01*
X122198358Y-77061233D01*
X122266811Y-76958786D01*
X122266812Y-76958785D01*
X122287327Y-76909257D01*
X122331165Y-76854857D01*
X122336763Y-76851190D01*
X122380391Y-76824281D01*
X122412319Y-76792353D01*
X122473642Y-76758868D01*
X122543334Y-76763852D01*
X122587681Y-76792353D01*
X122619608Y-76824280D01*
X122619612Y-76824283D01*
X122762704Y-76912544D01*
X122762707Y-76912545D01*
X122762713Y-76912549D01*
X122922315Y-76965436D01*
X123020826Y-76975500D01*
X123020831Y-76975500D01*
X123554169Y-76975500D01*
X123554174Y-76975500D01*
X123652685Y-76965436D01*
X123812287Y-76912549D01*
X123955391Y-76824281D01*
X124074281Y-76705391D01*
X124087227Y-76684401D01*
X124139174Y-76637679D01*
X124192765Y-76625500D01*
X125345404Y-76625500D01*
X125412443Y-76645185D01*
X125433085Y-76661819D01*
X125462396Y-76691130D01*
X125462400Y-76691133D01*
X125462402Y-76691135D01*
X125600607Y-76772869D01*
X125641268Y-76784682D01*
X125754791Y-76817664D01*
X125754793Y-76817664D01*
X125754796Y-76817665D01*
X125760222Y-76818092D01*
X125825512Y-76842972D01*
X125866986Y-76899201D01*
X125874500Y-76941710D01*
X125874500Y-79572033D01*
X125854815Y-79639072D01*
X125802011Y-79684827D01*
X125785095Y-79691109D01*
X125623809Y-79737966D01*
X125623804Y-79737968D01*
X125484625Y-79820278D01*
X125484616Y-79820285D01*
X125370285Y-79934616D01*
X125370278Y-79934625D01*
X125287968Y-80073804D01*
X125287966Y-80073809D01*
X125242855Y-80229081D01*
X125242854Y-80229087D01*
X125241209Y-80249999D01*
X125241210Y-80250000D01*
X125835935Y-80250000D01*
X125902974Y-80269685D01*
X125941683Y-80311634D01*
X125942303Y-80311220D01*
X125944932Y-80315155D01*
X125945293Y-80315546D01*
X125945690Y-80316289D01*
X125979914Y-80367507D01*
X125979915Y-80367509D01*
X126014140Y-80418731D01*
X126014141Y-80418732D01*
X126014142Y-80418733D01*
X126101267Y-80505858D01*
X126101268Y-80505858D01*
X126108335Y-80512925D01*
X126108334Y-80512925D01*
X126108338Y-80512928D01*
X126163181Y-80567771D01*
X126196666Y-80629094D01*
X126199500Y-80655452D01*
X126199500Y-80734697D01*
X126202356Y-80770991D01*
X126202357Y-80770997D01*
X126247503Y-80926389D01*
X126247505Y-80926393D01*
X126247506Y-80926395D01*
X126252732Y-80935233D01*
X126270000Y-80998352D01*
X126270000Y-81304503D01*
X126416194Y-81262032D01*
X126436384Y-81250091D01*
X126504108Y-81232906D01*
X126562629Y-81250089D01*
X126574388Y-81257043D01*
X126583607Y-81262495D01*
X126590164Y-81265333D01*
X126643871Y-81310025D01*
X126664889Y-81376658D01*
X126646547Y-81444077D01*
X126628595Y-81466814D01*
X125757229Y-82338181D01*
X125695906Y-82371666D01*
X125669548Y-82374500D01*
X115206521Y-82374500D01*
X115139482Y-82354815D01*
X115093727Y-82302011D01*
X115083783Y-82232853D01*
X115112808Y-82169297D01*
X115130048Y-82152889D01*
X115224968Y-82078523D01*
X115224968Y-82078522D01*
X114082737Y-80936290D01*
X114216602Y-80839033D01*
X114339033Y-80716602D01*
X114436290Y-80582737D01*
X115578522Y-81724968D01*
X115578523Y-81724968D01*
X115726112Y-81536586D01*
X115895101Y-81257043D01*
X115895102Y-81257041D01*
X116029160Y-80959175D01*
X116029164Y-80959164D01*
X116126332Y-80647341D01*
X116185213Y-80326038D01*
X116204934Y-80000000D01*
X116185213Y-79673961D01*
X116126332Y-79352658D01*
X116029164Y-79040835D01*
X116029160Y-79040824D01*
X115895102Y-78742958D01*
X115895101Y-78742956D01*
X115726118Y-78463423D01*
X115578522Y-78275030D01*
X114436290Y-79417262D01*
X114339033Y-79283398D01*
X114216602Y-79160967D01*
X114082736Y-79063709D01*
X115224968Y-77921476D01*
X115130048Y-77847111D01*
X115089415Y-77790271D01*
X115085963Y-77720487D01*
X115120787Y-77659914D01*
X115182831Y-77627784D01*
X115206521Y-77625500D01*
X115736608Y-77625500D01*
X115736608Y-77625499D01*
X115833199Y-77606287D01*
X115833200Y-77606287D01*
X115857447Y-77601464D01*
X115857447Y-77601463D01*
X115857452Y-77601463D01*
X115857457Y-77601460D01*
X115857460Y-77601460D01*
X115890787Y-77587654D01*
X115890786Y-77587654D01*
X115890792Y-77587652D01*
X115971286Y-77554312D01*
X116022509Y-77520084D01*
X116073733Y-77485858D01*
X116160858Y-77398733D01*
X116160859Y-77398731D01*
X116167925Y-77391665D01*
X116167927Y-77391661D01*
X117447771Y-76111819D01*
X117509094Y-76078334D01*
X117535452Y-76075500D01*
X117594644Y-76075500D01*
X117594646Y-76075500D01*
X117779803Y-76036144D01*
X117952730Y-75959151D01*
X118105871Y-75847888D01*
X118232533Y-75707216D01*
X118327179Y-75543284D01*
X118385674Y-75363256D01*
X118398992Y-75236537D01*
X118425577Y-75171924D01*
X118482874Y-75131939D01*
X118522313Y-75125500D01*
X120807852Y-75125500D01*
X120874891Y-75145185D01*
G37*
%TD.AperFunction*%
%TA.AperFunction,Conductor*%
G36*
X111860517Y-77645185D02*
G01*
X111906272Y-77697989D01*
X111916216Y-77767147D01*
X111887191Y-77830703D01*
X111869950Y-77847111D01*
X111775030Y-77921474D01*
X111775029Y-77921476D01*
X112917262Y-79063709D01*
X112783398Y-79160967D01*
X112660967Y-79283398D01*
X112563709Y-79417262D01*
X111421476Y-78275029D01*
X111421474Y-78275030D01*
X111273886Y-78463416D01*
X111273881Y-78463422D01*
X111104898Y-78742956D01*
X111104897Y-78742958D01*
X110970839Y-79040824D01*
X110970835Y-79040835D01*
X110873667Y-79352658D01*
X110814786Y-79673961D01*
X110795065Y-80000000D01*
X110814786Y-80326038D01*
X110873667Y-80647341D01*
X110970835Y-80959164D01*
X110970839Y-80959175D01*
X111104897Y-81257041D01*
X111104898Y-81257043D01*
X111273888Y-81536587D01*
X111285699Y-81551662D01*
X111311549Y-81616574D01*
X111298201Y-81685157D01*
X111249893Y-81735636D01*
X111181963Y-81751985D01*
X111115978Y-81729012D01*
X111100408Y-81715817D01*
X110036818Y-80652227D01*
X110003333Y-80590904D01*
X110000499Y-80564546D01*
X110000499Y-79349998D01*
X110000498Y-79349981D01*
X109989999Y-79247203D01*
X109989998Y-79247200D01*
X109974362Y-79200013D01*
X109934814Y-79080666D01*
X109842712Y-78931344D01*
X109718656Y-78807288D01*
X109569334Y-78715186D01*
X109569333Y-78715185D01*
X109563878Y-78711821D01*
X109517154Y-78659873D01*
X109505931Y-78590910D01*
X109533775Y-78526828D01*
X109541272Y-78518623D01*
X109680104Y-78379792D01*
X109805051Y-78207816D01*
X109901557Y-78018412D01*
X109967246Y-77816243D01*
X109980890Y-77730102D01*
X110010820Y-77666967D01*
X110070131Y-77630036D01*
X110103363Y-77625500D01*
X111793478Y-77625500D01*
X111860517Y-77645185D01*
G37*
%TD.AperFunction*%
%TA.AperFunction,Conductor*%
G36*
X110205202Y-62090238D02*
G01*
X110211671Y-62096262D01*
X110515508Y-62400099D01*
X111101263Y-62985855D01*
X111101267Y-62985858D01*
X111203712Y-63054310D01*
X111203711Y-63054310D01*
X111203713Y-63054311D01*
X111203715Y-63054312D01*
X111239432Y-63069106D01*
X111239433Y-63069107D01*
X111239434Y-63069107D01*
X111317548Y-63101463D01*
X111317554Y-63101464D01*
X111323380Y-63103232D01*
X111322810Y-63105110D01*
X111376700Y-63133297D01*
X111396138Y-63157434D01*
X111424999Y-63204225D01*
X111425719Y-63205391D01*
X111544609Y-63324281D01*
X111544611Y-63324282D01*
X111544612Y-63324283D01*
X111687704Y-63412544D01*
X111687707Y-63412545D01*
X111687713Y-63412549D01*
X111847315Y-63465436D01*
X111945826Y-63475500D01*
X111945831Y-63475500D01*
X112479169Y-63475500D01*
X112479174Y-63475500D01*
X112577685Y-63465436D01*
X112737287Y-63412549D01*
X112880391Y-63324281D01*
X112912319Y-63292353D01*
X112973642Y-63258868D01*
X113043334Y-63263852D01*
X113087681Y-63292353D01*
X113119609Y-63324281D01*
X113173640Y-63357607D01*
X113220365Y-63409554D01*
X113223105Y-63415693D01*
X113233188Y-63440036D01*
X113256885Y-63475500D01*
X113301641Y-63542482D01*
X113301644Y-63542486D01*
X113393086Y-63633928D01*
X113393108Y-63633948D01*
X114373938Y-64614778D01*
X114407423Y-64676101D01*
X114402439Y-64745793D01*
X114360567Y-64801726D01*
X114295103Y-64826143D01*
X114266859Y-64824932D01*
X114120341Y-64801726D01*
X114106287Y-64799500D01*
X113893713Y-64799500D01*
X113879659Y-64801726D01*
X113683760Y-64832753D01*
X113481585Y-64898444D01*
X113292179Y-64994951D01*
X113120213Y-65119890D01*
X112969890Y-65270213D01*
X112844951Y-65442179D01*
X112748444Y-65631585D01*
X112682753Y-65833760D01*
X112649500Y-66043713D01*
X112649500Y-66556287D01*
X112653976Y-66584544D01*
X112676550Y-66727077D01*
X112682754Y-66766243D01*
X112723688Y-66892225D01*
X112748444Y-66968414D01*
X112844951Y-67157820D01*
X112969890Y-67329786D01*
X113120213Y-67480109D01*
X113292179Y-67605048D01*
X113292181Y-67605049D01*
X113292184Y-67605051D01*
X113481588Y-67701557D01*
X113683757Y-67767246D01*
X113893713Y-67800500D01*
X113893714Y-67800500D01*
X114106286Y-67800500D01*
X114106287Y-67800500D01*
X114316243Y-67767246D01*
X114518412Y-67701557D01*
X114707816Y-67605051D01*
X114765141Y-67563402D01*
X114879784Y-67480110D01*
X114879784Y-67480109D01*
X114879792Y-67480104D01*
X115018604Y-67341291D01*
X115079923Y-67307809D01*
X115149615Y-67312793D01*
X115205549Y-67354664D01*
X115211821Y-67363878D01*
X115215185Y-67369333D01*
X115215186Y-67369334D01*
X115307288Y-67518656D01*
X115431344Y-67642712D01*
X115580666Y-67734814D01*
X115747203Y-67789999D01*
X115849991Y-67800500D01*
X117150008Y-67800499D01*
X117252797Y-67789999D01*
X117419334Y-67734814D01*
X117568656Y-67642712D01*
X117692712Y-67518656D01*
X117784814Y-67369334D01*
X117839999Y-67202797D01*
X117850500Y-67100009D01*
X117850500Y-67049500D01*
X117870185Y-66982461D01*
X117922989Y-66936706D01*
X117974500Y-66925500D01*
X118489548Y-66925500D01*
X118556587Y-66945185D01*
X118577229Y-66961819D01*
X121061038Y-69445629D01*
X121094523Y-69506952D01*
X121096678Y-69520348D01*
X121102645Y-69577114D01*
X121114326Y-69688256D01*
X121114327Y-69688259D01*
X121172818Y-69868277D01*
X121172821Y-69868284D01*
X121267467Y-70032216D01*
X121370698Y-70146865D01*
X121394129Y-70172888D01*
X121547265Y-70284148D01*
X121547270Y-70284151D01*
X121720192Y-70361142D01*
X121720197Y-70361144D01*
X121905354Y-70400500D01*
X121905355Y-70400500D01*
X122094644Y-70400500D01*
X122094646Y-70400500D01*
X122279803Y-70361144D01*
X122452730Y-70284151D01*
X122605871Y-70172888D01*
X122732533Y-70032216D01*
X122827179Y-69868284D01*
X122864342Y-69753907D01*
X122903779Y-69696233D01*
X122968138Y-69669034D01*
X123036984Y-69680948D01*
X123069954Y-69704545D01*
X124141263Y-70775855D01*
X124141267Y-70775858D01*
X124243712Y-70844310D01*
X124243711Y-70844310D01*
X124243713Y-70844311D01*
X124243715Y-70844312D01*
X124284350Y-70861143D01*
X124284351Y-70861144D01*
X124284352Y-70861144D01*
X124357548Y-70891463D01*
X124377597Y-70895451D01*
X124411196Y-70902134D01*
X124478392Y-70915501D01*
X124478394Y-70915501D01*
X124607721Y-70915501D01*
X124607741Y-70915500D01*
X126075500Y-70915500D01*
X126142539Y-70935185D01*
X126188294Y-70987989D01*
X126199500Y-71039500D01*
X126199500Y-71126000D01*
X126179815Y-71193039D01*
X126127011Y-71238794D01*
X126075500Y-71250000D01*
X125241210Y-71250000D01*
X125237763Y-71253727D01*
X125226119Y-71309152D01*
X125177066Y-71358907D01*
X125116867Y-71374500D01*
X124938394Y-71374500D01*
X124877971Y-71386518D01*
X124817546Y-71398537D01*
X124801923Y-71405009D01*
X124703717Y-71445686D01*
X124703708Y-71445691D01*
X124601267Y-71514141D01*
X124601263Y-71514144D01*
X123127229Y-72988181D01*
X123065906Y-73021666D01*
X123039548Y-73024500D01*
X123020818Y-73024500D01*
X122922316Y-73034563D01*
X122922315Y-73034564D01*
X122843723Y-73060607D01*
X122762715Y-73087450D01*
X122762704Y-73087455D01*
X122619612Y-73175716D01*
X122619608Y-73175719D01*
X122587681Y-73207647D01*
X122526358Y-73241132D01*
X122456666Y-73236148D01*
X122412319Y-73207647D01*
X122380391Y-73175719D01*
X122380387Y-73175716D01*
X122237295Y-73087455D01*
X122237289Y-73087452D01*
X122237287Y-73087451D01*
X122077685Y-73034564D01*
X122077683Y-73034563D01*
X121979181Y-73024500D01*
X121979174Y-73024500D01*
X121445826Y-73024500D01*
X121445818Y-73024500D01*
X121347316Y-73034563D01*
X121347315Y-73034564D01*
X121268723Y-73060607D01*
X121187715Y-73087450D01*
X121187704Y-73087455D01*
X121044612Y-73175716D01*
X121044608Y-73175719D01*
X120925719Y-73294608D01*
X120925716Y-73294612D01*
X120837455Y-73437704D01*
X120837450Y-73437715D01*
X120826312Y-73471329D01*
X120784564Y-73597315D01*
X120784564Y-73597316D01*
X120784563Y-73597316D01*
X120774500Y-73695818D01*
X120774500Y-73750500D01*
X120754815Y-73817539D01*
X120702011Y-73863294D01*
X120650500Y-73874500D01*
X117954296Y-73874500D01*
X117887257Y-73854815D01*
X117841502Y-73802011D01*
X117831558Y-73732853D01*
X117836589Y-73711499D01*
X117839504Y-73702699D01*
X117839506Y-73702690D01*
X117849999Y-73599986D01*
X117850000Y-73599973D01*
X117850000Y-73050000D01*
X116933012Y-73050000D01*
X116965925Y-72992993D01*
X117000000Y-72865826D01*
X117000000Y-72734174D01*
X116965925Y-72607007D01*
X116933012Y-72550000D01*
X117849999Y-72550000D01*
X117849999Y-72000028D01*
X117849998Y-72000013D01*
X117839505Y-71897302D01*
X117784358Y-71730880D01*
X117784356Y-71730875D01*
X117692315Y-71581654D01*
X117568345Y-71457684D01*
X117419124Y-71365643D01*
X117419119Y-71365641D01*
X117252697Y-71310494D01*
X117252690Y-71310493D01*
X117149986Y-71300000D01*
X116750000Y-71300000D01*
X116750000Y-72366988D01*
X116692993Y-72334075D01*
X116565826Y-72300000D01*
X116434174Y-72300000D01*
X116307007Y-72334075D01*
X116250000Y-72366988D01*
X116250000Y-71300000D01*
X116188997Y-71300000D01*
X116121958Y-71280315D01*
X116076203Y-71227511D01*
X116066259Y-71158353D01*
X116095284Y-71094797D01*
X116138560Y-71062721D01*
X116202730Y-71034151D01*
X116355871Y-70922888D01*
X116358788Y-70919647D01*
X116361600Y-70916526D01*
X116421087Y-70879879D01*
X116453748Y-70875500D01*
X117311608Y-70875500D01*
X117311608Y-70875499D01*
X117383781Y-70861144D01*
X117383783Y-70861144D01*
X117408282Y-70856270D01*
X117432452Y-70851463D01*
X117482496Y-70830734D01*
X117546286Y-70804312D01*
X117604655Y-70765310D01*
X117648733Y-70735858D01*
X117735858Y-70648733D01*
X117735860Y-70648729D01*
X117947772Y-70436816D01*
X118009094Y-70403334D01*
X118035452Y-70400500D01*
X118094644Y-70400500D01*
X118094646Y-70400500D01*
X118279803Y-70361144D01*
X118452730Y-70284151D01*
X118605871Y-70172888D01*
X118732533Y-70032216D01*
X118827179Y-69868284D01*
X118885674Y-69688256D01*
X118905460Y-69500000D01*
X118885674Y-69311744D01*
X118827179Y-69131716D01*
X118732533Y-68967784D01*
X118605871Y-68827112D01*
X118605870Y-68827111D01*
X118452734Y-68715851D01*
X118452729Y-68715848D01*
X118279807Y-68638857D01*
X118279802Y-68638855D01*
X118134001Y-68607865D01*
X118094646Y-68599500D01*
X117905354Y-68599500D01*
X117873428Y-68606286D01*
X117720197Y-68638855D01*
X117720192Y-68638857D01*
X117547270Y-68715848D01*
X117547265Y-68715851D01*
X117394129Y-68827111D01*
X117267466Y-68967785D01*
X117172821Y-69131715D01*
X117172818Y-69131722D01*
X117114327Y-69311740D01*
X117114326Y-69311744D01*
X117098129Y-69465851D01*
X117096679Y-69479650D01*
X117070094Y-69544264D01*
X117061041Y-69554368D01*
X117027230Y-69588180D01*
X116965907Y-69621666D01*
X116939547Y-69624500D01*
X116453748Y-69624500D01*
X116386709Y-69604815D01*
X116361600Y-69583474D01*
X116355873Y-69577114D01*
X116355869Y-69577110D01*
X116202734Y-69465851D01*
X116202729Y-69465848D01*
X116029807Y-69388857D01*
X116029802Y-69388855D01*
X115871124Y-69355128D01*
X115844646Y-69349500D01*
X115655354Y-69349500D01*
X115628876Y-69355128D01*
X115470197Y-69388855D01*
X115470192Y-69388857D01*
X115297270Y-69465848D01*
X115297265Y-69465851D01*
X115144129Y-69577111D01*
X115017466Y-69717785D01*
X114922821Y-69881715D01*
X114922818Y-69881722D01*
X114882634Y-70005398D01*
X114864326Y-70061744D01*
X114844540Y-70250000D01*
X114864326Y-70438256D01*
X114864327Y-70438259D01*
X114922818Y-70618277D01*
X114922821Y-70618284D01*
X115017467Y-70782216D01*
X115115833Y-70891462D01*
X115144129Y-70922888D01*
X115297265Y-71034148D01*
X115297270Y-71034151D01*
X115470192Y-71111142D01*
X115470193Y-71111142D01*
X115470197Y-71111144D01*
X115540090Y-71126000D01*
X115558612Y-71129937D01*
X115620094Y-71163129D01*
X115653871Y-71224292D01*
X115649219Y-71294006D01*
X115607615Y-71350139D01*
X115585240Y-71363608D01*
X115580880Y-71365641D01*
X115431654Y-71457684D01*
X115307683Y-71581655D01*
X115307680Y-71581659D01*
X115212183Y-71736484D01*
X115160235Y-71783209D01*
X115091273Y-71794430D01*
X115027191Y-71766587D01*
X115018964Y-71759068D01*
X114879786Y-71619890D01*
X114707820Y-71494951D01*
X114518414Y-71398444D01*
X114518413Y-71398443D01*
X114518412Y-71398443D01*
X114316243Y-71332754D01*
X114316241Y-71332753D01*
X114316240Y-71332753D01*
X114153684Y-71307007D01*
X114106287Y-71299500D01*
X113893713Y-71299500D01*
X113846316Y-71307007D01*
X113683760Y-71332753D01*
X113481585Y-71398444D01*
X113292179Y-71494951D01*
X113120213Y-71619890D01*
X112969890Y-71770213D01*
X112844951Y-71942179D01*
X112748444Y-72131585D01*
X112682753Y-72333760D01*
X112652699Y-72523518D01*
X112649500Y-72543713D01*
X112649500Y-73056287D01*
X112650184Y-73060607D01*
X112682703Y-73265925D01*
X112682754Y-73266243D01*
X112738468Y-73437713D01*
X112748444Y-73468414D01*
X112844951Y-73657820D01*
X112969890Y-73829786D01*
X113120213Y-73980109D01*
X113292179Y-74105048D01*
X113292181Y-74105049D01*
X113292184Y-74105051D01*
X113481588Y-74201557D01*
X113683757Y-74267246D01*
X113893713Y-74300500D01*
X113893714Y-74300500D01*
X114106286Y-74300500D01*
X114106287Y-74300500D01*
X114316243Y-74267246D01*
X114445055Y-74225391D01*
X114514893Y-74223397D01*
X114571052Y-74255642D01*
X115211016Y-74895606D01*
X115211045Y-74895637D01*
X115301264Y-74985856D01*
X115301267Y-74985858D01*
X115352490Y-75020084D01*
X115403714Y-75054312D01*
X115483720Y-75087451D01*
X115517548Y-75101463D01*
X115549056Y-75107730D01*
X115577484Y-75113385D01*
X115577504Y-75113388D01*
X115577526Y-75113393D01*
X115638391Y-75125499D01*
X115638392Y-75125500D01*
X115638393Y-75125500D01*
X115638394Y-75125500D01*
X116365547Y-75125500D01*
X116432586Y-75145185D01*
X116478341Y-75197989D01*
X116488285Y-75267147D01*
X116459260Y-75330703D01*
X116453228Y-75337181D01*
X115452229Y-76338181D01*
X115390906Y-76371666D01*
X115364548Y-76374500D01*
X109438779Y-76374500D01*
X109371740Y-76354815D01*
X109365894Y-76350818D01*
X109357818Y-76344950D01*
X109357814Y-76344948D01*
X109168414Y-76248444D01*
X109168413Y-76248443D01*
X109168412Y-76248443D01*
X108966243Y-76182754D01*
X108966241Y-76182753D01*
X108966240Y-76182753D01*
X108804957Y-76157208D01*
X108756287Y-76149500D01*
X108243713Y-76149500D01*
X108195042Y-76157208D01*
X108033760Y-76182753D01*
X107831585Y-76248444D01*
X107642179Y-76344951D01*
X107470213Y-76469890D01*
X107319894Y-76620209D01*
X107319890Y-76620214D01*
X107224318Y-76751759D01*
X107168988Y-76794425D01*
X107099375Y-76800404D01*
X107037580Y-76767799D01*
X107003223Y-76706960D01*
X107000000Y-76678874D01*
X107000000Y-72177523D01*
X107019685Y-72110484D01*
X107072489Y-72064729D01*
X107141647Y-72054785D01*
X107205203Y-72083810D01*
X107211681Y-72089842D01*
X107314154Y-72192315D01*
X107463375Y-72284356D01*
X107463380Y-72284358D01*
X107629802Y-72339505D01*
X107629809Y-72339506D01*
X107732519Y-72349999D01*
X108282499Y-72349999D01*
X108282500Y-72349998D01*
X108282500Y-71433012D01*
X108339507Y-71465925D01*
X108466674Y-71500000D01*
X108598326Y-71500000D01*
X108725493Y-71465925D01*
X108782500Y-71433012D01*
X108782500Y-72349999D01*
X109332472Y-72349999D01*
X109332486Y-72349998D01*
X109435197Y-72339505D01*
X109601619Y-72284358D01*
X109601624Y-72284356D01*
X109750845Y-72192315D01*
X109874815Y-72068345D01*
X109966856Y-71919124D01*
X109966858Y-71919119D01*
X110022005Y-71752697D01*
X110022006Y-71752690D01*
X110032499Y-71649986D01*
X110032500Y-71649973D01*
X110032500Y-71250000D01*
X108965512Y-71250000D01*
X108998425Y-71192993D01*
X109032500Y-71065826D01*
X109032500Y-70934174D01*
X108998425Y-70807007D01*
X108965512Y-70750000D01*
X110032499Y-70750000D01*
X110032499Y-70350028D01*
X110032498Y-70350013D01*
X110022005Y-70247302D01*
X109966858Y-70080880D01*
X109966856Y-70080875D01*
X109874815Y-69931654D01*
X109750845Y-69807684D01*
X109596015Y-69712184D01*
X109549291Y-69660236D01*
X109538068Y-69591273D01*
X109565912Y-69527191D01*
X109573409Y-69518986D01*
X109712604Y-69379792D01*
X109837551Y-69207816D01*
X109934057Y-69018412D01*
X109999746Y-68816243D01*
X110033000Y-68606287D01*
X110033000Y-68393713D01*
X109999746Y-68183757D01*
X109934057Y-67981588D01*
X109837551Y-67792184D01*
X109837549Y-67792181D01*
X109837548Y-67792179D01*
X109712609Y-67620213D01*
X109562286Y-67469890D01*
X109390320Y-67344951D01*
X109200914Y-67248444D01*
X109200913Y-67248443D01*
X109200912Y-67248443D01*
X108998743Y-67182754D01*
X108998741Y-67182753D01*
X108998740Y-67182753D01*
X108837457Y-67157208D01*
X108788787Y-67149500D01*
X108276213Y-67149500D01*
X108227542Y-67157208D01*
X108066260Y-67182753D01*
X107864085Y-67248444D01*
X107674679Y-67344951D01*
X107502713Y-67469890D01*
X107352390Y-67620213D01*
X107224585Y-67796125D01*
X107222756Y-67794796D01*
X107177835Y-67835379D01*
X107108897Y-67846752D01*
X107044754Y-67819049D01*
X107005771Y-67761065D01*
X107000000Y-67723675D01*
X107000000Y-63210023D01*
X107019685Y-63142984D01*
X107072489Y-63097229D01*
X107141647Y-63087285D01*
X107205203Y-63116310D01*
X107211681Y-63122342D01*
X107281654Y-63192315D01*
X107430875Y-63284356D01*
X107430880Y-63284358D01*
X107597302Y-63339505D01*
X107597309Y-63339506D01*
X107700019Y-63349999D01*
X108249999Y-63349999D01*
X108250000Y-63349998D01*
X108250000Y-62433012D01*
X108307007Y-62465925D01*
X108434174Y-62500000D01*
X108565826Y-62500000D01*
X108692993Y-62465925D01*
X108750000Y-62433012D01*
X108750000Y-63349999D01*
X109299972Y-63349999D01*
X109299986Y-63349998D01*
X109402697Y-63339505D01*
X109569119Y-63284358D01*
X109569124Y-63284356D01*
X109718345Y-63192315D01*
X109842315Y-63068345D01*
X109934356Y-62919124D01*
X109934358Y-62919119D01*
X109989505Y-62752697D01*
X109989506Y-62752690D01*
X109999999Y-62649986D01*
X109999999Y-62183951D01*
X110019683Y-62116912D01*
X110072487Y-62071157D01*
X110141646Y-62061213D01*
X110205202Y-62090238D01*
G37*
%TD.AperFunction*%
%TA.AperFunction,Conductor*%
G36*
X124945372Y-65645185D02*
G01*
X124966014Y-65661819D01*
X124984307Y-65680112D01*
X124984311Y-65680115D01*
X124984313Y-65680117D01*
X125123605Y-65762494D01*
X125159312Y-65772868D01*
X125279002Y-65807642D01*
X125279005Y-65807642D01*
X125279007Y-65807643D01*
X125315310Y-65810500D01*
X125394548Y-65810500D01*
X125461587Y-65830185D01*
X125482229Y-65846819D01*
X129031016Y-69395606D01*
X129031045Y-69395637D01*
X129088227Y-69452819D01*
X129121712Y-69514142D01*
X129116728Y-69583834D01*
X129074856Y-69639767D01*
X129009392Y-69664184D01*
X129000546Y-69664500D01*
X124850453Y-69664500D01*
X124783414Y-69644815D01*
X124762772Y-69628181D01*
X123035706Y-67901115D01*
X123002221Y-67839792D01*
X123007205Y-67770100D01*
X123049077Y-67714167D01*
X123050502Y-67713116D01*
X123066414Y-67701555D01*
X123105871Y-67672888D01*
X123232533Y-67532216D01*
X123327179Y-67368284D01*
X123385674Y-67188256D01*
X123403321Y-67020345D01*
X123429905Y-66955732D01*
X123438952Y-66945636D01*
X124722771Y-65661819D01*
X124784094Y-65628334D01*
X124810452Y-65625500D01*
X124878333Y-65625500D01*
X124945372Y-65645185D01*
G37*
%TD.AperFunction*%
%TA.AperFunction,Conductor*%
G36*
X130750000Y-55452230D02*
G01*
X130816126Y-55441757D01*
X130816129Y-55441757D01*
X131018217Y-55376095D01*
X131207557Y-55279620D01*
X131379459Y-55154727D01*
X131379464Y-55154723D01*
X131529721Y-55004466D01*
X131649371Y-54839781D01*
X131704701Y-54797115D01*
X131774314Y-54791136D01*
X131836110Y-54823741D01*
X131850008Y-54839781D01*
X131969890Y-55004785D01*
X131969894Y-55004790D01*
X132120213Y-55155109D01*
X132292179Y-55280048D01*
X132292181Y-55280049D01*
X132292184Y-55280051D01*
X132481588Y-55376557D01*
X132683757Y-55442246D01*
X132893713Y-55475500D01*
X132893714Y-55475500D01*
X133106286Y-55475500D01*
X133106287Y-55475500D01*
X133316243Y-55442246D01*
X133518412Y-55376557D01*
X133707816Y-55280051D01*
X133729789Y-55264086D01*
X133879786Y-55155109D01*
X133879788Y-55155106D01*
X133879792Y-55155104D01*
X134030104Y-55004792D01*
X134149683Y-54840204D01*
X134205011Y-54797540D01*
X134274624Y-54791561D01*
X134336420Y-54824166D01*
X134350313Y-54840199D01*
X134438843Y-54962051D01*
X134469896Y-55004792D01*
X134620213Y-55155109D01*
X134792179Y-55280048D01*
X134792181Y-55280049D01*
X134792184Y-55280051D01*
X134981588Y-55376557D01*
X135183757Y-55442246D01*
X135183760Y-55442246D01*
X135183761Y-55442247D01*
X135246793Y-55452230D01*
X135365880Y-55471091D01*
X135429014Y-55501020D01*
X135465946Y-55560331D01*
X135464948Y-55630194D01*
X135434163Y-55681245D01*
X133601270Y-57514139D01*
X133514144Y-57601264D01*
X133514138Y-57601272D01*
X133445692Y-57703705D01*
X133445684Y-57703719D01*
X133412347Y-57784207D01*
X133406823Y-57797543D01*
X133398537Y-57817545D01*
X133398535Y-57817553D01*
X133374500Y-57938389D01*
X133374500Y-58628841D01*
X133354815Y-58695880D01*
X133302011Y-58741635D01*
X133232853Y-58751579D01*
X133211496Y-58746547D01*
X133102697Y-58710494D01*
X133102690Y-58710493D01*
X132999986Y-58700000D01*
X131950000Y-58700000D01*
X131950000Y-61299999D01*
X132999972Y-61299999D01*
X132999981Y-61299998D01*
X133046869Y-61295208D01*
X133115563Y-61307977D01*
X133166448Y-61355857D01*
X133172749Y-61368122D01*
X133172820Y-61368282D01*
X133172821Y-61368284D01*
X133267467Y-61532216D01*
X133365892Y-61641528D01*
X133394129Y-61672888D01*
X133547265Y-61784148D01*
X133547270Y-61784151D01*
X133720192Y-61861142D01*
X133720197Y-61861144D01*
X133905354Y-61900500D01*
X133905355Y-61900500D01*
X134094644Y-61900500D01*
X134094646Y-61900500D01*
X134279803Y-61861144D01*
X134338086Y-61835193D01*
X134407334Y-61825908D01*
X134470611Y-61855536D01*
X134476202Y-61860792D01*
X135101263Y-62485855D01*
X135101267Y-62485858D01*
X135203710Y-62554309D01*
X135203711Y-62554309D01*
X135203715Y-62554312D01*
X135270396Y-62581931D01*
X135270398Y-62581933D01*
X135317543Y-62601461D01*
X135317548Y-62601463D01*
X135337597Y-62605451D01*
X135371196Y-62612134D01*
X135438392Y-62625501D01*
X135438394Y-62625501D01*
X135567721Y-62625501D01*
X135567741Y-62625500D01*
X136846404Y-62625500D01*
X136913443Y-62645185D01*
X136959198Y-62697989D01*
X136969142Y-62767147D01*
X136940117Y-62830703D01*
X136934085Y-62837181D01*
X136848869Y-62922396D01*
X136848863Y-62922404D01*
X136767131Y-63060606D01*
X136767129Y-63060611D01*
X136722335Y-63214791D01*
X136722334Y-63214797D01*
X136719500Y-63250811D01*
X136719500Y-63749169D01*
X136719501Y-63749191D01*
X136722335Y-63785205D01*
X136767129Y-63939388D01*
X136767131Y-63939393D01*
X136847232Y-64074837D01*
X136864500Y-64137958D01*
X136864500Y-64362041D01*
X136847232Y-64425161D01*
X136767133Y-64560602D01*
X136767129Y-64560611D01*
X136722335Y-64714791D01*
X136722334Y-64714797D01*
X136719500Y-64750811D01*
X136719500Y-65249169D01*
X136719501Y-65249191D01*
X136722335Y-65285205D01*
X136767129Y-65439388D01*
X136767131Y-65439393D01*
X136848863Y-65577595D01*
X136848869Y-65577603D01*
X136962396Y-65691130D01*
X136962400Y-65691133D01*
X136962402Y-65691135D01*
X137100607Y-65772869D01*
X137141268Y-65784682D01*
X137254791Y-65817664D01*
X137254793Y-65817664D01*
X137254796Y-65817665D01*
X137260222Y-65818092D01*
X137325512Y-65842972D01*
X137366986Y-65899201D01*
X137374500Y-65941710D01*
X137374500Y-66176862D01*
X137354815Y-66243901D01*
X137302011Y-66289656D01*
X137237898Y-66300220D01*
X137230857Y-66299500D01*
X137230848Y-66299500D01*
X136672952Y-66299500D01*
X136605913Y-66279815D01*
X136585271Y-66263181D01*
X134440428Y-64118338D01*
X134440425Y-64118334D01*
X134440425Y-64118335D01*
X134433358Y-64111268D01*
X134433358Y-64111267D01*
X134346233Y-64024142D01*
X134324670Y-64009734D01*
X134279866Y-63956123D01*
X134271158Y-63886798D01*
X134274485Y-63872037D01*
X134312844Y-63740000D01*
X133760409Y-63740000D01*
X133750682Y-63739618D01*
X133749182Y-63739500D01*
X133250831Y-63739500D01*
X133250806Y-63739501D01*
X133249332Y-63739618D01*
X133239607Y-63740000D01*
X132698362Y-63740000D01*
X132664306Y-63730000D01*
X132260409Y-63730000D01*
X132250682Y-63729618D01*
X132249182Y-63729500D01*
X131750831Y-63729500D01*
X131750806Y-63729501D01*
X131749332Y-63729618D01*
X131739607Y-63730000D01*
X131187156Y-63730000D01*
X131227594Y-63869193D01*
X131261419Y-63926388D01*
X131278601Y-63994112D01*
X131261419Y-64052628D01*
X131227130Y-64110607D01*
X131227129Y-64110611D01*
X131182335Y-64264791D01*
X131182334Y-64264797D01*
X131179500Y-64300811D01*
X131179500Y-64384547D01*
X131159815Y-64451586D01*
X131143181Y-64472228D01*
X130663770Y-64951639D01*
X130663767Y-64951642D01*
X130635500Y-64979909D01*
X130576642Y-65038766D01*
X130566255Y-65054312D01*
X130548193Y-65081344D01*
X130508190Y-65141210D01*
X130508187Y-65141216D01*
X130486441Y-65193714D01*
X130486442Y-65193715D01*
X130461036Y-65255049D01*
X130461035Y-65255055D01*
X130437000Y-65375889D01*
X130437000Y-66335569D01*
X130417315Y-66402608D01*
X130378099Y-66441106D01*
X130353999Y-66455971D01*
X130230971Y-66579000D01*
X130139642Y-66727066D01*
X130139637Y-66727077D01*
X130084913Y-66892223D01*
X130074500Y-66994144D01*
X130074500Y-68005855D01*
X130084913Y-68107776D01*
X130119283Y-68211496D01*
X130121685Y-68281324D01*
X130085953Y-68341366D01*
X130023433Y-68372559D01*
X130001577Y-68374500D01*
X129830452Y-68374500D01*
X129763413Y-68354815D01*
X129742771Y-68338181D01*
X127137235Y-65732645D01*
X127103750Y-65671322D01*
X127108734Y-65601630D01*
X127126942Y-65568956D01*
X127129723Y-65565370D01*
X127212031Y-65426195D01*
X127212033Y-65426190D01*
X127257144Y-65270918D01*
X127257145Y-65270912D01*
X127258790Y-65250000D01*
X126705952Y-65250000D01*
X126638913Y-65230315D01*
X126618271Y-65213681D01*
X126336819Y-64932229D01*
X126303334Y-64870906D01*
X126300500Y-64844548D01*
X126300500Y-64765317D01*
X126300499Y-64765302D01*
X126299359Y-64750820D01*
X126297643Y-64729007D01*
X126293514Y-64714796D01*
X126252495Y-64573608D01*
X126252492Y-64573600D01*
X126247266Y-64564763D01*
X126230000Y-64501645D01*
X126230000Y-63998352D01*
X126247267Y-63935233D01*
X126252494Y-63926395D01*
X126252495Y-63926391D01*
X126252497Y-63926388D01*
X126297642Y-63770997D01*
X126297643Y-63770991D01*
X126299295Y-63750000D01*
X126730000Y-63750000D01*
X126730000Y-64750000D01*
X127258790Y-64750000D01*
X127257145Y-64729089D01*
X127212031Y-64573804D01*
X127129721Y-64434625D01*
X127129714Y-64434616D01*
X127032779Y-64337681D01*
X126999294Y-64276358D01*
X127004278Y-64206666D01*
X127032779Y-64162319D01*
X127129714Y-64065383D01*
X127129721Y-64065374D01*
X127212031Y-63926195D01*
X127212033Y-63926190D01*
X127257144Y-63770918D01*
X127257145Y-63770912D01*
X127258790Y-63750000D01*
X126730000Y-63750000D01*
X126299295Y-63750000D01*
X126300500Y-63734690D01*
X126300500Y-63265310D01*
X126299295Y-63250000D01*
X126730000Y-63250000D01*
X127258790Y-63250000D01*
X127257217Y-63230000D01*
X131187156Y-63230000D01*
X131750000Y-63230000D01*
X131750000Y-62710068D01*
X132250000Y-62710068D01*
X132250000Y-63230000D01*
X132801638Y-63230000D01*
X132835694Y-63240000D01*
X133250000Y-63240000D01*
X133250000Y-62720068D01*
X133750000Y-62720068D01*
X133750000Y-63240000D01*
X134312844Y-63240000D01*
X134272404Y-63100805D01*
X134190738Y-62962714D01*
X134190731Y-62962705D01*
X134077294Y-62849268D01*
X134077285Y-62849261D01*
X133939191Y-62767593D01*
X133939188Y-62767592D01*
X133785130Y-62722834D01*
X133750000Y-62720068D01*
X133250000Y-62720068D01*
X133249999Y-62720068D01*
X133214869Y-62722834D01*
X133214868Y-62722834D01*
X133060811Y-62767592D01*
X133060808Y-62767593D01*
X132922714Y-62849261D01*
X132922705Y-62849268D01*
X132842681Y-62929293D01*
X132781358Y-62962778D01*
X132711666Y-62957794D01*
X132667319Y-62929293D01*
X132577294Y-62839268D01*
X132577285Y-62839261D01*
X132439191Y-62757593D01*
X132439188Y-62757592D01*
X132285130Y-62712834D01*
X132250000Y-62710068D01*
X131750000Y-62710068D01*
X131749999Y-62710068D01*
X131714869Y-62712834D01*
X131714868Y-62712834D01*
X131560811Y-62757592D01*
X131560808Y-62757593D01*
X131422714Y-62839261D01*
X131422705Y-62839268D01*
X131309268Y-62952705D01*
X131309261Y-62952714D01*
X131227595Y-63090805D01*
X131187156Y-63230000D01*
X127257217Y-63230000D01*
X127257145Y-63229089D01*
X127212031Y-63073804D01*
X127129721Y-62934625D01*
X127129714Y-62934616D01*
X127015383Y-62820285D01*
X127015374Y-62820278D01*
X126876193Y-62737967D01*
X126876190Y-62737965D01*
X126730001Y-62695493D01*
X126730000Y-62695494D01*
X126730000Y-63250000D01*
X126299295Y-63250000D01*
X126297643Y-63229007D01*
X126293514Y-63214796D01*
X126252495Y-63073608D01*
X126252492Y-63073600D01*
X126247266Y-63064763D01*
X126230000Y-63001645D01*
X126230000Y-62695494D01*
X126195047Y-62669251D01*
X126153256Y-62613257D01*
X126145500Y-62570090D01*
X126145500Y-62090451D01*
X126165185Y-62023412D01*
X126181815Y-62002774D01*
X126847771Y-61336817D01*
X126909094Y-61303333D01*
X126935452Y-61300499D01*
X128600002Y-61300499D01*
X128600008Y-61300499D01*
X128702797Y-61289999D01*
X128869334Y-61234814D01*
X129018656Y-61142712D01*
X129142712Y-61018656D01*
X129234814Y-60869334D01*
X129289999Y-60702797D01*
X129300500Y-60600009D01*
X129300500Y-60250000D01*
X129700001Y-60250000D01*
X129700001Y-60599986D01*
X129710494Y-60702697D01*
X129765641Y-60869119D01*
X129765643Y-60869124D01*
X129857684Y-61018345D01*
X129981654Y-61142315D01*
X130130875Y-61234356D01*
X130130880Y-61234358D01*
X130297302Y-61289505D01*
X130297309Y-61289506D01*
X130400019Y-61299999D01*
X131449999Y-61299999D01*
X131450000Y-61299998D01*
X131450000Y-60250000D01*
X129700001Y-60250000D01*
X129300500Y-60250000D01*
X129300499Y-59750000D01*
X129700000Y-59750000D01*
X131450000Y-59750000D01*
X131450000Y-58700000D01*
X130400028Y-58700000D01*
X130400012Y-58700001D01*
X130297302Y-58710494D01*
X130130880Y-58765641D01*
X130130875Y-58765643D01*
X129981654Y-58857684D01*
X129857684Y-58981654D01*
X129765643Y-59130875D01*
X129765641Y-59130880D01*
X129710494Y-59297302D01*
X129710493Y-59297309D01*
X129700000Y-59400013D01*
X129700000Y-59750000D01*
X129300499Y-59750000D01*
X129300499Y-59399992D01*
X129289999Y-59297203D01*
X129234814Y-59130666D01*
X129142712Y-58981344D01*
X129018656Y-58857288D01*
X128913097Y-58792179D01*
X128869336Y-58765187D01*
X128869335Y-58765186D01*
X128869334Y-58765186D01*
X128869328Y-58765184D01*
X128835494Y-58753972D01*
X128778050Y-58714199D01*
X128751228Y-58649683D01*
X128750500Y-58636267D01*
X128750500Y-55555300D01*
X128770185Y-55488261D01*
X128822989Y-55442506D01*
X128835482Y-55437599D01*
X128919334Y-55409814D01*
X129068656Y-55317712D01*
X129192712Y-55193656D01*
X129284814Y-55044334D01*
X129284814Y-55044331D01*
X129288448Y-55038441D01*
X129340395Y-54991716D01*
X129409358Y-54980493D01*
X129473440Y-55008336D01*
X129481668Y-55015856D01*
X129620535Y-55154723D01*
X129620540Y-55154727D01*
X129792442Y-55279620D01*
X129981782Y-55376095D01*
X130183871Y-55441757D01*
X130250000Y-55452231D01*
X130250000Y-54404145D01*
X130316657Y-54442630D01*
X130437465Y-54475000D01*
X130562535Y-54475000D01*
X130683343Y-54442630D01*
X130750000Y-54404145D01*
X130750000Y-55452230D01*
G37*
%TD.AperFunction*%
%TA.AperFunction,Conductor*%
G36*
X126568834Y-53448599D02*
G01*
X126624767Y-53490471D01*
X126649184Y-53555935D01*
X126649500Y-53564781D01*
X126649500Y-54775001D01*
X126649501Y-54775018D01*
X126660000Y-54877796D01*
X126660001Y-54877799D01*
X126715185Y-55044331D01*
X126715187Y-55044336D01*
X126729762Y-55067966D01*
X126807288Y-55193656D01*
X126931344Y-55317712D01*
X127080666Y-55409814D01*
X127164505Y-55437595D01*
X127221948Y-55477366D01*
X127248772Y-55541882D01*
X127249500Y-55555300D01*
X127249500Y-58575500D01*
X127229815Y-58642539D01*
X127177011Y-58688294D01*
X127125500Y-58699500D01*
X125999998Y-58699500D01*
X125999981Y-58699501D01*
X125897203Y-58710000D01*
X125897200Y-58710001D01*
X125730668Y-58765185D01*
X125730663Y-58765187D01*
X125581342Y-58857289D01*
X125457289Y-58981342D01*
X125365187Y-59130663D01*
X125365185Y-59130668D01*
X125365115Y-59130880D01*
X125310001Y-59297203D01*
X125310001Y-59297204D01*
X125310000Y-59297204D01*
X125299500Y-59399983D01*
X125299500Y-60600001D01*
X125299501Y-60600018D01*
X125310000Y-60702796D01*
X125310001Y-60702799D01*
X125347926Y-60817246D01*
X125365186Y-60869334D01*
X125382723Y-60897767D01*
X125401163Y-60965157D01*
X125380241Y-61031821D01*
X125364865Y-61050543D01*
X125121270Y-61294139D01*
X125034143Y-61381265D01*
X125034141Y-61381267D01*
X125022606Y-61398533D01*
X125022603Y-61398537D01*
X124965690Y-61483709D01*
X124965685Y-61483718D01*
X124944625Y-61534564D01*
X124932347Y-61564207D01*
X124929187Y-61571836D01*
X124918537Y-61597545D01*
X124918535Y-61597553D01*
X124894500Y-61718389D01*
X124894500Y-62860121D01*
X124874815Y-62927160D01*
X124870518Y-62933237D01*
X124787505Y-63073606D01*
X124787504Y-63073609D01*
X124742357Y-63229002D01*
X124742356Y-63229008D01*
X124739500Y-63265302D01*
X124739500Y-63734697D01*
X124742356Y-63770991D01*
X124742357Y-63770997D01*
X124787503Y-63926388D01*
X124787505Y-63926393D01*
X124873854Y-64072402D01*
X124872208Y-64073375D01*
X124894014Y-64128915D01*
X124894500Y-64139878D01*
X124894500Y-64250500D01*
X124874815Y-64317539D01*
X124822011Y-64363294D01*
X124770500Y-64374500D01*
X124438389Y-64374500D01*
X124387880Y-64384547D01*
X124377971Y-64386518D01*
X124340259Y-64394019D01*
X124317550Y-64398536D01*
X124317548Y-64398537D01*
X124284207Y-64412347D01*
X124203719Y-64445684D01*
X124203705Y-64445692D01*
X124101272Y-64514138D01*
X124101264Y-64514144D01*
X124014139Y-64601270D01*
X122552229Y-66063181D01*
X122490906Y-66096666D01*
X122464548Y-66099500D01*
X122405354Y-66099500D01*
X122372897Y-66106398D01*
X122220197Y-66138855D01*
X122220192Y-66138857D01*
X122047270Y-66215848D01*
X122047265Y-66215851D01*
X121894132Y-66327109D01*
X121894129Y-66327111D01*
X121894129Y-66327112D01*
X121860337Y-66364642D01*
X121776681Y-66457551D01*
X121717194Y-66494199D01*
X121647337Y-66492868D01*
X121596850Y-66462259D01*
X119242928Y-64108338D01*
X119242925Y-64108334D01*
X119242925Y-64108335D01*
X119235858Y-64101268D01*
X119235858Y-64101267D01*
X119148733Y-64014142D01*
X119148732Y-64014141D01*
X119148731Y-64014140D01*
X119086265Y-63972402D01*
X119046286Y-63945688D01*
X119046287Y-63945688D01*
X119046285Y-63945687D01*
X118989935Y-63922347D01*
X118956594Y-63908537D01*
X118956592Y-63908535D01*
X118932458Y-63898539D01*
X118932454Y-63898537D01*
X118932452Y-63898537D01*
X118932448Y-63898536D01*
X118932444Y-63898535D01*
X118861880Y-63884499D01*
X118861879Y-63884499D01*
X118811611Y-63874500D01*
X118811607Y-63874500D01*
X118811606Y-63874500D01*
X117495831Y-63874500D01*
X117428792Y-63854815D01*
X117383037Y-63802011D01*
X117373093Y-63732853D01*
X117377900Y-63712182D01*
X117378436Y-63710529D01*
X117385674Y-63688256D01*
X117403321Y-63520344D01*
X117429904Y-63455734D01*
X117438941Y-63445648D01*
X117722773Y-63161816D01*
X117784095Y-63128334D01*
X117810453Y-63125500D01*
X119061607Y-63125500D01*
X119122029Y-63113481D01*
X119182452Y-63101463D01*
X119182455Y-63101461D01*
X119182458Y-63101461D01*
X119215787Y-63087654D01*
X119215786Y-63087654D01*
X119215792Y-63087652D01*
X119296286Y-63054312D01*
X119347509Y-63020084D01*
X119398733Y-62985858D01*
X119485858Y-62898733D01*
X119485858Y-62898731D01*
X119496066Y-62888524D01*
X119496068Y-62888521D01*
X121347771Y-61036818D01*
X121409094Y-61003333D01*
X121435452Y-61000499D01*
X122650002Y-61000499D01*
X122650008Y-61000499D01*
X122752797Y-60989999D01*
X122919334Y-60934814D01*
X123068656Y-60842712D01*
X123192712Y-60718656D01*
X123284814Y-60569334D01*
X123339999Y-60402797D01*
X123350500Y-60300009D01*
X123350499Y-58699992D01*
X123342349Y-58620213D01*
X123339999Y-58597203D01*
X123339998Y-58597200D01*
X123320363Y-58537946D01*
X123284814Y-58430666D01*
X123192712Y-58281344D01*
X123068656Y-58157288D01*
X122919334Y-58065186D01*
X122752797Y-58010001D01*
X122752795Y-58010000D01*
X122650010Y-57999500D01*
X121349998Y-57999500D01*
X121349981Y-57999501D01*
X121247203Y-58010000D01*
X121247200Y-58010001D01*
X121080668Y-58065185D01*
X121080663Y-58065187D01*
X120931342Y-58157289D01*
X120807289Y-58281342D01*
X120807288Y-58281344D01*
X120747288Y-58378621D01*
X120730039Y-58406586D01*
X120678091Y-58453310D01*
X120609129Y-58464533D01*
X120545046Y-58436689D01*
X120506190Y-58378621D01*
X120500500Y-58341489D01*
X120500500Y-58248282D01*
X120520185Y-58181243D01*
X120536819Y-58160601D01*
X121260096Y-57437324D01*
X122027140Y-56670281D01*
X122054419Y-56629453D01*
X122136632Y-56506414D01*
X122212051Y-56324335D01*
X122250500Y-56131041D01*
X122250500Y-55142699D01*
X122270185Y-55075660D01*
X122279477Y-55063154D01*
X122280101Y-55062294D01*
X122280104Y-55062292D01*
X122287863Y-55051613D01*
X122343194Y-55008948D01*
X122388180Y-55000500D01*
X124598543Y-55000500D01*
X124682329Y-54983833D01*
X124724223Y-54975500D01*
X124791836Y-54962051D01*
X124895451Y-54919132D01*
X124973914Y-54886632D01*
X125137782Y-54777139D01*
X125277139Y-54637782D01*
X125277140Y-54637779D01*
X125284206Y-54630714D01*
X125284208Y-54630710D01*
X126139919Y-53775001D01*
X126198478Y-53716442D01*
X126198489Y-53716429D01*
X126437820Y-53477099D01*
X126499142Y-53443615D01*
X126568834Y-53448599D01*
G37*
%TD.AperFunction*%
%TA.AperFunction,Conductor*%
G36*
X135731426Y-57255677D02*
G01*
X135787359Y-57297549D01*
X135811776Y-57363013D01*
X135796924Y-57431286D01*
X135785704Y-57448330D01*
X135773891Y-57463408D01*
X135773889Y-57463410D01*
X135604898Y-57742956D01*
X135604897Y-57742958D01*
X135470839Y-58040824D01*
X135470835Y-58040835D01*
X135373667Y-58352658D01*
X135314786Y-58673961D01*
X135295065Y-59000000D01*
X135314786Y-59326038D01*
X135373667Y-59647341D01*
X135470835Y-59959164D01*
X135470839Y-59959175D01*
X135604897Y-60257041D01*
X135604898Y-60257043D01*
X135773881Y-60536576D01*
X135921476Y-60724968D01*
X137063708Y-59582736D01*
X137160967Y-59716602D01*
X137283398Y-59839033D01*
X137417262Y-59936290D01*
X136275030Y-61078522D01*
X136275030Y-61078523D01*
X136369952Y-61152889D01*
X136410585Y-61209729D01*
X136414037Y-61279513D01*
X136379213Y-61340086D01*
X136317169Y-61372216D01*
X136293479Y-61374500D01*
X135810453Y-61374500D01*
X135743414Y-61354815D01*
X135722772Y-61338181D01*
X134992928Y-60608338D01*
X134992925Y-60608334D01*
X134992925Y-60608335D01*
X134985858Y-60601268D01*
X134985858Y-60601267D01*
X134898733Y-60514142D01*
X134845265Y-60478416D01*
X134845266Y-60478416D01*
X134845264Y-60478414D01*
X134796290Y-60445690D01*
X134796287Y-60445688D01*
X134796286Y-60445688D01*
X134702045Y-60406653D01*
X134647645Y-60362814D01*
X134625579Y-60296520D01*
X134625500Y-60292093D01*
X134625500Y-58310451D01*
X134645185Y-58243412D01*
X134661814Y-58222775D01*
X135600412Y-57284177D01*
X135661734Y-57250693D01*
X135731426Y-57255677D01*
G37*
%TD.AperFunction*%
%TD*%
M02*
