%TF.GenerationSoftware,KiCad,Pcbnew,8.0.1*%
%TF.CreationDate,2024-04-14T22:55:27+02:00*%
%TF.ProjectId,printhead-pcb,7072696e-7468-4656-9164-2d7063622e6b,rev?*%
%TF.SameCoordinates,Original*%
%TF.FileFunction,Legend,Bot*%
%TF.FilePolarity,Positive*%
%FSLAX46Y46*%
G04 Gerber Fmt 4.6, Leading zero omitted, Abs format (unit mm)*
G04 Created by KiCad (PCBNEW 8.0.1) date 2024-04-14 22:55:27*
%MOMM*%
%LPD*%
G01*
G04 APERTURE LIST*
%ADD10C,0.150000*%
%ADD11C,0.120000*%
%ADD12C,0.152400*%
%ADD13C,0.000000*%
G04 APERTURE END LIST*
D10*
X131142857Y-77454819D02*
X131476190Y-76978628D01*
X131714285Y-77454819D02*
X131714285Y-76454819D01*
X131714285Y-76454819D02*
X131333333Y-76454819D01*
X131333333Y-76454819D02*
X131238095Y-76502438D01*
X131238095Y-76502438D02*
X131190476Y-76550057D01*
X131190476Y-76550057D02*
X131142857Y-76645295D01*
X131142857Y-76645295D02*
X131142857Y-76788152D01*
X131142857Y-76788152D02*
X131190476Y-76883390D01*
X131190476Y-76883390D02*
X131238095Y-76931009D01*
X131238095Y-76931009D02*
X131333333Y-76978628D01*
X131333333Y-76978628D02*
X131714285Y-76978628D01*
X130190476Y-77454819D02*
X130761904Y-77454819D01*
X130476190Y-77454819D02*
X130476190Y-76454819D01*
X130476190Y-76454819D02*
X130571428Y-76597676D01*
X130571428Y-76597676D02*
X130666666Y-76692914D01*
X130666666Y-76692914D02*
X130761904Y-76740533D01*
X129238095Y-77454819D02*
X129809523Y-77454819D01*
X129523809Y-77454819D02*
X129523809Y-76454819D01*
X129523809Y-76454819D02*
X129619047Y-76597676D01*
X129619047Y-76597676D02*
X129714285Y-76692914D01*
X129714285Y-76692914D02*
X129809523Y-76740533D01*
X133166666Y-65359580D02*
X133214285Y-65407200D01*
X133214285Y-65407200D02*
X133357142Y-65454819D01*
X133357142Y-65454819D02*
X133452380Y-65454819D01*
X133452380Y-65454819D02*
X133595237Y-65407200D01*
X133595237Y-65407200D02*
X133690475Y-65311961D01*
X133690475Y-65311961D02*
X133738094Y-65216723D01*
X133738094Y-65216723D02*
X133785713Y-65026247D01*
X133785713Y-65026247D02*
X133785713Y-64883390D01*
X133785713Y-64883390D02*
X133738094Y-64692914D01*
X133738094Y-64692914D02*
X133690475Y-64597676D01*
X133690475Y-64597676D02*
X133595237Y-64502438D01*
X133595237Y-64502438D02*
X133452380Y-64454819D01*
X133452380Y-64454819D02*
X133357142Y-64454819D01*
X133357142Y-64454819D02*
X133214285Y-64502438D01*
X133214285Y-64502438D02*
X133166666Y-64550057D01*
X132261904Y-64454819D02*
X132738094Y-64454819D01*
X132738094Y-64454819D02*
X132785713Y-64931009D01*
X132785713Y-64931009D02*
X132738094Y-64883390D01*
X132738094Y-64883390D02*
X132642856Y-64835771D01*
X132642856Y-64835771D02*
X132404761Y-64835771D01*
X132404761Y-64835771D02*
X132309523Y-64883390D01*
X132309523Y-64883390D02*
X132261904Y-64931009D01*
X132261904Y-64931009D02*
X132214285Y-65026247D01*
X132214285Y-65026247D02*
X132214285Y-65264342D01*
X132214285Y-65264342D02*
X132261904Y-65359580D01*
X132261904Y-65359580D02*
X132309523Y-65407200D01*
X132309523Y-65407200D02*
X132404761Y-65454819D01*
X132404761Y-65454819D02*
X132642856Y-65454819D01*
X132642856Y-65454819D02*
X132738094Y-65407200D01*
X132738094Y-65407200D02*
X132785713Y-65359580D01*
X131166666Y-74454819D02*
X131499999Y-73978628D01*
X131738094Y-74454819D02*
X131738094Y-73454819D01*
X131738094Y-73454819D02*
X131357142Y-73454819D01*
X131357142Y-73454819D02*
X131261904Y-73502438D01*
X131261904Y-73502438D02*
X131214285Y-73550057D01*
X131214285Y-73550057D02*
X131166666Y-73645295D01*
X131166666Y-73645295D02*
X131166666Y-73788152D01*
X131166666Y-73788152D02*
X131214285Y-73883390D01*
X131214285Y-73883390D02*
X131261904Y-73931009D01*
X131261904Y-73931009D02*
X131357142Y-73978628D01*
X131357142Y-73978628D02*
X131738094Y-73978628D01*
X130261904Y-73454819D02*
X130738094Y-73454819D01*
X130738094Y-73454819D02*
X130785713Y-73931009D01*
X130785713Y-73931009D02*
X130738094Y-73883390D01*
X130738094Y-73883390D02*
X130642856Y-73835771D01*
X130642856Y-73835771D02*
X130404761Y-73835771D01*
X130404761Y-73835771D02*
X130309523Y-73883390D01*
X130309523Y-73883390D02*
X130261904Y-73931009D01*
X130261904Y-73931009D02*
X130214285Y-74026247D01*
X130214285Y-74026247D02*
X130214285Y-74264342D01*
X130214285Y-74264342D02*
X130261904Y-74359580D01*
X130261904Y-74359580D02*
X130309523Y-74407200D01*
X130309523Y-74407200D02*
X130404761Y-74454819D01*
X130404761Y-74454819D02*
X130642856Y-74454819D01*
X130642856Y-74454819D02*
X130738094Y-74407200D01*
X130738094Y-74407200D02*
X130785713Y-74359580D01*
X125650057Y-63304761D02*
X125602438Y-63209523D01*
X125602438Y-63209523D02*
X125507200Y-63114285D01*
X125507200Y-63114285D02*
X125364342Y-62971428D01*
X125364342Y-62971428D02*
X125316723Y-62876190D01*
X125316723Y-62876190D02*
X125316723Y-62780952D01*
X125554819Y-62828571D02*
X125507200Y-62733333D01*
X125507200Y-62733333D02*
X125411961Y-62638095D01*
X125411961Y-62638095D02*
X125221485Y-62590476D01*
X125221485Y-62590476D02*
X124888152Y-62590476D01*
X124888152Y-62590476D02*
X124697676Y-62638095D01*
X124697676Y-62638095D02*
X124602438Y-62733333D01*
X124602438Y-62733333D02*
X124554819Y-62828571D01*
X124554819Y-62828571D02*
X124554819Y-63019047D01*
X124554819Y-63019047D02*
X124602438Y-63114285D01*
X124602438Y-63114285D02*
X124697676Y-63209523D01*
X124697676Y-63209523D02*
X124888152Y-63257142D01*
X124888152Y-63257142D02*
X125221485Y-63257142D01*
X125221485Y-63257142D02*
X125411961Y-63209523D01*
X125411961Y-63209523D02*
X125507200Y-63114285D01*
X125507200Y-63114285D02*
X125554819Y-63019047D01*
X125554819Y-63019047D02*
X125554819Y-62828571D01*
X124554819Y-63590476D02*
X124554819Y-64209523D01*
X124554819Y-64209523D02*
X124935771Y-63876190D01*
X124935771Y-63876190D02*
X124935771Y-64019047D01*
X124935771Y-64019047D02*
X124983390Y-64114285D01*
X124983390Y-64114285D02*
X125031009Y-64161904D01*
X125031009Y-64161904D02*
X125126247Y-64209523D01*
X125126247Y-64209523D02*
X125364342Y-64209523D01*
X125364342Y-64209523D02*
X125459580Y-64161904D01*
X125459580Y-64161904D02*
X125507200Y-64114285D01*
X125507200Y-64114285D02*
X125554819Y-64019047D01*
X125554819Y-64019047D02*
X125554819Y-63733333D01*
X125554819Y-63733333D02*
X125507200Y-63638095D01*
X125507200Y-63638095D02*
X125459580Y-63590476D01*
X131166666Y-78954819D02*
X131499999Y-78478628D01*
X131738094Y-78954819D02*
X131738094Y-77954819D01*
X131738094Y-77954819D02*
X131357142Y-77954819D01*
X131357142Y-77954819D02*
X131261904Y-78002438D01*
X131261904Y-78002438D02*
X131214285Y-78050057D01*
X131214285Y-78050057D02*
X131166666Y-78145295D01*
X131166666Y-78145295D02*
X131166666Y-78288152D01*
X131166666Y-78288152D02*
X131214285Y-78383390D01*
X131214285Y-78383390D02*
X131261904Y-78431009D01*
X131261904Y-78431009D02*
X131357142Y-78478628D01*
X131357142Y-78478628D02*
X131738094Y-78478628D01*
X130833332Y-77954819D02*
X130166666Y-77954819D01*
X130166666Y-77954819D02*
X130595237Y-78954819D01*
X131166666Y-75954819D02*
X131499999Y-75478628D01*
X131738094Y-75954819D02*
X131738094Y-74954819D01*
X131738094Y-74954819D02*
X131357142Y-74954819D01*
X131357142Y-74954819D02*
X131261904Y-75002438D01*
X131261904Y-75002438D02*
X131214285Y-75050057D01*
X131214285Y-75050057D02*
X131166666Y-75145295D01*
X131166666Y-75145295D02*
X131166666Y-75288152D01*
X131166666Y-75288152D02*
X131214285Y-75383390D01*
X131214285Y-75383390D02*
X131261904Y-75431009D01*
X131261904Y-75431009D02*
X131357142Y-75478628D01*
X131357142Y-75478628D02*
X131738094Y-75478628D01*
X130690475Y-75954819D02*
X130499999Y-75954819D01*
X130499999Y-75954819D02*
X130404761Y-75907200D01*
X130404761Y-75907200D02*
X130357142Y-75859580D01*
X130357142Y-75859580D02*
X130261904Y-75716723D01*
X130261904Y-75716723D02*
X130214285Y-75526247D01*
X130214285Y-75526247D02*
X130214285Y-75145295D01*
X130214285Y-75145295D02*
X130261904Y-75050057D01*
X130261904Y-75050057D02*
X130309523Y-75002438D01*
X130309523Y-75002438D02*
X130404761Y-74954819D01*
X130404761Y-74954819D02*
X130595237Y-74954819D01*
X130595237Y-74954819D02*
X130690475Y-75002438D01*
X130690475Y-75002438D02*
X130738094Y-75050057D01*
X130738094Y-75050057D02*
X130785713Y-75145295D01*
X130785713Y-75145295D02*
X130785713Y-75383390D01*
X130785713Y-75383390D02*
X130738094Y-75478628D01*
X130738094Y-75478628D02*
X130690475Y-75526247D01*
X130690475Y-75526247D02*
X130595237Y-75573866D01*
X130595237Y-75573866D02*
X130404761Y-75573866D01*
X130404761Y-75573866D02*
X130309523Y-75526247D01*
X130309523Y-75526247D02*
X130261904Y-75478628D01*
X130261904Y-75478628D02*
X130214285Y-75383390D01*
X139166666Y-67859580D02*
X139214285Y-67907200D01*
X139214285Y-67907200D02*
X139357142Y-67954819D01*
X139357142Y-67954819D02*
X139452380Y-67954819D01*
X139452380Y-67954819D02*
X139595237Y-67907200D01*
X139595237Y-67907200D02*
X139690475Y-67811961D01*
X139690475Y-67811961D02*
X139738094Y-67716723D01*
X139738094Y-67716723D02*
X139785713Y-67526247D01*
X139785713Y-67526247D02*
X139785713Y-67383390D01*
X139785713Y-67383390D02*
X139738094Y-67192914D01*
X139738094Y-67192914D02*
X139690475Y-67097676D01*
X139690475Y-67097676D02*
X139595237Y-67002438D01*
X139595237Y-67002438D02*
X139452380Y-66954819D01*
X139452380Y-66954819D02*
X139357142Y-66954819D01*
X139357142Y-66954819D02*
X139214285Y-67002438D01*
X139214285Y-67002438D02*
X139166666Y-67050057D01*
X138833332Y-66954819D02*
X138166666Y-66954819D01*
X138166666Y-66954819D02*
X138595237Y-67954819D01*
X130666666Y-66454819D02*
X130999999Y-65978628D01*
X131238094Y-66454819D02*
X131238094Y-65454819D01*
X131238094Y-65454819D02*
X130857142Y-65454819D01*
X130857142Y-65454819D02*
X130761904Y-65502438D01*
X130761904Y-65502438D02*
X130714285Y-65550057D01*
X130714285Y-65550057D02*
X130666666Y-65645295D01*
X130666666Y-65645295D02*
X130666666Y-65788152D01*
X130666666Y-65788152D02*
X130714285Y-65883390D01*
X130714285Y-65883390D02*
X130761904Y-65931009D01*
X130761904Y-65931009D02*
X130857142Y-65978628D01*
X130857142Y-65978628D02*
X131238094Y-65978628D01*
X129809523Y-65788152D02*
X129809523Y-66454819D01*
X130047618Y-65407200D02*
X130285713Y-66121485D01*
X130285713Y-66121485D02*
X129666666Y-66121485D01*
X139642857Y-69454819D02*
X139976190Y-68978628D01*
X140214285Y-69454819D02*
X140214285Y-68454819D01*
X140214285Y-68454819D02*
X139833333Y-68454819D01*
X139833333Y-68454819D02*
X139738095Y-68502438D01*
X139738095Y-68502438D02*
X139690476Y-68550057D01*
X139690476Y-68550057D02*
X139642857Y-68645295D01*
X139642857Y-68645295D02*
X139642857Y-68788152D01*
X139642857Y-68788152D02*
X139690476Y-68883390D01*
X139690476Y-68883390D02*
X139738095Y-68931009D01*
X139738095Y-68931009D02*
X139833333Y-68978628D01*
X139833333Y-68978628D02*
X140214285Y-68978628D01*
X138690476Y-69454819D02*
X139261904Y-69454819D01*
X138976190Y-69454819D02*
X138976190Y-68454819D01*
X138976190Y-68454819D02*
X139071428Y-68597676D01*
X139071428Y-68597676D02*
X139166666Y-68692914D01*
X139166666Y-68692914D02*
X139261904Y-68740533D01*
X138309523Y-68550057D02*
X138261904Y-68502438D01*
X138261904Y-68502438D02*
X138166666Y-68454819D01*
X138166666Y-68454819D02*
X137928571Y-68454819D01*
X137928571Y-68454819D02*
X137833333Y-68502438D01*
X137833333Y-68502438D02*
X137785714Y-68550057D01*
X137785714Y-68550057D02*
X137738095Y-68645295D01*
X137738095Y-68645295D02*
X137738095Y-68740533D01*
X137738095Y-68740533D02*
X137785714Y-68883390D01*
X137785714Y-68883390D02*
X138357142Y-69454819D01*
X138357142Y-69454819D02*
X137738095Y-69454819D01*
X112666666Y-76454819D02*
X113142856Y-76454819D01*
X113142856Y-76454819D02*
X113142856Y-75454819D01*
X112380951Y-75550057D02*
X112333332Y-75502438D01*
X112333332Y-75502438D02*
X112238094Y-75454819D01*
X112238094Y-75454819D02*
X111999999Y-75454819D01*
X111999999Y-75454819D02*
X111904761Y-75502438D01*
X111904761Y-75502438D02*
X111857142Y-75550057D01*
X111857142Y-75550057D02*
X111809523Y-75645295D01*
X111809523Y-75645295D02*
X111809523Y-75740533D01*
X111809523Y-75740533D02*
X111857142Y-75883390D01*
X111857142Y-75883390D02*
X112428570Y-76454819D01*
X112428570Y-76454819D02*
X111809523Y-76454819D01*
X137166666Y-62859580D02*
X137214285Y-62907200D01*
X137214285Y-62907200D02*
X137357142Y-62954819D01*
X137357142Y-62954819D02*
X137452380Y-62954819D01*
X137452380Y-62954819D02*
X137595237Y-62907200D01*
X137595237Y-62907200D02*
X137690475Y-62811961D01*
X137690475Y-62811961D02*
X137738094Y-62716723D01*
X137738094Y-62716723D02*
X137785713Y-62526247D01*
X137785713Y-62526247D02*
X137785713Y-62383390D01*
X137785713Y-62383390D02*
X137738094Y-62192914D01*
X137738094Y-62192914D02*
X137690475Y-62097676D01*
X137690475Y-62097676D02*
X137595237Y-62002438D01*
X137595237Y-62002438D02*
X137452380Y-61954819D01*
X137452380Y-61954819D02*
X137357142Y-61954819D01*
X137357142Y-61954819D02*
X137214285Y-62002438D01*
X137214285Y-62002438D02*
X137166666Y-62050057D01*
X136309523Y-62288152D02*
X136309523Y-62954819D01*
X136547618Y-61907200D02*
X136785713Y-62621485D01*
X136785713Y-62621485D02*
X136166666Y-62621485D01*
X130666666Y-67954819D02*
X130999999Y-67478628D01*
X131238094Y-67954819D02*
X131238094Y-66954819D01*
X131238094Y-66954819D02*
X130857142Y-66954819D01*
X130857142Y-66954819D02*
X130761904Y-67002438D01*
X130761904Y-67002438D02*
X130714285Y-67050057D01*
X130714285Y-67050057D02*
X130666666Y-67145295D01*
X130666666Y-67145295D02*
X130666666Y-67288152D01*
X130666666Y-67288152D02*
X130714285Y-67383390D01*
X130714285Y-67383390D02*
X130761904Y-67431009D01*
X130761904Y-67431009D02*
X130857142Y-67478628D01*
X130857142Y-67478628D02*
X131238094Y-67478628D01*
X130095237Y-67383390D02*
X130190475Y-67335771D01*
X130190475Y-67335771D02*
X130238094Y-67288152D01*
X130238094Y-67288152D02*
X130285713Y-67192914D01*
X130285713Y-67192914D02*
X130285713Y-67145295D01*
X130285713Y-67145295D02*
X130238094Y-67050057D01*
X130238094Y-67050057D02*
X130190475Y-67002438D01*
X130190475Y-67002438D02*
X130095237Y-66954819D01*
X130095237Y-66954819D02*
X129904761Y-66954819D01*
X129904761Y-66954819D02*
X129809523Y-67002438D01*
X129809523Y-67002438D02*
X129761904Y-67050057D01*
X129761904Y-67050057D02*
X129714285Y-67145295D01*
X129714285Y-67145295D02*
X129714285Y-67192914D01*
X129714285Y-67192914D02*
X129761904Y-67288152D01*
X129761904Y-67288152D02*
X129809523Y-67335771D01*
X129809523Y-67335771D02*
X129904761Y-67383390D01*
X129904761Y-67383390D02*
X130095237Y-67383390D01*
X130095237Y-67383390D02*
X130190475Y-67431009D01*
X130190475Y-67431009D02*
X130238094Y-67478628D01*
X130238094Y-67478628D02*
X130285713Y-67573866D01*
X130285713Y-67573866D02*
X130285713Y-67764342D01*
X130285713Y-67764342D02*
X130238094Y-67859580D01*
X130238094Y-67859580D02*
X130190475Y-67907200D01*
X130190475Y-67907200D02*
X130095237Y-67954819D01*
X130095237Y-67954819D02*
X129904761Y-67954819D01*
X129904761Y-67954819D02*
X129809523Y-67907200D01*
X129809523Y-67907200D02*
X129761904Y-67859580D01*
X129761904Y-67859580D02*
X129714285Y-67764342D01*
X129714285Y-67764342D02*
X129714285Y-67573866D01*
X129714285Y-67573866D02*
X129761904Y-67478628D01*
X129761904Y-67478628D02*
X129809523Y-67431009D01*
X129809523Y-67431009D02*
X129904761Y-67383390D01*
X125650057Y-71304761D02*
X125602438Y-71209523D01*
X125602438Y-71209523D02*
X125507200Y-71114285D01*
X125507200Y-71114285D02*
X125364342Y-70971428D01*
X125364342Y-70971428D02*
X125316723Y-70876190D01*
X125316723Y-70876190D02*
X125316723Y-70780952D01*
X125554819Y-70828571D02*
X125507200Y-70733333D01*
X125507200Y-70733333D02*
X125411961Y-70638095D01*
X125411961Y-70638095D02*
X125221485Y-70590476D01*
X125221485Y-70590476D02*
X124888152Y-70590476D01*
X124888152Y-70590476D02*
X124697676Y-70638095D01*
X124697676Y-70638095D02*
X124602438Y-70733333D01*
X124602438Y-70733333D02*
X124554819Y-70828571D01*
X124554819Y-70828571D02*
X124554819Y-71019047D01*
X124554819Y-71019047D02*
X124602438Y-71114285D01*
X124602438Y-71114285D02*
X124697676Y-71209523D01*
X124697676Y-71209523D02*
X124888152Y-71257142D01*
X124888152Y-71257142D02*
X125221485Y-71257142D01*
X125221485Y-71257142D02*
X125411961Y-71209523D01*
X125411961Y-71209523D02*
X125507200Y-71114285D01*
X125507200Y-71114285D02*
X125554819Y-71019047D01*
X125554819Y-71019047D02*
X125554819Y-70828571D01*
X124888152Y-72114285D02*
X125554819Y-72114285D01*
X124507200Y-71876190D02*
X125221485Y-71638095D01*
X125221485Y-71638095D02*
X125221485Y-72257142D01*
X139166666Y-76859580D02*
X139214285Y-76907200D01*
X139214285Y-76907200D02*
X139357142Y-76954819D01*
X139357142Y-76954819D02*
X139452380Y-76954819D01*
X139452380Y-76954819D02*
X139595237Y-76907200D01*
X139595237Y-76907200D02*
X139690475Y-76811961D01*
X139690475Y-76811961D02*
X139738094Y-76716723D01*
X139738094Y-76716723D02*
X139785713Y-76526247D01*
X139785713Y-76526247D02*
X139785713Y-76383390D01*
X139785713Y-76383390D02*
X139738094Y-76192914D01*
X139738094Y-76192914D02*
X139690475Y-76097676D01*
X139690475Y-76097676D02*
X139595237Y-76002438D01*
X139595237Y-76002438D02*
X139452380Y-75954819D01*
X139452380Y-75954819D02*
X139357142Y-75954819D01*
X139357142Y-75954819D02*
X139214285Y-76002438D01*
X139214285Y-76002438D02*
X139166666Y-76050057D01*
X138690475Y-76954819D02*
X138499999Y-76954819D01*
X138499999Y-76954819D02*
X138404761Y-76907200D01*
X138404761Y-76907200D02*
X138357142Y-76859580D01*
X138357142Y-76859580D02*
X138261904Y-76716723D01*
X138261904Y-76716723D02*
X138214285Y-76526247D01*
X138214285Y-76526247D02*
X138214285Y-76145295D01*
X138214285Y-76145295D02*
X138261904Y-76050057D01*
X138261904Y-76050057D02*
X138309523Y-76002438D01*
X138309523Y-76002438D02*
X138404761Y-75954819D01*
X138404761Y-75954819D02*
X138595237Y-75954819D01*
X138595237Y-75954819D02*
X138690475Y-76002438D01*
X138690475Y-76002438D02*
X138738094Y-76050057D01*
X138738094Y-76050057D02*
X138785713Y-76145295D01*
X138785713Y-76145295D02*
X138785713Y-76383390D01*
X138785713Y-76383390D02*
X138738094Y-76478628D01*
X138738094Y-76478628D02*
X138690475Y-76526247D01*
X138690475Y-76526247D02*
X138595237Y-76573866D01*
X138595237Y-76573866D02*
X138404761Y-76573866D01*
X138404761Y-76573866D02*
X138309523Y-76526247D01*
X138309523Y-76526247D02*
X138261904Y-76478628D01*
X138261904Y-76478628D02*
X138214285Y-76383390D01*
X135111904Y-68454819D02*
X135111904Y-69264342D01*
X135111904Y-69264342D02*
X135064285Y-69359580D01*
X135064285Y-69359580D02*
X135016666Y-69407200D01*
X135016666Y-69407200D02*
X134921428Y-69454819D01*
X134921428Y-69454819D02*
X134730952Y-69454819D01*
X134730952Y-69454819D02*
X134635714Y-69407200D01*
X134635714Y-69407200D02*
X134588095Y-69359580D01*
X134588095Y-69359580D02*
X134540476Y-69264342D01*
X134540476Y-69264342D02*
X134540476Y-68454819D01*
X134159523Y-68454819D02*
X133540476Y-68454819D01*
X133540476Y-68454819D02*
X133873809Y-68835771D01*
X133873809Y-68835771D02*
X133730952Y-68835771D01*
X133730952Y-68835771D02*
X133635714Y-68883390D01*
X133635714Y-68883390D02*
X133588095Y-68931009D01*
X133588095Y-68931009D02*
X133540476Y-69026247D01*
X133540476Y-69026247D02*
X133540476Y-69264342D01*
X133540476Y-69264342D02*
X133588095Y-69359580D01*
X133588095Y-69359580D02*
X133635714Y-69407200D01*
X133635714Y-69407200D02*
X133730952Y-69454819D01*
X133730952Y-69454819D02*
X134016666Y-69454819D01*
X134016666Y-69454819D02*
X134111904Y-69407200D01*
X134111904Y-69407200D02*
X134159523Y-69359580D01*
X130666666Y-69454819D02*
X130999999Y-68978628D01*
X131238094Y-69454819D02*
X131238094Y-68454819D01*
X131238094Y-68454819D02*
X130857142Y-68454819D01*
X130857142Y-68454819D02*
X130761904Y-68502438D01*
X130761904Y-68502438D02*
X130714285Y-68550057D01*
X130714285Y-68550057D02*
X130666666Y-68645295D01*
X130666666Y-68645295D02*
X130666666Y-68788152D01*
X130666666Y-68788152D02*
X130714285Y-68883390D01*
X130714285Y-68883390D02*
X130761904Y-68931009D01*
X130761904Y-68931009D02*
X130857142Y-68978628D01*
X130857142Y-68978628D02*
X131238094Y-68978628D01*
X129809523Y-68454819D02*
X129999999Y-68454819D01*
X129999999Y-68454819D02*
X130095237Y-68502438D01*
X130095237Y-68502438D02*
X130142856Y-68550057D01*
X130142856Y-68550057D02*
X130238094Y-68692914D01*
X130238094Y-68692914D02*
X130285713Y-68883390D01*
X130285713Y-68883390D02*
X130285713Y-69264342D01*
X130285713Y-69264342D02*
X130238094Y-69359580D01*
X130238094Y-69359580D02*
X130190475Y-69407200D01*
X130190475Y-69407200D02*
X130095237Y-69454819D01*
X130095237Y-69454819D02*
X129904761Y-69454819D01*
X129904761Y-69454819D02*
X129809523Y-69407200D01*
X129809523Y-69407200D02*
X129761904Y-69359580D01*
X129761904Y-69359580D02*
X129714285Y-69264342D01*
X129714285Y-69264342D02*
X129714285Y-69026247D01*
X129714285Y-69026247D02*
X129761904Y-68931009D01*
X129761904Y-68931009D02*
X129809523Y-68883390D01*
X129809523Y-68883390D02*
X129904761Y-68835771D01*
X129904761Y-68835771D02*
X130095237Y-68835771D01*
X130095237Y-68835771D02*
X130190475Y-68883390D01*
X130190475Y-68883390D02*
X130238094Y-68931009D01*
X130238094Y-68931009D02*
X130285713Y-69026247D01*
X129666666Y-56659580D02*
X129714285Y-56707200D01*
X129714285Y-56707200D02*
X129857142Y-56754819D01*
X129857142Y-56754819D02*
X129952380Y-56754819D01*
X129952380Y-56754819D02*
X130095237Y-56707200D01*
X130095237Y-56707200D02*
X130190475Y-56611961D01*
X130190475Y-56611961D02*
X130238094Y-56516723D01*
X130238094Y-56516723D02*
X130285713Y-56326247D01*
X130285713Y-56326247D02*
X130285713Y-56183390D01*
X130285713Y-56183390D02*
X130238094Y-55992914D01*
X130238094Y-55992914D02*
X130190475Y-55897676D01*
X130190475Y-55897676D02*
X130095237Y-55802438D01*
X130095237Y-55802438D02*
X129952380Y-55754819D01*
X129952380Y-55754819D02*
X129857142Y-55754819D01*
X129857142Y-55754819D02*
X129714285Y-55802438D01*
X129714285Y-55802438D02*
X129666666Y-55850057D01*
X128714285Y-56754819D02*
X129285713Y-56754819D01*
X128999999Y-56754819D02*
X128999999Y-55754819D01*
X128999999Y-55754819D02*
X129095237Y-55897676D01*
X129095237Y-55897676D02*
X129190475Y-55992914D01*
X129190475Y-55992914D02*
X129285713Y-56040533D01*
X122150057Y-71304761D02*
X122102438Y-71209523D01*
X122102438Y-71209523D02*
X122007200Y-71114285D01*
X122007200Y-71114285D02*
X121864342Y-70971428D01*
X121864342Y-70971428D02*
X121816723Y-70876190D01*
X121816723Y-70876190D02*
X121816723Y-70780952D01*
X122054819Y-70828571D02*
X122007200Y-70733333D01*
X122007200Y-70733333D02*
X121911961Y-70638095D01*
X121911961Y-70638095D02*
X121721485Y-70590476D01*
X121721485Y-70590476D02*
X121388152Y-70590476D01*
X121388152Y-70590476D02*
X121197676Y-70638095D01*
X121197676Y-70638095D02*
X121102438Y-70733333D01*
X121102438Y-70733333D02*
X121054819Y-70828571D01*
X121054819Y-70828571D02*
X121054819Y-71019047D01*
X121054819Y-71019047D02*
X121102438Y-71114285D01*
X121102438Y-71114285D02*
X121197676Y-71209523D01*
X121197676Y-71209523D02*
X121388152Y-71257142D01*
X121388152Y-71257142D02*
X121721485Y-71257142D01*
X121721485Y-71257142D02*
X121911961Y-71209523D01*
X121911961Y-71209523D02*
X122007200Y-71114285D01*
X122007200Y-71114285D02*
X122054819Y-71019047D01*
X122054819Y-71019047D02*
X122054819Y-70828571D01*
X121150057Y-71638095D02*
X121102438Y-71685714D01*
X121102438Y-71685714D02*
X121054819Y-71780952D01*
X121054819Y-71780952D02*
X121054819Y-72019047D01*
X121054819Y-72019047D02*
X121102438Y-72114285D01*
X121102438Y-72114285D02*
X121150057Y-72161904D01*
X121150057Y-72161904D02*
X121245295Y-72209523D01*
X121245295Y-72209523D02*
X121340533Y-72209523D01*
X121340533Y-72209523D02*
X121483390Y-72161904D01*
X121483390Y-72161904D02*
X122054819Y-71590476D01*
X122054819Y-71590476D02*
X122054819Y-72209523D01*
X121238095Y-67545180D02*
X121238095Y-66735657D01*
X121238095Y-66735657D02*
X121285714Y-66640419D01*
X121285714Y-66640419D02*
X121333333Y-66592800D01*
X121333333Y-66592800D02*
X121428571Y-66545180D01*
X121428571Y-66545180D02*
X121619047Y-66545180D01*
X121619047Y-66545180D02*
X121714285Y-66592800D01*
X121714285Y-66592800D02*
X121761904Y-66640419D01*
X121761904Y-66640419D02*
X121809523Y-66735657D01*
X121809523Y-66735657D02*
X121809523Y-67545180D01*
X122809523Y-66545180D02*
X122238095Y-66545180D01*
X122523809Y-66545180D02*
X122523809Y-67545180D01*
X122523809Y-67545180D02*
X122428571Y-67402323D01*
X122428571Y-67402323D02*
X122333333Y-67307085D01*
X122333333Y-67307085D02*
X122238095Y-67259466D01*
X119955299Y-68454820D02*
X119955299Y-68692915D01*
X120193394Y-68597677D02*
X119955299Y-68692915D01*
X119955299Y-68692915D02*
X119717204Y-68597677D01*
X120098156Y-68883391D02*
X119955299Y-68692915D01*
X119955299Y-68692915D02*
X119812442Y-68883391D01*
X119955300Y-69545181D02*
X119955300Y-69307086D01*
X119717205Y-69402324D02*
X119955300Y-69307086D01*
X119955300Y-69307086D02*
X120193395Y-69402324D01*
X119812443Y-69116610D02*
X119955300Y-69307086D01*
X119955300Y-69307086D02*
X120098157Y-69116610D01*
X133166666Y-63859580D02*
X133214285Y-63907200D01*
X133214285Y-63907200D02*
X133357142Y-63954819D01*
X133357142Y-63954819D02*
X133452380Y-63954819D01*
X133452380Y-63954819D02*
X133595237Y-63907200D01*
X133595237Y-63907200D02*
X133690475Y-63811961D01*
X133690475Y-63811961D02*
X133738094Y-63716723D01*
X133738094Y-63716723D02*
X133785713Y-63526247D01*
X133785713Y-63526247D02*
X133785713Y-63383390D01*
X133785713Y-63383390D02*
X133738094Y-63192914D01*
X133738094Y-63192914D02*
X133690475Y-63097676D01*
X133690475Y-63097676D02*
X133595237Y-63002438D01*
X133595237Y-63002438D02*
X133452380Y-62954819D01*
X133452380Y-62954819D02*
X133357142Y-62954819D01*
X133357142Y-62954819D02*
X133214285Y-63002438D01*
X133214285Y-63002438D02*
X133166666Y-63050057D01*
X132833332Y-62954819D02*
X132214285Y-62954819D01*
X132214285Y-62954819D02*
X132547618Y-63335771D01*
X132547618Y-63335771D02*
X132404761Y-63335771D01*
X132404761Y-63335771D02*
X132309523Y-63383390D01*
X132309523Y-63383390D02*
X132261904Y-63431009D01*
X132261904Y-63431009D02*
X132214285Y-63526247D01*
X132214285Y-63526247D02*
X132214285Y-63764342D01*
X132214285Y-63764342D02*
X132261904Y-63859580D01*
X132261904Y-63859580D02*
X132309523Y-63907200D01*
X132309523Y-63907200D02*
X132404761Y-63954819D01*
X132404761Y-63954819D02*
X132690475Y-63954819D01*
X132690475Y-63954819D02*
X132785713Y-63907200D01*
X132785713Y-63907200D02*
X132833332Y-63859580D01*
X137142857Y-74454819D02*
X137476190Y-73978628D01*
X137714285Y-74454819D02*
X137714285Y-73454819D01*
X137714285Y-73454819D02*
X137333333Y-73454819D01*
X137333333Y-73454819D02*
X137238095Y-73502438D01*
X137238095Y-73502438D02*
X137190476Y-73550057D01*
X137190476Y-73550057D02*
X137142857Y-73645295D01*
X137142857Y-73645295D02*
X137142857Y-73788152D01*
X137142857Y-73788152D02*
X137190476Y-73883390D01*
X137190476Y-73883390D02*
X137238095Y-73931009D01*
X137238095Y-73931009D02*
X137333333Y-73978628D01*
X137333333Y-73978628D02*
X137714285Y-73978628D01*
X136190476Y-74454819D02*
X136761904Y-74454819D01*
X136476190Y-74454819D02*
X136476190Y-73454819D01*
X136476190Y-73454819D02*
X136571428Y-73597676D01*
X136571428Y-73597676D02*
X136666666Y-73692914D01*
X136666666Y-73692914D02*
X136761904Y-73740533D01*
X135857142Y-73454819D02*
X135238095Y-73454819D01*
X135238095Y-73454819D02*
X135571428Y-73835771D01*
X135571428Y-73835771D02*
X135428571Y-73835771D01*
X135428571Y-73835771D02*
X135333333Y-73883390D01*
X135333333Y-73883390D02*
X135285714Y-73931009D01*
X135285714Y-73931009D02*
X135238095Y-74026247D01*
X135238095Y-74026247D02*
X135238095Y-74264342D01*
X135238095Y-74264342D02*
X135285714Y-74359580D01*
X135285714Y-74359580D02*
X135333333Y-74407200D01*
X135333333Y-74407200D02*
X135428571Y-74454819D01*
X135428571Y-74454819D02*
X135714285Y-74454819D01*
X135714285Y-74454819D02*
X135809523Y-74407200D01*
X135809523Y-74407200D02*
X135857142Y-74359580D01*
X122150057Y-63304761D02*
X122102438Y-63209523D01*
X122102438Y-63209523D02*
X122007200Y-63114285D01*
X122007200Y-63114285D02*
X121864342Y-62971428D01*
X121864342Y-62971428D02*
X121816723Y-62876190D01*
X121816723Y-62876190D02*
X121816723Y-62780952D01*
X122054819Y-62828571D02*
X122007200Y-62733333D01*
X122007200Y-62733333D02*
X121911961Y-62638095D01*
X121911961Y-62638095D02*
X121721485Y-62590476D01*
X121721485Y-62590476D02*
X121388152Y-62590476D01*
X121388152Y-62590476D02*
X121197676Y-62638095D01*
X121197676Y-62638095D02*
X121102438Y-62733333D01*
X121102438Y-62733333D02*
X121054819Y-62828571D01*
X121054819Y-62828571D02*
X121054819Y-63019047D01*
X121054819Y-63019047D02*
X121102438Y-63114285D01*
X121102438Y-63114285D02*
X121197676Y-63209523D01*
X121197676Y-63209523D02*
X121388152Y-63257142D01*
X121388152Y-63257142D02*
X121721485Y-63257142D01*
X121721485Y-63257142D02*
X121911961Y-63209523D01*
X121911961Y-63209523D02*
X122007200Y-63114285D01*
X122007200Y-63114285D02*
X122054819Y-63019047D01*
X122054819Y-63019047D02*
X122054819Y-62828571D01*
X122054819Y-64209523D02*
X122054819Y-63638095D01*
X122054819Y-63923809D02*
X121054819Y-63923809D01*
X121054819Y-63923809D02*
X121197676Y-63828571D01*
X121197676Y-63828571D02*
X121292914Y-63733333D01*
X121292914Y-63733333D02*
X121340533Y-63638095D01*
X121238095Y-75545180D02*
X121238095Y-74735657D01*
X121238095Y-74735657D02*
X121285714Y-74640419D01*
X121285714Y-74640419D02*
X121333333Y-74592800D01*
X121333333Y-74592800D02*
X121428571Y-74545180D01*
X121428571Y-74545180D02*
X121619047Y-74545180D01*
X121619047Y-74545180D02*
X121714285Y-74592800D01*
X121714285Y-74592800D02*
X121761904Y-74640419D01*
X121761904Y-74640419D02*
X121809523Y-74735657D01*
X121809523Y-74735657D02*
X121809523Y-75545180D01*
X122238095Y-75449942D02*
X122285714Y-75497561D01*
X122285714Y-75497561D02*
X122380952Y-75545180D01*
X122380952Y-75545180D02*
X122619047Y-75545180D01*
X122619047Y-75545180D02*
X122714285Y-75497561D01*
X122714285Y-75497561D02*
X122761904Y-75449942D01*
X122761904Y-75449942D02*
X122809523Y-75354704D01*
X122809523Y-75354704D02*
X122809523Y-75259466D01*
X122809523Y-75259466D02*
X122761904Y-75116609D01*
X122761904Y-75116609D02*
X122190476Y-74545180D01*
X122190476Y-74545180D02*
X122809523Y-74545180D01*
X119955299Y-76612420D02*
X119955299Y-76850515D01*
X120193394Y-76755277D02*
X119955299Y-76850515D01*
X119955299Y-76850515D02*
X119717204Y-76755277D01*
X120098156Y-77040991D02*
X119955299Y-76850515D01*
X119955299Y-76850515D02*
X119812442Y-77040991D01*
X119955300Y-77702781D02*
X119955300Y-77464686D01*
X119717205Y-77559924D02*
X119955300Y-77464686D01*
X119955300Y-77464686D02*
X120193395Y-77559924D01*
X119812443Y-77274210D02*
X119955300Y-77464686D01*
X119955300Y-77464686D02*
X120098157Y-77274210D01*
X130642857Y-70954819D02*
X130976190Y-70478628D01*
X131214285Y-70954819D02*
X131214285Y-69954819D01*
X131214285Y-69954819D02*
X130833333Y-69954819D01*
X130833333Y-69954819D02*
X130738095Y-70002438D01*
X130738095Y-70002438D02*
X130690476Y-70050057D01*
X130690476Y-70050057D02*
X130642857Y-70145295D01*
X130642857Y-70145295D02*
X130642857Y-70288152D01*
X130642857Y-70288152D02*
X130690476Y-70383390D01*
X130690476Y-70383390D02*
X130738095Y-70431009D01*
X130738095Y-70431009D02*
X130833333Y-70478628D01*
X130833333Y-70478628D02*
X131214285Y-70478628D01*
X129690476Y-70954819D02*
X130261904Y-70954819D01*
X129976190Y-70954819D02*
X129976190Y-69954819D01*
X129976190Y-69954819D02*
X130071428Y-70097676D01*
X130071428Y-70097676D02*
X130166666Y-70192914D01*
X130166666Y-70192914D02*
X130261904Y-70240533D01*
X129071428Y-69954819D02*
X128976190Y-69954819D01*
X128976190Y-69954819D02*
X128880952Y-70002438D01*
X128880952Y-70002438D02*
X128833333Y-70050057D01*
X128833333Y-70050057D02*
X128785714Y-70145295D01*
X128785714Y-70145295D02*
X128738095Y-70335771D01*
X128738095Y-70335771D02*
X128738095Y-70573866D01*
X128738095Y-70573866D02*
X128785714Y-70764342D01*
X128785714Y-70764342D02*
X128833333Y-70859580D01*
X128833333Y-70859580D02*
X128880952Y-70907200D01*
X128880952Y-70907200D02*
X128976190Y-70954819D01*
X128976190Y-70954819D02*
X129071428Y-70954819D01*
X129071428Y-70954819D02*
X129166666Y-70907200D01*
X129166666Y-70907200D02*
X129214285Y-70859580D01*
X129214285Y-70859580D02*
X129261904Y-70764342D01*
X129261904Y-70764342D02*
X129309523Y-70573866D01*
X129309523Y-70573866D02*
X129309523Y-70335771D01*
X129309523Y-70335771D02*
X129261904Y-70145295D01*
X129261904Y-70145295D02*
X129214285Y-70050057D01*
X129214285Y-70050057D02*
X129166666Y-70002438D01*
X129166666Y-70002438D02*
X129071428Y-69954819D01*
D11*
%TO.C,R11*%
X127653641Y-75620000D02*
X127346359Y-75620000D01*
X127653641Y-76380000D02*
X127346359Y-76380000D01*
%TO.C,C5*%
X129392164Y-64140000D02*
X129607836Y-64140000D01*
X129392164Y-64860000D02*
X129607836Y-64860000D01*
%TO.C,R5*%
X127653641Y-73620000D02*
X127346359Y-73620000D01*
X127653641Y-74380000D02*
X127346359Y-74380000D01*
%TO.C,Q3*%
X122800000Y-63800000D02*
X122800000Y-63200000D01*
X124200000Y-64200000D02*
X124200000Y-63000000D01*
X124200000Y-64200000D02*
X124200000Y-64200000D01*
%TO.C,R7*%
X127653641Y-76620000D02*
X127346359Y-76620000D01*
X127653641Y-77380000D02*
X127346359Y-77380000D01*
%TO.C,R9*%
X127653641Y-74620000D02*
X127346359Y-74620000D01*
X127653641Y-75380000D02*
X127346359Y-75380000D01*
%TO.C,C7*%
X139107836Y-70140000D02*
X138892164Y-70140000D01*
X139107836Y-70860000D02*
X138892164Y-70860000D01*
%TO.C,R4*%
X127653641Y-65620000D02*
X127346359Y-65620000D01*
X127653641Y-66380000D02*
X127346359Y-66380000D01*
%TO.C,R12*%
X138846359Y-71620000D02*
X139153641Y-71620000D01*
X138846359Y-72380000D02*
X139153641Y-72380000D01*
%TO.C,L2*%
X115162779Y-75490000D02*
X114837221Y-75490000D01*
X115162779Y-76510000D02*
X114837221Y-76510000D01*
%TO.C,C4*%
X137107836Y-63640000D02*
X136892164Y-63640000D01*
X137107836Y-64360000D02*
X136892164Y-64360000D01*
%TO.C,R8*%
X127653641Y-66620000D02*
X127346359Y-66620000D01*
X127653641Y-67380000D02*
X127346359Y-67380000D01*
%TO.C,Q4*%
X122800000Y-71800000D02*
X122800000Y-71200000D01*
X124200000Y-72200000D02*
X124200000Y-71000000D01*
X124200000Y-72200000D02*
X124200000Y-72200000D01*
%TO.C,C9*%
X139107836Y-74640000D02*
X138892164Y-74640000D01*
X139107836Y-75360000D02*
X138892164Y-75360000D01*
D10*
%TO.C,U3*%
X132725000Y-69875000D02*
X135975000Y-69875000D01*
X132725000Y-70150000D02*
X132725000Y-69875000D01*
X132725000Y-72850000D02*
X132725000Y-73125000D01*
X132725000Y-73125000D02*
X135975000Y-73125000D01*
X135975000Y-70050000D02*
X135975000Y-69875000D01*
X135975000Y-72850000D02*
X135975000Y-73125000D01*
X137050000Y-70050000D02*
X135975000Y-70050000D01*
D11*
%TO.C,R6*%
X127653641Y-68620000D02*
X127346359Y-68620000D01*
X127653641Y-69380000D02*
X127346359Y-69380000D01*
%TO.C,C1*%
X126740000Y-57240000D02*
X131195563Y-57240000D01*
X126740000Y-58940000D02*
X126740000Y-57240000D01*
X126740000Y-61060000D02*
X126740000Y-62760000D01*
X126740000Y-62760000D02*
X131195563Y-62760000D01*
X131195563Y-57240000D02*
X132260000Y-58304437D01*
X131195563Y-62760000D02*
X132260000Y-61695563D01*
X132260000Y-58940000D02*
X132260000Y-58304437D01*
X132260000Y-61060000D02*
X132260000Y-61695563D01*
X132500000Y-58315000D02*
X133125000Y-58315000D01*
X132812500Y-58627500D02*
X132812500Y-58002500D01*
%TO.C,Q2*%
X119300000Y-71800000D02*
X119300000Y-71200000D01*
X120700000Y-72200000D02*
X120700000Y-71000000D01*
X120700000Y-72200000D02*
X120700000Y-72200000D01*
D12*
%TO.C,U1*%
X120374400Y-68625600D02*
X123625600Y-68625600D01*
X123625600Y-65374400D02*
X120374400Y-65374400D01*
D13*
G36*
X125314700Y-68190501D02*
G01*
X125060700Y-68190501D01*
X125060700Y-67809501D01*
X125314700Y-67809501D01*
X125314700Y-68190501D01*
G37*
D11*
%TO.C,C3*%
X129392164Y-63140000D02*
X129607836Y-63140000D01*
X129392164Y-63860000D02*
X129607836Y-63860000D01*
%TO.C,R13*%
X138846359Y-73120000D02*
X139153641Y-73120000D01*
X138846359Y-73880000D02*
X139153641Y-73880000D01*
%TO.C,Q1*%
X119300000Y-63800000D02*
X119300000Y-63200000D01*
X120700000Y-64200000D02*
X120700000Y-63000000D01*
X120700000Y-64200000D02*
X120700000Y-64200000D01*
D12*
%TO.C,U2*%
X120374400Y-76625600D02*
X123625600Y-76625600D01*
X123625600Y-73374400D02*
X120374400Y-73374400D01*
D13*
G36*
X125314700Y-76190501D02*
G01*
X125060700Y-76190501D01*
X125060700Y-75809501D01*
X125314700Y-75809501D01*
X125314700Y-76190501D01*
G37*
D11*
%TO.C,R10*%
X127653641Y-67620000D02*
X127346359Y-67620000D01*
X127653641Y-68380000D02*
X127346359Y-68380000D01*
%TD*%
M02*
