%TF.GenerationSoftware,KiCad,Pcbnew,8.0.1*%
%TF.CreationDate,2024-04-14T22:55:27+02:00*%
%TF.ProjectId,printhead-pcb,7072696e-7468-4656-9164-2d7063622e6b,rev?*%
%TF.SameCoordinates,Original*%
%TF.FileFunction,Soldermask,Bot*%
%TF.FilePolarity,Negative*%
%FSLAX46Y46*%
G04 Gerber Fmt 4.6, Leading zero omitted, Abs format (unit mm)*
G04 Created by KiCad (PCBNEW 8.0.1) date 2024-04-14 22:55:27*
%MOMM*%
%LPD*%
G01*
G04 APERTURE LIST*
G04 Aperture macros list*
%AMRoundRect*
0 Rectangle with rounded corners*
0 $1 Rounding radius*
0 $2 $3 $4 $5 $6 $7 $8 $9 X,Y pos of 4 corners*
0 Add a 4 corners polygon primitive as box body*
4,1,4,$2,$3,$4,$5,$6,$7,$8,$9,$2,$3,0*
0 Add four circle primitives for the rounded corners*
1,1,$1+$1,$2,$3*
1,1,$1+$1,$4,$5*
1,1,$1+$1,$6,$7*
1,1,$1+$1,$8,$9*
0 Add four rect primitives between the rounded corners*
20,1,$1+$1,$2,$3,$4,$5,0*
20,1,$1+$1,$4,$5,$6,$7,0*
20,1,$1+$1,$6,$7,$8,$9,0*
20,1,$1+$1,$8,$9,$2,$3,0*%
G04 Aperture macros list end*
%ADD10RoundRect,0.250000X0.750000X-0.600000X0.750000X0.600000X-0.750000X0.600000X-0.750000X-0.600000X0*%
%ADD11O,2.000000X1.700000*%
%ADD12C,2.600000*%
%ADD13C,4.400000*%
%ADD14RoundRect,0.250000X0.600000X0.750000X-0.600000X0.750000X-0.600000X-0.750000X0.600000X-0.750000X0*%
%ADD15O,1.700000X2.000000*%
%ADD16RoundRect,0.250000X-0.600000X-0.750000X0.600000X-0.750000X0.600000X0.750000X-0.600000X0.750000X0*%
%ADD17RoundRect,0.250000X-0.600000X-0.725000X0.600000X-0.725000X0.600000X0.725000X-0.600000X0.725000X0*%
%ADD18O,1.700000X1.950000*%
%ADD19RoundRect,0.135000X-0.135000X-0.185000X0.135000X-0.185000X0.135000X0.185000X-0.135000X0.185000X0*%
%ADD20RoundRect,0.140000X0.140000X0.170000X-0.140000X0.170000X-0.140000X-0.170000X0.140000X-0.170000X0*%
%ADD21R,0.400000X0.450000*%
%ADD22R,0.500000X0.450000*%
%ADD23RoundRect,0.140000X-0.140000X-0.170000X0.140000X-0.170000X0.140000X0.170000X-0.140000X0.170000X0*%
%ADD24RoundRect,0.135000X0.135000X0.185000X-0.135000X0.185000X-0.135000X-0.185000X0.135000X-0.185000X0*%
%ADD25RoundRect,0.218750X-0.218750X-0.256250X0.218750X-0.256250X0.218750X0.256250X-0.218750X0.256250X0*%
%ADD26R,1.100000X0.250000*%
%ADD27RoundRect,0.250000X1.250000X0.550000X-1.250000X0.550000X-1.250000X-0.550000X1.250000X-0.550000X0*%
%ADD28R,1.524000X0.330200*%
G04 APERTURE END LIST*
D10*
%TO.C,J6*%
X108500000Y-62000000D03*
D11*
X108500000Y-59500000D03*
%TD*%
D12*
%TO.C,H4*%
X138000000Y-80000000D03*
D13*
X138000000Y-80000000D03*
%TD*%
D14*
%TO.C,J5*%
X116500000Y-66300000D03*
D15*
X114000000Y-66300000D03*
%TD*%
D16*
%TO.C,J4*%
X118750000Y-54032500D03*
D15*
X121250000Y-54032500D03*
%TD*%
D12*
%TO.C,H2*%
X113500000Y-80000000D03*
D13*
X113500000Y-80000000D03*
%TD*%
D17*
%TO.C,J1*%
X128000000Y-54000000D03*
D18*
X130500000Y-54000000D03*
X133000000Y-54000000D03*
X135500000Y-54000000D03*
X138000000Y-54000000D03*
%TD*%
D12*
%TO.C,H3*%
X113500000Y-59000000D03*
D13*
X113500000Y-59000000D03*
%TD*%
D14*
%TO.C,J8*%
X116500000Y-72800000D03*
D15*
X114000000Y-72800000D03*
%TD*%
D16*
%TO.C,J2*%
X109750000Y-54032500D03*
D15*
X112250000Y-54032500D03*
%TD*%
D10*
%TO.C,J10*%
X108500000Y-80000000D03*
D11*
X108500000Y-77500000D03*
%TD*%
D12*
%TO.C,H1*%
X138000000Y-59000000D03*
D13*
X138000000Y-59000000D03*
%TD*%
D10*
%TO.C,J7*%
X108532500Y-71000000D03*
D11*
X108532500Y-68500000D03*
%TD*%
D14*
%TO.C,J9*%
X121750000Y-80000000D03*
D15*
X119250000Y-80000000D03*
%TD*%
D14*
%TO.C,J3*%
X122000000Y-59500000D03*
D15*
X119500000Y-59500000D03*
%TD*%
D19*
%TO.C,R11*%
X126990000Y-76000000D03*
X128010000Y-76000000D03*
%TD*%
D20*
%TO.C,C5*%
X129980000Y-64500000D03*
X129020000Y-64500000D03*
%TD*%
D19*
%TO.C,R5*%
X126990000Y-74000000D03*
X128010000Y-74000000D03*
%TD*%
D21*
%TO.C,Q3*%
X123900000Y-64075000D03*
X123100000Y-64075000D03*
D22*
X123500000Y-62925000D03*
%TD*%
D19*
%TO.C,R7*%
X126990000Y-77000000D03*
X128010000Y-77000000D03*
%TD*%
%TO.C,R9*%
X126990000Y-75000000D03*
X128010000Y-75000000D03*
%TD*%
D23*
%TO.C,C7*%
X138520000Y-70500000D03*
X139480000Y-70500000D03*
%TD*%
D19*
%TO.C,R4*%
X126990000Y-66000000D03*
X128010000Y-66000000D03*
%TD*%
D24*
%TO.C,R12*%
X139510000Y-72000000D03*
X138490000Y-72000000D03*
%TD*%
D25*
%TO.C,L2*%
X114212500Y-76000000D03*
X115787500Y-76000000D03*
%TD*%
D23*
%TO.C,C4*%
X136520000Y-64000000D03*
X137480000Y-64000000D03*
%TD*%
D19*
%TO.C,R8*%
X126990000Y-67000000D03*
X128010000Y-67000000D03*
%TD*%
D21*
%TO.C,Q4*%
X123900000Y-72075000D03*
X123100000Y-72075000D03*
D22*
X123500000Y-70925000D03*
%TD*%
D23*
%TO.C,C9*%
X138520000Y-75000000D03*
X139480000Y-75000000D03*
%TD*%
D26*
%TO.C,U3*%
X136500000Y-70500000D03*
X136500000Y-71000000D03*
X136500000Y-71500000D03*
X136500000Y-72000000D03*
X136500000Y-72500000D03*
X132200000Y-72500000D03*
X132200000Y-72000000D03*
X132200000Y-71500000D03*
X132200000Y-71000000D03*
X132200000Y-70500000D03*
%TD*%
D19*
%TO.C,R6*%
X126990000Y-69000000D03*
X128010000Y-69000000D03*
%TD*%
D27*
%TO.C,C1*%
X131700000Y-60000000D03*
X127300000Y-60000000D03*
%TD*%
D21*
%TO.C,Q2*%
X120400000Y-72075000D03*
X119600000Y-72075000D03*
D22*
X120000000Y-70925000D03*
%TD*%
D28*
%TO.C,U1*%
X119955300Y-68000001D03*
X119955300Y-67499999D03*
X119955300Y-67000000D03*
X119955300Y-66500001D03*
X119955300Y-65999999D03*
X124044700Y-65999999D03*
X124044700Y-66500001D03*
X124044700Y-67000000D03*
X124044700Y-67499999D03*
X124044700Y-68000001D03*
%TD*%
D20*
%TO.C,C3*%
X129980000Y-63500000D03*
X129020000Y-63500000D03*
%TD*%
D24*
%TO.C,R13*%
X139510000Y-73500000D03*
X138490000Y-73500000D03*
%TD*%
D21*
%TO.C,Q1*%
X120400000Y-64075000D03*
X119600000Y-64075000D03*
D22*
X120000000Y-62925000D03*
%TD*%
D28*
%TO.C,U2*%
X119955300Y-76000001D03*
X119955300Y-75499999D03*
X119955300Y-75000000D03*
X119955300Y-74500001D03*
X119955300Y-73999999D03*
X124044700Y-73999999D03*
X124044700Y-74500001D03*
X124044700Y-75000000D03*
X124044700Y-75499999D03*
X124044700Y-76000001D03*
%TD*%
D19*
%TO.C,R10*%
X126990000Y-68000000D03*
X128010000Y-68000000D03*
%TD*%
M02*
