M48
; DRILL file {KiCad 8.0.1} date 2024-04-14T22:55:20+0200
; FORMAT={-:-/ absolute / inch / decimal}
; #@! TF.CreationDate,2024-04-14T22:55:20+02:00
; #@! TF.GenerationSoftware,Kicad,Pcbnew,8.0.1
; #@! TF.FileFunction,Plated,1,2,PTH
FMAT,2
INCH
; #@! TA.AperFunction,Plated,PTH,ViaDrill
T1C0.0157
; #@! TA.AperFunction,Plated,PTH,ComponentDrill
T2C0.0374
; #@! TA.AperFunction,Plated,PTH,ComponentDrill
T3C0.0394
; #@! TA.AperFunction,Plated,PTH,ComponentDrill
T4C0.0866
%
G90
G05
T1
X4.2913Y-2.2441
X4.2913Y-2.8937
X4.3898Y-2.7165
X4.5472Y-2.4606
X4.5571Y-2.7657
X4.5866Y-2.5
X4.6063Y-3.1496
X4.626Y-2.9596
X4.6457Y-2.7362
X4.6654Y-3.0315
X4.8031Y-2.7362
X4.8228Y-2.6378
X4.8819Y-3.2087
X4.9016Y-2.2047
X4.9213Y-2.7165
X4.9213Y-2.874
X5.0197Y-2.8543
X5.0197Y-3.1171
X5.0795Y-2.4299
X5.0984Y-2.5984
X5.1772Y-2.9528
X5.2756Y-2.4016
X5.2756Y-2.5984
X5.2756Y-2.7559
X5.2922Y-2.8377
X5.3346Y-2.74
X5.374Y-2.9331
T2
X5.0394Y-2.126
X5.1378Y-2.126
X5.2362Y-2.126
X5.3346Y-2.126
X5.4331Y-2.126
T3
X4.2717Y-2.3425
X4.2717Y-2.4409
X4.2717Y-3.0512
X4.2717Y-3.1496
X4.2729Y-2.6969
X4.2729Y-2.7953
X4.3209Y-2.1273
X4.4193Y-2.1273
X4.4882Y-2.6102
X4.4882Y-2.8661
X4.5866Y-2.6102
X4.5866Y-2.8661
X4.6752Y-2.1273
X4.6949Y-3.1496
X4.7047Y-2.3425
X4.7736Y-2.1273
X4.7933Y-3.1496
X4.8031Y-2.3425
T4
X4.4685Y-2.3228
X4.4685Y-3.1496
X5.4331Y-2.3228
X5.4331Y-3.1496
M30
