%TF.GenerationSoftware,KiCad,Pcbnew,8.0.1*%
%TF.CreationDate,2024-04-14T22:55:27+02:00*%
%TF.ProjectId,printhead-pcb,7072696e-7468-4656-9164-2d7063622e6b,rev?*%
%TF.SameCoordinates,Original*%
%TF.FileFunction,Legend,Top*%
%TF.FilePolarity,Positive*%
%FSLAX46Y46*%
G04 Gerber Fmt 4.6, Leading zero omitted, Abs format (unit mm)*
G04 Created by KiCad (PCBNEW 8.0.1) date 2024-04-14 22:55:27*
%MOMM*%
%LPD*%
G01*
G04 APERTURE LIST*
%ADD10C,0.150000*%
%ADD11C,0.120000*%
G04 APERTURE END LIST*
D10*
X131261905Y-66304819D02*
X131261905Y-65304819D01*
X131261905Y-65304819D02*
X131500000Y-65304819D01*
X131500000Y-65304819D02*
X131642857Y-65352438D01*
X131642857Y-65352438D02*
X131738095Y-65447676D01*
X131738095Y-65447676D02*
X131785714Y-65542914D01*
X131785714Y-65542914D02*
X131833333Y-65733390D01*
X131833333Y-65733390D02*
X131833333Y-65876247D01*
X131833333Y-65876247D02*
X131785714Y-66066723D01*
X131785714Y-66066723D02*
X131738095Y-66161961D01*
X131738095Y-66161961D02*
X131642857Y-66257200D01*
X131642857Y-66257200D02*
X131500000Y-66304819D01*
X131500000Y-66304819D02*
X131261905Y-66304819D01*
X132785714Y-66304819D02*
X132214286Y-66304819D01*
X132500000Y-66304819D02*
X132500000Y-65304819D01*
X132500000Y-65304819D02*
X132404762Y-65447676D01*
X132404762Y-65447676D02*
X132309524Y-65542914D01*
X132309524Y-65542914D02*
X132214286Y-65590533D01*
X100054819Y-61083333D02*
X100769104Y-61083333D01*
X100769104Y-61083333D02*
X100911961Y-61130952D01*
X100911961Y-61130952D02*
X101007200Y-61226190D01*
X101007200Y-61226190D02*
X101054819Y-61369047D01*
X101054819Y-61369047D02*
X101054819Y-61464285D01*
X100054819Y-60178571D02*
X100054819Y-60369047D01*
X100054819Y-60369047D02*
X100102438Y-60464285D01*
X100102438Y-60464285D02*
X100150057Y-60511904D01*
X100150057Y-60511904D02*
X100292914Y-60607142D01*
X100292914Y-60607142D02*
X100483390Y-60654761D01*
X100483390Y-60654761D02*
X100864342Y-60654761D01*
X100864342Y-60654761D02*
X100959580Y-60607142D01*
X100959580Y-60607142D02*
X101007200Y-60559523D01*
X101007200Y-60559523D02*
X101054819Y-60464285D01*
X101054819Y-60464285D02*
X101054819Y-60273809D01*
X101054819Y-60273809D02*
X101007200Y-60178571D01*
X101007200Y-60178571D02*
X100959580Y-60130952D01*
X100959580Y-60130952D02*
X100864342Y-60083333D01*
X100864342Y-60083333D02*
X100626247Y-60083333D01*
X100626247Y-60083333D02*
X100531009Y-60130952D01*
X100531009Y-60130952D02*
X100483390Y-60178571D01*
X100483390Y-60178571D02*
X100435771Y-60273809D01*
X100435771Y-60273809D02*
X100435771Y-60464285D01*
X100435771Y-60464285D02*
X100483390Y-60559523D01*
X100483390Y-60559523D02*
X100531009Y-60607142D01*
X100531009Y-60607142D02*
X100626247Y-60654761D01*
X130857142Y-81954819D02*
X130523809Y-81478628D01*
X130285714Y-81954819D02*
X130285714Y-80954819D01*
X130285714Y-80954819D02*
X130666666Y-80954819D01*
X130666666Y-80954819D02*
X130761904Y-81002438D01*
X130761904Y-81002438D02*
X130809523Y-81050057D01*
X130809523Y-81050057D02*
X130857142Y-81145295D01*
X130857142Y-81145295D02*
X130857142Y-81288152D01*
X130857142Y-81288152D02*
X130809523Y-81383390D01*
X130809523Y-81383390D02*
X130761904Y-81431009D01*
X130761904Y-81431009D02*
X130666666Y-81478628D01*
X130666666Y-81478628D02*
X130285714Y-81478628D01*
X131809523Y-81954819D02*
X131238095Y-81954819D01*
X131523809Y-81954819D02*
X131523809Y-80954819D01*
X131523809Y-80954819D02*
X131428571Y-81097676D01*
X131428571Y-81097676D02*
X131333333Y-81192914D01*
X131333333Y-81192914D02*
X131238095Y-81240533D01*
X132666666Y-81288152D02*
X132666666Y-81954819D01*
X132428571Y-80907200D02*
X132190476Y-81621485D01*
X132190476Y-81621485D02*
X132809523Y-81621485D01*
X137238095Y-77254819D02*
X137238095Y-76254819D01*
X137238095Y-76731009D02*
X137809523Y-76731009D01*
X137809523Y-77254819D02*
X137809523Y-76254819D01*
X138714285Y-76588152D02*
X138714285Y-77254819D01*
X138476190Y-76207200D02*
X138238095Y-76921485D01*
X138238095Y-76921485D02*
X138857142Y-76921485D01*
X130261905Y-78454819D02*
X130261905Y-77454819D01*
X130261905Y-77454819D02*
X130500000Y-77454819D01*
X130500000Y-77454819D02*
X130642857Y-77502438D01*
X130642857Y-77502438D02*
X130738095Y-77597676D01*
X130738095Y-77597676D02*
X130785714Y-77692914D01*
X130785714Y-77692914D02*
X130833333Y-77883390D01*
X130833333Y-77883390D02*
X130833333Y-78026247D01*
X130833333Y-78026247D02*
X130785714Y-78216723D01*
X130785714Y-78216723D02*
X130738095Y-78311961D01*
X130738095Y-78311961D02*
X130642857Y-78407200D01*
X130642857Y-78407200D02*
X130500000Y-78454819D01*
X130500000Y-78454819D02*
X130261905Y-78454819D01*
X131214286Y-77550057D02*
X131261905Y-77502438D01*
X131261905Y-77502438D02*
X131357143Y-77454819D01*
X131357143Y-77454819D02*
X131595238Y-77454819D01*
X131595238Y-77454819D02*
X131690476Y-77502438D01*
X131690476Y-77502438D02*
X131738095Y-77550057D01*
X131738095Y-77550057D02*
X131785714Y-77645295D01*
X131785714Y-77645295D02*
X131785714Y-77740533D01*
X131785714Y-77740533D02*
X131738095Y-77883390D01*
X131738095Y-77883390D02*
X131166667Y-78454819D01*
X131166667Y-78454819D02*
X131785714Y-78454819D01*
X127857142Y-82454819D02*
X127523809Y-81978628D01*
X127285714Y-82454819D02*
X127285714Y-81454819D01*
X127285714Y-81454819D02*
X127666666Y-81454819D01*
X127666666Y-81454819D02*
X127761904Y-81502438D01*
X127761904Y-81502438D02*
X127809523Y-81550057D01*
X127809523Y-81550057D02*
X127857142Y-81645295D01*
X127857142Y-81645295D02*
X127857142Y-81788152D01*
X127857142Y-81788152D02*
X127809523Y-81883390D01*
X127809523Y-81883390D02*
X127761904Y-81931009D01*
X127761904Y-81931009D02*
X127666666Y-81978628D01*
X127666666Y-81978628D02*
X127285714Y-81978628D01*
X128809523Y-82454819D02*
X128238095Y-82454819D01*
X128523809Y-82454819D02*
X128523809Y-81454819D01*
X128523809Y-81454819D02*
X128428571Y-81597676D01*
X128428571Y-81597676D02*
X128333333Y-81692914D01*
X128333333Y-81692914D02*
X128238095Y-81740533D01*
X129380952Y-81883390D02*
X129285714Y-81835771D01*
X129285714Y-81835771D02*
X129238095Y-81788152D01*
X129238095Y-81788152D02*
X129190476Y-81692914D01*
X129190476Y-81692914D02*
X129190476Y-81645295D01*
X129190476Y-81645295D02*
X129238095Y-81550057D01*
X129238095Y-81550057D02*
X129285714Y-81502438D01*
X129285714Y-81502438D02*
X129380952Y-81454819D01*
X129380952Y-81454819D02*
X129571428Y-81454819D01*
X129571428Y-81454819D02*
X129666666Y-81502438D01*
X129666666Y-81502438D02*
X129714285Y-81550057D01*
X129714285Y-81550057D02*
X129761904Y-81645295D01*
X129761904Y-81645295D02*
X129761904Y-81692914D01*
X129761904Y-81692914D02*
X129714285Y-81788152D01*
X129714285Y-81788152D02*
X129666666Y-81835771D01*
X129666666Y-81835771D02*
X129571428Y-81883390D01*
X129571428Y-81883390D02*
X129380952Y-81883390D01*
X129380952Y-81883390D02*
X129285714Y-81931009D01*
X129285714Y-81931009D02*
X129238095Y-81978628D01*
X129238095Y-81978628D02*
X129190476Y-82073866D01*
X129190476Y-82073866D02*
X129190476Y-82264342D01*
X129190476Y-82264342D02*
X129238095Y-82359580D01*
X129238095Y-82359580D02*
X129285714Y-82407200D01*
X129285714Y-82407200D02*
X129380952Y-82454819D01*
X129380952Y-82454819D02*
X129571428Y-82454819D01*
X129571428Y-82454819D02*
X129666666Y-82407200D01*
X129666666Y-82407200D02*
X129714285Y-82359580D01*
X129714285Y-82359580D02*
X129761904Y-82264342D01*
X129761904Y-82264342D02*
X129761904Y-82073866D01*
X129761904Y-82073866D02*
X129714285Y-81978628D01*
X129714285Y-81978628D02*
X129666666Y-81931009D01*
X129666666Y-81931009D02*
X129571428Y-81883390D01*
X129333333Y-56659580D02*
X129285714Y-56707200D01*
X129285714Y-56707200D02*
X129142857Y-56754819D01*
X129142857Y-56754819D02*
X129047619Y-56754819D01*
X129047619Y-56754819D02*
X128904762Y-56707200D01*
X128904762Y-56707200D02*
X128809524Y-56611961D01*
X128809524Y-56611961D02*
X128761905Y-56516723D01*
X128761905Y-56516723D02*
X128714286Y-56326247D01*
X128714286Y-56326247D02*
X128714286Y-56183390D01*
X128714286Y-56183390D02*
X128761905Y-55992914D01*
X128761905Y-55992914D02*
X128809524Y-55897676D01*
X128809524Y-55897676D02*
X128904762Y-55802438D01*
X128904762Y-55802438D02*
X129047619Y-55754819D01*
X129047619Y-55754819D02*
X129142857Y-55754819D01*
X129142857Y-55754819D02*
X129285714Y-55802438D01*
X129285714Y-55802438D02*
X129333333Y-55850057D01*
X129714286Y-55850057D02*
X129761905Y-55802438D01*
X129761905Y-55802438D02*
X129857143Y-55754819D01*
X129857143Y-55754819D02*
X130095238Y-55754819D01*
X130095238Y-55754819D02*
X130190476Y-55802438D01*
X130190476Y-55802438D02*
X130238095Y-55850057D01*
X130238095Y-55850057D02*
X130285714Y-55945295D01*
X130285714Y-55945295D02*
X130285714Y-56040533D01*
X130285714Y-56040533D02*
X130238095Y-56183390D01*
X130238095Y-56183390D02*
X129666667Y-56754819D01*
X129666667Y-56754819D02*
X130285714Y-56754819D01*
X125857142Y-77954819D02*
X125523809Y-77478628D01*
X125285714Y-77954819D02*
X125285714Y-76954819D01*
X125285714Y-76954819D02*
X125666666Y-76954819D01*
X125666666Y-76954819D02*
X125761904Y-77002438D01*
X125761904Y-77002438D02*
X125809523Y-77050057D01*
X125809523Y-77050057D02*
X125857142Y-77145295D01*
X125857142Y-77145295D02*
X125857142Y-77288152D01*
X125857142Y-77288152D02*
X125809523Y-77383390D01*
X125809523Y-77383390D02*
X125761904Y-77431009D01*
X125761904Y-77431009D02*
X125666666Y-77478628D01*
X125666666Y-77478628D02*
X125285714Y-77478628D01*
X126809523Y-77954819D02*
X126238095Y-77954819D01*
X126523809Y-77954819D02*
X126523809Y-76954819D01*
X126523809Y-76954819D02*
X126428571Y-77097676D01*
X126428571Y-77097676D02*
X126333333Y-77192914D01*
X126333333Y-77192914D02*
X126238095Y-77240533D01*
X127666666Y-76954819D02*
X127476190Y-76954819D01*
X127476190Y-76954819D02*
X127380952Y-77002438D01*
X127380952Y-77002438D02*
X127333333Y-77050057D01*
X127333333Y-77050057D02*
X127238095Y-77192914D01*
X127238095Y-77192914D02*
X127190476Y-77383390D01*
X127190476Y-77383390D02*
X127190476Y-77764342D01*
X127190476Y-77764342D02*
X127238095Y-77859580D01*
X127238095Y-77859580D02*
X127285714Y-77907200D01*
X127285714Y-77907200D02*
X127380952Y-77954819D01*
X127380952Y-77954819D02*
X127571428Y-77954819D01*
X127571428Y-77954819D02*
X127666666Y-77907200D01*
X127666666Y-77907200D02*
X127714285Y-77859580D01*
X127714285Y-77859580D02*
X127761904Y-77764342D01*
X127761904Y-77764342D02*
X127761904Y-77526247D01*
X127761904Y-77526247D02*
X127714285Y-77431009D01*
X127714285Y-77431009D02*
X127666666Y-77383390D01*
X127666666Y-77383390D02*
X127571428Y-77335771D01*
X127571428Y-77335771D02*
X127380952Y-77335771D01*
X127380952Y-77335771D02*
X127285714Y-77383390D01*
X127285714Y-77383390D02*
X127238095Y-77431009D01*
X127238095Y-77431009D02*
X127190476Y-77526247D01*
X114916666Y-68554819D02*
X114916666Y-69269104D01*
X114916666Y-69269104D02*
X114869047Y-69411961D01*
X114869047Y-69411961D02*
X114773809Y-69507200D01*
X114773809Y-69507200D02*
X114630952Y-69554819D01*
X114630952Y-69554819D02*
X114535714Y-69554819D01*
X115869047Y-68554819D02*
X115392857Y-68554819D01*
X115392857Y-68554819D02*
X115345238Y-69031009D01*
X115345238Y-69031009D02*
X115392857Y-68983390D01*
X115392857Y-68983390D02*
X115488095Y-68935771D01*
X115488095Y-68935771D02*
X115726190Y-68935771D01*
X115726190Y-68935771D02*
X115821428Y-68983390D01*
X115821428Y-68983390D02*
X115869047Y-69031009D01*
X115869047Y-69031009D02*
X115916666Y-69126247D01*
X115916666Y-69126247D02*
X115916666Y-69364342D01*
X115916666Y-69364342D02*
X115869047Y-69459580D01*
X115869047Y-69459580D02*
X115821428Y-69507200D01*
X115821428Y-69507200D02*
X115726190Y-69554819D01*
X115726190Y-69554819D02*
X115488095Y-69554819D01*
X115488095Y-69554819D02*
X115392857Y-69507200D01*
X115392857Y-69507200D02*
X115345238Y-69459580D01*
X130333333Y-64454819D02*
X130000000Y-63978628D01*
X129761905Y-64454819D02*
X129761905Y-63454819D01*
X129761905Y-63454819D02*
X130142857Y-63454819D01*
X130142857Y-63454819D02*
X130238095Y-63502438D01*
X130238095Y-63502438D02*
X130285714Y-63550057D01*
X130285714Y-63550057D02*
X130333333Y-63645295D01*
X130333333Y-63645295D02*
X130333333Y-63788152D01*
X130333333Y-63788152D02*
X130285714Y-63883390D01*
X130285714Y-63883390D02*
X130238095Y-63931009D01*
X130238095Y-63931009D02*
X130142857Y-63978628D01*
X130142857Y-63978628D02*
X129761905Y-63978628D01*
X131285714Y-64454819D02*
X130714286Y-64454819D01*
X131000000Y-64454819D02*
X131000000Y-63454819D01*
X131000000Y-63454819D02*
X130904762Y-63597676D01*
X130904762Y-63597676D02*
X130809524Y-63692914D01*
X130809524Y-63692914D02*
X130714286Y-63740533D01*
X115333333Y-62954819D02*
X114857143Y-62954819D01*
X114857143Y-62954819D02*
X114857143Y-61954819D01*
X116190476Y-62954819D02*
X115619048Y-62954819D01*
X115904762Y-62954819D02*
X115904762Y-61954819D01*
X115904762Y-61954819D02*
X115809524Y-62097676D01*
X115809524Y-62097676D02*
X115714286Y-62192914D01*
X115714286Y-62192914D02*
X115619048Y-62240533D01*
X134857142Y-64454819D02*
X134523809Y-63978628D01*
X134285714Y-64454819D02*
X134285714Y-63454819D01*
X134285714Y-63454819D02*
X134666666Y-63454819D01*
X134666666Y-63454819D02*
X134761904Y-63502438D01*
X134761904Y-63502438D02*
X134809523Y-63550057D01*
X134809523Y-63550057D02*
X134857142Y-63645295D01*
X134857142Y-63645295D02*
X134857142Y-63788152D01*
X134857142Y-63788152D02*
X134809523Y-63883390D01*
X134809523Y-63883390D02*
X134761904Y-63931009D01*
X134761904Y-63931009D02*
X134666666Y-63978628D01*
X134666666Y-63978628D02*
X134285714Y-63978628D01*
X135809523Y-64454819D02*
X135238095Y-64454819D01*
X135523809Y-64454819D02*
X135523809Y-63454819D01*
X135523809Y-63454819D02*
X135428571Y-63597676D01*
X135428571Y-63597676D02*
X135333333Y-63692914D01*
X135333333Y-63692914D02*
X135238095Y-63740533D01*
X136285714Y-64454819D02*
X136476190Y-64454819D01*
X136476190Y-64454819D02*
X136571428Y-64407200D01*
X136571428Y-64407200D02*
X136619047Y-64359580D01*
X136619047Y-64359580D02*
X136714285Y-64216723D01*
X136714285Y-64216723D02*
X136761904Y-64026247D01*
X136761904Y-64026247D02*
X136761904Y-63645295D01*
X136761904Y-63645295D02*
X136714285Y-63550057D01*
X136714285Y-63550057D02*
X136666666Y-63502438D01*
X136666666Y-63502438D02*
X136571428Y-63454819D01*
X136571428Y-63454819D02*
X136380952Y-63454819D01*
X136380952Y-63454819D02*
X136285714Y-63502438D01*
X136285714Y-63502438D02*
X136238095Y-63550057D01*
X136238095Y-63550057D02*
X136190476Y-63645295D01*
X136190476Y-63645295D02*
X136190476Y-63883390D01*
X136190476Y-63883390D02*
X136238095Y-63978628D01*
X136238095Y-63978628D02*
X136285714Y-64026247D01*
X136285714Y-64026247D02*
X136380952Y-64073866D01*
X136380952Y-64073866D02*
X136571428Y-64073866D01*
X136571428Y-64073866D02*
X136666666Y-64026247D01*
X136666666Y-64026247D02*
X136714285Y-63978628D01*
X136714285Y-63978628D02*
X136761904Y-63883390D01*
X125857142Y-70359580D02*
X125809523Y-70407200D01*
X125809523Y-70407200D02*
X125666666Y-70454819D01*
X125666666Y-70454819D02*
X125571428Y-70454819D01*
X125571428Y-70454819D02*
X125428571Y-70407200D01*
X125428571Y-70407200D02*
X125333333Y-70311961D01*
X125333333Y-70311961D02*
X125285714Y-70216723D01*
X125285714Y-70216723D02*
X125238095Y-70026247D01*
X125238095Y-70026247D02*
X125238095Y-69883390D01*
X125238095Y-69883390D02*
X125285714Y-69692914D01*
X125285714Y-69692914D02*
X125333333Y-69597676D01*
X125333333Y-69597676D02*
X125428571Y-69502438D01*
X125428571Y-69502438D02*
X125571428Y-69454819D01*
X125571428Y-69454819D02*
X125666666Y-69454819D01*
X125666666Y-69454819D02*
X125809523Y-69502438D01*
X125809523Y-69502438D02*
X125857142Y-69550057D01*
X126809523Y-70454819D02*
X126238095Y-70454819D01*
X126523809Y-70454819D02*
X126523809Y-69454819D01*
X126523809Y-69454819D02*
X126428571Y-69597676D01*
X126428571Y-69597676D02*
X126333333Y-69692914D01*
X126333333Y-69692914D02*
X126238095Y-69740533D01*
X127428571Y-69454819D02*
X127523809Y-69454819D01*
X127523809Y-69454819D02*
X127619047Y-69502438D01*
X127619047Y-69502438D02*
X127666666Y-69550057D01*
X127666666Y-69550057D02*
X127714285Y-69645295D01*
X127714285Y-69645295D02*
X127761904Y-69835771D01*
X127761904Y-69835771D02*
X127761904Y-70073866D01*
X127761904Y-70073866D02*
X127714285Y-70264342D01*
X127714285Y-70264342D02*
X127666666Y-70359580D01*
X127666666Y-70359580D02*
X127619047Y-70407200D01*
X127619047Y-70407200D02*
X127523809Y-70454819D01*
X127523809Y-70454819D02*
X127428571Y-70454819D01*
X127428571Y-70454819D02*
X127333333Y-70407200D01*
X127333333Y-70407200D02*
X127285714Y-70359580D01*
X127285714Y-70359580D02*
X127238095Y-70264342D01*
X127238095Y-70264342D02*
X127190476Y-70073866D01*
X127190476Y-70073866D02*
X127190476Y-69835771D01*
X127190476Y-69835771D02*
X127238095Y-69645295D01*
X127238095Y-69645295D02*
X127285714Y-69550057D01*
X127285714Y-69550057D02*
X127333333Y-69502438D01*
X127333333Y-69502438D02*
X127428571Y-69454819D01*
X130857142Y-80454819D02*
X130523809Y-79978628D01*
X130285714Y-80454819D02*
X130285714Y-79454819D01*
X130285714Y-79454819D02*
X130666666Y-79454819D01*
X130666666Y-79454819D02*
X130761904Y-79502438D01*
X130761904Y-79502438D02*
X130809523Y-79550057D01*
X130809523Y-79550057D02*
X130857142Y-79645295D01*
X130857142Y-79645295D02*
X130857142Y-79788152D01*
X130857142Y-79788152D02*
X130809523Y-79883390D01*
X130809523Y-79883390D02*
X130761904Y-79931009D01*
X130761904Y-79931009D02*
X130666666Y-79978628D01*
X130666666Y-79978628D02*
X130285714Y-79978628D01*
X131238095Y-79550057D02*
X131285714Y-79502438D01*
X131285714Y-79502438D02*
X131380952Y-79454819D01*
X131380952Y-79454819D02*
X131619047Y-79454819D01*
X131619047Y-79454819D02*
X131714285Y-79502438D01*
X131714285Y-79502438D02*
X131761904Y-79550057D01*
X131761904Y-79550057D02*
X131809523Y-79645295D01*
X131809523Y-79645295D02*
X131809523Y-79740533D01*
X131809523Y-79740533D02*
X131761904Y-79883390D01*
X131761904Y-79883390D02*
X131190476Y-80454819D01*
X131190476Y-80454819D02*
X131809523Y-80454819D01*
X132428571Y-79454819D02*
X132523809Y-79454819D01*
X132523809Y-79454819D02*
X132619047Y-79502438D01*
X132619047Y-79502438D02*
X132666666Y-79550057D01*
X132666666Y-79550057D02*
X132714285Y-79645295D01*
X132714285Y-79645295D02*
X132761904Y-79835771D01*
X132761904Y-79835771D02*
X132761904Y-80073866D01*
X132761904Y-80073866D02*
X132714285Y-80264342D01*
X132714285Y-80264342D02*
X132666666Y-80359580D01*
X132666666Y-80359580D02*
X132619047Y-80407200D01*
X132619047Y-80407200D02*
X132523809Y-80454819D01*
X132523809Y-80454819D02*
X132428571Y-80454819D01*
X132428571Y-80454819D02*
X132333333Y-80407200D01*
X132333333Y-80407200D02*
X132285714Y-80359580D01*
X132285714Y-80359580D02*
X132238095Y-80264342D01*
X132238095Y-80264342D02*
X132190476Y-80073866D01*
X132190476Y-80073866D02*
X132190476Y-79835771D01*
X132190476Y-79835771D02*
X132238095Y-79645295D01*
X132238095Y-79645295D02*
X132285714Y-79550057D01*
X132285714Y-79550057D02*
X132333333Y-79502438D01*
X132333333Y-79502438D02*
X132428571Y-79454819D01*
X138357142Y-72454819D02*
X138023809Y-71978628D01*
X137785714Y-72454819D02*
X137785714Y-71454819D01*
X137785714Y-71454819D02*
X138166666Y-71454819D01*
X138166666Y-71454819D02*
X138261904Y-71502438D01*
X138261904Y-71502438D02*
X138309523Y-71550057D01*
X138309523Y-71550057D02*
X138357142Y-71645295D01*
X138357142Y-71645295D02*
X138357142Y-71788152D01*
X138357142Y-71788152D02*
X138309523Y-71883390D01*
X138309523Y-71883390D02*
X138261904Y-71931009D01*
X138261904Y-71931009D02*
X138166666Y-71978628D01*
X138166666Y-71978628D02*
X137785714Y-71978628D01*
X139309523Y-72454819D02*
X138738095Y-72454819D01*
X139023809Y-72454819D02*
X139023809Y-71454819D01*
X139023809Y-71454819D02*
X138928571Y-71597676D01*
X138928571Y-71597676D02*
X138833333Y-71692914D01*
X138833333Y-71692914D02*
X138738095Y-71740533D01*
X139642857Y-71454819D02*
X140309523Y-71454819D01*
X140309523Y-71454819D02*
X139880952Y-72454819D01*
X119833333Y-76454819D02*
X119357143Y-76454819D01*
X119357143Y-76454819D02*
X119357143Y-75454819D01*
X120595238Y-75788152D02*
X120595238Y-76454819D01*
X120357143Y-75407200D02*
X120119048Y-76121485D01*
X120119048Y-76121485D02*
X120738095Y-76121485D01*
X119666666Y-45587319D02*
X119666666Y-46301604D01*
X119666666Y-46301604D02*
X119619047Y-46444461D01*
X119619047Y-46444461D02*
X119523809Y-46539700D01*
X119523809Y-46539700D02*
X119380952Y-46587319D01*
X119380952Y-46587319D02*
X119285714Y-46587319D01*
X120571428Y-45920652D02*
X120571428Y-46587319D01*
X120333333Y-45539700D02*
X120095238Y-46253985D01*
X120095238Y-46253985D02*
X120714285Y-46253985D01*
X139833333Y-63954819D02*
X139500000Y-63478628D01*
X139261905Y-63954819D02*
X139261905Y-62954819D01*
X139261905Y-62954819D02*
X139642857Y-62954819D01*
X139642857Y-62954819D02*
X139738095Y-63002438D01*
X139738095Y-63002438D02*
X139785714Y-63050057D01*
X139785714Y-63050057D02*
X139833333Y-63145295D01*
X139833333Y-63145295D02*
X139833333Y-63288152D01*
X139833333Y-63288152D02*
X139785714Y-63383390D01*
X139785714Y-63383390D02*
X139738095Y-63431009D01*
X139738095Y-63431009D02*
X139642857Y-63478628D01*
X139642857Y-63478628D02*
X139261905Y-63478628D01*
X140166667Y-62954819D02*
X140785714Y-62954819D01*
X140785714Y-62954819D02*
X140452381Y-63335771D01*
X140452381Y-63335771D02*
X140595238Y-63335771D01*
X140595238Y-63335771D02*
X140690476Y-63383390D01*
X140690476Y-63383390D02*
X140738095Y-63431009D01*
X140738095Y-63431009D02*
X140785714Y-63526247D01*
X140785714Y-63526247D02*
X140785714Y-63764342D01*
X140785714Y-63764342D02*
X140738095Y-63859580D01*
X140738095Y-63859580D02*
X140690476Y-63907200D01*
X140690476Y-63907200D02*
X140595238Y-63954819D01*
X140595238Y-63954819D02*
X140309524Y-63954819D01*
X140309524Y-63954819D02*
X140214286Y-63907200D01*
X140214286Y-63907200D02*
X140166667Y-63859580D01*
X125857142Y-72954819D02*
X125523809Y-72478628D01*
X125285714Y-72954819D02*
X125285714Y-71954819D01*
X125285714Y-71954819D02*
X125666666Y-71954819D01*
X125666666Y-71954819D02*
X125761904Y-72002438D01*
X125761904Y-72002438D02*
X125809523Y-72050057D01*
X125809523Y-72050057D02*
X125857142Y-72145295D01*
X125857142Y-72145295D02*
X125857142Y-72288152D01*
X125857142Y-72288152D02*
X125809523Y-72383390D01*
X125809523Y-72383390D02*
X125761904Y-72431009D01*
X125761904Y-72431009D02*
X125666666Y-72478628D01*
X125666666Y-72478628D02*
X125285714Y-72478628D01*
X126809523Y-72954819D02*
X126238095Y-72954819D01*
X126523809Y-72954819D02*
X126523809Y-71954819D01*
X126523809Y-71954819D02*
X126428571Y-72097676D01*
X126428571Y-72097676D02*
X126333333Y-72192914D01*
X126333333Y-72192914D02*
X126238095Y-72240533D01*
X127714285Y-71954819D02*
X127238095Y-71954819D01*
X127238095Y-71954819D02*
X127190476Y-72431009D01*
X127190476Y-72431009D02*
X127238095Y-72383390D01*
X127238095Y-72383390D02*
X127333333Y-72335771D01*
X127333333Y-72335771D02*
X127571428Y-72335771D01*
X127571428Y-72335771D02*
X127666666Y-72383390D01*
X127666666Y-72383390D02*
X127714285Y-72431009D01*
X127714285Y-72431009D02*
X127761904Y-72526247D01*
X127761904Y-72526247D02*
X127761904Y-72764342D01*
X127761904Y-72764342D02*
X127714285Y-72859580D01*
X127714285Y-72859580D02*
X127666666Y-72907200D01*
X127666666Y-72907200D02*
X127571428Y-72954819D01*
X127571428Y-72954819D02*
X127333333Y-72954819D01*
X127333333Y-72954819D02*
X127238095Y-72907200D01*
X127238095Y-72907200D02*
X127190476Y-72859580D01*
X130261905Y-75954819D02*
X130261905Y-74954819D01*
X130261905Y-74954819D02*
X130500000Y-74954819D01*
X130500000Y-74954819D02*
X130642857Y-75002438D01*
X130642857Y-75002438D02*
X130738095Y-75097676D01*
X130738095Y-75097676D02*
X130785714Y-75192914D01*
X130785714Y-75192914D02*
X130833333Y-75383390D01*
X130833333Y-75383390D02*
X130833333Y-75526247D01*
X130833333Y-75526247D02*
X130785714Y-75716723D01*
X130785714Y-75716723D02*
X130738095Y-75811961D01*
X130738095Y-75811961D02*
X130642857Y-75907200D01*
X130642857Y-75907200D02*
X130500000Y-75954819D01*
X130500000Y-75954819D02*
X130261905Y-75954819D01*
X131690476Y-75288152D02*
X131690476Y-75954819D01*
X131452381Y-74907200D02*
X131214286Y-75621485D01*
X131214286Y-75621485D02*
X131833333Y-75621485D01*
X135261905Y-65954819D02*
X135261905Y-64954819D01*
X135261905Y-64954819D02*
X135500000Y-64954819D01*
X135500000Y-64954819D02*
X135642857Y-65002438D01*
X135642857Y-65002438D02*
X135738095Y-65097676D01*
X135738095Y-65097676D02*
X135785714Y-65192914D01*
X135785714Y-65192914D02*
X135833333Y-65383390D01*
X135833333Y-65383390D02*
X135833333Y-65526247D01*
X135833333Y-65526247D02*
X135785714Y-65716723D01*
X135785714Y-65716723D02*
X135738095Y-65811961D01*
X135738095Y-65811961D02*
X135642857Y-65907200D01*
X135642857Y-65907200D02*
X135500000Y-65954819D01*
X135500000Y-65954819D02*
X135261905Y-65954819D01*
X136166667Y-64954819D02*
X136785714Y-64954819D01*
X136785714Y-64954819D02*
X136452381Y-65335771D01*
X136452381Y-65335771D02*
X136595238Y-65335771D01*
X136595238Y-65335771D02*
X136690476Y-65383390D01*
X136690476Y-65383390D02*
X136738095Y-65431009D01*
X136738095Y-65431009D02*
X136785714Y-65526247D01*
X136785714Y-65526247D02*
X136785714Y-65764342D01*
X136785714Y-65764342D02*
X136738095Y-65859580D01*
X136738095Y-65859580D02*
X136690476Y-65907200D01*
X136690476Y-65907200D02*
X136595238Y-65954819D01*
X136595238Y-65954819D02*
X136309524Y-65954819D01*
X136309524Y-65954819D02*
X136214286Y-65907200D01*
X136214286Y-65907200D02*
X136166667Y-65859580D01*
X119833333Y-74454819D02*
X119357143Y-74454819D01*
X119357143Y-74454819D02*
X119357143Y-73454819D01*
X120071429Y-73454819D02*
X120690476Y-73454819D01*
X120690476Y-73454819D02*
X120357143Y-73835771D01*
X120357143Y-73835771D02*
X120500000Y-73835771D01*
X120500000Y-73835771D02*
X120595238Y-73883390D01*
X120595238Y-73883390D02*
X120642857Y-73931009D01*
X120642857Y-73931009D02*
X120690476Y-74026247D01*
X120690476Y-74026247D02*
X120690476Y-74264342D01*
X120690476Y-74264342D02*
X120642857Y-74359580D01*
X120642857Y-74359580D02*
X120595238Y-74407200D01*
X120595238Y-74407200D02*
X120500000Y-74454819D01*
X120500000Y-74454819D02*
X120214286Y-74454819D01*
X120214286Y-74454819D02*
X120119048Y-74407200D01*
X120119048Y-74407200D02*
X120071429Y-74359580D01*
X111238095Y-76954819D02*
X111238095Y-75954819D01*
X111238095Y-76431009D02*
X111809523Y-76431009D01*
X111809523Y-76954819D02*
X111809523Y-75954819D01*
X112238095Y-76050057D02*
X112285714Y-76002438D01*
X112285714Y-76002438D02*
X112380952Y-75954819D01*
X112380952Y-75954819D02*
X112619047Y-75954819D01*
X112619047Y-75954819D02*
X112714285Y-76002438D01*
X112714285Y-76002438D02*
X112761904Y-76050057D01*
X112761904Y-76050057D02*
X112809523Y-76145295D01*
X112809523Y-76145295D02*
X112809523Y-76240533D01*
X112809523Y-76240533D02*
X112761904Y-76383390D01*
X112761904Y-76383390D02*
X112190476Y-76954819D01*
X112190476Y-76954819D02*
X112809523Y-76954819D01*
X133738095Y-70954819D02*
X133738095Y-71764342D01*
X133738095Y-71764342D02*
X133785714Y-71859580D01*
X133785714Y-71859580D02*
X133833333Y-71907200D01*
X133833333Y-71907200D02*
X133928571Y-71954819D01*
X133928571Y-71954819D02*
X134119047Y-71954819D01*
X134119047Y-71954819D02*
X134214285Y-71907200D01*
X134214285Y-71907200D02*
X134261904Y-71859580D01*
X134261904Y-71859580D02*
X134309523Y-71764342D01*
X134309523Y-71764342D02*
X134309523Y-70954819D01*
X135214285Y-71288152D02*
X135214285Y-71954819D01*
X134976190Y-70907200D02*
X134738095Y-71621485D01*
X134738095Y-71621485D02*
X135357142Y-71621485D01*
X132666666Y-45554819D02*
X132666666Y-46269104D01*
X132666666Y-46269104D02*
X132619047Y-46411961D01*
X132619047Y-46411961D02*
X132523809Y-46507200D01*
X132523809Y-46507200D02*
X132380952Y-46554819D01*
X132380952Y-46554819D02*
X132285714Y-46554819D01*
X133666666Y-46554819D02*
X133095238Y-46554819D01*
X133380952Y-46554819D02*
X133380952Y-45554819D01*
X133380952Y-45554819D02*
X133285714Y-45697676D01*
X133285714Y-45697676D02*
X133190476Y-45792914D01*
X133190476Y-45792914D02*
X133095238Y-45840533D01*
X110738095Y-56454819D02*
X110738095Y-55454819D01*
X110738095Y-55931009D02*
X111309523Y-55931009D01*
X111309523Y-56454819D02*
X111309523Y-55454819D01*
X111690476Y-55454819D02*
X112309523Y-55454819D01*
X112309523Y-55454819D02*
X111976190Y-55835771D01*
X111976190Y-55835771D02*
X112119047Y-55835771D01*
X112119047Y-55835771D02*
X112214285Y-55883390D01*
X112214285Y-55883390D02*
X112261904Y-55931009D01*
X112261904Y-55931009D02*
X112309523Y-56026247D01*
X112309523Y-56026247D02*
X112309523Y-56264342D01*
X112309523Y-56264342D02*
X112261904Y-56359580D01*
X112261904Y-56359580D02*
X112214285Y-56407200D01*
X112214285Y-56407200D02*
X112119047Y-56454819D01*
X112119047Y-56454819D02*
X111833333Y-56454819D01*
X111833333Y-56454819D02*
X111738095Y-56407200D01*
X111738095Y-56407200D02*
X111690476Y-56359580D01*
X125857142Y-79359580D02*
X125809523Y-79407200D01*
X125809523Y-79407200D02*
X125666666Y-79454819D01*
X125666666Y-79454819D02*
X125571428Y-79454819D01*
X125571428Y-79454819D02*
X125428571Y-79407200D01*
X125428571Y-79407200D02*
X125333333Y-79311961D01*
X125333333Y-79311961D02*
X125285714Y-79216723D01*
X125285714Y-79216723D02*
X125238095Y-79026247D01*
X125238095Y-79026247D02*
X125238095Y-78883390D01*
X125238095Y-78883390D02*
X125285714Y-78692914D01*
X125285714Y-78692914D02*
X125333333Y-78597676D01*
X125333333Y-78597676D02*
X125428571Y-78502438D01*
X125428571Y-78502438D02*
X125571428Y-78454819D01*
X125571428Y-78454819D02*
X125666666Y-78454819D01*
X125666666Y-78454819D02*
X125809523Y-78502438D01*
X125809523Y-78502438D02*
X125857142Y-78550057D01*
X126809523Y-79454819D02*
X126238095Y-79454819D01*
X126523809Y-79454819D02*
X126523809Y-78454819D01*
X126523809Y-78454819D02*
X126428571Y-78597676D01*
X126428571Y-78597676D02*
X126333333Y-78692914D01*
X126333333Y-78692914D02*
X126238095Y-78740533D01*
X127761904Y-79454819D02*
X127190476Y-79454819D01*
X127476190Y-79454819D02*
X127476190Y-78454819D01*
X127476190Y-78454819D02*
X127380952Y-78597676D01*
X127380952Y-78597676D02*
X127285714Y-78692914D01*
X127285714Y-78692914D02*
X127190476Y-78740533D01*
X114666666Y-75454819D02*
X114666666Y-76169104D01*
X114666666Y-76169104D02*
X114619047Y-76311961D01*
X114619047Y-76311961D02*
X114523809Y-76407200D01*
X114523809Y-76407200D02*
X114380952Y-76454819D01*
X114380952Y-76454819D02*
X114285714Y-76454819D01*
X115285714Y-75883390D02*
X115190476Y-75835771D01*
X115190476Y-75835771D02*
X115142857Y-75788152D01*
X115142857Y-75788152D02*
X115095238Y-75692914D01*
X115095238Y-75692914D02*
X115095238Y-75645295D01*
X115095238Y-75645295D02*
X115142857Y-75550057D01*
X115142857Y-75550057D02*
X115190476Y-75502438D01*
X115190476Y-75502438D02*
X115285714Y-75454819D01*
X115285714Y-75454819D02*
X115476190Y-75454819D01*
X115476190Y-75454819D02*
X115571428Y-75502438D01*
X115571428Y-75502438D02*
X115619047Y-75550057D01*
X115619047Y-75550057D02*
X115666666Y-75645295D01*
X115666666Y-75645295D02*
X115666666Y-75692914D01*
X115666666Y-75692914D02*
X115619047Y-75788152D01*
X115619047Y-75788152D02*
X115571428Y-75835771D01*
X115571428Y-75835771D02*
X115476190Y-75883390D01*
X115476190Y-75883390D02*
X115285714Y-75883390D01*
X115285714Y-75883390D02*
X115190476Y-75931009D01*
X115190476Y-75931009D02*
X115142857Y-75978628D01*
X115142857Y-75978628D02*
X115095238Y-76073866D01*
X115095238Y-76073866D02*
X115095238Y-76264342D01*
X115095238Y-76264342D02*
X115142857Y-76359580D01*
X115142857Y-76359580D02*
X115190476Y-76407200D01*
X115190476Y-76407200D02*
X115285714Y-76454819D01*
X115285714Y-76454819D02*
X115476190Y-76454819D01*
X115476190Y-76454819D02*
X115571428Y-76407200D01*
X115571428Y-76407200D02*
X115619047Y-76359580D01*
X115619047Y-76359580D02*
X115666666Y-76264342D01*
X115666666Y-76264342D02*
X115666666Y-76073866D01*
X115666666Y-76073866D02*
X115619047Y-75978628D01*
X115619047Y-75978628D02*
X115571428Y-75931009D01*
X115571428Y-75931009D02*
X115476190Y-75883390D01*
X123333333Y-65359580D02*
X123285714Y-65407200D01*
X123285714Y-65407200D02*
X123142857Y-65454819D01*
X123142857Y-65454819D02*
X123047619Y-65454819D01*
X123047619Y-65454819D02*
X122904762Y-65407200D01*
X122904762Y-65407200D02*
X122809524Y-65311961D01*
X122809524Y-65311961D02*
X122761905Y-65216723D01*
X122761905Y-65216723D02*
X122714286Y-65026247D01*
X122714286Y-65026247D02*
X122714286Y-64883390D01*
X122714286Y-64883390D02*
X122761905Y-64692914D01*
X122761905Y-64692914D02*
X122809524Y-64597676D01*
X122809524Y-64597676D02*
X122904762Y-64502438D01*
X122904762Y-64502438D02*
X123047619Y-64454819D01*
X123047619Y-64454819D02*
X123142857Y-64454819D01*
X123142857Y-64454819D02*
X123285714Y-64502438D01*
X123285714Y-64502438D02*
X123333333Y-64550057D01*
X124190476Y-64454819D02*
X124000000Y-64454819D01*
X124000000Y-64454819D02*
X123904762Y-64502438D01*
X123904762Y-64502438D02*
X123857143Y-64550057D01*
X123857143Y-64550057D02*
X123761905Y-64692914D01*
X123761905Y-64692914D02*
X123714286Y-64883390D01*
X123714286Y-64883390D02*
X123714286Y-65264342D01*
X123714286Y-65264342D02*
X123761905Y-65359580D01*
X123761905Y-65359580D02*
X123809524Y-65407200D01*
X123809524Y-65407200D02*
X123904762Y-65454819D01*
X123904762Y-65454819D02*
X124095238Y-65454819D01*
X124095238Y-65454819D02*
X124190476Y-65407200D01*
X124190476Y-65407200D02*
X124238095Y-65359580D01*
X124238095Y-65359580D02*
X124285714Y-65264342D01*
X124285714Y-65264342D02*
X124285714Y-65026247D01*
X124285714Y-65026247D02*
X124238095Y-64931009D01*
X124238095Y-64931009D02*
X124190476Y-64883390D01*
X124190476Y-64883390D02*
X124095238Y-64835771D01*
X124095238Y-64835771D02*
X123904762Y-64835771D01*
X123904762Y-64835771D02*
X123809524Y-64883390D01*
X123809524Y-64883390D02*
X123761905Y-64931009D01*
X123761905Y-64931009D02*
X123714286Y-65026247D01*
X110666666Y-45587319D02*
X110666666Y-46301604D01*
X110666666Y-46301604D02*
X110619047Y-46444461D01*
X110619047Y-46444461D02*
X110523809Y-46539700D01*
X110523809Y-46539700D02*
X110380952Y-46587319D01*
X110380952Y-46587319D02*
X110285714Y-46587319D01*
X111095238Y-45682557D02*
X111142857Y-45634938D01*
X111142857Y-45634938D02*
X111238095Y-45587319D01*
X111238095Y-45587319D02*
X111476190Y-45587319D01*
X111476190Y-45587319D02*
X111571428Y-45634938D01*
X111571428Y-45634938D02*
X111619047Y-45682557D01*
X111619047Y-45682557D02*
X111666666Y-45777795D01*
X111666666Y-45777795D02*
X111666666Y-45873033D01*
X111666666Y-45873033D02*
X111619047Y-46015890D01*
X111619047Y-46015890D02*
X111047619Y-46587319D01*
X111047619Y-46587319D02*
X111666666Y-46587319D01*
X100054819Y-79559523D02*
X100769104Y-79559523D01*
X100769104Y-79559523D02*
X100911961Y-79607142D01*
X100911961Y-79607142D02*
X101007200Y-79702380D01*
X101007200Y-79702380D02*
X101054819Y-79845237D01*
X101054819Y-79845237D02*
X101054819Y-79940475D01*
X101054819Y-78559523D02*
X101054819Y-79130951D01*
X101054819Y-78845237D02*
X100054819Y-78845237D01*
X100054819Y-78845237D02*
X100197676Y-78940475D01*
X100197676Y-78940475D02*
X100292914Y-79035713D01*
X100292914Y-79035713D02*
X100340533Y-79130951D01*
X100054819Y-77940475D02*
X100054819Y-77845237D01*
X100054819Y-77845237D02*
X100102438Y-77749999D01*
X100102438Y-77749999D02*
X100150057Y-77702380D01*
X100150057Y-77702380D02*
X100245295Y-77654761D01*
X100245295Y-77654761D02*
X100435771Y-77607142D01*
X100435771Y-77607142D02*
X100673866Y-77607142D01*
X100673866Y-77607142D02*
X100864342Y-77654761D01*
X100864342Y-77654761D02*
X100959580Y-77702380D01*
X100959580Y-77702380D02*
X101007200Y-77749999D01*
X101007200Y-77749999D02*
X101054819Y-77845237D01*
X101054819Y-77845237D02*
X101054819Y-77940475D01*
X101054819Y-77940475D02*
X101007200Y-78035713D01*
X101007200Y-78035713D02*
X100959580Y-78083332D01*
X100959580Y-78083332D02*
X100864342Y-78130951D01*
X100864342Y-78130951D02*
X100673866Y-78178570D01*
X100673866Y-78178570D02*
X100435771Y-78178570D01*
X100435771Y-78178570D02*
X100245295Y-78130951D01*
X100245295Y-78130951D02*
X100150057Y-78083332D01*
X100150057Y-78083332D02*
X100102438Y-78035713D01*
X100102438Y-78035713D02*
X100054819Y-77940475D01*
X134238095Y-57454819D02*
X134238095Y-56454819D01*
X134238095Y-56931009D02*
X134809523Y-56931009D01*
X134809523Y-57454819D02*
X134809523Y-56454819D01*
X135809523Y-57454819D02*
X135238095Y-57454819D01*
X135523809Y-57454819D02*
X135523809Y-56454819D01*
X135523809Y-56454819D02*
X135428571Y-56597676D01*
X135428571Y-56597676D02*
X135333333Y-56692914D01*
X135333333Y-56692914D02*
X135238095Y-56740533D01*
X100087319Y-70083333D02*
X100801604Y-70083333D01*
X100801604Y-70083333D02*
X100944461Y-70130952D01*
X100944461Y-70130952D02*
X101039700Y-70226190D01*
X101039700Y-70226190D02*
X101087319Y-70369047D01*
X101087319Y-70369047D02*
X101087319Y-70464285D01*
X100087319Y-69702380D02*
X100087319Y-69035714D01*
X100087319Y-69035714D02*
X101087319Y-69464285D01*
X120166666Y-82254819D02*
X120166666Y-82969104D01*
X120166666Y-82969104D02*
X120119047Y-83111961D01*
X120119047Y-83111961D02*
X120023809Y-83207200D01*
X120023809Y-83207200D02*
X119880952Y-83254819D01*
X119880952Y-83254819D02*
X119785714Y-83254819D01*
X120690476Y-83254819D02*
X120880952Y-83254819D01*
X120880952Y-83254819D02*
X120976190Y-83207200D01*
X120976190Y-83207200D02*
X121023809Y-83159580D01*
X121023809Y-83159580D02*
X121119047Y-83016723D01*
X121119047Y-83016723D02*
X121166666Y-82826247D01*
X121166666Y-82826247D02*
X121166666Y-82445295D01*
X121166666Y-82445295D02*
X121119047Y-82350057D01*
X121119047Y-82350057D02*
X121071428Y-82302438D01*
X121071428Y-82302438D02*
X120976190Y-82254819D01*
X120976190Y-82254819D02*
X120785714Y-82254819D01*
X120785714Y-82254819D02*
X120690476Y-82302438D01*
X120690476Y-82302438D02*
X120642857Y-82350057D01*
X120642857Y-82350057D02*
X120595238Y-82445295D01*
X120595238Y-82445295D02*
X120595238Y-82683390D01*
X120595238Y-82683390D02*
X120642857Y-82778628D01*
X120642857Y-82778628D02*
X120690476Y-82826247D01*
X120690476Y-82826247D02*
X120785714Y-82873866D01*
X120785714Y-82873866D02*
X120976190Y-82873866D01*
X120976190Y-82873866D02*
X121071428Y-82826247D01*
X121071428Y-82826247D02*
X121119047Y-82778628D01*
X121119047Y-82778628D02*
X121166666Y-82683390D01*
X120166666Y-61954819D02*
X120166666Y-62669104D01*
X120166666Y-62669104D02*
X120119047Y-62811961D01*
X120119047Y-62811961D02*
X120023809Y-62907200D01*
X120023809Y-62907200D02*
X119880952Y-62954819D01*
X119880952Y-62954819D02*
X119785714Y-62954819D01*
X120547619Y-61954819D02*
X121166666Y-61954819D01*
X121166666Y-61954819D02*
X120833333Y-62335771D01*
X120833333Y-62335771D02*
X120976190Y-62335771D01*
X120976190Y-62335771D02*
X121071428Y-62383390D01*
X121071428Y-62383390D02*
X121119047Y-62431009D01*
X121119047Y-62431009D02*
X121166666Y-62526247D01*
X121166666Y-62526247D02*
X121166666Y-62764342D01*
X121166666Y-62764342D02*
X121119047Y-62859580D01*
X121119047Y-62859580D02*
X121071428Y-62907200D01*
X121071428Y-62907200D02*
X120976190Y-62954819D01*
X120976190Y-62954819D02*
X120690476Y-62954819D01*
X120690476Y-62954819D02*
X120595238Y-62907200D01*
X120595238Y-62907200D02*
X120547619Y-62859580D01*
X123333333Y-63859580D02*
X123285714Y-63907200D01*
X123285714Y-63907200D02*
X123142857Y-63954819D01*
X123142857Y-63954819D02*
X123047619Y-63954819D01*
X123047619Y-63954819D02*
X122904762Y-63907200D01*
X122904762Y-63907200D02*
X122809524Y-63811961D01*
X122809524Y-63811961D02*
X122761905Y-63716723D01*
X122761905Y-63716723D02*
X122714286Y-63526247D01*
X122714286Y-63526247D02*
X122714286Y-63383390D01*
X122714286Y-63383390D02*
X122761905Y-63192914D01*
X122761905Y-63192914D02*
X122809524Y-63097676D01*
X122809524Y-63097676D02*
X122904762Y-63002438D01*
X122904762Y-63002438D02*
X123047619Y-62954819D01*
X123047619Y-62954819D02*
X123142857Y-62954819D01*
X123142857Y-62954819D02*
X123285714Y-63002438D01*
X123285714Y-63002438D02*
X123333333Y-63050057D01*
X123904762Y-63383390D02*
X123809524Y-63335771D01*
X123809524Y-63335771D02*
X123761905Y-63288152D01*
X123761905Y-63288152D02*
X123714286Y-63192914D01*
X123714286Y-63192914D02*
X123714286Y-63145295D01*
X123714286Y-63145295D02*
X123761905Y-63050057D01*
X123761905Y-63050057D02*
X123809524Y-63002438D01*
X123809524Y-63002438D02*
X123904762Y-62954819D01*
X123904762Y-62954819D02*
X124095238Y-62954819D01*
X124095238Y-62954819D02*
X124190476Y-63002438D01*
X124190476Y-63002438D02*
X124238095Y-63050057D01*
X124238095Y-63050057D02*
X124285714Y-63145295D01*
X124285714Y-63145295D02*
X124285714Y-63192914D01*
X124285714Y-63192914D02*
X124238095Y-63288152D01*
X124238095Y-63288152D02*
X124190476Y-63335771D01*
X124190476Y-63335771D02*
X124095238Y-63383390D01*
X124095238Y-63383390D02*
X123904762Y-63383390D01*
X123904762Y-63383390D02*
X123809524Y-63431009D01*
X123809524Y-63431009D02*
X123761905Y-63478628D01*
X123761905Y-63478628D02*
X123714286Y-63573866D01*
X123714286Y-63573866D02*
X123714286Y-63764342D01*
X123714286Y-63764342D02*
X123761905Y-63859580D01*
X123761905Y-63859580D02*
X123809524Y-63907200D01*
X123809524Y-63907200D02*
X123904762Y-63954819D01*
X123904762Y-63954819D02*
X124095238Y-63954819D01*
X124095238Y-63954819D02*
X124190476Y-63907200D01*
X124190476Y-63907200D02*
X124238095Y-63859580D01*
X124238095Y-63859580D02*
X124285714Y-63764342D01*
X124285714Y-63764342D02*
X124285714Y-63573866D01*
X124285714Y-63573866D02*
X124238095Y-63478628D01*
X124238095Y-63478628D02*
X124190476Y-63431009D01*
X124190476Y-63431009D02*
X124095238Y-63383390D01*
X139833333Y-65454819D02*
X139500000Y-64978628D01*
X139261905Y-65454819D02*
X139261905Y-64454819D01*
X139261905Y-64454819D02*
X139642857Y-64454819D01*
X139642857Y-64454819D02*
X139738095Y-64502438D01*
X139738095Y-64502438D02*
X139785714Y-64550057D01*
X139785714Y-64550057D02*
X139833333Y-64645295D01*
X139833333Y-64645295D02*
X139833333Y-64788152D01*
X139833333Y-64788152D02*
X139785714Y-64883390D01*
X139785714Y-64883390D02*
X139738095Y-64931009D01*
X139738095Y-64931009D02*
X139642857Y-64978628D01*
X139642857Y-64978628D02*
X139261905Y-64978628D01*
X140214286Y-64550057D02*
X140261905Y-64502438D01*
X140261905Y-64502438D02*
X140357143Y-64454819D01*
X140357143Y-64454819D02*
X140595238Y-64454819D01*
X140595238Y-64454819D02*
X140690476Y-64502438D01*
X140690476Y-64502438D02*
X140738095Y-64550057D01*
X140738095Y-64550057D02*
X140785714Y-64645295D01*
X140785714Y-64645295D02*
X140785714Y-64740533D01*
X140785714Y-64740533D02*
X140738095Y-64883390D01*
X140738095Y-64883390D02*
X140166667Y-65454819D01*
X140166667Y-65454819D02*
X140785714Y-65454819D01*
D11*
%TO.C,D1*%
X130315000Y-66540000D02*
X130315000Y-68460000D01*
X130315000Y-68460000D02*
X133000000Y-68460000D01*
X133000000Y-66540000D02*
X130315000Y-66540000D01*
%TO.C,J6*%
X101690000Y-56890000D02*
X110110000Y-56890000D01*
X101690000Y-64610000D02*
X101690000Y-56890000D01*
X102910000Y-56890000D02*
X102910000Y-58110000D01*
X102910000Y-58110000D02*
X107910000Y-58110000D01*
X102910000Y-63390000D02*
X107910000Y-63390000D01*
X102910000Y-64610000D02*
X102910000Y-63390000D01*
X103410000Y-59500000D02*
X103490000Y-59180000D01*
X103410000Y-62000000D02*
X103490000Y-61680000D01*
X103490000Y-59180000D02*
X106910000Y-59180000D01*
X103490000Y-59820000D02*
X103410000Y-59500000D01*
X103490000Y-61680000D02*
X106910000Y-61680000D01*
X103490000Y-62320000D02*
X103410000Y-62000000D01*
X106910000Y-59180000D02*
X106910000Y-59500000D01*
X106910000Y-59500000D02*
X106910000Y-59820000D01*
X106910000Y-59820000D02*
X103490000Y-59820000D01*
X106910000Y-61680000D02*
X106910000Y-62000000D01*
X106910000Y-62000000D02*
X106910000Y-62320000D01*
X106910000Y-62320000D02*
X103490000Y-62320000D01*
X106910000Y-63390000D02*
X106910000Y-58110000D01*
X107910000Y-58110000D02*
X107910000Y-56890000D01*
X107910000Y-60830000D02*
X107910000Y-60670000D01*
X107910000Y-63390000D02*
X107910000Y-64610000D01*
X107910000Y-63390000D02*
X110110000Y-63390000D01*
X110000000Y-62000000D02*
X110600000Y-62300000D01*
X110110000Y-56890000D02*
X110110000Y-58110000D01*
X110110000Y-58110000D02*
X107910000Y-58110000D01*
X110110000Y-63390000D02*
X110110000Y-64610000D01*
X110110000Y-64610000D02*
X101690000Y-64610000D01*
X110600000Y-61700000D02*
X110000000Y-62000000D01*
X110600000Y-62300000D02*
X110600000Y-61700000D01*
%TO.C,R14*%
X133846359Y-81120000D02*
X134153641Y-81120000D01*
X133846359Y-81880000D02*
X134153641Y-81880000D01*
%TO.C,D2*%
X133000000Y-78960000D02*
X135685000Y-78960000D01*
X135685000Y-77040000D02*
X133000000Y-77040000D01*
X135685000Y-78960000D02*
X135685000Y-77040000D01*
%TO.C,R18*%
X128836359Y-80120000D02*
X129143641Y-80120000D01*
X128836359Y-80880000D02*
X129143641Y-80880000D01*
%TO.C,C2*%
X125875000Y-58315000D02*
X126500000Y-58315000D01*
X126187500Y-58002500D02*
X126187500Y-58627500D01*
X126740000Y-58304437D02*
X126740000Y-58940000D01*
X126740000Y-58304437D02*
X127804437Y-57240000D01*
X126740000Y-61695563D02*
X126740000Y-61060000D01*
X126740000Y-61695563D02*
X127804437Y-62760000D01*
X127804437Y-57240000D02*
X132260000Y-57240000D01*
X127804437Y-62760000D02*
X132260000Y-62760000D01*
X132260000Y-57240000D02*
X132260000Y-58940000D01*
X132260000Y-62760000D02*
X132260000Y-61060000D01*
%TO.C,R16*%
X126653641Y-75620000D02*
X126346359Y-75620000D01*
X126653641Y-76380000D02*
X126346359Y-76380000D01*
%TO.C,J5*%
X111390000Y-63990000D02*
X111390000Y-68010000D01*
X111390000Y-65490000D02*
X112390000Y-65490000D01*
X111390000Y-68010000D02*
X119110000Y-68010000D01*
X111890000Y-66300000D02*
X111390000Y-66300000D01*
X111890000Y-67510000D02*
X111890000Y-66300000D01*
X112390000Y-65490000D02*
X112390000Y-63990000D01*
X118110000Y-65490000D02*
X118110000Y-63990000D01*
X118610000Y-66300000D02*
X118610000Y-67510000D01*
X118610000Y-67510000D02*
X111890000Y-67510000D01*
X119110000Y-63990000D02*
X111390000Y-63990000D01*
X119110000Y-65490000D02*
X118110000Y-65490000D01*
X119110000Y-66300000D02*
X118610000Y-66300000D01*
X119110000Y-68010000D02*
X119110000Y-63990000D01*
X119410000Y-63690000D02*
X116910000Y-63690000D01*
X119410000Y-66190000D02*
X119410000Y-63690000D01*
%TO.C,R1*%
X131620000Y-64143641D02*
X131620000Y-63836359D01*
X132380000Y-64143641D02*
X132380000Y-63836359D01*
%TO.C,L1*%
X112837221Y-61990000D02*
X113162779Y-61990000D01*
X112837221Y-63010000D02*
X113162779Y-63010000D01*
%TO.C,R19*%
X133120000Y-64153641D02*
X133120000Y-63846359D01*
X133880000Y-64153641D02*
X133880000Y-63846359D01*
%TO.C,C10*%
X126607836Y-70640000D02*
X126392164Y-70640000D01*
X126607836Y-71360000D02*
X126392164Y-71360000D01*
%TO.C,R20*%
X134153641Y-79620000D02*
X133846359Y-79620000D01*
X134153641Y-80380000D02*
X133846359Y-80380000D01*
%TO.C,R17*%
X138846359Y-73120000D02*
X139153641Y-73120000D01*
X138846359Y-73880000D02*
X139153641Y-73880000D01*
%TO.C,L4*%
X122337221Y-75490000D02*
X122662779Y-75490000D01*
X122337221Y-76510000D02*
X122662779Y-76510000D01*
%TO.C,J4*%
X116140000Y-47222500D02*
X123860000Y-47222500D01*
X116140000Y-48442500D02*
X117360000Y-48442500D01*
X116140000Y-55642500D02*
X116140000Y-47222500D01*
X117360000Y-48442500D02*
X117360000Y-53442500D01*
X117360000Y-52442500D02*
X122640000Y-52442500D01*
X117360000Y-53442500D02*
X116140000Y-53442500D01*
X117360000Y-53442500D02*
X117360000Y-55642500D01*
X117360000Y-55642500D02*
X116140000Y-55642500D01*
X118430000Y-49022500D02*
X118750000Y-48942500D01*
X118430000Y-52442500D02*
X118430000Y-49022500D01*
X118450000Y-56132500D02*
X119050000Y-56132500D01*
X118750000Y-48942500D02*
X119070000Y-49022500D01*
X118750000Y-52442500D02*
X118430000Y-52442500D01*
X118750000Y-55532500D02*
X118450000Y-56132500D01*
X119050000Y-56132500D02*
X118750000Y-55532500D01*
X119070000Y-49022500D02*
X119070000Y-52442500D01*
X119070000Y-52442500D02*
X118750000Y-52442500D01*
X119920000Y-53442500D02*
X120080000Y-53442500D01*
X120930000Y-49022500D02*
X121250000Y-48942500D01*
X120930000Y-52442500D02*
X120930000Y-49022500D01*
X121250000Y-48942500D02*
X121570000Y-49022500D01*
X121250000Y-52442500D02*
X120930000Y-52442500D01*
X121570000Y-49022500D02*
X121570000Y-52442500D01*
X121570000Y-52442500D02*
X121250000Y-52442500D01*
X122640000Y-48442500D02*
X122640000Y-53442500D01*
X122640000Y-53442500D02*
X123860000Y-53442500D01*
X122640000Y-55642500D02*
X122640000Y-53442500D01*
X123860000Y-47222500D02*
X123860000Y-55642500D01*
X123860000Y-48442500D02*
X122640000Y-48442500D01*
X123860000Y-55642500D02*
X122640000Y-55642500D01*
%TO.C,R3*%
X137846359Y-63120000D02*
X138153641Y-63120000D01*
X137846359Y-63880000D02*
X138153641Y-63880000D01*
%TO.C,R15*%
X126653641Y-73620000D02*
X126346359Y-73620000D01*
X126653641Y-74380000D02*
X126346359Y-74380000D01*
%TO.C,D4*%
X133000000Y-76460000D02*
X135685000Y-76460000D01*
X135685000Y-74540000D02*
X133000000Y-74540000D01*
X135685000Y-76460000D02*
X135685000Y-74540000D01*
%TO.C,D3*%
X135000000Y-68460000D02*
X137685000Y-68460000D01*
X137685000Y-66540000D02*
X135000000Y-66540000D01*
X137685000Y-68460000D02*
X137685000Y-66540000D01*
%TO.C,L3*%
X122337221Y-73490000D02*
X122662779Y-73490000D01*
X122337221Y-74510000D02*
X122662779Y-74510000D01*
%TO.C,U4*%
X134000000Y-68940000D02*
X130550000Y-68940000D01*
X134000000Y-68940000D02*
X135950000Y-68940000D01*
X134000000Y-74060000D02*
X132050000Y-74060000D01*
X134000000Y-74060000D02*
X135950000Y-74060000D01*
%TO.C,J1*%
X125390000Y-47190000D02*
X140610000Y-47190000D01*
X125390000Y-48410000D02*
X126610000Y-48410000D01*
X125390000Y-55610000D02*
X125390000Y-47190000D01*
X126610000Y-48410000D02*
X126610000Y-53410000D01*
X126610000Y-52410000D02*
X139390000Y-52410000D01*
X126610000Y-53410000D02*
X125390000Y-53410000D01*
X126610000Y-53410000D02*
X126610000Y-55610000D01*
X126610000Y-55610000D02*
X125390000Y-55610000D01*
X127680000Y-48990000D02*
X128000000Y-48910000D01*
X127680000Y-52410000D02*
X127680000Y-48990000D01*
X127700000Y-56100000D02*
X128300000Y-56100000D01*
X128000000Y-48910000D02*
X128320000Y-48990000D01*
X128000000Y-52410000D02*
X127680000Y-52410000D01*
X128000000Y-55500000D02*
X127700000Y-56100000D01*
X128300000Y-56100000D02*
X128000000Y-55500000D01*
X128320000Y-48990000D02*
X128320000Y-52410000D01*
X128320000Y-52410000D02*
X128000000Y-52410000D01*
X129170000Y-53410000D02*
X129330000Y-53410000D01*
X130180000Y-48990000D02*
X130500000Y-48910000D01*
X130180000Y-52410000D02*
X130180000Y-48990000D01*
X130500000Y-48910000D02*
X130820000Y-48990000D01*
X130500000Y-52410000D02*
X130180000Y-52410000D01*
X130820000Y-48990000D02*
X130820000Y-52410000D01*
X130820000Y-52410000D02*
X130500000Y-52410000D01*
X131670000Y-53410000D02*
X131830000Y-53410000D01*
X132680000Y-48990000D02*
X133000000Y-48910000D01*
X132680000Y-52410000D02*
X132680000Y-48990000D01*
X133000000Y-48910000D02*
X133320000Y-48990000D01*
X133000000Y-52410000D02*
X132680000Y-52410000D01*
X133320000Y-48990000D02*
X133320000Y-52410000D01*
X133320000Y-52410000D02*
X133000000Y-52410000D01*
X134170000Y-53410000D02*
X134330000Y-53410000D01*
X135180000Y-48990000D02*
X135500000Y-48910000D01*
X135180000Y-52410000D02*
X135180000Y-48990000D01*
X135500000Y-48910000D02*
X135820000Y-48990000D01*
X135500000Y-52410000D02*
X135180000Y-52410000D01*
X135820000Y-48990000D02*
X135820000Y-52410000D01*
X135820000Y-52410000D02*
X135500000Y-52410000D01*
X136670000Y-53410000D02*
X136830000Y-53410000D01*
X137680000Y-48990000D02*
X138000000Y-48910000D01*
X137680000Y-52410000D02*
X137680000Y-48990000D01*
X138000000Y-48910000D02*
X138320000Y-48990000D01*
X138000000Y-52410000D02*
X137680000Y-52410000D01*
X138320000Y-48990000D02*
X138320000Y-52410000D01*
X138320000Y-52410000D02*
X138000000Y-52410000D01*
X139390000Y-48410000D02*
X139390000Y-53410000D01*
X139390000Y-53410000D02*
X140610000Y-53410000D01*
X139390000Y-55610000D02*
X139390000Y-53410000D01*
X140610000Y-47190000D02*
X140610000Y-55610000D01*
X140610000Y-48410000D02*
X139390000Y-48410000D01*
X140610000Y-55610000D02*
X139390000Y-55610000D01*
%TO.C,C11*%
X126607836Y-80140000D02*
X126392164Y-80140000D01*
X126607836Y-80860000D02*
X126392164Y-80860000D01*
%TO.C,J8*%
X111390000Y-70490000D02*
X111390000Y-74510000D01*
X111390000Y-71990000D02*
X112390000Y-71990000D01*
X111390000Y-74510000D02*
X119110000Y-74510000D01*
X111890000Y-72800000D02*
X111390000Y-72800000D01*
X111890000Y-74010000D02*
X111890000Y-72800000D01*
X112390000Y-71990000D02*
X112390000Y-70490000D01*
X118110000Y-71990000D02*
X118110000Y-70490000D01*
X118610000Y-72800000D02*
X118610000Y-74010000D01*
X118610000Y-74010000D02*
X111890000Y-74010000D01*
X119110000Y-70490000D02*
X111390000Y-70490000D01*
X119110000Y-71990000D02*
X118110000Y-71990000D01*
X119110000Y-72800000D02*
X118610000Y-72800000D01*
X119110000Y-74510000D02*
X119110000Y-70490000D01*
X119410000Y-70190000D02*
X116910000Y-70190000D01*
X119410000Y-72690000D02*
X119410000Y-70190000D01*
%TO.C,C6*%
X125892164Y-64640000D02*
X126107836Y-64640000D01*
X125892164Y-65360000D02*
X126107836Y-65360000D01*
%TO.C,J2*%
X107140000Y-47222500D02*
X114860000Y-47222500D01*
X107140000Y-48442500D02*
X108360000Y-48442500D01*
X107140000Y-55642500D02*
X107140000Y-47222500D01*
X108360000Y-48442500D02*
X108360000Y-53442500D01*
X108360000Y-52442500D02*
X113640000Y-52442500D01*
X108360000Y-53442500D02*
X107140000Y-53442500D01*
X108360000Y-53442500D02*
X108360000Y-55642500D01*
X108360000Y-55642500D02*
X107140000Y-55642500D01*
X109430000Y-49022500D02*
X109750000Y-48942500D01*
X109430000Y-52442500D02*
X109430000Y-49022500D01*
X109450000Y-56132500D02*
X110050000Y-56132500D01*
X109750000Y-48942500D02*
X110070000Y-49022500D01*
X109750000Y-52442500D02*
X109430000Y-52442500D01*
X109750000Y-55532500D02*
X109450000Y-56132500D01*
X110050000Y-56132500D02*
X109750000Y-55532500D01*
X110070000Y-49022500D02*
X110070000Y-52442500D01*
X110070000Y-52442500D02*
X109750000Y-52442500D01*
X110920000Y-53442500D02*
X111080000Y-53442500D01*
X111930000Y-49022500D02*
X112250000Y-48942500D01*
X111930000Y-52442500D02*
X111930000Y-49022500D01*
X112250000Y-48942500D02*
X112570000Y-49022500D01*
X112250000Y-52442500D02*
X111930000Y-52442500D01*
X112570000Y-49022500D02*
X112570000Y-52442500D01*
X112570000Y-52442500D02*
X112250000Y-52442500D01*
X113640000Y-48442500D02*
X113640000Y-53442500D01*
X113640000Y-53442500D02*
X114860000Y-53442500D01*
X113640000Y-55642500D02*
X113640000Y-53442500D01*
X114860000Y-47222500D02*
X114860000Y-55642500D01*
X114860000Y-48442500D02*
X113640000Y-48442500D01*
X114860000Y-55642500D02*
X113640000Y-55642500D01*
%TO.C,J10*%
X101690000Y-74890000D02*
X110110000Y-74890000D01*
X101690000Y-82610000D02*
X101690000Y-74890000D01*
X102910000Y-74890000D02*
X102910000Y-76110000D01*
X102910000Y-76110000D02*
X107910000Y-76110000D01*
X102910000Y-81390000D02*
X107910000Y-81390000D01*
X102910000Y-82610000D02*
X102910000Y-81390000D01*
X103410000Y-77500000D02*
X103490000Y-77180000D01*
X103410000Y-80000000D02*
X103490000Y-79680000D01*
X103490000Y-77180000D02*
X106910000Y-77180000D01*
X103490000Y-77820000D02*
X103410000Y-77500000D01*
X103490000Y-79680000D02*
X106910000Y-79680000D01*
X103490000Y-80320000D02*
X103410000Y-80000000D01*
X106910000Y-77180000D02*
X106910000Y-77500000D01*
X106910000Y-77500000D02*
X106910000Y-77820000D01*
X106910000Y-77820000D02*
X103490000Y-77820000D01*
X106910000Y-79680000D02*
X106910000Y-80000000D01*
X106910000Y-80000000D02*
X106910000Y-80320000D01*
X106910000Y-80320000D02*
X103490000Y-80320000D01*
X106910000Y-81390000D02*
X106910000Y-76110000D01*
X107910000Y-76110000D02*
X107910000Y-74890000D01*
X107910000Y-78830000D02*
X107910000Y-78670000D01*
X107910000Y-81390000D02*
X107910000Y-82610000D01*
X107910000Y-81390000D02*
X110110000Y-81390000D01*
X110000000Y-80000000D02*
X110600000Y-80300000D01*
X110110000Y-74890000D02*
X110110000Y-76110000D01*
X110110000Y-76110000D02*
X107910000Y-76110000D01*
X110110000Y-81390000D02*
X110110000Y-82610000D01*
X110110000Y-82610000D02*
X101690000Y-82610000D01*
X110600000Y-79700000D02*
X110000000Y-80000000D01*
X110600000Y-80300000D02*
X110600000Y-79700000D01*
%TO.C,J7*%
X101722500Y-65890000D02*
X110142500Y-65890000D01*
X101722500Y-73610000D02*
X101722500Y-65890000D01*
X102942500Y-65890000D02*
X102942500Y-67110000D01*
X102942500Y-67110000D02*
X107942500Y-67110000D01*
X102942500Y-72390000D02*
X107942500Y-72390000D01*
X102942500Y-73610000D02*
X102942500Y-72390000D01*
X103442500Y-68500000D02*
X103522500Y-68180000D01*
X103442500Y-71000000D02*
X103522500Y-70680000D01*
X103522500Y-68180000D02*
X106942500Y-68180000D01*
X103522500Y-68820000D02*
X103442500Y-68500000D01*
X103522500Y-70680000D02*
X106942500Y-70680000D01*
X103522500Y-71320000D02*
X103442500Y-71000000D01*
X106942500Y-68180000D02*
X106942500Y-68500000D01*
X106942500Y-68500000D02*
X106942500Y-68820000D01*
X106942500Y-68820000D02*
X103522500Y-68820000D01*
X106942500Y-70680000D02*
X106942500Y-71000000D01*
X106942500Y-71000000D02*
X106942500Y-71320000D01*
X106942500Y-71320000D02*
X103522500Y-71320000D01*
X106942500Y-72390000D02*
X106942500Y-67110000D01*
X107942500Y-67110000D02*
X107942500Y-65890000D01*
X107942500Y-69830000D02*
X107942500Y-69670000D01*
X107942500Y-72390000D02*
X107942500Y-73610000D01*
X107942500Y-72390000D02*
X110142500Y-72390000D01*
X110032500Y-71000000D02*
X110632500Y-71300000D01*
X110142500Y-65890000D02*
X110142500Y-67110000D01*
X110142500Y-67110000D02*
X107942500Y-67110000D01*
X110142500Y-72390000D02*
X110142500Y-73610000D01*
X110142500Y-73610000D02*
X101722500Y-73610000D01*
X110632500Y-70700000D02*
X110032500Y-71000000D01*
X110632500Y-71300000D02*
X110632500Y-70700000D01*
%TO.C,J9*%
X116640000Y-77690000D02*
X116640000Y-81710000D01*
X116640000Y-79190000D02*
X117640000Y-79190000D01*
X116640000Y-81710000D02*
X124360000Y-81710000D01*
X117140000Y-80000000D02*
X116640000Y-80000000D01*
X117140000Y-81210000D02*
X117140000Y-80000000D01*
X117640000Y-79190000D02*
X117640000Y-77690000D01*
X123360000Y-79190000D02*
X123360000Y-77690000D01*
X123860000Y-80000000D02*
X123860000Y-81210000D01*
X123860000Y-81210000D02*
X117140000Y-81210000D01*
X124360000Y-77690000D02*
X116640000Y-77690000D01*
X124360000Y-79190000D02*
X123360000Y-79190000D01*
X124360000Y-80000000D02*
X123860000Y-80000000D01*
X124360000Y-81710000D02*
X124360000Y-77690000D01*
X124660000Y-77390000D02*
X122160000Y-77390000D01*
X124660000Y-79890000D02*
X124660000Y-77390000D01*
%TO.C,J3*%
X116890000Y-57190000D02*
X116890000Y-61210000D01*
X116890000Y-58690000D02*
X117890000Y-58690000D01*
X116890000Y-61210000D02*
X124610000Y-61210000D01*
X117390000Y-59500000D02*
X116890000Y-59500000D01*
X117390000Y-60710000D02*
X117390000Y-59500000D01*
X117890000Y-58690000D02*
X117890000Y-57190000D01*
X123610000Y-58690000D02*
X123610000Y-57190000D01*
X124110000Y-59500000D02*
X124110000Y-60710000D01*
X124110000Y-60710000D02*
X117390000Y-60710000D01*
X124610000Y-57190000D02*
X116890000Y-57190000D01*
X124610000Y-58690000D02*
X123610000Y-58690000D01*
X124610000Y-59500000D02*
X124110000Y-59500000D01*
X124610000Y-61210000D02*
X124610000Y-57190000D01*
X124910000Y-56890000D02*
X122410000Y-56890000D01*
X124910000Y-59390000D02*
X124910000Y-56890000D01*
%TO.C,C8*%
X125892164Y-63140000D02*
X126107836Y-63140000D01*
X125892164Y-63860000D02*
X126107836Y-63860000D01*
%TO.C,R2*%
X137846359Y-64620000D02*
X138153641Y-64620000D01*
X137846359Y-65380000D02*
X138153641Y-65380000D01*
%TD*%
M02*
