<?xml version="1.0" encoding="UTF-8" standalone="no"?>
<!DOCTYPE svg PUBLIC "-//W3C//DTD SVG 1.1//EN"
 "http://www.w3.org/Graphics/SVG/1.1/DTD/svg11.dtd">
<!-- Generated by graphviz version 12.2.1 (20241206.2353)
 -->
<!-- Pages: 1 -->
<svg width="855pt" height="386pt"
 viewBox="0.00 0.00 854.50 386.12" xmlns="http://www.w3.org/2000/svg" xmlns:xlink="http://www.w3.org/1999/xlink">
<g id="graph0" class="graph" transform="scale(1 1) rotate(0) translate(4 382.12)">
<polygon fill="#ffffff" stroke="none" points="-4,4 -4,-382.12 850.5,-382.12 850.5,4 -4,4"/>
<!-- J7 -->
<g id="node1" class="node">
<title>J7</title>
<polygon fill="#ffffff" stroke="black" points="138.62,-158.25 6.38,-158.25 6.38,-15.75 138.62,-15.75 138.62,-158.25"/>
<polygon fill="none" stroke="black" points="6.38,-134.5 6.38,-158.25 138.62,-158.25 138.62,-134.5 6.38,-134.5"/>
<text text-anchor="start" x="65.38" y="-140.95" font-family="arial" font-size="14.00">J7</text>
<polygon fill="none" stroke="black" points="6.38,-110.75 6.38,-134.5 100.62,-134.5 100.62,-110.75 6.38,-110.75"/>
<text text-anchor="start" x="10.38" y="-117.2" font-family="arial" font-size="14.00">Stepper Motor</text>
<polygon fill="none" stroke="black" points="100.62,-110.75 100.62,-134.5 138.62,-134.5 138.62,-110.75 100.62,-110.75"/>
<text text-anchor="start" x="104.62" y="-117.2" font-family="arial" font-size="14.00">4&#45;pin</text>
<polygon fill="none" stroke="black" points="6.38,-87 6.38,-110.75 93.88,-110.75 93.88,-87 6.38,-87"/>
<text text-anchor="start" x="25" y="-93.45" font-family="arial" font-size="14.00">STP_B2</text>
<polygon fill="none" stroke="black" points="93.88,-87 93.88,-110.75 138.62,-110.75 138.62,-87 93.88,-87"/>
<text text-anchor="start" x="112.5" y="-93.45" font-family="arial" font-size="14.00">1</text>
<polygon fill="none" stroke="black" points="6.38,-63.25 6.38,-87 93.88,-87 93.88,-63.25 6.38,-63.25"/>
<text text-anchor="start" x="25" y="-69.7" font-family="arial" font-size="14.00">STP_B1</text>
<polygon fill="none" stroke="black" points="93.88,-63.25 93.88,-87 138.62,-87 138.62,-63.25 93.88,-63.25"/>
<text text-anchor="start" x="112.5" y="-69.7" font-family="arial" font-size="14.00">2</text>
<polygon fill="none" stroke="black" points="6.38,-39.5 6.38,-63.25 93.88,-63.25 93.88,-39.5 6.38,-39.5"/>
<text text-anchor="start" x="25" y="-45.95" font-family="arial" font-size="14.00">STP_A2</text>
<polygon fill="none" stroke="black" points="93.88,-39.5 93.88,-63.25 138.62,-63.25 138.62,-39.5 93.88,-39.5"/>
<text text-anchor="start" x="112.5" y="-45.95" font-family="arial" font-size="14.00">3</text>
<polygon fill="none" stroke="black" points="6.38,-15.75 6.38,-39.5 93.88,-39.5 93.88,-15.75 6.38,-15.75"/>
<text text-anchor="start" x="25" y="-22.2" font-family="arial" font-size="14.00">STP_A1</text>
<polygon fill="none" stroke="black" points="93.88,-15.75 93.88,-39.5 138.62,-39.5 138.62,-15.75 93.88,-15.75"/>
<text text-anchor="start" x="112.5" y="-22.2" font-family="arial" font-size="14.00">4</text>
</g>
<!-- W1 -->
<g id="node5" class="node">
<title>W1</title>
<polygon fill="#ffffff" stroke="black" points="578.12,-190 296.88,-190 296.88,0 578.12,0 578.12,-190"/>
<polygon fill="none" stroke="black" points="296.88,-166.25 296.88,-190 578.12,-190 578.12,-166.25 296.88,-166.25"/>
<text text-anchor="start" x="427" y="-172.7" font-family="arial" font-size="14.00">W1</text>
<polygon fill="none" stroke="black" points="296.88,-142.5 296.88,-166.25 372.88,-166.25 372.88,-142.5 296.88,-142.5"/>
<text text-anchor="start" x="327.75" y="-148.95" font-family="arial" font-size="14.00">4x</text>
<polygon fill="none" stroke="black" points="372.88,-142.5 372.88,-166.25 493.12,-166.25 493.12,-142.5 372.88,-142.5"/>
<text text-anchor="start" x="403.75" y="-148.95" font-family="arial" font-size="14.00">0.25 mm²</text>
<polygon fill="none" stroke="black" points="493.12,-142.5 493.12,-166.25 578.12,-166.25 578.12,-142.5 493.12,-142.5"/>
<text text-anchor="start" x="524" y="-148.95" font-family="arial" font-size="14.00">1 m</text>
<text text-anchor="start" x="336.75" y="-127.2" font-family="arial" font-size="14.00"> </text>
<text text-anchor="start" x="298.88" y="-107.45" font-family="arial" font-size="14.00">J7:1:STP_B2</text>
<text text-anchor="start" x="384.25" y="-107.45" font-family="arial" font-size="14.00"> &#160;&#160;&#160;&#160;1:BN &#160;&#160;&#160;</text>
<text text-anchor="start" x="453.88" y="-107.45" font-family="arial" font-size="14.00">J3:1:Net&#45;(U7&#45;OUT1)</text>
<polygon fill="#000000" stroke="none" points="296.88,-101 296.88,-103 578.12,-103 578.12,-101 296.88,-101"/>
<polygon fill="#895956" stroke="none" points="296.88,-99 296.88,-101 578.12,-101 578.12,-99 296.88,-99"/>
<polygon fill="#000000" stroke="none" points="296.88,-97 296.88,-99 578.12,-99 578.12,-97 296.88,-97"/>
<text text-anchor="start" x="298.88" y="-81.7" font-family="arial" font-size="14.00">J7:2:STP_B1</text>
<text text-anchor="start" x="383.88" y="-81.7" font-family="arial" font-size="14.00"> &#160;&#160;&#160;&#160;2:RD &#160;&#160;&#160;</text>
<text text-anchor="start" x="453.88" y="-81.7" font-family="arial" font-size="14.00">J3:1:Net&#45;(U7&#45;OUT1)</text>
<polygon fill="#000000" stroke="none" points="296.88,-75.25 296.88,-77.25 578.12,-77.25 578.12,-75.25 296.88,-75.25"/>
<polygon fill="#ff0000" stroke="none" points="296.88,-73.25 296.88,-75.25 578.12,-75.25 578.12,-73.25 296.88,-73.25"/>
<polygon fill="#000000" stroke="none" points="296.88,-71.25 296.88,-73.25 578.12,-73.25 578.12,-71.25 296.88,-71.25"/>
<text text-anchor="start" x="298.88" y="-55.95" font-family="arial" font-size="14.00">J7:3:STP_A2</text>
<text text-anchor="start" x="382.38" y="-55.95" font-family="arial" font-size="14.00"> &#160;&#160;&#160;&#160;3:OG &#160;&#160;&#160;</text>
<text text-anchor="start" x="453.88" y="-55.95" font-family="arial" font-size="14.00">J3:2:Net&#45;(U7&#45;OUT2)</text>
<polygon fill="#000000" stroke="none" points="296.88,-49.5 296.88,-51.5 578.12,-51.5 578.12,-49.5 296.88,-49.5"/>
<polygon fill="#ff8000" stroke="none" points="296.88,-47.5 296.88,-49.5 578.12,-49.5 578.12,-47.5 296.88,-47.5"/>
<polygon fill="#000000" stroke="none" points="296.88,-45.5 296.88,-47.5 578.12,-47.5 578.12,-45.5 296.88,-45.5"/>
<text text-anchor="start" x="384.62" y="-30.2" font-family="arial" font-size="14.00"> &#160;&#160;&#160;&#160;4:YE &#160;&#160;&#160;</text>
<polygon fill="#000000" stroke="none" points="296.88,-23.75 296.88,-25.75 578.12,-25.75 578.12,-23.75 296.88,-23.75"/>
<polygon fill="#ffff00" stroke="none" points="296.88,-21.75 296.88,-23.75 578.12,-23.75 578.12,-21.75 296.88,-21.75"/>
<polygon fill="#000000" stroke="none" points="296.88,-19.75 296.88,-21.75 578.12,-21.75 578.12,-19.75 296.88,-19.75"/>
<text text-anchor="start" x="336.75" y="-4.45" font-family="arial" font-size="14.00"> </text>
</g>
<!-- J7&#45;&#45;W1 -->
<g id="edge1" class="edge">
<title>J7:e&#45;&#45;W1:w</title>
<path fill="none" stroke="#000000" stroke-width="2" d="M139.62,-96.88C209.2,-96.88 226.56,-98 295.88,-98"/>
<path fill="none" stroke="#895956" stroke-width="2" d="M139.62,-98.87C209.07,-98.87 226.43,-100 295.88,-100"/>
<path fill="none" stroke="#000000" stroke-width="2" d="M139.62,-100.87C208.94,-100.87 226.3,-102 295.88,-102"/>
</g>
<!-- J7&#45;&#45;W1 -->
<g id="edge3" class="edge">
<title>J7:e&#45;&#45;W1:w</title>
<path fill="none" stroke="#000000" stroke-width="2" d="M139.62,-73.13C208.97,-73.13 226.33,-72.25 295.88,-72.25"/>
<path fill="none" stroke="#ff0000" stroke-width="2" d="M139.62,-75.13C209.07,-75.12 226.43,-74.25 295.88,-74.25"/>
<path fill="none" stroke="#000000" stroke-width="2" d="M139.62,-77.12C209.17,-77.12 226.53,-76.25 295.88,-76.25"/>
</g>
<!-- J7&#45;&#45;W1 -->
<g id="edge5" class="edge">
<title>J7:e&#45;&#45;W1:w</title>
<path fill="none" stroke="#000000" stroke-width="2" d="M139.62,-49.38C208.75,-49.4 226.09,-46.53 295.88,-46.5"/>
<path fill="none" stroke="#ff8000" stroke-width="2" d="M139.62,-51.38C209.08,-51.38 226.42,-48.5 295.88,-48.5"/>
<path fill="none" stroke="#000000" stroke-width="2" d="M139.62,-53.37C209.41,-53.35 226.75,-50.47 295.88,-50.5"/>
</g>
<!-- J3 -->
<g id="node2" class="node">
<title>J3</title>
<polygon fill="#ffffff" stroke="black" points="846.5,-134.5 730,-134.5 730,-39.5 846.5,-39.5 846.5,-134.5"/>
<polygon fill="none" stroke="black" points="730,-110.75 730,-134.5 846.5,-134.5 846.5,-110.75 730,-110.75"/>
<text text-anchor="start" x="781.12" y="-117.2" font-family="arial" font-size="14.00">J3</text>
<polygon fill="none" stroke="black" points="730,-87 730,-110.75 790.12,-110.75 790.12,-87 730,-87"/>
<text text-anchor="start" x="743.19" y="-93.45" font-family="arial" font-size="14.00">FAN0</text>
<polygon fill="none" stroke="black" points="790.12,-87 790.12,-110.75 846.5,-110.75 846.5,-87 790.12,-87"/>
<text text-anchor="start" x="803.31" y="-93.45" font-family="arial" font-size="14.00">2&#45;pin</text>
<polygon fill="none" stroke="black" points="730,-63.25 730,-87 745.5,-87 745.5,-63.25 730,-63.25"/>
<text text-anchor="start" x="734" y="-69.7" font-family="arial" font-size="14.00">1</text>
<polygon fill="none" stroke="black" points="745.5,-63.25 745.5,-87 846.5,-87 846.5,-63.25 745.5,-63.25"/>
<text text-anchor="start" x="749.5" y="-69.7" font-family="arial" font-size="14.00">Net&#45;(U7&#45;OUT1)</text>
<polygon fill="none" stroke="black" points="730,-39.5 730,-63.25 745.5,-63.25 745.5,-39.5 730,-39.5"/>
<text text-anchor="start" x="734" y="-45.95" font-family="arial" font-size="14.00">2</text>
<polygon fill="none" stroke="black" points="745.5,-39.5 745.5,-63.25 846.5,-63.25 846.5,-39.5 745.5,-39.5"/>
<text text-anchor="start" x="749.5" y="-45.95" font-family="arial" font-size="14.00">Net&#45;(U7&#45;OUT2)</text>
</g>
<!-- J8 -->
<g id="node3" class="node">
<title>J8</title>
<polygon fill="#ffffff" stroke="black" points="145,-334.38 0,-334.38 0,-215.62 145,-215.62 145,-334.38"/>
<polygon fill="none" stroke="black" points="0,-310.62 0,-334.38 145,-334.38 145,-310.62 0,-310.62"/>
<text text-anchor="start" x="65.38" y="-317.07" font-family="arial" font-size="14.00">J8</text>
<polygon fill="none" stroke="black" points="0,-286.88 0,-310.62 107,-310.62 107,-286.88 0,-286.88"/>
<text text-anchor="start" x="4" y="-293.32" font-family="arial" font-size="14.00">Servo Motor SM</text>
<polygon fill="none" stroke="black" points="107,-286.88 107,-310.62 145,-310.62 145,-286.88 107,-286.88"/>
<text text-anchor="start" x="111" y="-293.32" font-family="arial" font-size="14.00">3&#45;pin</text>
<polygon fill="none" stroke="black" points="0,-263.12 0,-286.88 101.75,-286.88 101.75,-263.12 0,-263.12"/>
<text text-anchor="start" x="35.5" y="-269.57" font-family="arial" font-size="14.00">GND</text>
<polygon fill="none" stroke="black" points="101.75,-263.12 101.75,-286.88 145,-286.88 145,-263.12 101.75,-263.12"/>
<text text-anchor="start" x="119.62" y="-269.57" font-family="arial" font-size="14.00">1</text>
<polygon fill="none" stroke="black" points="0,-239.38 0,-263.12 101.75,-263.12 101.75,-239.38 0,-239.38"/>
<text text-anchor="start" x="17.88" y="-245.82" font-family="arial" font-size="14.00">+5V_POW</text>
<polygon fill="none" stroke="black" points="101.75,-239.38 101.75,-263.12 145,-263.12 145,-239.38 101.75,-239.38"/>
<text text-anchor="start" x="119.62" y="-245.82" font-family="arial" font-size="14.00">2</text>
<polygon fill="none" stroke="black" points="0,-215.62 0,-239.38 101.75,-239.38 101.75,-215.62 0,-215.62"/>
<text text-anchor="start" x="32.88" y="-222.07" font-family="arial" font-size="14.00">MOSI</text>
<polygon fill="none" stroke="black" points="101.75,-215.62 101.75,-239.38 145,-239.38 145,-215.62 101.75,-215.62"/>
<text text-anchor="start" x="119.62" y="-222.07" font-family="arial" font-size="14.00">3</text>
</g>
<!-- W2 -->
<g id="node6" class="node">
<title>W2</title>
<polygon fill="#ffffff" stroke="black" points="586,-378.12 289,-378.12 289,-213.88 586,-213.88 586,-378.12"/>
<polygon fill="none" stroke="black" points="289,-354.38 289,-378.12 586,-378.12 586,-354.38 289,-354.38"/>
<text text-anchor="start" x="427" y="-360.82" font-family="arial" font-size="14.00">W2</text>
<polygon fill="none" stroke="black" points="289,-330.62 289,-354.38 370.25,-354.38 370.25,-330.62 289,-330.62"/>
<text text-anchor="start" x="322.5" y="-337.07" font-family="arial" font-size="14.00">3x</text>
<polygon fill="none" stroke="black" points="370.25,-330.62 370.25,-354.38 495.75,-354.38 495.75,-330.62 370.25,-330.62"/>
<text text-anchor="start" x="403.75" y="-337.07" font-family="arial" font-size="14.00">0.25 mm²</text>
<polygon fill="none" stroke="black" points="495.75,-330.62 495.75,-354.38 586,-354.38 586,-330.62 495.75,-330.62"/>
<text text-anchor="start" x="529.25" y="-337.07" font-family="arial" font-size="14.00">1 m</text>
<text text-anchor="start" x="336.75" y="-315.32" font-family="arial" font-size="14.00"> </text>
<text text-anchor="start" x="308.62" y="-295.57" font-family="arial" font-size="14.00">J8:1:GND</text>
<text text-anchor="start" x="392.12" y="-295.57" font-family="arial" font-size="14.00"> &#160;&#160;&#160;&#160;1:BN &#160;&#160;&#160;</text>
<text text-anchor="start" x="461.75" y="-295.57" font-family="arial" font-size="14.00">J4:1:Net&#45;(U7&#45;OUT1)</text>
<polygon fill="#000000" stroke="none" points="289,-289.12 289,-291.12 586,-291.12 586,-289.12 289,-289.12"/>
<polygon fill="#895956" stroke="none" points="289,-287.12 289,-289.12 586,-289.12 586,-287.12 289,-287.12"/>
<polygon fill="#000000" stroke="none" points="289,-285.12 289,-287.12 586,-287.12 586,-285.12 289,-285.12"/>
<text text-anchor="start" x="391.75" y="-269.82" font-family="arial" font-size="14.00"> &#160;&#160;&#160;&#160;2:RD &#160;&#160;&#160;</text>
<polygon fill="#000000" stroke="none" points="289,-263.38 289,-265.38 586,-265.38 586,-263.38 289,-263.38"/>
<polygon fill="#ff0000" stroke="none" points="289,-261.38 289,-263.38 586,-263.38 586,-261.38 289,-261.38"/>
<polygon fill="#000000" stroke="none" points="289,-259.38 289,-261.38 586,-261.38 586,-259.38 289,-259.38"/>
<text text-anchor="start" x="291" y="-244.07" font-family="arial" font-size="14.00">J8:2:+5V_POW</text>
<text text-anchor="start" x="390.25" y="-244.07" font-family="arial" font-size="14.00"> &#160;&#160;&#160;&#160;3:OG &#160;&#160;&#160;</text>
<text text-anchor="start" x="461.75" y="-244.07" font-family="arial" font-size="14.00">J4:2:Net&#45;(U7&#45;OUT2)</text>
<polygon fill="#000000" stroke="none" points="289,-237.62 289,-239.62 586,-239.62 586,-237.62 289,-237.62"/>
<polygon fill="#ff8000" stroke="none" points="289,-235.62 289,-237.62 586,-237.62 586,-235.62 289,-235.62"/>
<polygon fill="#000000" stroke="none" points="289,-233.62 289,-235.62 586,-235.62 586,-233.62 289,-233.62"/>
<text text-anchor="start" x="336.75" y="-218.32" font-family="arial" font-size="14.00"> </text>
</g>
<!-- J8&#45;&#45;W2 -->
<g id="edge7" class="edge">
<title>J8:e&#45;&#45;W2:w</title>
<path fill="none" stroke="#000000" stroke-width="2" d="M145,-273C210.56,-273.47 226.03,-286.6 289,-286.13"/>
<path fill="none" stroke="#895956" stroke-width="2" d="M145,-275C209.27,-275 224.73,-288.12 289,-288.12"/>
<path fill="none" stroke="#000000" stroke-width="2" d="M145,-277C207.97,-276.53 223.44,-289.65 289,-290.12"/>
</g>
<!-- J8&#45;&#45;W2 -->
<g id="edge9" class="edge">
<title>J8:e&#45;&#45;W2:w</title>
<path fill="none" stroke="#000000" stroke-width="2" d="M145,-249.25C207.95,-249.8 223.29,-235.18 289,-234.63"/>
<path fill="none" stroke="#ff8000" stroke-width="2" d="M145,-251.25C209.33,-251.25 224.67,-236.63 289,-236.63"/>
<path fill="none" stroke="#000000" stroke-width="2" d="M145,-253.25C210.71,-252.7 226.05,-238.07 289,-238.62"/>
</g>
<!-- J4 -->
<g id="node4" class="node">
<title>J4</title>
<polygon fill="#ffffff" stroke="black" points="846.5,-333.5 730,-333.5 730,-238.5 846.5,-238.5 846.5,-333.5"/>
<polygon fill="none" stroke="black" points="730,-309.75 730,-333.5 846.5,-333.5 846.5,-309.75 730,-309.75"/>
<text text-anchor="start" x="781.12" y="-316.2" font-family="arial" font-size="14.00">J4</text>
<polygon fill="none" stroke="black" points="730,-286 730,-309.75 790.12,-309.75 790.12,-286 730,-286"/>
<text text-anchor="start" x="743.19" y="-292.45" font-family="arial" font-size="14.00">FAN1</text>
<polygon fill="none" stroke="black" points="790.12,-286 790.12,-309.75 846.5,-309.75 846.5,-286 790.12,-286"/>
<text text-anchor="start" x="803.31" y="-292.45" font-family="arial" font-size="14.00">2&#45;pin</text>
<polygon fill="none" stroke="black" points="730,-262.25 730,-286 745.5,-286 745.5,-262.25 730,-262.25"/>
<text text-anchor="start" x="734" y="-268.7" font-family="arial" font-size="14.00">1</text>
<polygon fill="none" stroke="black" points="745.5,-262.25 745.5,-286 846.5,-286 846.5,-262.25 745.5,-262.25"/>
<text text-anchor="start" x="749.5" y="-268.7" font-family="arial" font-size="14.00">Net&#45;(U7&#45;OUT1)</text>
<polygon fill="none" stroke="black" points="730,-238.5 730,-262.25 745.5,-262.25 745.5,-238.5 730,-238.5"/>
<text text-anchor="start" x="734" y="-244.95" font-family="arial" font-size="14.00">2</text>
<polygon fill="none" stroke="black" points="745.5,-238.5 745.5,-262.25 846.5,-262.25 846.5,-238.5 745.5,-238.5"/>
<text text-anchor="start" x="749.5" y="-244.95" font-family="arial" font-size="14.00">Net&#45;(U7&#45;OUT2)</text>
</g>
<!-- W1&#45;&#45;J3 -->
<g id="edge2" class="edge">
<title>W1:e&#45;&#45;J3:w</title>
<path fill="none" stroke="#000000" stroke-width="2" d="M579.12,-98C645.37,-98.97 660.33,-74.09 730,-73.13"/>
<path fill="none" stroke="#895956" stroke-width="2" d="M579.12,-100C647.09,-100 662.04,-75.13 730,-75.12"/>
<path fill="none" stroke="#000000" stroke-width="2" d="M579.12,-102C648.8,-101.03 663.75,-76.16 730,-77.12"/>
</g>
<!-- W1&#45;&#45;J3 -->
<g id="edge4" class="edge">
<title>W1:e&#45;&#45;J3:w</title>
<path fill="none" stroke="#000000" stroke-width="2" d="M579.12,-72.25C646.29,-72.25 663.05,-73.13 730,-73.13"/>
<path fill="none" stroke="#ff0000" stroke-width="2" d="M579.12,-74.25C646.18,-74.25 662.94,-75.12 730,-75.12"/>
<path fill="none" stroke="#000000" stroke-width="2" d="M579.12,-76.25C646.08,-76.25 662.84,-77.12 730,-77.12"/>
</g>
<!-- W1&#45;&#45;J3 -->
<g id="edge6" class="edge">
<title>W1:e&#45;&#45;J3:w</title>
<path fill="none" stroke="#000000" stroke-width="2" d="M579.12,-46.5C646.53,-46.53 663.27,-49.4 730,-49.38"/>
<path fill="none" stroke="#ff8000" stroke-width="2" d="M579.12,-48.5C646.19,-48.5 662.93,-51.38 730,-51.38"/>
<path fill="none" stroke="#000000" stroke-width="2" d="M579.12,-50.5C645.85,-50.47 662.59,-53.35 730,-53.37"/>
</g>
<!-- W2&#45;&#45;J4 -->
<g id="edge8" class="edge">
<title>W2:e&#45;&#45;J4:w</title>
<path fill="none" stroke="#000000" stroke-width="2" d="M586,-286.13C648.96,-286.65 664.35,-272.65 730,-272.13"/>
<path fill="none" stroke="#895956" stroke-width="2" d="M586,-288.12C650.3,-288.12 665.7,-274.12 730,-274.12"/>
<path fill="none" stroke="#000000" stroke-width="2" d="M586,-290.12C651.65,-289.6 667.04,-275.6 730,-276.12"/>
</g>
<!-- W2&#45;&#45;J4 -->
<g id="edge10" class="edge">
<title>W2:e&#45;&#45;J4:w</title>
<path fill="none" stroke="#000000" stroke-width="2" d="M586,-234.63C651.62,-235.13 667.04,-248.88 730,-248.38"/>
<path fill="none" stroke="#ff8000" stroke-width="2" d="M586,-236.62C650.29,-236.63 665.71,-250.38 730,-250.38"/>
<path fill="none" stroke="#000000" stroke-width="2" d="M586,-238.62C648.96,-238.12 664.38,-251.87 730,-252.37"/>
</g>
</g>
</svg>
