<?xml version="1.0" encoding="UTF-8" standalone="no"?>
<!DOCTYPE svg PUBLIC "-//W3C//DTD SVG 1.1//EN"
 "http://www.w3.org/Graphics/SVG/1.1/DTD/svg11.dtd">
<!-- Generated by graphviz version 12.2.1 (20241206.2353)
 -->
<!-- Pages: 1 -->
<svg width="890pt" height="251pt"
 viewBox="0.00 0.00 890.25 250.75" xmlns="http://www.w3.org/2000/svg" xmlns:xlink="http://www.w3.org/1999/xlink">
<g id="graph0" class="graph" transform="scale(1 1) rotate(0) translate(4 246.75)">
<polygon fill="#ffffff" stroke="none" points="-4,4 -4,-246.75 886.25,-246.75 886.25,4 -4,4"/>
<!-- J1 -->
<g id="node1" class="node">
<title>J1</title>
<polygon fill="#ffffff" stroke="black" points="111.25,-190 0,-190 0,0 111.25,0 111.25,-190"/>
<polygon fill="none" stroke="black" points="0,-166.25 0,-190 111.25,-190 111.25,-166.25 0,-166.25"/>
<text text-anchor="start" x="48.5" y="-172.7" font-family="arial" font-size="14.00">J1</text>
<polygon fill="none" stroke="black" points="0,-142.5 0,-166.25 73.25,-166.25 73.25,-142.5 0,-142.5"/>
<text text-anchor="start" x="4" y="-148.95" font-family="arial" font-size="14.00">PJ&#45;082BH </text>
<polygon fill="none" stroke="black" points="73.25,-142.5 73.25,-166.25 111.25,-166.25 111.25,-142.5 73.25,-142.5"/>
<text text-anchor="start" x="77.25" y="-148.95" font-family="arial" font-size="14.00">6&#45;pin</text>
<polygon fill="none" stroke="black" points="0,-118.75 0,-142.5 61.62,-142.5 61.62,-118.75 0,-118.75"/>
<text text-anchor="start" x="14.69" y="-125.2" font-family="arial" font-size="14.00">+24V</text>
<polygon fill="none" stroke="black" points="61.62,-118.75 61.62,-142.5 111.25,-142.5 111.25,-118.75 61.62,-118.75"/>
<text text-anchor="start" x="82.69" y="-125.2" font-family="arial" font-size="14.00">1</text>
<polygon fill="none" stroke="black" points="0,-95 0,-118.75 61.62,-118.75 61.62,-95 0,-95"/>
<text text-anchor="start" x="11.69" y="-101.45" font-family="arial" font-size="14.00">GND2</text>
<polygon fill="none" stroke="black" points="61.62,-95 61.62,-118.75 111.25,-118.75 111.25,-95 61.62,-95"/>
<text text-anchor="start" x="82.69" y="-101.45" font-family="arial" font-size="14.00">2</text>
<polygon fill="none" stroke="black" points="0,-71.25 0,-95 61.62,-95 61.62,-71.25 0,-71.25"/>
<text text-anchor="start" x="11.69" y="-77.7" font-family="arial" font-size="14.00">GND3</text>
<polygon fill="none" stroke="black" points="61.62,-71.25 61.62,-95 111.25,-95 111.25,-71.25 61.62,-71.25"/>
<text text-anchor="start" x="73.31" y="-77.7" font-family="arial" font-size="14.00">SH1</text>
<polygon fill="none" stroke="black" points="0,-47.5 0,-71.25 61.62,-71.25 61.62,-47.5 0,-47.5"/>
<text text-anchor="start" x="11.69" y="-53.95" font-family="arial" font-size="14.00">GND3</text>
<polygon fill="none" stroke="black" points="61.62,-47.5 61.62,-71.25 111.25,-71.25 111.25,-47.5 61.62,-47.5"/>
<text text-anchor="start" x="73.31" y="-53.95" font-family="arial" font-size="14.00">SH2</text>
<polygon fill="none" stroke="black" points="0,-23.75 0,-47.5 61.62,-47.5 61.62,-23.75 0,-23.75"/>
<text text-anchor="start" x="11.69" y="-30.2" font-family="arial" font-size="14.00">GND3</text>
<polygon fill="none" stroke="black" points="61.62,-23.75 61.62,-47.5 111.25,-47.5 111.25,-23.75 61.62,-23.75"/>
<text text-anchor="start" x="73.31" y="-30.2" font-family="arial" font-size="14.00">SH3</text>
<polygon fill="none" stroke="black" points="0,0 0,-23.75 61.62,-23.75 61.62,0 0,0"/>
<text text-anchor="start" x="11.69" y="-6.45" font-family="arial" font-size="14.00">GND3</text>
<polygon fill="none" stroke="black" points="61.62,0 61.62,-23.75 111.25,-23.75 111.25,0 61.62,0"/>
<text text-anchor="start" x="73.31" y="-6.45" font-family="arial" font-size="14.00">SH4</text>
</g>
<!-- CF881&#45;15&#45;02 -->
<g id="node3" class="node">
<title>CF881&#45;15&#45;02</title>
<polygon fill="#ffffff" stroke="black" points="570,-242.75 255.25,-242.75 255.25,-15.25 570,-15.25 570,-242.75"/>
<polygon fill="none" stroke="black" points="255.25,-219 255.25,-242.75 570,-242.75 570,-219 255.25,-219"/>
<text text-anchor="start" x="372.88" y="-225.45" font-family="arial" font-size="14.00">CF881&#45;15&#45;02</text>
<polygon fill="none" stroke="black" points="255.25,-195.25 255.25,-219 570,-219 570,-195.25 255.25,-195.25"/>
<text text-anchor="start" x="356.38" y="-201.7" font-family="arial" font-size="14.00">Igus: CF881&#45;15&#45;02</text>
<polygon fill="none" stroke="black" points="255.25,-171.5 255.25,-195.25 298.83,-195.25 298.83,-171.5 255.25,-171.5"/>
<text text-anchor="start" x="269.92" y="-177.95" font-family="arial" font-size="14.00">2x</text>
<polygon fill="none" stroke="black" points="298.83,-171.5 298.83,-195.25 379.17,-195.25 379.17,-171.5 298.83,-171.5"/>
<text text-anchor="start" x="313.5" y="-177.95" font-family="arial" font-size="14.00">1.5 mm²</text>
<polygon fill="none" stroke="black" points="379.17,-171.5 379.17,-195.25 429.5,-195.25 429.5,-171.5 379.17,-171.5"/>
<text text-anchor="start" x="393.83" y="-177.95" font-family="arial" font-size="14.00">+ S</text>
<polygon fill="none" stroke="black" points="429.5,-171.5 429.5,-195.25 493.33,-195.25 493.33,-171.5 429.5,-171.5"/>
<text text-anchor="start" x="444.17" y="-177.95" font-family="arial" font-size="14.00">2.0 m</text>
<polygon fill="none" stroke="black" points="493.33,-171.5 493.33,-195.25 540.67,-195.25 540.67,-171.5 493.33,-171.5"/>
<text text-anchor="start" x="508" y="-177.95" font-family="arial" font-size="14.00">BK</text>
<polygon fill="#000000" stroke="none" points="540.67,-171.5 540.67,-195.25 570,-195.25 570,-171.5 540.67,-171.5"/>
<polygon fill="none" stroke="black" points="540.67,-171.5 540.67,-195.25 570,-195.25 570,-171.5 540.67,-171.5"/>
<text text-anchor="start" x="317.46" y="-156.2" font-family="arial" font-size="14.00"> </text>
<text text-anchor="start" x="288.58" y="-136.45" font-family="arial" font-size="14.00">J1:1:+24V</text>
<text text-anchor="start" x="404.38" y="-136.45" font-family="arial" font-size="14.00"> &#160;&#160;&#160;&#160;1 &#160;&#160;&#160;</text>
<text text-anchor="start" x="487.54" y="-136.45" font-family="arial" font-size="14.00">J2:1:+24V</text>
<polygon fill="#000000" stroke="none" points="255.25,-130 255.25,-132 570,-132 570,-130 255.25,-130"/>
<polygon fill="#ffffff" stroke="none" points="255.25,-128 255.25,-130 570,-130 570,-128 255.25,-128"/>
<polygon fill="#000000" stroke="none" points="255.25,-126 255.25,-128 570,-128 570,-126 255.25,-126"/>
<text text-anchor="start" x="285.58" y="-110.7" font-family="arial" font-size="14.00">J1:2:GND2</text>
<text text-anchor="start" x="404.38" y="-110.7" font-family="arial" font-size="14.00"> &#160;&#160;&#160;&#160;2 &#160;&#160;&#160;</text>
<text text-anchor="start" x="488.29" y="-110.7" font-family="arial" font-size="14.00">J2:2:GND</text>
<polygon fill="#000000" stroke="none" points="255.25,-104.25 255.25,-106.25 570,-106.25 570,-104.25 255.25,-104.25"/>
<polygon fill="#ffffff" stroke="none" points="255.25,-102.25 255.25,-104.25 570,-104.25 570,-102.25 255.25,-102.25"/>
<polygon fill="#000000" stroke="none" points="255.25,-100.25 255.25,-102.25 570,-102.25 570,-100.25 255.25,-100.25"/>
<text text-anchor="start" x="317.46" y="-84.95" font-family="arial" font-size="14.00"> </text>
<text text-anchor="start" x="276.21" y="-65.2" font-family="arial" font-size="14.00">J1:SH1:GND3</text>
<text text-anchor="start" x="406.25" y="-65.2" font-family="arial" font-size="14.00">Shield</text>
<polygon fill="#000000" stroke="none" points="255.25,-58.75 255.25,-60.75 570,-60.75 570,-58.75 255.25,-58.75"/>
<text text-anchor="start" x="317.46" y="-43.45" font-family="arial" font-size="14.00"> </text>
<polygon fill="none" stroke="black" points="255.25,-15.25 255.25,-39 570,-39 570,-15.25 255.25,-15.25"/>
<text text-anchor="start" x="259.25" y="-21.7" font-family="arial" font-size="14.00">Flexibles Steuerkabel mit PVC&#45;Mantel, geschirmt &#160;&#160;</text>
</g>
<!-- J1&#45;&#45;CF881&#45;15&#45;02 -->
<g id="edge1" class="edge">
<title>J1:e&#45;&#45;CF881&#45;15&#45;02:w</title>
<path fill="none" stroke="#000000" stroke-width="2" d="M111.25,-128.63C175.05,-128.64 191.04,-127.01 255.25,-127"/>
<path fill="none" stroke="#ffffff" stroke-width="2" d="M111.25,-130.62C175.25,-130.62 191.25,-129 255.25,-129"/>
<path fill="none" stroke="#000000" stroke-width="2" d="M111.25,-132.62C175.46,-132.61 191.45,-130.99 255.25,-131"/>
</g>
<!-- J1&#45;&#45;CF881&#45;15&#45;02 -->
<g id="edge3" class="edge">
<title>J1:e&#45;&#45;CF881&#45;15&#45;02:w</title>
<path fill="none" stroke="#000000" stroke-width="2" d="M111.25,-104.88C174.83,-104.92 190.79,-101.3 255.25,-101.25"/>
<path fill="none" stroke="#ffffff" stroke-width="2" d="M111.25,-106.88C175.27,-106.88 191.23,-103.25 255.25,-103.25"/>
<path fill="none" stroke="#000000" stroke-width="2" d="M111.25,-108.87C175.71,-108.83 191.67,-105.2 255.25,-105.25"/>
</g>
<!-- J1&#45;&#45;CF881&#45;15&#45;02 -->
<g id="edge5" class="edge">
<title>J1:e&#45;&#45;CF881&#45;15&#45;02:w</title>
<path fill="none" stroke="#000000" stroke-width="2" d="M111.25,-83.12C176.09,-83.12 190.41,-59.75 255.25,-59.75"/>
</g>
<!-- J1&#45;&#45;CF881&#45;15&#45;02 -->
<g id="edge6" class="edge">
<title>J1:e&#45;&#45;CF881&#45;15&#45;02:w</title>
<path fill="none" stroke="#000000" stroke-width="2" d="M111.25,-59.38C175.25,-59.38 191.25,-59.75 255.25,-59.75"/>
</g>
<!-- J1&#45;&#45;CF881&#45;15&#45;02 -->
<g id="edge7" class="edge">
<title>J1:e&#45;&#45;CF881&#45;15&#45;02:w</title>
<path fill="none" stroke="#000000" stroke-width="2" d="M111.25,-35.62C176.14,-35.62 190.36,-59.75 255.25,-59.75"/>
</g>
<!-- J1&#45;&#45;CF881&#45;15&#45;02 -->
<g id="edge8" class="edge">
<title>J1:e&#45;&#45;CF881&#45;15&#45;02:w</title>
<path fill="none" stroke="#000000" stroke-width="2" d="M111.25,-11.88C178.69,-11.88 187.81,-59.75 255.25,-59.75"/>
</g>
<!-- J2 -->
<g id="node2" class="node">
<title>J2</title>
<polygon fill="#ffffff" stroke="black" points="882.25,-186.5 714,-186.5 714,-91.5 882.25,-91.5 882.25,-186.5"/>
<polygon fill="none" stroke="black" points="714,-162.75 714,-186.5 882.25,-186.5 882.25,-162.75 714,-162.75"/>
<text text-anchor="start" x="791" y="-169.2" font-family="arial" font-size="14.00">J2</text>
<polygon fill="none" stroke="black" points="714,-139 714,-162.75 844.25,-162.75 844.25,-139 714,-139"/>
<text text-anchor="start" x="718" y="-145.45" font-family="arial" font-size="14.00">3D&#45;Drucker&#45;Netzteil </text>
<polygon fill="none" stroke="black" points="844.25,-139 844.25,-162.75 882.25,-162.75 882.25,-139 844.25,-139"/>
<text text-anchor="start" x="848.25" y="-145.45" font-family="arial" font-size="14.00">2&#45;pin</text>
<polygon fill="none" stroke="black" points="714,-115.25 714,-139 785.75,-139 785.75,-115.25 714,-115.25"/>
<text text-anchor="start" x="746.12" y="-121.7" font-family="arial" font-size="14.00">1</text>
<polygon fill="none" stroke="black" points="785.75,-115.25 785.75,-139 882.25,-139 882.25,-115.25 785.75,-115.25"/>
<text text-anchor="start" x="817.88" y="-121.7" font-family="arial" font-size="14.00">+24V</text>
<polygon fill="none" stroke="black" points="714,-91.5 714,-115.25 785.75,-115.25 785.75,-91.5 714,-91.5"/>
<text text-anchor="start" x="746.12" y="-97.95" font-family="arial" font-size="14.00">2</text>
<polygon fill="none" stroke="black" points="785.75,-91.5 785.75,-115.25 882.25,-115.25 882.25,-91.5 785.75,-91.5"/>
<text text-anchor="start" x="818.62" y="-97.95" font-family="arial" font-size="14.00">GND</text>
</g>
<!-- CF881&#45;15&#45;02&#45;&#45;J2 -->
<g id="edge2" class="edge">
<title>CF881&#45;15&#45;02:e&#45;&#45;J2:w</title>
<path fill="none" stroke="#000000" stroke-width="2" d="M570,-127C633.77,-127.01 649.76,-125.14 714,-125.13"/>
<path fill="none" stroke="#ffffff" stroke-width="2" d="M570,-129C634.01,-129 649.99,-127.13 714,-127.12"/>
<path fill="none" stroke="#000000" stroke-width="2" d="M570,-131C634.24,-130.99 650.23,-129.11 714,-129.12"/>
</g>
<!-- CF881&#45;15&#45;02&#45;&#45;J2 -->
<g id="edge4" class="edge">
<title>CF881&#45;15&#45;02:e&#45;&#45;J2:w</title>
<path fill="none" stroke="#000000" stroke-width="2" d="M570,-101.25C634.02,-101.25 650.02,-101.38 714,-101.38"/>
<path fill="none" stroke="#ffffff" stroke-width="2" d="M570,-103.25C634,-103.25 650,-103.37 714,-103.37"/>
<path fill="none" stroke="#000000" stroke-width="2" d="M570,-105.25C633.98,-105.25 649.98,-105.37 714,-105.37"/>
</g>
</g>
</svg>
