<?xml version="1.0" encoding="UTF-8" standalone="no"?>
<!DOCTYPE svg PUBLIC "-//W3C//DTD SVG 1.1//EN"
 "http://www.w3.org/Graphics/SVG/1.1/DTD/svg11.dtd">
<!-- Generated by graphviz version 12.2.1 (20241206.2353)
 -->
<!-- Pages: 1 -->
<svg width="1034pt" height="251pt"
 viewBox="0.00 0.00 1034.25 250.62" xmlns="http://www.w3.org/2000/svg" xmlns:xlink="http://www.w3.org/1999/xlink">
<g id="graph0" class="graph" transform="scale(1 1) rotate(0) translate(4 246.62)">
<polygon fill="#ffffff" stroke="none" points="-4,4 -4,-246.62 1030.25,-246.62 1030.25,4 -4,4"/>
<!-- J2 -->
<g id="node1" class="node">
<title>J2</title>
<polygon fill="#ffffff" stroke="black" points="168.25,-186.38 0,-186.38 0,-91.38 168.25,-91.38 168.25,-186.38"/>
<polygon fill="none" stroke="black" points="0,-162.62 0,-186.38 168.25,-186.38 168.25,-162.62 0,-162.62"/>
<text text-anchor="start" x="77" y="-169.07" font-family="arial" font-size="14.00">J2</text>
<polygon fill="none" stroke="black" points="0,-138.88 0,-162.62 130.25,-162.62 130.25,-138.88 0,-138.88"/>
<text text-anchor="start" x="4" y="-145.32" font-family="arial" font-size="14.00">3D&#45;Drucker&#45;Netzteil </text>
<polygon fill="none" stroke="black" points="130.25,-138.88 130.25,-162.62 168.25,-162.62 168.25,-138.88 130.25,-138.88"/>
<text text-anchor="start" x="134.25" y="-145.32" font-family="arial" font-size="14.00">2&#45;pin</text>
<polygon fill="none" stroke="black" points="0,-115.12 0,-138.88 96.5,-138.88 96.5,-115.12 0,-115.12"/>
<text text-anchor="start" x="32.12" y="-121.58" font-family="arial" font-size="14.00">+24V</text>
<polygon fill="none" stroke="black" points="96.5,-115.12 96.5,-138.88 168.25,-138.88 168.25,-115.12 96.5,-115.12"/>
<text text-anchor="start" x="128.62" y="-121.58" font-family="arial" font-size="14.00">1</text>
<polygon fill="none" stroke="black" points="0,-91.38 0,-115.12 96.5,-115.12 96.5,-91.38 0,-91.38"/>
<text text-anchor="start" x="32.88" y="-97.83" font-family="arial" font-size="14.00">GND</text>
<polygon fill="none" stroke="black" points="96.5,-91.38 96.5,-115.12 168.25,-115.12 168.25,-91.38 96.5,-91.38"/>
<text text-anchor="start" x="128.62" y="-97.83" font-family="arial" font-size="14.00">2</text>
</g>
<!-- CF881&#45;15&#45;02 -->
<g id="node3" class="node">
<title>CF881&#45;15&#45;02</title>
<polygon fill="#ffffff" stroke="black" points="627,-242.62 312.25,-242.62 312.25,-15.12 627,-15.12 627,-242.62"/>
<polygon fill="none" stroke="black" points="312.25,-218.88 312.25,-242.62 627,-242.62 627,-218.88 312.25,-218.88"/>
<text text-anchor="start" x="429.88" y="-225.32" font-family="arial" font-size="14.00">CF881&#45;15&#45;02</text>
<polygon fill="none" stroke="black" points="312.25,-195.12 312.25,-218.88 627,-218.88 627,-195.12 312.25,-195.12"/>
<text text-anchor="start" x="413.38" y="-201.57" font-family="arial" font-size="14.00">Igus: CF881&#45;15&#45;02</text>
<polygon fill="none" stroke="black" points="312.25,-171.38 312.25,-195.12 355.83,-195.12 355.83,-171.38 312.25,-171.38"/>
<text text-anchor="start" x="326.92" y="-177.82" font-family="arial" font-size="14.00">2x</text>
<polygon fill="none" stroke="black" points="355.83,-171.38 355.83,-195.12 436.17,-195.12 436.17,-171.38 355.83,-171.38"/>
<text text-anchor="start" x="370.5" y="-177.82" font-family="arial" font-size="14.00">1.5 mm²</text>
<polygon fill="none" stroke="black" points="436.17,-171.38 436.17,-195.12 486.5,-195.12 486.5,-171.38 436.17,-171.38"/>
<text text-anchor="start" x="450.83" y="-177.82" font-family="arial" font-size="14.00">+ S</text>
<polygon fill="none" stroke="black" points="486.5,-171.38 486.5,-195.12 550.33,-195.12 550.33,-171.38 486.5,-171.38"/>
<text text-anchor="start" x="501.17" y="-177.82" font-family="arial" font-size="14.00">2.0 m</text>
<polygon fill="none" stroke="black" points="550.33,-171.38 550.33,-195.12 597.67,-195.12 597.67,-171.38 550.33,-171.38"/>
<text text-anchor="start" x="565" y="-177.82" font-family="arial" font-size="14.00">BK</text>
<polygon fill="#000000" stroke="none" points="597.67,-171.38 597.67,-195.12 627,-195.12 627,-171.38 597.67,-171.38"/>
<polygon fill="none" stroke="black" points="597.67,-171.38 597.67,-195.12 627,-195.12 627,-171.38 597.67,-171.38"/>
<text text-anchor="start" x="357.58" y="-156.07" font-family="arial" font-size="14.00"> </text>
<text text-anchor="start" x="328.71" y="-136.32" font-family="arial" font-size="14.00">J2:1:+24V</text>
<text text-anchor="start" x="423.12" y="-136.32" font-family="arial" font-size="14.00"> &#160;&#160;&#160;&#160;1:WH &#160;&#160;&#160;</text>
<text text-anchor="start" x="536.67" y="-136.32" font-family="arial" font-size="14.00">J1:1:+24V</text>
<polygon fill="#000000" stroke="none" points="312.25,-129.88 312.25,-131.88 627,-131.88 627,-129.88 312.25,-129.88"/>
<polygon fill="#ffffff" stroke="none" points="312.25,-127.88 312.25,-129.88 627,-129.88 627,-127.88 312.25,-127.88"/>
<polygon fill="#000000" stroke="none" points="312.25,-125.88 312.25,-127.88 627,-127.88 627,-125.88 312.25,-125.88"/>
<text text-anchor="start" x="329.46" y="-110.58" font-family="arial" font-size="14.00">J2:2:GND</text>
<text text-anchor="start" x="425.38" y="-110.58" font-family="arial" font-size="14.00"> &#160;&#160;&#160;&#160;2:BN &#160;&#160;&#160;</text>
<text text-anchor="start" x="533.67" y="-110.58" font-family="arial" font-size="14.00">J1:2:GND2</text>
<polygon fill="#000000" stroke="none" points="312.25,-104.12 312.25,-106.12 627,-106.12 627,-104.12 312.25,-104.12"/>
<polygon fill="#895956" stroke="none" points="312.25,-102.12 312.25,-104.12 627,-104.12 627,-102.12 312.25,-102.12"/>
<polygon fill="#000000" stroke="none" points="312.25,-100.12 312.25,-102.12 627,-102.12 627,-100.12 312.25,-100.12"/>
<text text-anchor="start" x="357.58" y="-84.83" font-family="arial" font-size="14.00"> </text>
<text text-anchor="start" x="438.5" y="-65.08" font-family="arial" font-size="14.00">Shield</text>
<text text-anchor="start" x="524.29" y="-65.08" font-family="arial" font-size="14.00">J1:SH1:GND3</text>
<polygon fill="#000000" stroke="none" points="312.25,-58.62 312.25,-60.62 627,-60.62 627,-58.62 312.25,-58.62"/>
<text text-anchor="start" x="357.58" y="-43.33" font-family="arial" font-size="14.00"> </text>
<polygon fill="none" stroke="black" points="312.25,-15.12 312.25,-38.88 627,-38.88 627,-15.12 312.25,-15.12"/>
<text text-anchor="start" x="316.25" y="-21.57" font-family="arial" font-size="14.00">Flexibles Steuerkabel mit PVC&#45;Mantel, geschirmt &#160;&#160;</text>
</g>
<!-- J2&#45;&#45;CF881&#45;15&#45;02 -->
<g id="edge1" class="edge">
<title>J2:e&#45;&#45;CF881&#45;15&#45;02:w</title>
<path fill="none" stroke="#000000" stroke-width="2" d="M168.25,-125C232.49,-125.01 248.48,-126.89 312.25,-126.88"/>
<path fill="none" stroke="#ffffff" stroke-width="2" d="M168.25,-127C232.26,-127 248.24,-128.88 312.25,-128.88"/>
<path fill="none" stroke="#000000" stroke-width="2" d="M168.25,-129C232.02,-128.99 248.01,-130.86 312.25,-130.87"/>
</g>
<!-- J2&#45;&#45;CF881&#45;15&#45;02 -->
<g id="edge3" class="edge">
<title>J2:e&#45;&#45;CF881&#45;15&#45;02:w</title>
<path fill="none" stroke="#000000" stroke-width="2" d="M168.25,-101.25C232.23,-101.25 248.23,-101.13 312.25,-101.13"/>
<path fill="none" stroke="#895956" stroke-width="2" d="M168.25,-103.25C232.25,-103.25 248.25,-103.12 312.25,-103.12"/>
<path fill="none" stroke="#000000" stroke-width="2" d="M168.25,-105.25C232.27,-105.25 248.27,-105.12 312.25,-105.12"/>
</g>
<!-- J1 -->
<g id="node2" class="node">
<title>J1</title>
<polygon fill="#ffffff" stroke="black" points="1026.25,-213.75 771,-213.75 771,0 1026.25,0 1026.25,-213.75"/>
<polygon fill="none" stroke="black" points="771,-190 771,-213.75 1026.25,-213.75 1026.25,-190 771,-190"/>
<text text-anchor="start" x="891.5" y="-196.45" font-family="arial" font-size="14.00">J1</text>
<polygon fill="none" stroke="black" points="771,-166.25 771,-190 914,-190 914,-166.25 771,-166.25"/>
<text text-anchor="start" x="775" y="-172.7" font-family="arial" font-size="14.00">Same Sky : PJ&#45;082BH</text>
<polygon fill="none" stroke="black" points="914,-166.25 914,-190 1026.25,-190 1026.25,-166.25 914,-166.25"/>
<text text-anchor="start" x="918" y="-172.7" font-family="arial" font-size="14.00">Digikey: 3477156</text>
<polygon fill="none" stroke="black" points="771,-142.5 771,-166.25 916.25,-166.25 916.25,-142.5 771,-142.5"/>
<text text-anchor="start" x="811" y="-148.95" font-family="arial" font-size="14.00">PJ&#45;082BH </text>
<polygon fill="none" stroke="black" points="916.25,-142.5 916.25,-166.25 1026.25,-166.25 1026.25,-142.5 916.25,-142.5"/>
<text text-anchor="start" x="956.25" y="-148.95" font-family="arial" font-size="14.00">6&#45;pin</text>
<polygon fill="none" stroke="black" points="771,-118.75 771,-142.5 892.62,-142.5 892.62,-118.75 771,-118.75"/>
<text text-anchor="start" x="828.06" y="-125.2" font-family="arial" font-size="14.00">1</text>
<polygon fill="none" stroke="black" points="892.62,-118.75 892.62,-142.5 1026.25,-142.5 1026.25,-118.75 892.62,-118.75"/>
<text text-anchor="start" x="943.31" y="-125.2" font-family="arial" font-size="14.00">+24V</text>
<polygon fill="none" stroke="black" points="771,-95 771,-118.75 892.62,-118.75 892.62,-95 771,-95"/>
<text text-anchor="start" x="828.06" y="-101.45" font-family="arial" font-size="14.00">2</text>
<polygon fill="none" stroke="black" points="892.62,-95 892.62,-118.75 1026.25,-118.75 1026.25,-95 892.62,-95"/>
<text text-anchor="start" x="940.31" y="-101.45" font-family="arial" font-size="14.00">GND2</text>
<polygon fill="none" stroke="black" points="771,-71.25 771,-95 892.62,-95 892.62,-71.25 771,-71.25"/>
<text text-anchor="start" x="818.69" y="-77.7" font-family="arial" font-size="14.00">SH1</text>
<polygon fill="none" stroke="black" points="892.62,-71.25 892.62,-95 1026.25,-95 1026.25,-71.25 892.62,-71.25"/>
<text text-anchor="start" x="940.31" y="-77.7" font-family="arial" font-size="14.00">GND3</text>
<polygon fill="none" stroke="black" points="771,-47.5 771,-71.25 892.62,-71.25 892.62,-47.5 771,-47.5"/>
<text text-anchor="start" x="818.69" y="-53.95" font-family="arial" font-size="14.00">SH2</text>
<polygon fill="none" stroke="black" points="892.62,-47.5 892.62,-71.25 1026.25,-71.25 1026.25,-47.5 892.62,-47.5"/>
<text text-anchor="start" x="940.31" y="-53.95" font-family="arial" font-size="14.00">GND3</text>
<polygon fill="none" stroke="black" points="771,-23.75 771,-47.5 892.62,-47.5 892.62,-23.75 771,-23.75"/>
<text text-anchor="start" x="818.69" y="-30.2" font-family="arial" font-size="14.00">SH3</text>
<polygon fill="none" stroke="black" points="892.62,-23.75 892.62,-47.5 1026.25,-47.5 1026.25,-23.75 892.62,-23.75"/>
<text text-anchor="start" x="940.31" y="-30.2" font-family="arial" font-size="14.00">GND3</text>
<polygon fill="none" stroke="black" points="771,0 771,-23.75 892.62,-23.75 892.62,0 771,0"/>
<text text-anchor="start" x="818.69" y="-6.45" font-family="arial" font-size="14.00">SH4</text>
<polygon fill="none" stroke="black" points="892.62,0 892.62,-23.75 1026.25,-23.75 1026.25,0 892.62,0"/>
<text text-anchor="start" x="940.31" y="-6.45" font-family="arial" font-size="14.00">GND3</text>
</g>
<!-- CF881&#45;15&#45;02&#45;&#45;J1 -->
<g id="edge2" class="edge">
<title>CF881&#45;15&#45;02:e&#45;&#45;J1:w</title>
<path fill="none" stroke="#000000" stroke-width="2" d="M627,-126.88C691.22,-126.89 707.21,-128.64 771,-128.63"/>
<path fill="none" stroke="#ffffff" stroke-width="2" d="M627,-128.88C691,-128.88 707,-130.63 771,-130.62"/>
<path fill="none" stroke="#000000" stroke-width="2" d="M627,-130.87C690.79,-130.86 706.78,-132.61 771,-132.62"/>
</g>
<!-- CF881&#45;15&#45;02&#45;&#45;J1 -->
<g id="edge4" class="edge">
<title>CF881&#45;15&#45;02:e&#45;&#45;J1:w</title>
<path fill="none" stroke="#000000" stroke-width="2" d="M627,-101.13C691.48,-101.18 707.44,-104.93 771,-104.88"/>
<path fill="none" stroke="#895956" stroke-width="2" d="M627,-103.12C691.02,-103.12 706.98,-106.87 771,-106.87"/>
<path fill="none" stroke="#000000" stroke-width="2" d="M627,-105.12C690.56,-105.07 706.52,-108.82 771,-108.87"/>
</g>
<!-- CF881&#45;15&#45;02&#45;&#45;J1 -->
<g id="edge5" class="edge">
<title>CF881&#45;15&#45;02:e&#45;&#45;J1:w</title>
<path fill="none" stroke="#000000" stroke-width="2" d="M627,-59.62C691.85,-59.63 706.15,-83.12 771,-83.12"/>
</g>
<!-- CF881&#45;15&#45;02&#45;&#45;J1 -->
<g id="edge6" class="edge">
<title>CF881&#45;15&#45;02:e&#45;&#45;J1:w</title>
<path fill="none" stroke="#000000" stroke-width="2" d="M627,-59.62C691,-59.63 707,-59.38 771,-59.38"/>
</g>
<!-- CF881&#45;15&#45;02&#45;&#45;J1 -->
<g id="edge7" class="edge">
<title>CF881&#45;15&#45;02:e&#45;&#45;J1:w</title>
<path fill="none" stroke="#000000" stroke-width="2" d="M627,-59.62C691.88,-59.63 706.12,-35.62 771,-35.62"/>
</g>
<!-- CF881&#45;15&#45;02&#45;&#45;J1 -->
<g id="edge8" class="edge">
<title>CF881&#45;15&#45;02:e&#45;&#45;J1:w</title>
<path fill="none" stroke="#000000" stroke-width="2" d="M627,-59.62C694.43,-59.63 703.57,-11.88 771,-11.88"/>
</g>
</g>
</svg>
