<?xml version="1.0" encoding="UTF-8" standalone="no"?>
<!DOCTYPE svg PUBLIC "-//W3C//DTD SVG 1.1//EN"
 "http://www.w3.org/Graphics/SVG/1.1/DTD/svg11.dtd">
<!-- Generated by graphviz version 12.2.1 (20241206.2353)
 -->
<!-- Pages: 1 -->
<svg width="1128pt" height="483pt"
 viewBox="0.00 0.00 1128.00 483.00" xmlns="http://www.w3.org/2000/svg" xmlns:xlink="http://www.w3.org/1999/xlink">
<g id="graph0" class="graph" transform="scale(1 1) rotate(0) translate(4 479)">
<polygon fill="#ffffff" stroke="none" points="-4,4 -4,-479 1124,-479 1124,4 -4,4"/>
<!-- Raspberry_Pi -->
<g id="node1" class="node">
<title>Raspberry_Pi</title>
<polygon fill="#ffffff" stroke="black" points="189.75,-305.62 0,-305.62 0,-139.38 189.75,-139.38 189.75,-305.62"/>
<polygon fill="none" stroke="black" points="0,-281.88 0,-305.62 189.75,-305.62 189.75,-281.88 0,-281.88"/>
<text text-anchor="start" x="54" y="-288.32" font-family="arial" font-size="14.00">Raspberry_Pi</text>
<polygon fill="none" stroke="black" points="0,-258.12 0,-281.88 97.25,-281.88 97.25,-258.12 0,-258.12"/>
<text text-anchor="start" x="4" y="-264.57" font-family="arial" font-size="14.00">USB&#45;A Buchse</text>
<polygon fill="none" stroke="black" points="97.25,-258.12 97.25,-281.88 151.75,-281.88 151.75,-258.12 97.25,-258.12"/>
<text text-anchor="start" x="101.25" y="-264.57" font-family="arial" font-size="14.00">USB2.0</text>
<polygon fill="none" stroke="black" points="151.75,-258.12 151.75,-281.88 189.75,-281.88 189.75,-258.12 151.75,-258.12"/>
<text text-anchor="start" x="155.75" y="-264.57" font-family="arial" font-size="14.00">5&#45;pin</text>
<polygon fill="none" stroke="black" points="0,-234.38 0,-258.12 126,-258.12 126,-234.38 0,-234.38"/>
<text text-anchor="start" x="28.12" y="-240.82" font-family="arial" font-size="14.00">VBUS (5 V)</text>
<polygon fill="none" stroke="black" points="126,-234.38 126,-258.12 189.75,-258.12 189.75,-234.38 126,-234.38"/>
<text text-anchor="start" x="154.12" y="-240.82" font-family="arial" font-size="14.00">1</text>
<polygon fill="none" stroke="black" points="0,-210.62 0,-234.38 126,-234.38 126,-210.62 0,-210.62"/>
<text text-anchor="start" x="55.88" y="-217.07" font-family="arial" font-size="14.00">D&#45;</text>
<polygon fill="none" stroke="black" points="126,-210.62 126,-234.38 189.75,-234.38 189.75,-210.62 126,-210.62"/>
<text text-anchor="start" x="154.12" y="-217.07" font-family="arial" font-size="14.00">2</text>
<polygon fill="none" stroke="black" points="0,-186.88 0,-210.62 126,-210.62 126,-186.88 0,-186.88"/>
<text text-anchor="start" x="54" y="-193.32" font-family="arial" font-size="14.00">D+</text>
<polygon fill="none" stroke="black" points="126,-186.88 126,-210.62 189.75,-210.62 189.75,-186.88 126,-186.88"/>
<text text-anchor="start" x="154.12" y="-193.32" font-family="arial" font-size="14.00">3</text>
<polygon fill="none" stroke="black" points="0,-163.12 0,-186.88 126,-186.88 126,-163.12 0,-163.12"/>
<text text-anchor="start" x="47.62" y="-169.57" font-family="arial" font-size="14.00">GND</text>
<polygon fill="none" stroke="black" points="126,-163.12 126,-186.88 189.75,-186.88 189.75,-163.12 126,-163.12"/>
<text text-anchor="start" x="154.12" y="-169.57" font-family="arial" font-size="14.00">4</text>
<polygon fill="none" stroke="black" points="0,-139.38 0,-163.12 126,-163.12 126,-139.38 0,-139.38"/>
<text text-anchor="start" x="44.25" y="-145.82" font-family="arial" font-size="14.00">Shield</text>
<polygon fill="none" stroke="black" points="126,-139.38 126,-163.12 189.75,-163.12 189.75,-139.38 126,-139.38"/>
<text text-anchor="start" x="154.12" y="-145.82" font-family="arial" font-size="14.00">5</text>
</g>
<!-- USB_Cable -->
<g id="node3" class="node">
<title>USB_Cable</title>
<polygon fill="#ffffff" stroke="black" points="725.25,-364 333.75,-364 333.75,-85 725.25,-85 725.25,-364"/>
<polygon fill="none" stroke="black" points="333.75,-340.25 333.75,-364 725.25,-364 725.25,-340.25 333.75,-340.25"/>
<text text-anchor="start" x="494.25" y="-346.7" font-family="arial" font-size="14.00">USB_Cable</text>
<polygon fill="none" stroke="black" points="333.75,-316.5 333.75,-340.25 725.25,-340.25 725.25,-316.5 333.75,-316.5"/>
<text text-anchor="start" x="445.12" y="-322.95" font-family="arial" font-size="14.00">Generic: USB_CABLE_XYZ</text>
<polygon fill="none" stroke="black" points="333.75,-292.75 333.75,-316.5 390,-316.5 390,-292.75 333.75,-292.75"/>
<text text-anchor="start" x="354.75" y="-299.2" font-family="arial" font-size="14.00">4x</text>
<polygon fill="none" stroke="black" points="390,-292.75 390,-316.5 483.75,-316.5 483.75,-292.75 390,-292.75"/>
<text text-anchor="start" x="411" y="-299.2" font-family="arial" font-size="14.00">28 AWG</text>
<polygon fill="none" stroke="black" points="483.75,-292.75 483.75,-316.5 546.75,-316.5 546.75,-292.75 483.75,-292.75"/>
<text text-anchor="start" x="504.75" y="-299.2" font-family="arial" font-size="14.00">+ S</text>
<polygon fill="none" stroke="black" points="546.75,-292.75 546.75,-316.5 623.25,-316.5 623.25,-292.75 546.75,-292.75"/>
<text text-anchor="start" x="567.75" y="-299.2" font-family="arial" font-size="14.00">1.0 m</text>
<polygon fill="none" stroke="black" points="623.25,-292.75 623.25,-316.5 683.25,-316.5 683.25,-292.75 623.25,-292.75"/>
<text text-anchor="start" x="644.25" y="-299.2" font-family="arial" font-size="14.00">BK</text>
<polygon fill="#000000" stroke="none" points="683.25,-292.75 683.25,-316.5 725.25,-316.5 725.25,-292.75 683.25,-292.75"/>
<polygon fill="none" stroke="black" points="683.25,-292.75 683.25,-316.5 725.25,-316.5 725.25,-292.75 683.25,-292.75"/>
<text text-anchor="start" x="417.12" y="-277.45" font-family="arial" font-size="14.00"> </text>
<text text-anchor="start" x="335.75" y="-257.7" font-family="arial" font-size="14.00">Raspberry_Pi:1:VBUS (5 V)</text>
<text text-anchor="start" x="506.25" y="-257.7" font-family="arial" font-size="14.00"> &#160;&#160;&#160;&#160;1:WH &#160;&#160;&#160;</text>
<text text-anchor="start" x="612.62" y="-257.7" font-family="arial" font-size="14.00">P1:A4:AREF</text>
<polygon fill="#000000" stroke="none" points="333.75,-251.25 333.75,-253.25 725.25,-253.25 725.25,-251.25 333.75,-251.25"/>
<polygon fill="#ffffff" stroke="none" points="333.75,-249.25 333.75,-251.25 725.25,-251.25 725.25,-249.25 333.75,-249.25"/>
<polygon fill="#000000" stroke="none" points="333.75,-247.25 333.75,-249.25 725.25,-249.25 725.25,-247.25 333.75,-247.25"/>
<text text-anchor="start" x="363.5" y="-231.95" font-family="arial" font-size="14.00">Raspberry_Pi:2:D&#45;</text>
<text text-anchor="start" x="508.5" y="-231.95" font-family="arial" font-size="14.00"> &#160;&#160;&#160;&#160;2:BN &#160;&#160;&#160;</text>
<text text-anchor="start" x="609.62" y="-231.95" font-family="arial" font-size="14.00">P1:A7:USBD&#45;</text>
<polygon fill="#000000" stroke="none" points="333.75,-225.5 333.75,-227.5 725.25,-227.5 725.25,-225.5 333.75,-225.5"/>
<polygon fill="#895956" stroke="none" points="333.75,-223.5 333.75,-225.5 725.25,-225.5 725.25,-223.5 333.75,-223.5"/>
<polygon fill="#000000" stroke="none" points="333.75,-221.5 333.75,-223.5 725.25,-223.5 725.25,-221.5 333.75,-221.5"/>
<text text-anchor="start" x="361.62" y="-206.2" font-family="arial" font-size="14.00">Raspberry_Pi:3:D+</text>
<text text-anchor="start" x="507.38" y="-206.2" font-family="arial" font-size="14.00"> &#160;&#160;&#160;&#160;3:GN &#160;&#160;&#160;</text>
<text text-anchor="start" x="607.75" y="-206.2" font-family="arial" font-size="14.00">P1:A6:USBD+</text>
<polygon fill="#000000" stroke="none" points="333.75,-199.75 333.75,-201.75 725.25,-201.75 725.25,-199.75 333.75,-199.75"/>
<polygon fill="#00ff00" stroke="none" points="333.75,-197.75 333.75,-199.75 725.25,-199.75 725.25,-197.75 333.75,-197.75"/>
<polygon fill="#000000" stroke="none" points="333.75,-195.75 333.75,-197.75 725.25,-197.75 725.25,-195.75 333.75,-195.75"/>
<text text-anchor="start" x="355.25" y="-180.45" font-family="arial" font-size="14.00">Raspberry_Pi:4:GND</text>
<text text-anchor="start" x="508.88" y="-180.45" font-family="arial" font-size="14.00"> &#160;&#160;&#160;&#160;4:YE &#160;&#160;&#160;</text>
<text text-anchor="start" x="615.25" y="-180.45" font-family="arial" font-size="14.00">P1:A1:GND</text>
<polygon fill="#000000" stroke="none" points="333.75,-174 333.75,-176 725.25,-176 725.25,-174 333.75,-174"/>
<polygon fill="#ffff00" stroke="none" points="333.75,-172 333.75,-174 725.25,-174 725.25,-172 333.75,-172"/>
<polygon fill="#000000" stroke="none" points="333.75,-170 333.75,-172 725.25,-172 725.25,-170 333.75,-170"/>
<text text-anchor="start" x="417.12" y="-154.7" font-family="arial" font-size="14.00"> </text>
<text text-anchor="start" x="351.88" y="-134.95" font-family="arial" font-size="14.00">Raspberry_Pi:5:Shield</text>
<text text-anchor="start" x="521.62" y="-134.95" font-family="arial" font-size="14.00">Shield</text>
<text text-anchor="start" x="578.5" y="-134.95" font-family="arial" font-size="14.00">P1:S1:Net&#45;(P1&#45;SHIELD)</text>
<polygon fill="#000000" stroke="none" points="333.75,-128.5 333.75,-130.5 725.25,-130.5 725.25,-128.5 333.75,-128.5"/>
<text text-anchor="start" x="417.12" y="-113.2" font-family="arial" font-size="14.00"> </text>
<polygon fill="none" stroke="black" points="333.75,-85 333.75,-108.75 725.25,-108.75 725.25,-85 333.75,-85"/>
<text text-anchor="start" x="394.5" y="-91.45" font-family="arial" font-size="14.00">USB&#45;Kabel für Daten&#45; und Stromübertragung</text>
</g>
<!-- Raspberry_Pi&#45;&#45;USB_Cable -->
<g id="edge1" class="edge">
<title>Raspberry_Pi:e&#45;&#45;USB_Cable:w</title>
<path fill="none" stroke="#000000" stroke-width="2" d="M189.75,-244.25C254.26,-244.31 270.21,-248.31 333.75,-248.25"/>
<path fill="none" stroke="#ffffff" stroke-width="2" d="M189.75,-246.25C253.77,-246.25 269.73,-250.25 333.75,-250.25"/>
<path fill="none" stroke="#000000" stroke-width="2" d="M189.75,-248.25C253.29,-248.19 269.24,-252.19 333.75,-252.25"/>
</g>
<!-- Raspberry_Pi&#45;&#45;USB_Cable -->
<g id="edge2" class="edge">
<title>Raspberry_Pi:e&#45;&#45;USB_Cable:w</title>
<path fill="none" stroke="#000000" stroke-width="2" d="M189.75,-220.5C254,-220.52 269.99,-222.52 333.75,-222.5"/>
<path fill="none" stroke="#895956" stroke-width="2" d="M189.75,-222.5C253.76,-222.5 269.74,-224.5 333.75,-224.5"/>
<path fill="none" stroke="#000000" stroke-width="2" d="M189.75,-224.5C253.51,-224.48 269.5,-226.48 333.75,-226.5"/>
</g>
<!-- Raspberry_Pi&#45;&#45;USB_Cable -->
<g id="edge3" class="edge">
<title>Raspberry_Pi:e&#45;&#45;USB_Cable:w</title>
<path fill="none" stroke="#000000" stroke-width="2" d="M189.75,-196.75C253.75,-196.75 269.75,-196.75 333.75,-196.75"/>
<path fill="none" stroke="#00ff00" stroke-width="2" d="M189.75,-198.75C253.75,-198.75 269.75,-198.75 333.75,-198.75"/>
<path fill="none" stroke="#000000" stroke-width="2" d="M189.75,-200.75C253.75,-200.75 269.75,-200.75 333.75,-200.75"/>
</g>
<!-- Raspberry_Pi&#45;&#45;USB_Cable -->
<g id="edge4" class="edge">
<title>Raspberry_Pi:e&#45;&#45;USB_Cable:w</title>
<path fill="none" stroke="#000000" stroke-width="2" d="M189.75,-173C253.51,-173.02 269.5,-171.02 333.75,-171"/>
<path fill="none" stroke="#ffff00" stroke-width="2" d="M189.75,-175C253.76,-175 269.74,-173 333.75,-173"/>
<path fill="none" stroke="#000000" stroke-width="2" d="M189.75,-177C254,-176.98 269.99,-174.98 333.75,-175"/>
</g>
<!-- Raspberry_Pi&#45;&#45;USB_Cable -->
<g id="edge17" class="edge">
<title>Raspberry_Pi:e&#45;&#45;USB_Cable:w</title>
<path fill="none" stroke="#000000" stroke-width="2" d="M189.75,-151.25C254.48,-151.25 269.02,-129.5 333.75,-129.5"/>
</g>
<!-- P1 -->
<g id="node2" class="node">
<title>P1</title>
<polygon fill="#ffffff" stroke="black" points="1120,-475 869.25,-475 869.25,0 1120,0 1120,-475"/>
<polygon fill="none" stroke="black" points="869.25,-451.25 869.25,-475 1120,-475 1120,-451.25 869.25,-451.25"/>
<text text-anchor="start" x="986.38" y="-457.7" font-family="arial" font-size="14.00">P1</text>
<polygon fill="none" stroke="black" points="869.25,-427.5 869.25,-451.25 1007.75,-451.25 1007.75,-427.5 869.25,-427.5"/>
<text text-anchor="start" x="873.25" y="-433.95" font-family="arial" font-size="14.00">GCT: USB4085&#45;GF&#45;A</text>
<polygon fill="none" stroke="black" points="1007.75,-427.5 1007.75,-451.25 1120,-451.25 1120,-427.5 1007.75,-427.5"/>
<text text-anchor="start" x="1011.75" y="-433.95" font-family="arial" font-size="14.00">Digikey: 9859662</text>
<polygon fill="none" stroke="black" points="869.25,-403.75 869.25,-427.5 987.83,-427.5 987.83,-403.75 869.25,-403.75"/>
<text text-anchor="start" x="881.29" y="-410.2" font-family="arial" font-size="14.00">USB&#45;C Buchse </text>
<polygon fill="none" stroke="black" points="987.83,-403.75 987.83,-427.5 1058.42,-427.5 1058.42,-403.75 987.83,-403.75"/>
<text text-anchor="start" x="999.88" y="-410.2" font-family="arial" font-size="14.00">USB2.0</text>
<polygon fill="none" stroke="black" points="1058.42,-403.75 1058.42,-427.5 1120,-427.5 1120,-403.75 1058.42,-403.75"/>
<text text-anchor="start" x="1070.46" y="-410.2" font-family="arial" font-size="14.00">17&#45;pin</text>
<polygon fill="none" stroke="black" points="869.25,-380 869.25,-403.75 954.5,-403.75 954.5,-380 869.25,-380"/>
<text text-anchor="start" x="903.62" y="-386.45" font-family="arial" font-size="14.00">A1</text>
<polygon fill="none" stroke="black" points="954.5,-380 954.5,-403.75 1120,-403.75 1120,-380 954.5,-380"/>
<text text-anchor="start" x="1021.88" y="-386.45" font-family="arial" font-size="14.00">GND</text>
<polygon fill="none" stroke="black" points="869.25,-356.25 869.25,-380 954.5,-380 954.5,-356.25 869.25,-356.25"/>
<text text-anchor="start" x="903.62" y="-362.7" font-family="arial" font-size="14.00">A4</text>
<polygon fill="none" stroke="black" points="954.5,-356.25 954.5,-380 1120,-380 1120,-356.25 954.5,-356.25"/>
<text text-anchor="start" x="1019.25" y="-362.7" font-family="arial" font-size="14.00">AREF</text>
<polygon fill="none" stroke="black" points="869.25,-332.5 869.25,-356.25 954.5,-356.25 954.5,-332.5 869.25,-332.5"/>
<text text-anchor="start" x="903.62" y="-338.95" font-family="arial" font-size="14.00">A5</text>
<polygon fill="none" stroke="black" points="954.5,-332.5 954.5,-356.25 1120,-356.25 1120,-332.5 954.5,-332.5"/>
<text text-anchor="start" x="996" y="-338.95" font-family="arial" font-size="14.00">Net&#45;(P1&#45;CC1)</text>
<polygon fill="none" stroke="black" points="869.25,-308.75 869.25,-332.5 954.5,-332.5 954.5,-308.75 869.25,-308.75"/>
<text text-anchor="start" x="903.62" y="-315.2" font-family="arial" font-size="14.00">A6</text>
<polygon fill="none" stroke="black" points="954.5,-308.75 954.5,-332.5 1120,-332.5 1120,-308.75 954.5,-308.75"/>
<text text-anchor="start" x="1014.38" y="-315.2" font-family="arial" font-size="14.00">USBD+</text>
<polygon fill="none" stroke="black" points="869.25,-285 869.25,-308.75 954.5,-308.75 954.5,-285 869.25,-285"/>
<text text-anchor="start" x="903.62" y="-291.45" font-family="arial" font-size="14.00">A7</text>
<polygon fill="none" stroke="black" points="954.5,-285 954.5,-308.75 1120,-308.75 1120,-285 954.5,-285"/>
<text text-anchor="start" x="1016.25" y="-291.45" font-family="arial" font-size="14.00">USBD&#45;</text>
<polygon fill="none" stroke="black" points="869.25,-261.25 869.25,-285 954.5,-285 954.5,-261.25 869.25,-261.25"/>
<text text-anchor="start" x="903.62" y="-267.7" font-family="arial" font-size="14.00">A8</text>
<polygon fill="none" stroke="black" points="954.5,-261.25 954.5,-285 1120,-285 1120,-261.25 954.5,-261.25"/>
<text text-anchor="start" x="1019.62" y="-267.7" font-family="arial" font-size="14.00">SBU1</text>
<polygon fill="none" stroke="black" points="869.25,-237.5 869.25,-261.25 954.5,-261.25 954.5,-237.5 869.25,-237.5"/>
<text text-anchor="start" x="903.62" y="-243.95" font-family="arial" font-size="14.00">A9</text>
<polygon fill="none" stroke="black" points="954.5,-237.5 954.5,-261.25 1120,-261.25 1120,-237.5 954.5,-237.5"/>
<text text-anchor="start" x="1019.25" y="-243.95" font-family="arial" font-size="14.00">AREF</text>
<polygon fill="none" stroke="black" points="869.25,-213.75 869.25,-237.5 954.5,-237.5 954.5,-213.75 869.25,-213.75"/>
<text text-anchor="start" x="899.88" y="-220.2" font-family="arial" font-size="14.00">A12</text>
<polygon fill="none" stroke="black" points="954.5,-213.75 954.5,-237.5 1120,-237.5 1120,-213.75 954.5,-213.75"/>
<text text-anchor="start" x="1021.88" y="-220.2" font-family="arial" font-size="14.00">GND</text>
<polygon fill="none" stroke="black" points="869.25,-190 869.25,-213.75 954.5,-213.75 954.5,-190 869.25,-190"/>
<text text-anchor="start" x="903.62" y="-196.45" font-family="arial" font-size="14.00">B1</text>
<polygon fill="none" stroke="black" points="954.5,-190 954.5,-213.75 1120,-213.75 1120,-190 954.5,-190"/>
<text text-anchor="start" x="1021.88" y="-196.45" font-family="arial" font-size="14.00">GND</text>
<polygon fill="none" stroke="black" points="869.25,-166.25 869.25,-190 954.5,-190 954.5,-166.25 869.25,-166.25"/>
<text text-anchor="start" x="903.62" y="-172.7" font-family="arial" font-size="14.00">B4</text>
<polygon fill="none" stroke="black" points="954.5,-166.25 954.5,-190 1120,-190 1120,-166.25 954.5,-166.25"/>
<text text-anchor="start" x="1019.25" y="-172.7" font-family="arial" font-size="14.00">AREF</text>
<polygon fill="none" stroke="black" points="869.25,-142.5 869.25,-166.25 954.5,-166.25 954.5,-142.5 869.25,-142.5"/>
<text text-anchor="start" x="903.62" y="-148.95" font-family="arial" font-size="14.00">B5</text>
<polygon fill="none" stroke="black" points="954.5,-142.5 954.5,-166.25 1120,-166.25 1120,-142.5 954.5,-142.5"/>
<text text-anchor="start" x="996" y="-148.95" font-family="arial" font-size="14.00">Net&#45;(P1&#45;CC2)</text>
<polygon fill="none" stroke="black" points="869.25,-118.75 869.25,-142.5 954.5,-142.5 954.5,-118.75 869.25,-118.75"/>
<text text-anchor="start" x="903.62" y="-125.2" font-family="arial" font-size="14.00">B6</text>
<polygon fill="none" stroke="black" points="954.5,-118.75 954.5,-142.5 1120,-142.5 1120,-118.75 954.5,-118.75"/>
<text text-anchor="start" x="1014.38" y="-125.2" font-family="arial" font-size="14.00">USBD+</text>
<polygon fill="none" stroke="black" points="869.25,-95 869.25,-118.75 954.5,-118.75 954.5,-95 869.25,-95"/>
<text text-anchor="start" x="903.62" y="-101.45" font-family="arial" font-size="14.00">B7</text>
<polygon fill="none" stroke="black" points="954.5,-95 954.5,-118.75 1120,-118.75 1120,-95 954.5,-95"/>
<text text-anchor="start" x="1016.25" y="-101.45" font-family="arial" font-size="14.00">USBD&#45;</text>
<polygon fill="none" stroke="black" points="869.25,-71.25 869.25,-95 954.5,-95 954.5,-71.25 869.25,-71.25"/>
<text text-anchor="start" x="903.62" y="-77.7" font-family="arial" font-size="14.00">B8</text>
<polygon fill="none" stroke="black" points="954.5,-71.25 954.5,-95 1120,-95 1120,-71.25 954.5,-71.25"/>
<text text-anchor="start" x="1019.62" y="-77.7" font-family="arial" font-size="14.00">SBU2</text>
<polygon fill="none" stroke="black" points="869.25,-47.5 869.25,-71.25 954.5,-71.25 954.5,-47.5 869.25,-47.5"/>
<text text-anchor="start" x="903.62" y="-53.95" font-family="arial" font-size="14.00">B9</text>
<polygon fill="none" stroke="black" points="954.5,-47.5 954.5,-71.25 1120,-71.25 1120,-47.5 954.5,-47.5"/>
<text text-anchor="start" x="1019.25" y="-53.95" font-family="arial" font-size="14.00">AREF</text>
<polygon fill="none" stroke="black" points="869.25,-23.75 869.25,-47.5 954.5,-47.5 954.5,-23.75 869.25,-23.75"/>
<text text-anchor="start" x="899.88" y="-30.2" font-family="arial" font-size="14.00">B12</text>
<polygon fill="none" stroke="black" points="954.5,-23.75 954.5,-47.5 1120,-47.5 1120,-23.75 954.5,-23.75"/>
<text text-anchor="start" x="1021.88" y="-30.2" font-family="arial" font-size="14.00">GND</text>
<polygon fill="none" stroke="black" points="869.25,0 869.25,-23.75 954.5,-23.75 954.5,0 869.25,0"/>
<text text-anchor="start" x="903.62" y="-6.45" font-family="arial" font-size="14.00">S1</text>
<polygon fill="none" stroke="black" points="954.5,0 954.5,-23.75 1120,-23.75 1120,0 954.5,0"/>
<text text-anchor="start" x="985.12" y="-6.45" font-family="arial" font-size="14.00">Net&#45;(P1&#45;SHIELD)</text>
</g>
<!-- USB_Cable&#45;&#45;P1 -->
<g id="edge5" class="edge">
<title>USB_Cable:e&#45;&#45;P1:w</title>
<path fill="none" stroke="#000000" stroke-width="2" d="M725.25,-248.25C809.93,-250.61 788.51,-368.48 869.25,-366.13"/>
<path fill="none" stroke="#ffffff" stroke-width="2" d="M725.25,-250.25C807.96,-250.25 786.54,-368.12 869.25,-368.13"/>
<path fill="none" stroke="#000000" stroke-width="2" d="M725.25,-252.25C805.99,-249.89 784.57,-367.77 869.25,-370.12"/>
</g>
<!-- USB_Cable&#45;&#45;P1 -->
<g id="edge6" class="edge">
<title>USB_Cable:e&#45;&#45;P1:w</title>
<path fill="none" stroke="#000000" stroke-width="2" d="M725.25,-222.5C798.88,-224.48 799.62,-296.85 869.25,-294.88"/>
<path fill="none" stroke="#895956" stroke-width="2" d="M725.25,-224.5C796.88,-224.5 797.62,-296.88 869.25,-296.88"/>
<path fill="none" stroke="#000000" stroke-width="2" d="M725.25,-226.5C794.88,-224.52 795.62,-296.9 869.25,-298.87"/>
</g>
<!-- USB_Cable&#45;&#45;P1 -->
<g id="edge7" class="edge">
<title>USB_Cable:e&#45;&#45;P1:w</title>
<path fill="none" stroke="#000000" stroke-width="2" d="M725.25,-196.75C811.06,-199.13 787.37,-321.01 869.25,-318.63"/>
<path fill="none" stroke="#00ff00" stroke-width="2" d="M725.25,-198.75C809.1,-198.75 785.4,-320.62 869.25,-320.63"/>
<path fill="none" stroke="#000000" stroke-width="2" d="M725.25,-200.75C807.13,-198.37 783.44,-320.24 869.25,-322.62"/>
</g>
<!-- USB_Cable&#45;&#45;P1 -->
<g id="edge8" class="edge">
<title>USB_Cable:e&#45;&#45;P1:w</title>
<path fill="none" stroke="#000000" stroke-width="2" d="M725.25,-248.25C789.14,-248.25 805.14,-247.38 869.25,-247.38"/>
<path fill="none" stroke="#ffffff" stroke-width="2" d="M725.25,-250.25C789.25,-250.25 805.25,-249.38 869.25,-249.37"/>
<path fill="none" stroke="#000000" stroke-width="2" d="M725.25,-252.25C789.36,-252.25 805.36,-251.37 869.25,-251.37"/>
</g>
<!-- USB_Cable&#45;&#45;P1 -->
<g id="edge9" class="edge">
<title>USB_Cable:e&#45;&#45;P1:w</title>
<path fill="none" stroke="#000000" stroke-width="2" d="M725.25,-248.25C794.83,-250.23 795.67,-178.1 869.25,-176.13"/>
<path fill="none" stroke="#ffffff" stroke-width="2" d="M725.25,-250.25C796.83,-250.25 797.67,-178.12 869.25,-178.13"/>
<path fill="none" stroke="#000000" stroke-width="2" d="M725.25,-252.25C798.83,-250.27 799.67,-178.15 869.25,-180.12"/>
</g>
<!-- USB_Cable&#45;&#45;P1 -->
<g id="edge10" class="edge">
<title>USB_Cable:e&#45;&#45;P1:w</title>
<path fill="none" stroke="#000000" stroke-width="2" d="M725.25,-222.5C805.92,-224.86 784.64,-107.23 869.25,-104.88"/>
<path fill="none" stroke="#895956" stroke-width="2" d="M725.25,-224.5C807.89,-224.5 786.61,-106.87 869.25,-106.88"/>
<path fill="none" stroke="#000000" stroke-width="2" d="M725.25,-226.5C809.86,-224.14 788.58,-106.52 869.25,-108.87"/>
</g>
<!-- USB_Cable&#45;&#45;P1 -->
<g id="edge11" class="edge">
<title>USB_Cable:e&#45;&#45;P1:w</title>
<path fill="none" stroke="#000000" stroke-width="2" d="M725.25,-196.75C794.05,-198.68 796.45,-130.55 869.25,-128.63"/>
<path fill="none" stroke="#00ff00" stroke-width="2" d="M725.25,-198.75C796.05,-198.75 798.45,-130.62 869.25,-130.63"/>
<path fill="none" stroke="#000000" stroke-width="2" d="M725.25,-200.75C798.05,-198.82 800.45,-130.7 869.25,-132.62"/>
</g>
<!-- USB_Cable&#45;&#45;P1 -->
<g id="edge12" class="edge">
<title>USB_Cable:e&#45;&#45;P1:w</title>
<path fill="none" stroke="#000000" stroke-width="2" d="M725.25,-248.25C829.63,-250.93 761.1,-60.05 869.25,-57.38"/>
<path fill="none" stroke="#ffffff" stroke-width="2" d="M725.25,-250.25C831.52,-250.25 762.98,-59.38 869.25,-59.38"/>
<path fill="none" stroke="#000000" stroke-width="2" d="M725.25,-252.25C833.4,-249.57 764.87,-58.7 869.25,-61.37"/>
</g>
<!-- USB_Cable&#45;&#45;P1 -->
<g id="edge13" class="edge">
<title>USB_Cable:e&#45;&#45;P1:w</title>
<path fill="none" stroke="#000000" stroke-width="2" d="M725.25,-171C843.55,-173.75 754.66,-392.63 869.25,-389.88"/>
<path fill="none" stroke="#ffff00" stroke-width="2" d="M725.25,-173C841.69,-173 752.81,-391.87 869.25,-391.88"/>
<path fill="none" stroke="#000000" stroke-width="2" d="M725.25,-175C839.84,-172.25 750.95,-391.12 869.25,-393.87"/>
</g>
<!-- USB_Cable&#45;&#45;P1 -->
<g id="edge14" class="edge">
<title>USB_Cable:e&#45;&#45;P1:w</title>
<path fill="none" stroke="#000000" stroke-width="2" d="M725.25,-171C795.37,-172.71 803.09,-225.33 869.25,-223.63"/>
<path fill="none" stroke="#ffff00" stroke-width="2" d="M725.25,-173C793.39,-173 801.11,-225.62 869.25,-225.63"/>
<path fill="none" stroke="#000000" stroke-width="2" d="M725.25,-175C791.41,-173.29 799.13,-225.92 869.25,-227.62"/>
</g>
<!-- USB_Cable&#45;&#45;P1 -->
<g id="edge15" class="edge">
<title>USB_Cable:e&#45;&#45;P1:w</title>
<path fill="none" stroke="#000000" stroke-width="2" d="M725.25,-171C792.34,-172.16 805.79,-201.03 869.25,-199.88"/>
<path fill="none" stroke="#ffff00" stroke-width="2" d="M725.25,-173C790.52,-173 803.98,-201.88 869.25,-201.87"/>
<path fill="none" stroke="#000000" stroke-width="2" d="M725.25,-175C788.71,-173.84 802.16,-202.72 869.25,-203.87"/>
</g>
<!-- USB_Cable&#45;&#45;P1 -->
<g id="edge16" class="edge">
<title>USB_Cable:e&#45;&#45;P1:w</title>
<path fill="none" stroke="#000000" stroke-width="2" d="M725.25,-171C811.76,-173.47 778.85,-36.09 869.25,-33.63"/>
<path fill="none" stroke="#ffff00" stroke-width="2" d="M725.25,-173C813.7,-173 780.8,-35.63 869.25,-35.63"/>
<path fill="none" stroke="#000000" stroke-width="2" d="M725.25,-175C815.65,-172.53 782.74,-35.16 869.25,-37.62"/>
</g>
<!-- USB_Cable&#45;&#45;P1 -->
<g id="edge18" class="edge">
<title>USB_Cable:e&#45;&#45;P1:w</title>
<path fill="none" stroke="#000000" stroke-width="2" d="M725.25,-129.5C807.89,-129.5 786.61,-11.88 869.25,-11.88"/>
</g>
</g>
</svg>
