<?xml version="1.0" encoding="UTF-8" standalone="no"?>
<!DOCTYPE svg PUBLIC "-//W3C//DTD SVG 1.1//EN"
 "http://www.w3.org/Graphics/SVG/1.1/DTD/svg11.dtd">
<!-- Generated by graphviz version 12.2.1 (20241206.2353)
 -->
<!-- Pages: 1 -->
<svg width="1122pt" height="483pt"
 viewBox="0.00 0.00 1121.75 483.00" xmlns="http://www.w3.org/2000/svg" xmlns:xlink="http://www.w3.org/1999/xlink">
<g id="graph0" class="graph" transform="scale(1 1) rotate(0) translate(4 479)">
<polygon fill="#ffffff" stroke="none" points="-4,4 -4,-479 1117.75,-479 1117.75,4 -4,4"/>
<!-- USB_RPi -->
<g id="node1" class="node">
<title>USB_RPi</title>
<polygon fill="#ffffff" stroke="black" points="109.5,-305.62 0,-305.62 0,-139.38 109.5,-139.38 109.5,-305.62"/>
<polygon fill="none" stroke="black" points="0,-281.88 0,-305.62 109.5,-305.62 109.5,-281.88 0,-281.88"/>
<text text-anchor="start" x="26.25" y="-288.32" font-family="arial" font-size="14.00">USB_RPi</text>
<polygon fill="none" stroke="black" points="0,-258.12 0,-281.88 29.75,-281.88 29.75,-258.12 0,-258.12"/>
<text text-anchor="start" x="4" y="-264.57" font-family="arial" font-size="14.00">usb</text>
<polygon fill="none" stroke="black" points="29.75,-258.12 29.75,-281.88 71.5,-281.88 71.5,-258.12 29.75,-258.12"/>
<text text-anchor="start" x="33.75" y="-264.57" font-family="arial" font-size="14.00">usb&#45;a</text>
<polygon fill="none" stroke="black" points="71.5,-258.12 71.5,-281.88 109.5,-281.88 109.5,-258.12 71.5,-258.12"/>
<text text-anchor="start" x="75.5" y="-264.57" font-family="arial" font-size="14.00">5&#45;pin</text>
<polygon fill="none" stroke="black" points="0,-234.38 0,-258.12 84,-258.12 84,-234.38 0,-234.38"/>
<text text-anchor="start" x="9" y="-240.82" font-family="arial" font-size="14.00">VBUS (5V)</text>
<polygon fill="none" stroke="black" points="84,-234.38 84,-258.12 109.5,-258.12 109.5,-234.38 84,-234.38"/>
<text text-anchor="start" x="93" y="-240.82" font-family="arial" font-size="14.00">1</text>
<polygon fill="none" stroke="black" points="0,-210.62 0,-234.38 84,-234.38 84,-210.62 0,-210.62"/>
<text text-anchor="start" x="34.88" y="-217.07" font-family="arial" font-size="14.00">D&#45;</text>
<polygon fill="none" stroke="black" points="84,-210.62 84,-234.38 109.5,-234.38 109.5,-210.62 84,-210.62"/>
<text text-anchor="start" x="93" y="-217.07" font-family="arial" font-size="14.00">2</text>
<polygon fill="none" stroke="black" points="0,-186.88 0,-210.62 84,-210.62 84,-186.88 0,-186.88"/>
<text text-anchor="start" x="33" y="-193.32" font-family="arial" font-size="14.00">D+</text>
<polygon fill="none" stroke="black" points="84,-186.88 84,-210.62 109.5,-210.62 109.5,-186.88 84,-186.88"/>
<text text-anchor="start" x="93" y="-193.32" font-family="arial" font-size="14.00">3</text>
<polygon fill="none" stroke="black" points="0,-163.12 0,-186.88 84,-186.88 84,-163.12 0,-163.12"/>
<text text-anchor="start" x="26.62" y="-169.57" font-family="arial" font-size="14.00">GND</text>
<polygon fill="none" stroke="black" points="84,-163.12 84,-186.88 109.5,-186.88 109.5,-163.12 84,-163.12"/>
<text text-anchor="start" x="93" y="-169.57" font-family="arial" font-size="14.00">4</text>
<polygon fill="none" stroke="black" points="0,-139.38 0,-163.12 84,-163.12 84,-139.38 0,-139.38"/>
<text text-anchor="start" x="23.25" y="-145.82" font-family="arial" font-size="14.00">Shield</text>
<polygon fill="none" stroke="black" points="84,-139.38 84,-163.12 109.5,-163.12 109.5,-139.38 84,-139.38"/>
<text text-anchor="start" x="93" y="-145.82" font-family="arial" font-size="14.00">5</text>
</g>
<!-- USB_Cable -->
<g id="node3" class="node">
<title>USB_Cable</title>
<polygon fill="#ffffff" stroke="black" points="693.75,-364 253.5,-364 253.5,-85 693.75,-85 693.75,-364"/>
<polygon fill="none" stroke="black" points="253.5,-340.25 253.5,-364 693.75,-364 693.75,-340.25 253.5,-340.25"/>
<text text-anchor="start" x="438.38" y="-346.7" font-family="arial" font-size="14.00">USB_Cable</text>
<polygon fill="none" stroke="black" points="253.5,-316.5 253.5,-340.25 693.75,-340.25 693.75,-316.5 253.5,-316.5"/>
<text text-anchor="start" x="389.25" y="-322.95" font-family="arial" font-size="14.00">Generic: USB_CABLE_XYZ</text>
<polygon fill="none" stroke="black" points="253.5,-292.75 253.5,-316.5 317.88,-316.5 317.88,-292.75 253.5,-292.75"/>
<text text-anchor="start" x="278.56" y="-299.2" font-family="arial" font-size="14.00">4x</text>
<polygon fill="none" stroke="black" points="317.88,-292.75 317.88,-316.5 419.75,-316.5 419.75,-292.75 317.88,-292.75"/>
<text text-anchor="start" x="342.94" y="-299.2" font-family="arial" font-size="14.00">28 AWG</text>
<polygon fill="none" stroke="black" points="419.75,-292.75 419.75,-316.5 490.88,-316.5 490.88,-292.75 419.75,-292.75"/>
<text text-anchor="start" x="444.81" y="-299.2" font-family="arial" font-size="14.00">+ S</text>
<polygon fill="none" stroke="black" points="490.88,-292.75 490.88,-316.5 575.5,-316.5 575.5,-292.75 490.88,-292.75"/>
<text text-anchor="start" x="515.94" y="-299.2" font-family="arial" font-size="14.00">1.0 m</text>
<polygon fill="none" stroke="black" points="575.5,-292.75 575.5,-316.5 643.62,-316.5 643.62,-292.75 575.5,-292.75"/>
<text text-anchor="start" x="600.56" y="-299.2" font-family="arial" font-size="14.00">BK</text>
<polygon fill="#000000" stroke="none" points="643.62,-292.75 643.62,-316.5 693.75,-316.5 693.75,-292.75 643.62,-292.75"/>
<polygon fill="none" stroke="black" points="643.62,-292.75 643.62,-316.5 693.75,-316.5 693.75,-292.75 643.62,-292.75"/>
<text text-anchor="start" x="322.62" y="-277.45" font-family="arial" font-size="14.00"> </text>
<text text-anchor="start" x="255.5" y="-257.7" font-family="arial" font-size="14.00">USB_RPi:1:VBUS (5V)</text>
<text text-anchor="start" x="397.5" y="-257.7" font-family="arial" font-size="14.00"> &#160;&#160;&#160;&#160;1:WH &#160;&#160;&#160;</text>
<text text-anchor="start" x="503.88" y="-257.7" font-family="arial" font-size="14.00">USB_C_Platine:A4:AREF</text>
<polygon fill="#000000" stroke="none" points="253.5,-251.25 253.5,-253.25 693.75,-253.25 693.75,-251.25 253.5,-251.25"/>
<polygon fill="#ffffff" stroke="none" points="253.5,-249.25 253.5,-251.25 693.75,-251.25 693.75,-249.25 253.5,-249.25"/>
<polygon fill="#000000" stroke="none" points="253.5,-247.25 253.5,-249.25 693.75,-249.25 693.75,-247.25 253.5,-247.25"/>
<text text-anchor="start" x="281.38" y="-231.95" font-family="arial" font-size="14.00">USB_RPi:2:D&#45;</text>
<text text-anchor="start" x="399.75" y="-231.95" font-family="arial" font-size="14.00"> &#160;&#160;&#160;&#160;2:BN &#160;&#160;&#160;</text>
<text text-anchor="start" x="500.88" y="-231.95" font-family="arial" font-size="14.00">USB_C_Platine:A7:USBD&#45;</text>
<polygon fill="#000000" stroke="none" points="253.5,-225.5 253.5,-227.5 693.75,-227.5 693.75,-225.5 253.5,-225.5"/>
<polygon fill="#895956" stroke="none" points="253.5,-223.5 253.5,-225.5 693.75,-225.5 693.75,-223.5 253.5,-223.5"/>
<polygon fill="#000000" stroke="none" points="253.5,-221.5 253.5,-223.5 693.75,-223.5 693.75,-221.5 253.5,-221.5"/>
<text text-anchor="start" x="279.5" y="-206.2" font-family="arial" font-size="14.00">USB_RPi:3:D+</text>
<text text-anchor="start" x="398.62" y="-206.2" font-family="arial" font-size="14.00"> &#160;&#160;&#160;&#160;3:GN &#160;&#160;&#160;</text>
<text text-anchor="start" x="499" y="-206.2" font-family="arial" font-size="14.00">USB_C_Platine:A6:USBD+</text>
<polygon fill="#000000" stroke="none" points="253.5,-199.75 253.5,-201.75 693.75,-201.75 693.75,-199.75 253.5,-199.75"/>
<polygon fill="#00ff00" stroke="none" points="253.5,-197.75 253.5,-199.75 693.75,-199.75 693.75,-197.75 253.5,-197.75"/>
<polygon fill="#000000" stroke="none" points="253.5,-195.75 253.5,-197.75 693.75,-197.75 693.75,-195.75 253.5,-195.75"/>
<text text-anchor="start" x="273.12" y="-180.45" font-family="arial" font-size="14.00">USB_RPi:4:GND</text>
<text text-anchor="start" x="400.12" y="-180.45" font-family="arial" font-size="14.00"> &#160;&#160;&#160;&#160;4:YE &#160;&#160;&#160;</text>
<text text-anchor="start" x="506.5" y="-180.45" font-family="arial" font-size="14.00">USB_C_Platine:A1:GND</text>
<polygon fill="#000000" stroke="none" points="253.5,-174 253.5,-176 693.75,-176 693.75,-174 253.5,-174"/>
<polygon fill="#ffff00" stroke="none" points="253.5,-172 253.5,-174 693.75,-174 693.75,-172 253.5,-172"/>
<polygon fill="#000000" stroke="none" points="253.5,-170 253.5,-172 693.75,-172 693.75,-170 253.5,-170"/>
<text text-anchor="start" x="322.62" y="-154.7" font-family="arial" font-size="14.00"> </text>
<text text-anchor="start" x="269.75" y="-134.95" font-family="arial" font-size="14.00">USB_RPi:5:Shield</text>
<text text-anchor="start" x="412.88" y="-134.95" font-family="arial" font-size="14.00">Shield</text>
<text text-anchor="start" x="469.75" y="-134.95" font-family="arial" font-size="14.00">USB_C_Platine:S1:Net&#45;(P1&#45;SHIELD)</text>
<polygon fill="#000000" stroke="none" points="253.5,-128.5 253.5,-130.5 693.75,-130.5 693.75,-128.5 253.5,-128.5"/>
<text text-anchor="start" x="322.62" y="-113.2" font-family="arial" font-size="14.00"> </text>
<polygon fill="none" stroke="black" points="253.5,-85 253.5,-108.75 693.75,-108.75 693.75,-85 253.5,-85"/>
<text text-anchor="start" x="338.62" y="-91.45" font-family="arial" font-size="14.00">USB&#45;Kabel für Daten&#45; und Stromübertragung</text>
</g>
<!-- USB_RPi&#45;&#45;USB_Cable -->
<g id="edge1" class="edge">
<title>USB_RPi:e&#45;&#45;USB_Cable:w</title>
<path fill="none" stroke="#000000" stroke-width="2" d="M109.5,-244.25C174.01,-244.31 189.96,-248.31 253.5,-248.25"/>
<path fill="none" stroke="#ffffff" stroke-width="2" d="M109.5,-246.25C173.52,-246.25 189.48,-250.25 253.5,-250.25"/>
<path fill="none" stroke="#000000" stroke-width="2" d="M109.5,-248.25C173.04,-248.19 188.99,-252.19 253.5,-252.25"/>
</g>
<!-- USB_RPi&#45;&#45;USB_Cable -->
<g id="edge2" class="edge">
<title>USB_RPi:e&#45;&#45;USB_Cable:w</title>
<path fill="none" stroke="#000000" stroke-width="2" d="M109.5,-220.5C173.75,-220.52 189.74,-222.52 253.5,-222.5"/>
<path fill="none" stroke="#895956" stroke-width="2" d="M109.5,-222.5C173.51,-222.5 189.49,-224.5 253.5,-224.5"/>
<path fill="none" stroke="#000000" stroke-width="2" d="M109.5,-224.5C173.26,-224.48 189.25,-226.48 253.5,-226.5"/>
</g>
<!-- USB_RPi&#45;&#45;USB_Cable -->
<g id="edge3" class="edge">
<title>USB_RPi:e&#45;&#45;USB_Cable:w</title>
<path fill="none" stroke="#000000" stroke-width="2" d="M109.5,-196.75C173.5,-196.75 189.5,-196.75 253.5,-196.75"/>
<path fill="none" stroke="#00ff00" stroke-width="2" d="M109.5,-198.75C173.5,-198.75 189.5,-198.75 253.5,-198.75"/>
<path fill="none" stroke="#000000" stroke-width="2" d="M109.5,-200.75C173.5,-200.75 189.5,-200.75 253.5,-200.75"/>
</g>
<!-- USB_RPi&#45;&#45;USB_Cable -->
<g id="edge4" class="edge">
<title>USB_RPi:e&#45;&#45;USB_Cable:w</title>
<path fill="none" stroke="#000000" stroke-width="2" d="M109.5,-173C173.26,-173.02 189.25,-171.02 253.5,-171"/>
<path fill="none" stroke="#ffff00" stroke-width="2" d="M109.5,-175C173.51,-175 189.49,-173 253.5,-173"/>
<path fill="none" stroke="#000000" stroke-width="2" d="M109.5,-177C173.75,-176.98 189.74,-174.98 253.5,-175"/>
</g>
<!-- USB_RPi&#45;&#45;USB_Cable -->
<g id="edge17" class="edge">
<title>USB_RPi:e&#45;&#45;USB_Cable:w</title>
<path fill="none" stroke="#000000" stroke-width="2" d="M109.5,-151.25C174.23,-151.25 188.77,-129.5 253.5,-129.5"/>
</g>
<!-- USB_C_Platine -->
<g id="node2" class="node">
<title>USB_C_Platine</title>
<polygon fill="#ffffff" stroke="black" points="1113.75,-475 837.75,-475 837.75,0 1113.75,0 1113.75,-475"/>
<polygon fill="none" stroke="black" points="837.75,-451.25 837.75,-475 1113.75,-475 1113.75,-451.25 837.75,-451.25"/>
<text text-anchor="start" x="928.88" y="-457.7" font-family="arial" font-size="14.00">USB_C_Platine</text>
<polygon fill="none" stroke="black" points="837.75,-427.5 837.75,-451.25 988.88,-451.25 988.88,-427.5 837.75,-427.5"/>
<text text-anchor="start" x="848.06" y="-433.95" font-family="arial" font-size="14.00">GCT: USB4085&#45;GF&#45;A</text>
<polygon fill="none" stroke="black" points="988.88,-427.5 988.88,-451.25 1113.75,-451.25 1113.75,-427.5 988.88,-427.5"/>
<text text-anchor="start" x="999.19" y="-433.95" font-family="arial" font-size="14.00">Digikey: 9859662</text>
<polygon fill="none" stroke="black" points="837.75,-403.75 837.75,-427.5 1027.25,-427.5 1027.25,-403.75 837.75,-403.75"/>
<text text-anchor="start" x="841.75" y="-410.2" font-family="arial" font-size="14.00">USB_C_Receptacle_USB2.0 &#160;</text>
<polygon fill="none" stroke="black" points="1027.25,-403.75 1027.25,-427.5 1068.25,-427.5 1068.25,-403.75 1027.25,-403.75"/>
<text text-anchor="start" x="1031.25" y="-410.2" font-family="arial" font-size="14.00">usb&#45;c</text>
<polygon fill="none" stroke="black" points="1068.25,-403.75 1068.25,-427.5 1113.75,-427.5 1113.75,-403.75 1068.25,-403.75"/>
<text text-anchor="start" x="1072.25" y="-410.2" font-family="arial" font-size="14.00">17&#45;pin</text>
<polygon fill="none" stroke="black" points="837.75,-380 837.75,-403.75 935.62,-403.75 935.62,-380 837.75,-380"/>
<text text-anchor="start" x="878.44" y="-386.45" font-family="arial" font-size="14.00">A1</text>
<polygon fill="none" stroke="black" points="935.62,-380 935.62,-403.75 1113.75,-403.75 1113.75,-380 935.62,-380"/>
<text text-anchor="start" x="1009.31" y="-386.45" font-family="arial" font-size="14.00">GND</text>
<polygon fill="none" stroke="black" points="837.75,-356.25 837.75,-380 935.62,-380 935.62,-356.25 837.75,-356.25"/>
<text text-anchor="start" x="878.44" y="-362.7" font-family="arial" font-size="14.00">A4</text>
<polygon fill="none" stroke="black" points="935.62,-356.25 935.62,-380 1113.75,-380 1113.75,-356.25 935.62,-356.25"/>
<text text-anchor="start" x="1006.69" y="-362.7" font-family="arial" font-size="14.00">AREF</text>
<polygon fill="none" stroke="black" points="837.75,-332.5 837.75,-356.25 935.62,-356.25 935.62,-332.5 837.75,-332.5"/>
<text text-anchor="start" x="878.44" y="-338.95" font-family="arial" font-size="14.00">A5</text>
<polygon fill="none" stroke="black" points="935.62,-332.5 935.62,-356.25 1113.75,-356.25 1113.75,-332.5 935.62,-332.5"/>
<text text-anchor="start" x="983.44" y="-338.95" font-family="arial" font-size="14.00">Net&#45;(P1&#45;CC1)</text>
<polygon fill="none" stroke="black" points="837.75,-308.75 837.75,-332.5 935.62,-332.5 935.62,-308.75 837.75,-308.75"/>
<text text-anchor="start" x="878.44" y="-315.2" font-family="arial" font-size="14.00">A6</text>
<polygon fill="none" stroke="black" points="935.62,-308.75 935.62,-332.5 1113.75,-332.5 1113.75,-308.75 935.62,-308.75"/>
<text text-anchor="start" x="1001.81" y="-315.2" font-family="arial" font-size="14.00">USBD+</text>
<polygon fill="none" stroke="black" points="837.75,-285 837.75,-308.75 935.62,-308.75 935.62,-285 837.75,-285"/>
<text text-anchor="start" x="878.44" y="-291.45" font-family="arial" font-size="14.00">A7</text>
<polygon fill="none" stroke="black" points="935.62,-285 935.62,-308.75 1113.75,-308.75 1113.75,-285 935.62,-285"/>
<text text-anchor="start" x="1003.69" y="-291.45" font-family="arial" font-size="14.00">USBD&#45;</text>
<polygon fill="none" stroke="black" points="837.75,-261.25 837.75,-285 935.62,-285 935.62,-261.25 837.75,-261.25"/>
<text text-anchor="start" x="878.44" y="-267.7" font-family="arial" font-size="14.00">A8</text>
<polygon fill="none" stroke="black" points="935.62,-261.25 935.62,-285 1113.75,-285 1113.75,-261.25 935.62,-261.25"/>
<text text-anchor="start" x="1007.06" y="-267.7" font-family="arial" font-size="14.00">SBU1</text>
<polygon fill="none" stroke="black" points="837.75,-237.5 837.75,-261.25 935.62,-261.25 935.62,-237.5 837.75,-237.5"/>
<text text-anchor="start" x="878.44" y="-243.95" font-family="arial" font-size="14.00">A9</text>
<polygon fill="none" stroke="black" points="935.62,-237.5 935.62,-261.25 1113.75,-261.25 1113.75,-237.5 935.62,-237.5"/>
<text text-anchor="start" x="1006.69" y="-243.95" font-family="arial" font-size="14.00">AREF</text>
<polygon fill="none" stroke="black" points="837.75,-213.75 837.75,-237.5 935.62,-237.5 935.62,-213.75 837.75,-213.75"/>
<text text-anchor="start" x="874.69" y="-220.2" font-family="arial" font-size="14.00">A12</text>
<polygon fill="none" stroke="black" points="935.62,-213.75 935.62,-237.5 1113.75,-237.5 1113.75,-213.75 935.62,-213.75"/>
<text text-anchor="start" x="1009.31" y="-220.2" font-family="arial" font-size="14.00">GND</text>
<polygon fill="none" stroke="black" points="837.75,-190 837.75,-213.75 935.62,-213.75 935.62,-190 837.75,-190"/>
<text text-anchor="start" x="878.44" y="-196.45" font-family="arial" font-size="14.00">B1</text>
<polygon fill="none" stroke="black" points="935.62,-190 935.62,-213.75 1113.75,-213.75 1113.75,-190 935.62,-190"/>
<text text-anchor="start" x="1009.31" y="-196.45" font-family="arial" font-size="14.00">GND</text>
<polygon fill="none" stroke="black" points="837.75,-166.25 837.75,-190 935.62,-190 935.62,-166.25 837.75,-166.25"/>
<text text-anchor="start" x="878.44" y="-172.7" font-family="arial" font-size="14.00">B4</text>
<polygon fill="none" stroke="black" points="935.62,-166.25 935.62,-190 1113.75,-190 1113.75,-166.25 935.62,-166.25"/>
<text text-anchor="start" x="1006.69" y="-172.7" font-family="arial" font-size="14.00">AREF</text>
<polygon fill="none" stroke="black" points="837.75,-142.5 837.75,-166.25 935.62,-166.25 935.62,-142.5 837.75,-142.5"/>
<text text-anchor="start" x="878.44" y="-148.95" font-family="arial" font-size="14.00">B5</text>
<polygon fill="none" stroke="black" points="935.62,-142.5 935.62,-166.25 1113.75,-166.25 1113.75,-142.5 935.62,-142.5"/>
<text text-anchor="start" x="983.44" y="-148.95" font-family="arial" font-size="14.00">Net&#45;(P1&#45;CC2)</text>
<polygon fill="none" stroke="black" points="837.75,-118.75 837.75,-142.5 935.62,-142.5 935.62,-118.75 837.75,-118.75"/>
<text text-anchor="start" x="878.44" y="-125.2" font-family="arial" font-size="14.00">B6</text>
<polygon fill="none" stroke="black" points="935.62,-118.75 935.62,-142.5 1113.75,-142.5 1113.75,-118.75 935.62,-118.75"/>
<text text-anchor="start" x="1001.81" y="-125.2" font-family="arial" font-size="14.00">USBD+</text>
<polygon fill="none" stroke="black" points="837.75,-95 837.75,-118.75 935.62,-118.75 935.62,-95 837.75,-95"/>
<text text-anchor="start" x="878.44" y="-101.45" font-family="arial" font-size="14.00">B7</text>
<polygon fill="none" stroke="black" points="935.62,-95 935.62,-118.75 1113.75,-118.75 1113.75,-95 935.62,-95"/>
<text text-anchor="start" x="1003.69" y="-101.45" font-family="arial" font-size="14.00">USBD&#45;</text>
<polygon fill="none" stroke="black" points="837.75,-71.25 837.75,-95 935.62,-95 935.62,-71.25 837.75,-71.25"/>
<text text-anchor="start" x="878.44" y="-77.7" font-family="arial" font-size="14.00">B8</text>
<polygon fill="none" stroke="black" points="935.62,-71.25 935.62,-95 1113.75,-95 1113.75,-71.25 935.62,-71.25"/>
<text text-anchor="start" x="1007.06" y="-77.7" font-family="arial" font-size="14.00">SBU2</text>
<polygon fill="none" stroke="black" points="837.75,-47.5 837.75,-71.25 935.62,-71.25 935.62,-47.5 837.75,-47.5"/>
<text text-anchor="start" x="878.44" y="-53.95" font-family="arial" font-size="14.00">B9</text>
<polygon fill="none" stroke="black" points="935.62,-47.5 935.62,-71.25 1113.75,-71.25 1113.75,-47.5 935.62,-47.5"/>
<text text-anchor="start" x="1006.69" y="-53.95" font-family="arial" font-size="14.00">AREF</text>
<polygon fill="none" stroke="black" points="837.75,-23.75 837.75,-47.5 935.62,-47.5 935.62,-23.75 837.75,-23.75"/>
<text text-anchor="start" x="874.69" y="-30.2" font-family="arial" font-size="14.00">B12</text>
<polygon fill="none" stroke="black" points="935.62,-23.75 935.62,-47.5 1113.75,-47.5 1113.75,-23.75 935.62,-23.75"/>
<text text-anchor="start" x="1009.31" y="-30.2" font-family="arial" font-size="14.00">GND</text>
<polygon fill="none" stroke="black" points="837.75,0 837.75,-23.75 935.62,-23.75 935.62,0 837.75,0"/>
<text text-anchor="start" x="878.44" y="-6.45" font-family="arial" font-size="14.00">S1</text>
<polygon fill="none" stroke="black" points="935.62,0 935.62,-23.75 1113.75,-23.75 1113.75,0 935.62,0"/>
<text text-anchor="start" x="972.56" y="-6.45" font-family="arial" font-size="14.00">Net&#45;(P1&#45;SHIELD)</text>
</g>
<!-- USB_Cable&#45;&#45;USB_C_Platine -->
<g id="edge5" class="edge">
<title>USB_Cable:e&#45;&#45;USB_C_Platine:w</title>
<path fill="none" stroke="#000000" stroke-width="2" d="M693.75,-248.25C778.43,-250.61 757.01,-368.48 837.75,-366.13"/>
<path fill="none" stroke="#ffffff" stroke-width="2" d="M693.75,-250.25C776.46,-250.25 755.04,-368.12 837.75,-368.13"/>
<path fill="none" stroke="#000000" stroke-width="2" d="M693.75,-252.25C774.49,-249.89 753.07,-367.77 837.75,-370.12"/>
</g>
<!-- USB_Cable&#45;&#45;USB_C_Platine -->
<g id="edge6" class="edge">
<title>USB_Cable:e&#45;&#45;USB_C_Platine:w</title>
<path fill="none" stroke="#000000" stroke-width="2" d="M693.75,-222.5C767.38,-224.48 768.12,-296.85 837.75,-294.88"/>
<path fill="none" stroke="#895956" stroke-width="2" d="M693.75,-224.5C765.38,-224.5 766.12,-296.88 837.75,-296.88"/>
<path fill="none" stroke="#000000" stroke-width="2" d="M693.75,-226.5C763.38,-224.52 764.12,-296.9 837.75,-298.87"/>
</g>
<!-- USB_Cable&#45;&#45;USB_C_Platine -->
<g id="edge7" class="edge">
<title>USB_Cable:e&#45;&#45;USB_C_Platine:w</title>
<path fill="none" stroke="#000000" stroke-width="2" d="M693.75,-196.75C779.56,-199.13 755.87,-321.01 837.75,-318.63"/>
<path fill="none" stroke="#00ff00" stroke-width="2" d="M693.75,-198.75C777.6,-198.75 753.9,-320.62 837.75,-320.63"/>
<path fill="none" stroke="#000000" stroke-width="2" d="M693.75,-200.75C775.63,-198.37 751.94,-320.24 837.75,-322.62"/>
</g>
<!-- USB_Cable&#45;&#45;USB_C_Platine -->
<g id="edge8" class="edge">
<title>USB_Cable:e&#45;&#45;USB_C_Platine:w</title>
<path fill="none" stroke="#000000" stroke-width="2" d="M693.75,-248.25C757.64,-248.25 773.64,-247.38 837.75,-247.38"/>
<path fill="none" stroke="#ffffff" stroke-width="2" d="M693.75,-250.25C757.75,-250.25 773.75,-249.38 837.75,-249.37"/>
<path fill="none" stroke="#000000" stroke-width="2" d="M693.75,-252.25C757.86,-252.25 773.86,-251.37 837.75,-251.37"/>
</g>
<!-- USB_Cable&#45;&#45;USB_C_Platine -->
<g id="edge9" class="edge">
<title>USB_Cable:e&#45;&#45;USB_C_Platine:w</title>
<path fill="none" stroke="#000000" stroke-width="2" d="M693.75,-248.25C763.33,-250.23 764.17,-178.1 837.75,-176.13"/>
<path fill="none" stroke="#ffffff" stroke-width="2" d="M693.75,-250.25C765.33,-250.25 766.17,-178.12 837.75,-178.13"/>
<path fill="none" stroke="#000000" stroke-width="2" d="M693.75,-252.25C767.33,-250.27 768.17,-178.15 837.75,-180.12"/>
</g>
<!-- USB_Cable&#45;&#45;USB_C_Platine -->
<g id="edge10" class="edge">
<title>USB_Cable:e&#45;&#45;USB_C_Platine:w</title>
<path fill="none" stroke="#000000" stroke-width="2" d="M693.75,-222.5C774.42,-224.86 753.14,-107.23 837.75,-104.88"/>
<path fill="none" stroke="#895956" stroke-width="2" d="M693.75,-224.5C776.39,-224.5 755.11,-106.87 837.75,-106.88"/>
<path fill="none" stroke="#000000" stroke-width="2" d="M693.75,-226.5C778.36,-224.14 757.08,-106.52 837.75,-108.87"/>
</g>
<!-- USB_Cable&#45;&#45;USB_C_Platine -->
<g id="edge11" class="edge">
<title>USB_Cable:e&#45;&#45;USB_C_Platine:w</title>
<path fill="none" stroke="#000000" stroke-width="2" d="M693.75,-196.75C762.55,-198.68 764.95,-130.55 837.75,-128.63"/>
<path fill="none" stroke="#00ff00" stroke-width="2" d="M693.75,-198.75C764.55,-198.75 766.95,-130.62 837.75,-130.63"/>
<path fill="none" stroke="#000000" stroke-width="2" d="M693.75,-200.75C766.55,-198.82 768.95,-130.7 837.75,-132.62"/>
</g>
<!-- USB_Cable&#45;&#45;USB_C_Platine -->
<g id="edge12" class="edge">
<title>USB_Cable:e&#45;&#45;USB_C_Platine:w</title>
<path fill="none" stroke="#000000" stroke-width="2" d="M693.75,-248.25C798.13,-250.93 729.6,-60.05 837.75,-57.38"/>
<path fill="none" stroke="#ffffff" stroke-width="2" d="M693.75,-250.25C800.02,-250.25 731.48,-59.38 837.75,-59.38"/>
<path fill="none" stroke="#000000" stroke-width="2" d="M693.75,-252.25C801.9,-249.57 733.37,-58.7 837.75,-61.37"/>
</g>
<!-- USB_Cable&#45;&#45;USB_C_Platine -->
<g id="edge13" class="edge">
<title>USB_Cable:e&#45;&#45;USB_C_Platine:w</title>
<path fill="none" stroke="#000000" stroke-width="2" d="M693.75,-171C812.05,-173.75 723.16,-392.63 837.75,-389.88"/>
<path fill="none" stroke="#ffff00" stroke-width="2" d="M693.75,-173C810.19,-173 721.31,-391.87 837.75,-391.88"/>
<path fill="none" stroke="#000000" stroke-width="2" d="M693.75,-175C808.34,-172.25 719.45,-391.12 837.75,-393.87"/>
</g>
<!-- USB_Cable&#45;&#45;USB_C_Platine -->
<g id="edge14" class="edge">
<title>USB_Cable:e&#45;&#45;USB_C_Platine:w</title>
<path fill="none" stroke="#000000" stroke-width="2" d="M693.75,-171C763.87,-172.71 771.59,-225.33 837.75,-223.63"/>
<path fill="none" stroke="#ffff00" stroke-width="2" d="M693.75,-173C761.89,-173 769.61,-225.62 837.75,-225.63"/>
<path fill="none" stroke="#000000" stroke-width="2" d="M693.75,-175C759.91,-173.29 767.63,-225.92 837.75,-227.62"/>
</g>
<!-- USB_Cable&#45;&#45;USB_C_Platine -->
<g id="edge15" class="edge">
<title>USB_Cable:e&#45;&#45;USB_C_Platine:w</title>
<path fill="none" stroke="#000000" stroke-width="2" d="M693.75,-171C760.84,-172.16 774.29,-201.03 837.75,-199.88"/>
<path fill="none" stroke="#ffff00" stroke-width="2" d="M693.75,-173C759.02,-173 772.48,-201.88 837.75,-201.87"/>
<path fill="none" stroke="#000000" stroke-width="2" d="M693.75,-175C757.21,-173.84 770.66,-202.72 837.75,-203.87"/>
</g>
<!-- USB_Cable&#45;&#45;USB_C_Platine -->
<g id="edge16" class="edge">
<title>USB_Cable:e&#45;&#45;USB_C_Platine:w</title>
<path fill="none" stroke="#000000" stroke-width="2" d="M693.75,-171C780.26,-173.47 747.35,-36.09 837.75,-33.63"/>
<path fill="none" stroke="#ffff00" stroke-width="2" d="M693.75,-173C782.2,-173 749.3,-35.63 837.75,-35.63"/>
<path fill="none" stroke="#000000" stroke-width="2" d="M693.75,-175C784.15,-172.53 751.24,-35.16 837.75,-37.62"/>
</g>
<!-- USB_Cable&#45;&#45;USB_C_Platine -->
<g id="edge18" class="edge">
<title>USB_Cable:e&#45;&#45;USB_C_Platine:w</title>
<path fill="none" stroke="#000000" stroke-width="2" d="M693.75,-129.5C776.39,-129.5 755.11,-11.88 837.75,-11.88"/>
</g>
</g>
</svg>
