<?xml version="1.0" encoding="UTF-8" standalone="no"?>
<!DOCTYPE svg PUBLIC "-//W3C//DTD SVG 1.1//EN"
 "http://www.w3.org/Graphics/SVG/1.1/DTD/svg11.dtd">
<!-- Generated by graphviz version 12.2.1 (20241206.2353)
 -->
<!-- Pages: 1 -->
<svg width="826pt" height="198pt"
 viewBox="0.00 0.00 826.00 198.00" xmlns="http://www.w3.org/2000/svg" xmlns:xlink="http://www.w3.org/1999/xlink">
<g id="graph0" class="graph" transform="scale(1 1) rotate(0) translate(4 194)">
<polygon fill="#ffffff" stroke="none" points="-4,4 -4,-194 822,-194 822,4 -4,4"/>
<!-- J7 -->
<g id="node1" class="node">
<title>J7</title>
<polygon fill="#ffffff" stroke="black" points="132.25,-158.25 0,-158.25 0,-15.75 132.25,-15.75 132.25,-158.25"/>
<polygon fill="none" stroke="black" points="0,-134.5 0,-158.25 132.25,-158.25 132.25,-134.5 0,-134.5"/>
<text text-anchor="start" x="59" y="-140.95" font-family="arial" font-size="14.00">J7</text>
<polygon fill="none" stroke="black" points="0,-110.75 0,-134.5 94.25,-134.5 94.25,-110.75 0,-110.75"/>
<text text-anchor="start" x="4" y="-117.2" font-family="arial" font-size="14.00">Stepper Motor</text>
<polygon fill="none" stroke="black" points="94.25,-110.75 94.25,-134.5 132.25,-134.5 132.25,-110.75 94.25,-110.75"/>
<text text-anchor="start" x="98.25" y="-117.2" font-family="arial" font-size="14.00">4&#45;pin</text>
<polygon fill="none" stroke="black" points="0,-87 0,-110.75 87.5,-110.75 87.5,-87 0,-87"/>
<text text-anchor="start" x="18.62" y="-93.45" font-family="arial" font-size="14.00">STP_B2</text>
<polygon fill="none" stroke="black" points="87.5,-87 87.5,-110.75 132.25,-110.75 132.25,-87 87.5,-87"/>
<text text-anchor="start" x="106.12" y="-93.45" font-family="arial" font-size="14.00">1</text>
<polygon fill="none" stroke="black" points="0,-63.25 0,-87 87.5,-87 87.5,-63.25 0,-63.25"/>
<text text-anchor="start" x="18.62" y="-69.7" font-family="arial" font-size="14.00">STP_B1</text>
<polygon fill="none" stroke="black" points="87.5,-63.25 87.5,-87 132.25,-87 132.25,-63.25 87.5,-63.25"/>
<text text-anchor="start" x="106.12" y="-69.7" font-family="arial" font-size="14.00">2</text>
<polygon fill="none" stroke="black" points="0,-39.5 0,-63.25 87.5,-63.25 87.5,-39.5 0,-39.5"/>
<text text-anchor="start" x="18.62" y="-45.95" font-family="arial" font-size="14.00">STP_A2</text>
<polygon fill="none" stroke="black" points="87.5,-39.5 87.5,-63.25 132.25,-63.25 132.25,-39.5 87.5,-39.5"/>
<text text-anchor="start" x="106.12" y="-45.95" font-family="arial" font-size="14.00">3</text>
<polygon fill="none" stroke="black" points="0,-15.75 0,-39.5 87.5,-39.5 87.5,-15.75 0,-15.75"/>
<text text-anchor="start" x="18.62" y="-22.2" font-family="arial" font-size="14.00">STP_A1</text>
<polygon fill="none" stroke="black" points="87.5,-15.75 87.5,-39.5 132.25,-39.5 132.25,-15.75 87.5,-15.75"/>
<text text-anchor="start" x="106.12" y="-22.2" font-family="arial" font-size="14.00">4</text>
</g>
<!-- W1 -->
<g id="node3" class="node">
<title>W1</title>
<polygon fill="#ffffff" stroke="black" points="557.5,-190 276.25,-190 276.25,0 557.5,0 557.5,-190"/>
<polygon fill="none" stroke="black" points="276.25,-166.25 276.25,-190 557.5,-190 557.5,-166.25 276.25,-166.25"/>
<text text-anchor="start" x="406.38" y="-172.7" font-family="arial" font-size="14.00">W1</text>
<polygon fill="none" stroke="black" points="276.25,-142.5 276.25,-166.25 352.25,-166.25 352.25,-142.5 276.25,-142.5"/>
<text text-anchor="start" x="307.12" y="-148.95" font-family="arial" font-size="14.00">4x</text>
<polygon fill="none" stroke="black" points="352.25,-142.5 352.25,-166.25 472.5,-166.25 472.5,-142.5 352.25,-142.5"/>
<text text-anchor="start" x="383.12" y="-148.95" font-family="arial" font-size="14.00">0.25 mm²</text>
<polygon fill="none" stroke="black" points="472.5,-142.5 472.5,-166.25 557.5,-166.25 557.5,-142.5 472.5,-142.5"/>
<text text-anchor="start" x="503.38" y="-148.95" font-family="arial" font-size="14.00">1 m</text>
<text text-anchor="start" x="316.12" y="-127.2" font-family="arial" font-size="14.00"> </text>
<text text-anchor="start" x="278.25" y="-107.45" font-family="arial" font-size="14.00">J7:1:STP_B2</text>
<text text-anchor="start" x="363.62" y="-107.45" font-family="arial" font-size="14.00"> &#160;&#160;&#160;&#160;1:BN &#160;&#160;&#160;</text>
<text text-anchor="start" x="433.25" y="-107.45" font-family="arial" font-size="14.00">J3:1:Net&#45;(U7&#45;OUT1)</text>
<polygon fill="#000000" stroke="none" points="276.25,-101 276.25,-103 557.5,-103 557.5,-101 276.25,-101"/>
<polygon fill="#895956" stroke="none" points="276.25,-99 276.25,-101 557.5,-101 557.5,-99 276.25,-99"/>
<polygon fill="#000000" stroke="none" points="276.25,-97 276.25,-99 557.5,-99 557.5,-97 276.25,-97"/>
<text text-anchor="start" x="278.25" y="-81.7" font-family="arial" font-size="14.00">J7:2:STP_B1</text>
<text text-anchor="start" x="363.25" y="-81.7" font-family="arial" font-size="14.00"> &#160;&#160;&#160;&#160;2:RD &#160;&#160;&#160;</text>
<text text-anchor="start" x="433.25" y="-81.7" font-family="arial" font-size="14.00">J3:1:Net&#45;(U7&#45;OUT1)</text>
<polygon fill="#000000" stroke="none" points="276.25,-75.25 276.25,-77.25 557.5,-77.25 557.5,-75.25 276.25,-75.25"/>
<polygon fill="#ff0000" stroke="none" points="276.25,-73.25 276.25,-75.25 557.5,-75.25 557.5,-73.25 276.25,-73.25"/>
<polygon fill="#000000" stroke="none" points="276.25,-71.25 276.25,-73.25 557.5,-73.25 557.5,-71.25 276.25,-71.25"/>
<text text-anchor="start" x="278.25" y="-55.95" font-family="arial" font-size="14.00">J7:3:STP_A2</text>
<text text-anchor="start" x="361.75" y="-55.95" font-family="arial" font-size="14.00"> &#160;&#160;&#160;&#160;3:OG &#160;&#160;&#160;</text>
<text text-anchor="start" x="433.25" y="-55.95" font-family="arial" font-size="14.00">J3:2:Net&#45;(U7&#45;OUT2)</text>
<polygon fill="#000000" stroke="none" points="276.25,-49.5 276.25,-51.5 557.5,-51.5 557.5,-49.5 276.25,-49.5"/>
<polygon fill="#ff8000" stroke="none" points="276.25,-47.5 276.25,-49.5 557.5,-49.5 557.5,-47.5 276.25,-47.5"/>
<polygon fill="#000000" stroke="none" points="276.25,-45.5 276.25,-47.5 557.5,-47.5 557.5,-45.5 276.25,-45.5"/>
<text text-anchor="start" x="364" y="-30.2" font-family="arial" font-size="14.00"> &#160;&#160;&#160;&#160;4:YE &#160;&#160;&#160;</text>
<polygon fill="#000000" stroke="none" points="276.25,-23.75 276.25,-25.75 557.5,-25.75 557.5,-23.75 276.25,-23.75"/>
<polygon fill="#ffff00" stroke="none" points="276.25,-21.75 276.25,-23.75 557.5,-23.75 557.5,-21.75 276.25,-21.75"/>
<polygon fill="#000000" stroke="none" points="276.25,-19.75 276.25,-21.75 557.5,-21.75 557.5,-19.75 276.25,-19.75"/>
<text text-anchor="start" x="316.12" y="-4.45" font-family="arial" font-size="14.00"> </text>
</g>
<!-- J7&#45;&#45;W1 -->
<g id="edge1" class="edge">
<title>J7:e&#45;&#45;W1:w</title>
<path fill="none" stroke="#000000" stroke-width="2" d="M132.25,-96.88C196.39,-96.88 212.39,-98 276.25,-98"/>
<path fill="none" stroke="#895956" stroke-width="2" d="M132.25,-98.88C196.25,-98.88 212.25,-100 276.25,-100"/>
<path fill="none" stroke="#000000" stroke-width="2" d="M132.25,-100.87C196.11,-100.87 212.11,-102 276.25,-102"/>
</g>
<!-- J7&#45;&#45;W1 -->
<g id="edge3" class="edge">
<title>J7:e&#45;&#45;W1:w</title>
<path fill="none" stroke="#000000" stroke-width="2" d="M132.25,-73.13C196.14,-73.13 212.14,-72.25 276.25,-72.25"/>
<path fill="none" stroke="#ff0000" stroke-width="2" d="M132.25,-75.13C196.25,-75.12 212.25,-74.25 276.25,-74.25"/>
<path fill="none" stroke="#000000" stroke-width="2" d="M132.25,-77.12C196.36,-77.12 212.36,-76.25 276.25,-76.25"/>
</g>
<!-- J7&#45;&#45;W1 -->
<g id="edge5" class="edge">
<title>J7:e&#45;&#45;W1:w</title>
<path fill="none" stroke="#000000" stroke-width="2" d="M132.25,-49.38C195.91,-49.41 211.88,-46.53 276.25,-46.5"/>
<path fill="none" stroke="#ff8000" stroke-width="2" d="M132.25,-51.37C196.26,-51.38 212.24,-48.5 276.25,-48.5"/>
<path fill="none" stroke="#000000" stroke-width="2" d="M132.25,-53.37C196.62,-53.34 212.59,-50.47 276.25,-50.5"/>
</g>
<!-- J3 -->
<g id="node2" class="node">
<title>J3</title>
<polygon fill="#ffffff" stroke="black" points="818,-134.5 701.5,-134.5 701.5,-39.5 818,-39.5 818,-134.5"/>
<polygon fill="none" stroke="black" points="701.5,-110.75 701.5,-134.5 818,-134.5 818,-110.75 701.5,-110.75"/>
<text text-anchor="start" x="752.62" y="-117.2" font-family="arial" font-size="14.00">J3</text>
<polygon fill="none" stroke="black" points="701.5,-87 701.5,-110.75 761.62,-110.75 761.62,-87 701.5,-87"/>
<text text-anchor="start" x="714.69" y="-93.45" font-family="arial" font-size="14.00">FAN0</text>
<polygon fill="none" stroke="black" points="761.62,-87 761.62,-110.75 818,-110.75 818,-87 761.62,-87"/>
<text text-anchor="start" x="774.81" y="-93.45" font-family="arial" font-size="14.00">2&#45;pin</text>
<polygon fill="none" stroke="black" points="701.5,-63.25 701.5,-87 717,-87 717,-63.25 701.5,-63.25"/>
<text text-anchor="start" x="705.5" y="-69.7" font-family="arial" font-size="14.00">1</text>
<polygon fill="none" stroke="black" points="717,-63.25 717,-87 818,-87 818,-63.25 717,-63.25"/>
<text text-anchor="start" x="721" y="-69.7" font-family="arial" font-size="14.00">Net&#45;(U7&#45;OUT1)</text>
<polygon fill="none" stroke="black" points="701.5,-39.5 701.5,-63.25 717,-63.25 717,-39.5 701.5,-39.5"/>
<text text-anchor="start" x="705.5" y="-45.95" font-family="arial" font-size="14.00">2</text>
<polygon fill="none" stroke="black" points="717,-39.5 717,-63.25 818,-63.25 818,-39.5 717,-39.5"/>
<text text-anchor="start" x="721" y="-45.95" font-family="arial" font-size="14.00">Net&#45;(U7&#45;OUT2)</text>
</g>
<!-- W1&#45;&#45;J3 -->
<g id="edge2" class="edge">
<title>W1:e&#45;&#45;J3:w</title>
<path fill="none" stroke="#000000" stroke-width="2" d="M557.5,-98C620.71,-99.01 634.81,-74.14 701.5,-73.13"/>
<path fill="none" stroke="#895956" stroke-width="2" d="M557.5,-100C622.45,-100 636.55,-75.12 701.5,-75.13"/>
<path fill="none" stroke="#000000" stroke-width="2" d="M557.5,-102C624.19,-100.99 638.29,-76.11 701.5,-77.12"/>
</g>
<!-- W1&#45;&#45;J3 -->
<g id="edge4" class="edge">
<title>W1:e&#45;&#45;J3:w</title>
<path fill="none" stroke="#000000" stroke-width="2" d="M557.5,-72.25C621.61,-72.25 637.61,-73.13 701.5,-73.13"/>
<path fill="none" stroke="#ff0000" stroke-width="2" d="M557.5,-74.25C621.5,-74.25 637.5,-75.12 701.5,-75.13"/>
<path fill="none" stroke="#000000" stroke-width="2" d="M557.5,-76.25C621.39,-76.25 637.39,-77.12 701.5,-77.12"/>
</g>
<!-- W1&#45;&#45;J3 -->
<g id="edge6" class="edge">
<title>W1:e&#45;&#45;J3:w</title>
<path fill="none" stroke="#000000" stroke-width="2" d="M557.5,-46.5C621.87,-46.53 637.84,-49.41 701.5,-49.38"/>
<path fill="none" stroke="#ff8000" stroke-width="2" d="M557.5,-48.5C621.51,-48.5 637.49,-51.38 701.5,-51.37"/>
<path fill="none" stroke="#000000" stroke-width="2" d="M557.5,-50.5C621.16,-50.47 637.13,-53.34 701.5,-53.37"/>
</g>
</g>
</svg>
